<?xml version="1.0" standalone="no"?>
<!DOCTYPE svg PUBLIC "-//W3C//DTD SVG 1.1//EN" "http://www.w3.org/Graphics/SVG/1.1/DTD/svg11.dtd" >
<svg xmlns="http://www.w3.org/2000/svg" xmlns:xlink="http://www.w3.org/1999/xlink" version="1.1">
<metadata></metadata>
<defs>
<font id="th_charmonmanbold" horiz-adv-x="0" >
<font-face units-per-em="1000" ascent="800" descent="-200" />
<missing-glyph horiz-adv-x="250" />
<glyph unicode="A&#x300;" horiz-adv-x="810" d="M579 657q0 -3 -4 -7t-9.5 -7.5t-10 -5.5t-5.5 0q-15 19 -33 39.5t-35.5 41t-33.5 40.5t-27 38q0 3 6 9t13.5 11.5t14.5 10t8 4.5h6t6 -3q9 -17 18 -34.5t21 -38t27.5 -44.5t37.5 -54zM309 289q5 -12 29.5 -15.5t88.5 -3.5q43 0 70 -3.5t39 -6.5q15 -4 17 0t3 13 q2 27 -2 66t-8.5 76t-8.5 65t-4 33q-1 2 -3 7t-11 -3q-3 -3 -16 -15.5t-32 -31.5t-41.5 -42t-45 -47.5t-42 -48t-33.5 -43.5zM-5 -41q-6 25 5.5 44.5t35.5 46.5q204 244 328 378.5t162 164.5q9 6 30 6.5t34 -1.5q12 -2 15 -4t-1 -7q-7 -10 -7.5 -24.5t0.5 -31.5 q0 -11 1.5 -44t4 -77t5 -93.5t5.5 -94t6 -77.5t5 -44q8 -33 21 -40.5t24 -7.5q7 0 17 4.5t18 6.5q5 2 9.5 -3.5t7.5 -12.5t2.5 -13.5t-5.5 -8.5q-4 -1 -17.5 -6t-30.5 -10t-34.5 -10t-30.5 -7q-10 0 -28.5 7t-25.5 21q1 8 1.5 29t1 45t0.5 46t-1 30q-4 14 -13.5 26.5 t-35.5 20.5q-9 3 -40 3t-67 1t-70 4t-49 11q-40 -47 -71 -84t-54 -68t-39.5 -57.5t-28.5 -52.5q-6 -18 -6.5 -30t4.5 -35q-1 -5 -10.5 -12.5t-11.5 -5.5z" />
<glyph unicode="A&#x301;" horiz-adv-x="810" d="M781 805q2 -7 -1 -10q-22 -20 -44 -37.5t-45.5 -35.5t-48.5 -38.5t-52 -45.5q-3 -3 -8.5 0t-10 7.5t-7.5 9.5t-2 6q44 44 85.5 87t81.5 87q2 3 4.5 3h3.5q2 0 8.5 -4.5t14 -10t14 -11t7.5 -7.5zM309 289q5 -12 29.5 -15.5t88.5 -3.5q43 0 70 -3.5t39 -6.5q15 -4 17 0 t3 13q2 27 -2 66t-8.5 76t-8.5 65t-4 33q-1 2 -3 7t-11 -3q-3 -3 -16 -15.5t-32 -31.5t-41.5 -42t-45 -47.5t-42 -48t-33.5 -43.5zM-5 -41q-6 25 5.5 44.5t35.5 46.5q204 244 328 378.5t162 164.5q9 6 30 6.5t34 -1.5q12 -2 15 -4t-1 -7q-7 -10 -7.5 -24.5t0.5 -31.5 q0 -11 1.5 -44t4 -77t5 -93.5t5.5 -94t6 -77.5t5 -44q8 -33 21 -40.5t24 -7.5q7 0 17 4.5t18 6.5q5 2 9.5 -3.5t7.5 -12.5t2.5 -13.5t-5.5 -8.5q-4 -1 -17.5 -6t-30.5 -10t-34.5 -10t-30.5 -7q-10 0 -28.5 7t-25.5 21q1 8 1.5 29t1 45t0.5 46t-1 30q-4 14 -13.5 26.5 t-35.5 20.5q-9 3 -40 3t-67 1t-70 4t-49 11q-40 -47 -71 -84t-54 -68t-39.5 -57.5t-28.5 -52.5q-6 -18 -6.5 -30t4.5 -35q-1 -5 -10.5 -12.5t-11.5 -5.5z" />
<glyph unicode="A&#x303;" horiz-adv-x="810" d="M724 748q2 -18 -2.5 -34.5t-13.5 -29.5t-22.5 -21t-30.5 -8q-21 0 -40 8t-36.5 18t-34 18t-31.5 8q-11 0 -17 -3t-9.5 -8t-6 -12.5t-6.5 -15.5q-3 -5 -12 -7t-18.5 -1t-16 5.5t-5.5 11.5q2 10 9.5 25t19 29.5t28 25t36.5 10.5q17 0 34.5 -9t34 -19.5t32 -19.5t28.5 -9 q17 0 26.5 10.5t4.5 27.5q-1 3 6 6.5t16 4.5t17.5 -1t9.5 -10zM309 289q5 -12 29.5 -15.5t88.5 -3.5q43 0 70 -3.5t39 -6.5q15 -4 17 0t3 13q2 27 -2 66t-8.5 76t-8.5 65t-4 33q-1 2 -3 7t-11 -3q-3 -3 -16 -15.5t-32 -31.5t-41.5 -42t-45 -47.5t-42 -48t-33.5 -43.5z M-5 -41q-6 25 5.5 44.5t35.5 46.5q204 244 328 378.5t162 164.5q9 6 30 6.5t34 -1.5q12 -2 15 -4t-1 -7q-7 -10 -7.5 -24.5t0.5 -31.5q0 -11 1.5 -44t4 -77t5 -93.5t5.5 -94t6 -77.5t5 -44q8 -33 21 -40.5t24 -7.5q7 0 17 4.5t18 6.5q5 2 9.5 -3.5t7.5 -12.5t2.5 -13.5 t-5.5 -8.5q-4 -1 -17.5 -6t-30.5 -10t-34.5 -10t-30.5 -7q-10 0 -28.5 7t-25.5 21q1 8 1.5 29t1 45t0.5 46t-1 30q-4 14 -13.5 26.5t-35.5 20.5q-9 3 -40 3t-67 1t-70 4t-49 11q-40 -47 -71 -84t-54 -68t-39.5 -57.5t-28.5 -52.5q-6 -18 -6.5 -30t4.5 -35q-1 -5 -10.5 -12.5 t-11.5 -5.5z" />
<glyph unicode="E&#x300;" horiz-adv-x="645" d="M654 128q4 3 7 -5q-3 -4 -6 -14t-5.5 -22t-4 -22.5t-2.5 -14.5q-8 -17 -34 -24q-32 -8 -69.5 -14.5t-76.5 -11.5t-78 -8t-73 -3q-54 0 -92 3.5t-62 12t-35.5 22.5t-12.5 34q0 19 6 35q1 3 6 17.5t12.5 35t15.5 44t15 44.5t11.5 36.5t4.5 19.5q0 3 -4 4.5t-20 1.5 q-5 0 -9 4q0 3 3 9t8.5 12.5t11 11.5t9.5 6q28 5 37 33q3 9 10.5 33.5t15.5 50.5t13.5 48t3.5 28q-2 5 -9 5q-41 0 -81 -3t-67 -11l-3 1q-1 6 -0.5 16.5t2.5 21.5t4.5 20t4.5 11q42 -3 88.5 -4.5t88.5 -1.5q10 0 31.5 0.5t50 1.5t61.5 2.5t65.5 2.5t62 1.5t50.5 0.5 q7 0 9 -8q-1 -3 -4 -14t-6.5 -24.5t-6.5 -27t-4 -20.5l-5 1q-4 8 -8 14.5t-9 8.5q-44 6 -93 9t-98 3q-20 0 -28 -14q-14 -24 -23.5 -43t-17 -38.5t-15 -41.5t-17.5 -51q-3 -12 12 -12q5 0 10.5 -0.5t13.5 -1t21 -0.5h33q62 0 107 3.5t91 14.5l4 -4q-1 -3 -5 -10.5 t-7.5 -16.5t-6.5 -17t-3 -11q-1 -5 -11 -5q-35 0 -76 1t-83 1h-49.5t-32 -0.5t-20 -1t-13.5 -0.5q-10 0 -13 -8q-13 -41 -25 -75.5t-20 -76.5q-2 -9 -2 -17v-15q2 -37 28.5 -48t81.5 -11q35 0 83 5.5t96.5 16.5t91 27t65.5 37zM492 666q0 -3 -4 -7t-9.5 -7.5t-10 -5.5 t-5.5 0q-15 19 -33 39.5t-35.5 41t-33.5 40.5t-27 38q0 3 6 9t13.5 11.5t14.5 10t8 4.5h6t6 -3q9 -17 18 -34.5t21 -38t27.5 -44.5t37.5 -54z" />
<glyph unicode="E&#x301;" horiz-adv-x="645" d="M654 128q4 3 7 -5q-3 -4 -6 -14t-5.5 -22t-4 -22.5t-2.5 -14.5q-8 -17 -34 -24q-32 -8 -69.5 -14.5t-76.5 -11.5t-78 -8t-73 -3q-54 0 -92 3.5t-62 12t-35.5 22.5t-12.5 34q0 19 6 35q1 3 6 17.5t12.5 35t15.5 44t15 44.5t11.5 36.5t4.5 19.5q0 3 -4 4.5t-20 1.5 q-5 0 -9 4q0 3 3 9t8.5 12.5t11 11.5t9.5 6q28 5 37 33q3 9 10.5 33.5t15.5 50.5t13.5 48t3.5 28q-2 5 -9 5q-41 0 -81 -3t-67 -11l-3 1q-1 6 -0.5 16.5t2.5 21.5t4.5 20t4.5 11q42 -3 88.5 -4.5t88.5 -1.5q10 0 31.5 0.5t50 1.5t61.5 2.5t65.5 2.5t62 1.5t50.5 0.5 q7 0 9 -8q-1 -3 -4 -14t-6.5 -24.5t-6.5 -27t-4 -20.5l-5 1q-4 8 -8 14.5t-9 8.5q-44 6 -93 9t-98 3q-20 0 -28 -14q-14 -24 -23.5 -43t-17 -38.5t-15 -41.5t-17.5 -51q-3 -12 12 -12q5 0 10.5 -0.5t13.5 -1t21 -0.5h33q62 0 107 3.5t91 14.5l4 -4q-1 -3 -5 -10.5 t-7.5 -16.5t-6.5 -17t-3 -11q-1 -5 -11 -5q-35 0 -76 1t-83 1h-49.5t-32 -0.5t-20 -1t-13.5 -0.5q-10 0 -13 -8q-13 -41 -25 -75.5t-20 -76.5q-2 -9 -2 -17v-15q2 -37 28.5 -48t81.5 -11q35 0 83 5.5t96.5 16.5t91 27t65.5 37zM626 828q2 -7 -1 -10q-22 -20 -44 -37.5 t-45.5 -35.5t-48.5 -38.5t-52 -45.5q-3 -3 -8.5 0t-10 7.5t-7.5 9.5t-2 6q44 44 85.5 87t81.5 87q2 3 4.5 3h3.5q2 0 8.5 -4.5t14 -10t14 -11t7.5 -7.5z" />
<glyph unicode="I&#x300;" horiz-adv-x="366" d="M44 7q23 2 35 20q12 21 30 57.5t38.5 80.5t41 93.5t38 95.5t30 86.5t15.5 67.5q1 5 0.5 8.5t-1.5 7.5q-2 8 -13.5 11t-29.5 3q-17 0 -37 -1.5t-37 -4.5l-5 1q0 2 2 10t4 17t4 16.5t3 9.5q28 2 59.5 3.5t61.5 3t56 4t43 5.5q6 -2 8 -13.5t3 -15.5q2 -3 -6 -5 q-9 -3 -14.5 -7.5t-9.5 -16.5q-20 -51 -42.5 -114.5t-46 -131.5t-48.5 -136t-50 -128q-9 -16 -24.5 -24.5t-32.5 -11.5t-35 -2.5t-33 1.5q-1 1 -3 4zM363 654q0 -3 -4 -7t-9.5 -7.5t-10 -5.5t-5.5 0q-15 19 -33 39.5t-35.5 41t-33.5 40.5t-27 38q0 3 6 9t13.5 11.5t14.5 10 t8 4.5h6t6 -3q9 -17 18 -34.5t21 -38t27.5 -44.5t37.5 -54z" />
<glyph unicode="I&#x301;" horiz-adv-x="366" d="M44 7q23 2 35 20q12 21 30 57.5t38.5 80.5t41 93.5t38 95.5t30 86.5t15.5 67.5q1 5 0.5 8.5t-1.5 7.5q-2 8 -13.5 11t-29.5 3q-17 0 -37 -1.5t-37 -4.5l-5 1q0 2 2 10t4 17t4 16.5t3 9.5q28 2 59.5 3.5t61.5 3t56 4t43 5.5q6 -2 8 -13.5t3 -15.5q2 -3 -6 -5 q-9 -3 -14.5 -7.5t-9.5 -16.5q-20 -51 -42.5 -114.5t-46 -131.5t-48.5 -136t-50 -128q-9 -16 -24.5 -24.5t-32.5 -11.5t-35 -2.5t-33 1.5q-1 1 -3 4zM486 813q2 -7 -1 -10q-22 -20 -44 -37.5t-45.5 -35.5t-48.5 -38.5t-52 -45.5q-3 -3 -8.5 0t-10 7.5t-7.5 9.5t-2 6 q44 44 85.5 87t81.5 87q2 3 4.5 3h3.5q2 0 8.5 -4.5t14 -10t14 -11t7.5 -7.5z" />
<glyph unicode="O&#x300;" horiz-adv-x="786" d="M748 357q3 -75 -18 -142t-63 -117.5t-104 -80.5t-142 -30q-60 0 -114 13.5t-95.5 42t-67 73t-27.5 107.5q-3 85 19 155t65.5 120.5t107.5 78t146 27.5q56 0 107.5 -14.5t92 -44.5t66 -76.5t27.5 -111.5zM660 367q-3 90 -57.5 135.5t-142.5 45.5q-72 0 -122 -26.5t-80 -72 t-42.5 -107.5t-10.5 -133q2 -46 19 -77t45 -50t64 -27.5t75 -8.5q70 0 119 25t79 68.5t43 102t11 125.5zM537 674q0 -3 -4 -7t-9.5 -7.5t-10 -5.5t-5.5 0q-15 19 -33 39.5t-35.5 41t-33.5 40.5t-27 38q0 3 6 9t13.5 11.5t14.5 10t8 4.5h6t6 -3q9 -17 18 -34.5t21 -38 t27.5 -44.5t37.5 -54z" />
<glyph unicode="O&#x301;" horiz-adv-x="786" d="M748 357q3 -75 -18 -142t-63 -117.5t-104 -80.5t-142 -30q-60 0 -114 13.5t-95.5 42t-67 73t-27.5 107.5q-3 85 19 155t65.5 120.5t107.5 78t146 27.5q56 0 107.5 -14.5t92 -44.5t66 -76.5t27.5 -111.5zM660 367q-3 90 -57.5 135.5t-142.5 45.5q-72 0 -122 -26.5t-80 -72 t-42.5 -107.5t-10.5 -133q2 -46 19 -77t45 -50t64 -27.5t75 -8.5q70 0 119 25t79 68.5t43 102t11 125.5zM649 820q2 -7 -1 -10q-22 -20 -44 -37.5t-45.5 -35.5t-48.5 -38.5t-52 -45.5q-3 -3 -8.5 0t-10 7.5t-7.5 9.5t-2 6q44 44 85.5 87t81.5 87q2 3 4.5 3h3.5q2 0 8.5 -4.5 t14 -10t14 -11t7.5 -7.5z" />
<glyph unicode="O&#x303;" horiz-adv-x="786" d="M748 357q3 -75 -18 -142t-63 -117.5t-104 -80.5t-142 -30q-60 0 -114 13.5t-95.5 42t-67 73t-27.5 107.5q-3 85 19 155t65.5 120.5t107.5 78t146 27.5q56 0 107.5 -14.5t92 -44.5t66 -76.5t27.5 -111.5zM660 367q-3 90 -57.5 135.5t-142.5 45.5q-72 0 -122 -26.5t-80 -72 t-42.5 -107.5t-10.5 -133q2 -46 19 -77t45 -50t64 -27.5t75 -8.5q70 0 119 25t79 68.5t43 102t11 125.5zM643 757q2 -18 -2.5 -34.5t-13.5 -29.5t-22.5 -21t-30.5 -8q-21 0 -40 8t-36.5 18t-34 18t-31.5 8q-11 0 -17 -3t-9.5 -8t-6 -12.5t-6.5 -15.5q-3 -5 -12 -7t-18.5 -1 t-16 5.5t-5.5 11.5q2 10 9.5 25t19 29.5t28 25t36.5 10.5q17 0 34.5 -9t34 -19.5t32 -19.5t28.5 -9q17 0 26.5 10.5t4.5 27.5q-1 3 6 6.5t16 4.5t17.5 -1t9.5 -10z" />
<glyph unicode="U&#x300;" horiz-adv-x="863" d="M872 563q-6 -1 -17 -4.5t-16 -11.5q-44 -69 -71.5 -142.5t-51.5 -151.5q-10 -31 -20 -72.5t-9 -80.5q1 -28 14.5 -45.5t53.5 -17.5q17 0 35 6t33 12.5t25 12.5t11 6q4 0 8.5 -7.5t7.5 -16.5t4 -17t-3 -10q-35 -18 -73 -31t-81 -13q-32 0 -56 8t-39.5 20.5t-23.5 28.5 t-9 31q0 17 2.5 30.5t6 23t6.5 15.5t3 7q-2 1 -3 2t-3 1q-31 -47 -65.5 -78t-72.5 -49.5t-79.5 -26t-86.5 -7.5q-29 0 -59 8t-55 25.5t-41 43.5t-18 62q-1 42 17 93.5t42 103.5t47 100.5t31 83.5q3 9 1 16q-3 12 -23 12q-9 0 -21.5 -0.5t-31.5 -0.5q-9 0 -17 0.5t-16 0.5 q-5 0 -8.5 8.5t-4.5 18t0.5 18t7.5 8.5q14 0 44.5 -2t65.5 -2q32 0 55.5 1.5t41 4t30.5 4t25 1.5q2 0 3 -6t2 -13.5t1.5 -14.5t0.5 -8q3 -5 -4 -7q-11 -3 -27.5 -5.5t-24.5 -16.5q-11 -22 -26 -53.5t-31 -67t-31.5 -73t-28 -72t-19.5 -63.5t-7 -48q2 -53 31 -71.5t81 -18.5 q50 0 97 22t88.5 58t74.5 82t54 95q12 29 23.5 61t22.5 63t20.5 59t16.5 48q5 15 12.5 24.5t23.5 17.5q5 1 19.5 4.5t30.5 7t29.5 6t17.5 2.5q3 0 6 -6.5t4.5 -14.5t1 -14.5t-4.5 -6.5zM603 672q0 -3 -4 -7t-9.5 -7.5t-10 -5.5t-5.5 0q-15 19 -33 39.5t-35.5 41t-33.5 40.5 t-27 38q0 3 6 9t13.5 11.5t14.5 10t8 4.5h6t6 -3q9 -17 18 -34.5t21 -38t27.5 -44.5t37.5 -54z" />
<glyph unicode="U&#x301;" horiz-adv-x="863" d="M872 563q-6 -1 -17 -4.5t-16 -11.5q-44 -69 -71.5 -142.5t-51.5 -151.5q-10 -31 -20 -72.5t-9 -80.5q1 -28 14.5 -45.5t53.5 -17.5q17 0 35 6t33 12.5t25 12.5t11 6q4 0 8.5 -7.5t7.5 -16.5t4 -17t-3 -10q-35 -18 -73 -31t-81 -13q-32 0 -56 8t-39.5 20.5t-23.5 28.5 t-9 31q0 17 2.5 30.5t6 23t6.5 15.5t3 7q-2 1 -3 2t-3 1q-31 -47 -65.5 -78t-72.5 -49.5t-79.5 -26t-86.5 -7.5q-29 0 -59 8t-55 25.5t-41 43.5t-18 62q-1 42 17 93.5t42 103.5t47 100.5t31 83.5q3 9 1 16q-3 12 -23 12q-9 0 -21.5 -0.5t-31.5 -0.5q-9 0 -17 0.5t-16 0.5 q-5 0 -8.5 8.5t-4.5 18t0.5 18t7.5 8.5q14 0 44.5 -2t65.5 -2q32 0 55.5 1.5t41 4t30.5 4t25 1.5q2 0 3 -6t2 -13.5t1.5 -14.5t0.5 -8q3 -5 -4 -7q-11 -3 -27.5 -5.5t-24.5 -16.5q-11 -22 -26 -53.5t-31 -67t-31.5 -73t-28 -72t-19.5 -63.5t-7 -48q2 -53 31 -71.5t81 -18.5 q50 0 97 22t88.5 58t74.5 82t54 95q12 29 23.5 61t22.5 63t20.5 59t16.5 48q5 15 12.5 24.5t23.5 17.5q5 1 19.5 4.5t30.5 7t29.5 6t17.5 2.5q3 0 6 -6.5t4.5 -14.5t1 -14.5t-4.5 -6.5zM709 806q2 -7 -1 -10q-22 -20 -44 -37.5t-45.5 -35.5t-48.5 -38.5t-52 -45.5 q-3 -3 -8.5 0t-10 7.5t-7.5 9.5t-2 6q44 44 85.5 87t81.5 87q2 3 4.5 3h3.5q2 0 8.5 -4.5t14 -10t14 -11t7.5 -7.5z" />
<glyph unicode="Y&#x301;" horiz-adv-x="572" d="M867 592q0 -1 -1.5 -6.5t-4.5 -11t-5.5 -10t-3.5 -3.5q-3 1 -16.5 4t-29.5 3q-41 0 -86 -18t-89 -48t-85.5 -68.5t-76.5 -79t-60.5 -79.5t-38.5 -71q-23 -59 -32.5 -110t-11.5 -83q-1 -5 -3 -9t-13 -2q-31 5 -54.5 0t-43.5 -22q-4 -2 -10.5 5t-3.5 12q18 21 38 58 t37 80.5t28 89t11 82.5q0 43 -11 82.5t-33.5 70t-55.5 48.5t-77 18q-39 0 -70.5 -16t-54.5 -49q-1 -3 -8 -1t-14.5 6t-13.5 10t-4 11q27 52 75 81.5t111 29.5q48 0 86.5 -25t65 -64t41 -85.5t14.5 -89.5q0 -6 5 -9t7 1q34 47 77 102.5t92.5 104t105 81t114.5 32.5 q8 0 23.5 -6.5t32 -15t30 -17t17.5 -13.5zM658 817q2 -7 -1 -10q-22 -20 -44 -37.5t-45.5 -35.5t-48.5 -38.5t-52 -45.5q-3 -3 -8.5 0t-10 7.5t-7.5 9.5t-2 6q44 44 85.5 87t81.5 87q2 3 4.5 3h3.5q2 0 8.5 -4.5t14 -10t14 -11t7.5 -7.5z" />
<glyph unicode="a&#x300;" horiz-adv-x="428" d="M576 194q-25 -43 -58.5 -80.5t-71 -65t-76 -43t-73.5 -15.5q-33 0 -55.5 16.5t-23.5 37.5q0 7 1 22.5t7 31.5q-28 -48 -65 -75.5t-75 -27.5q-10 0 -21 7.5t-20 19.5t-15.5 26t-6.5 26q-2 52 16.5 99t54 82.5t85 56.5t109.5 21q3 15 7.5 19.5t10.5 7.5l59 12l3 -1 q-7 -8 -9.5 -17.5t-8.5 -21.5q6 0 15.5 -1.5t18 -4t15.5 -5.5t8 -7q0 -1 -2 -7.5t-4.5 -14t-5 -13.5t-3.5 -6q-4 3 -11 6t-15 5.5t-15 4t-12 1.5q-19 -53 -30.5 -88t-18.5 -59.5t-9 -42t-2 -36.5q1 -11 8.5 -21t25.5 -10q20 0 49.5 14t61.5 38.5t63 59t53 74.5q2 3 4 3 q1 0 6 -4t10.5 -9t10 -9.5zM277 294q-48 0 -83 -18.5t-56.5 -48t-31.5 -65t-9 -68.5q1 -21 7.5 -36t15.5 -15q22 0 50 31.5t59 94.5q14 36 25 64t24 59zM350 429q0 -3 -4 -7t-9.5 -7.5t-10 -5.5t-5.5 0q-15 19 -33 39.5t-35.5 41t-33.5 40.5t-27 38q0 3 6 9t13.5 11.5 t14.5 10t8 4.5h6t6 -3q9 -17 18 -34.5t21 -38t27.5 -44.5t37.5 -54z" />
<glyph unicode="a&#x301;" horiz-adv-x="428" d="M576 194q-25 -43 -58.5 -80.5t-71 -65t-76 -43t-73.5 -15.5q-33 0 -55.5 16.5t-23.5 37.5q0 7 1 22.5t7 31.5q-28 -48 -65 -75.5t-75 -27.5q-10 0 -21 7.5t-20 19.5t-15.5 26t-6.5 26q-2 52 16.5 99t54 82.5t85 56.5t109.5 21q3 15 7.5 19.5t10.5 7.5l59 12l3 -1 q-7 -8 -9.5 -17.5t-8.5 -21.5q6 0 15.5 -1.5t18 -4t15.5 -5.5t8 -7q0 -1 -2 -7.5t-4.5 -14t-5 -13.5t-3.5 -6q-4 3 -11 6t-15 5.5t-15 4t-12 1.5q-19 -53 -30.5 -88t-18.5 -59.5t-9 -42t-2 -36.5q1 -11 8.5 -21t25.5 -10q20 0 49.5 14t61.5 38.5t63 59t53 74.5q2 3 4 3 q1 0 6 -4t10.5 -9t10 -9.5zM277 294q-48 0 -83 -18.5t-56.5 -48t-31.5 -65t-9 -68.5q1 -21 7.5 -36t15.5 -15q22 0 50 31.5t59 94.5q14 36 25 64t24 59zM418 577q2 -7 -1 -10q-22 -20 -44 -37.5t-45.5 -35.5t-48.5 -38.5t-52 -45.5q-3 -3 -8.5 0t-10 7.5t-7.5 9.5t-2 6 q44 44 85.5 87t81.5 87q2 3 4.5 3h3.5q2 0 8.5 -4.5t14 -10t14 -11t7.5 -7.5z" />
<glyph unicode="a&#x303;" horiz-adv-x="428" d="M576 194q-25 -43 -58.5 -80.5t-71 -65t-76 -43t-73.5 -15.5q-33 0 -55.5 16.5t-23.5 37.5q0 7 1 22.5t7 31.5q-28 -48 -65 -75.5t-75 -27.5q-10 0 -21 7.5t-20 19.5t-15.5 26t-6.5 26q-2 52 16.5 99t54 82.5t85 56.5t109.5 21q3 15 7.5 19.5t10.5 7.5l59 12l3 -1 q-7 -8 -9.5 -17.5t-8.5 -21.5q6 0 15.5 -1.5t18 -4t15.5 -5.5t8 -7q0 -1 -2 -7.5t-4.5 -14t-5 -13.5t-3.5 -6q-4 3 -11 6t-15 5.5t-15 4t-12 1.5q-19 -53 -30.5 -88t-18.5 -59.5t-9 -42t-2 -36.5q1 -11 8.5 -21t25.5 -10q20 0 49.5 14t61.5 38.5t63 59t53 74.5q2 3 4 3 q1 0 6 -4t10.5 -9t10 -9.5zM277 294q-48 0 -83 -18.5t-56.5 -48t-31.5 -65t-9 -68.5q1 -21 7.5 -36t15.5 -15q22 0 50 31.5t59 94.5q14 36 25 64t24 59zM403 536q2 -18 -2.5 -34.5t-13.5 -29.5t-22.5 -21t-30.5 -8q-21 0 -40 8t-36.5 18t-34 18t-31.5 8q-11 0 -17 -3 t-9.5 -8t-6 -12.5t-6.5 -15.5q-3 -5 -12 -7t-18.5 -1t-16 5.5t-5.5 11.5q2 10 9.5 25t19 29.5t28 25t36.5 10.5q17 0 34.5 -9t34 -19.5t32 -19.5t28.5 -9q17 0 26.5 10.5t4.5 27.5q-1 3 6 6.5t16 4.5t17.5 -1t9.5 -10z" />
<glyph unicode="e&#x300;" horiz-adv-x="308" d="M128 161q-3 -11 -5 -29.5t-1 -35.5q2 -37 14 -46t32 -9q34 0 67 14t62 36.5t52 49.5t36 52q2 2 7 -1t11 -7.5t11 -9t6 -6.5q-18 -32 -47 -64t-65.5 -58t-78 -42t-84.5 -16q-35 0 -62.5 26t-29.5 71q-1 41 12 84t36.5 78.5t57 58.5t72.5 23q23 0 42 -12t21 -40 q1 -21 -9 -42t-31 -37.5t-52.5 -27t-73.5 -10.5zM137 204q10 -2 21 -2q15 0 30.5 5.5t28 14.5t20 20.5t7.5 23.5q0 10 -4.5 14.5t-19.5 4.5q-7 0 -19 -5t-24.5 -15.5t-23 -25.5t-16.5 -35zM340 429q0 -3 -4 -7t-9.5 -7.5t-10 -5.5t-5.5 0q-15 19 -33 39.5t-35.5 41 t-33.5 40.5t-27 38q0 3 6 9t13.5 11.5t14.5 10t8 4.5h6t6 -3q9 -17 18 -34.5t21 -38t27.5 -44.5t37.5 -54z" />
<glyph unicode="e&#x301;" horiz-adv-x="308" d="M128 161q-3 -11 -5 -29.5t-1 -35.5q2 -37 14 -46t32 -9q34 0 67 14t62 36.5t52 49.5t36 52q2 2 7 -1t11 -7.5t11 -9t6 -6.5q-18 -32 -47 -64t-65.5 -58t-78 -42t-84.5 -16q-35 0 -62.5 26t-29.5 71q-1 41 12 84t36.5 78.5t57 58.5t72.5 23q23 0 42 -12t21 -40 q1 -21 -9 -42t-31 -37.5t-52.5 -27t-73.5 -10.5zM137 204q10 -2 21 -2q15 0 30.5 5.5t28 14.5t20 20.5t7.5 23.5q0 10 -4.5 14.5t-19.5 4.5q-7 0 -19 -5t-24.5 -15.5t-23 -25.5t-16.5 -35zM418 577q2 -7 -1 -10q-22 -20 -44 -37.5t-45.5 -35.5t-48.5 -38.5t-52 -45.5 q-3 -3 -8.5 0t-10 7.5t-7.5 9.5t-2 6q44 44 85.5 87t81.5 87q2 3 4.5 3h3.5q2 0 8.5 -4.5t14 -10t14 -11t7.5 -7.5z" />
<glyph unicode="i&#x300;" horiz-adv-x="280" d="M383 187q-19 -35 -46.5 -70t-60.5 -63.5t-70.5 -46t-77.5 -17.5q-12 0 -26 3t-26 10t-20 19.5t-8 31.5q-1 22 8.5 58t22 73t26 69.5t21.5 48.5q3 6 12.5 11t20 9t20 6t12.5 2q8 0 9 -4q0 -3 -0.5 -9t-3.5 -9q-13 -26 -26.5 -58t-24.5 -64t-18 -60t-6 -46q1 -23 5 -30 t21 -7q29 0 59.5 18t58 44t50 55t34.5 51q2 4 8 2t12.5 -7t11 -11t2.5 -9zM231 429q0 -3 -4 -7t-9.5 -7.5t-10 -5.5t-5.5 0q-15 19 -33 39.5t-35.5 41t-33.5 40.5t-27 38q0 3 6 9t13.5 11.5t14.5 10t8 4.5h6t6 -3q9 -17 18 -34.5t21 -38t27.5 -44.5t37.5 -54z" />
<glyph unicode="i&#x301;" horiz-adv-x="280" d="M383 187q-19 -35 -46.5 -70t-60.5 -63.5t-70.5 -46t-77.5 -17.5q-12 0 -26 3t-26 10t-20 19.5t-8 31.5q-1 22 8.5 58t22 73t26 69.5t21.5 48.5q3 6 12.5 11t20 9t20 6t12.5 2q8 0 9 -4q0 -3 -0.5 -9t-3.5 -9q-13 -26 -26.5 -58t-24.5 -64t-18 -60t-6 -46q1 -23 5 -30 t21 -7q29 0 59.5 18t58 44t50 55t34.5 51q2 4 8 2t12.5 -7t11 -11t2.5 -9zM279 577q2 -7 -1 -10q-22 -20 -44 -37.5t-45.5 -35.5t-48.5 -38.5t-52 -45.5q-3 -3 -8.5 0t-10 7.5t-7.5 9.5t-2 6q44 44 85.5 87t81.5 87q2 3 4.5 3h3.5q2 0 8.5 -4.5t14 -10t14 -11t7.5 -7.5z" />
<glyph unicode="o&#x300;" horiz-adv-x="381" d="M537 256q-9 -17 -24 -33t-34 -29t-41 -20.5t-46 -7.5q-25 0 -46 6.5t-40 23.5q-4 -30 -13 -65.5t-26.5 -67t-47 -52.5t-75.5 -21q-23 0 -41.5 8.5t-32 22.5t-20.5 31t-8 34q-1 48 15 91t44.5 76t66.5 53t80 21q2 12 4 27.5t16 18.5q7 2 19.5 3.5t17.5 4.5q3 3 8.5 0.5 t3.5 -8.5q-3 -8 -5.5 -20.5t-1.5 -25.5q1 -25 5 -46.5t14 -37.5t25.5 -25.5t39.5 -9.5q15 0 30.5 6t29.5 16t26.5 23.5t20.5 28.5q1 3 7.5 0.5t14 -7.5t12.5 -10.5t2 -8.5zM264 252q-3 7 -4.5 12.5l-4.5 16.5q-1 7 -7 7q-27 0 -51 -19t-42.5 -48t-29 -63.5t-9.5 -66.5 q0 -7 1 -16t4 -16t8.5 -12t15.5 -5q26 0 48.5 25t39 59t25 69.5t6.5 56.5zM365 429q0 -3 -4 -7t-9.5 -7.5t-10 -5.5t-5.5 0q-15 19 -33 39.5t-35.5 41t-33.5 40.5t-27 38q0 3 6 9t13.5 11.5t14.5 10t8 4.5h6t6 -3q9 -17 18 -34.5t21 -38t27.5 -44.5t37.5 -54z" />
<glyph unicode="o&#x301;" horiz-adv-x="381" d="M537 256q-9 -17 -24 -33t-34 -29t-41 -20.5t-46 -7.5q-25 0 -46 6.5t-40 23.5q-4 -30 -13 -65.5t-26.5 -67t-47 -52.5t-75.5 -21q-23 0 -41.5 8.5t-32 22.5t-20.5 31t-8 34q-1 48 15 91t44.5 76t66.5 53t80 21q2 12 4 27.5t16 18.5q7 2 19.5 3.5t17.5 4.5q3 3 8.5 0.5 t3.5 -8.5q-3 -8 -5.5 -20.5t-1.5 -25.5q1 -25 5 -46.5t14 -37.5t25.5 -25.5t39.5 -9.5q15 0 30.5 6t29.5 16t26.5 23.5t20.5 28.5q1 3 7.5 0.5t14 -7.5t12.5 -10.5t2 -8.5zM264 252q-3 7 -4.5 12.5l-4.5 16.5q-1 7 -7 7q-27 0 -51 -19t-42.5 -48t-29 -63.5t-9.5 -66.5 q0 -7 1 -16t4 -16t8.5 -12t15.5 -5q26 0 48.5 25t39 59t25 69.5t6.5 56.5zM413 577q2 -7 -1 -10q-22 -20 -44 -37.5t-45.5 -35.5t-48.5 -38.5t-52 -45.5q-3 -3 -8.5 0t-10 7.5t-7.5 9.5t-2 6q44 44 85.5 87t81.5 87q2 3 4.5 3h3.5q2 0 8.5 -4.5t14 -10t14 -11t7.5 -7.5z" />
<glyph unicode="o&#x303;" horiz-adv-x="381" d="M537 256q-9 -17 -24 -33t-34 -29t-41 -20.5t-46 -7.5q-25 0 -46 6.5t-40 23.5q-4 -30 -13 -65.5t-26.5 -67t-47 -52.5t-75.5 -21q-23 0 -41.5 8.5t-32 22.5t-20.5 31t-8 34q-1 48 15 91t44.5 76t66.5 53t80 21q2 12 4 27.5t16 18.5q7 2 19.5 3.5t17.5 4.5q3 3 8.5 0.5 t3.5 -8.5q-3 -8 -5.5 -20.5t-1.5 -25.5q1 -25 5 -46.5t14 -37.5t25.5 -25.5t39.5 -9.5q15 0 30.5 6t29.5 16t26.5 23.5t20.5 28.5q1 3 7.5 0.5t14 -7.5t12.5 -10.5t2 -8.5zM264 252q-3 7 -4.5 12.5l-4.5 16.5q-1 7 -7 7q-27 0 -51 -19t-42.5 -48t-29 -63.5t-9.5 -66.5 q0 -7 1 -16t4 -16t8.5 -12t15.5 -5q26 0 48.5 25t39 59t25 69.5t6.5 56.5zM418 536q2 -18 -2.5 -34.5t-13.5 -29.5t-22.5 -21t-30.5 -8q-21 0 -40 8t-36.5 18t-34 18t-31.5 8q-11 0 -17 -3t-9.5 -8t-6 -12.5t-6.5 -15.5q-3 -5 -12 -7t-18.5 -1t-16 5.5t-5.5 11.5 q2 10 9.5 25t19 29.5t28 25t36.5 10.5q17 0 34.5 -9t34 -19.5t32 -19.5t28.5 -9q17 0 26.5 10.5t4.5 27.5q-1 3 6 6.5t16 4.5t17.5 -1t9.5 -10z" />
<glyph unicode="u&#x300;" horiz-adv-x="386" d="M548 182q-18 -36 -44 -70.5t-57.5 -61.5t-66 -43.5t-69.5 -16.5q-36 0 -63 15.5t-28 44.5q-1 12 0 24q-5 -10 -15 -23t-23.5 -24.5t-29.5 -19t-33 -7.5q-9 0 -19.5 2.5t-20.5 7.5t-18.5 13t-11.5 18q-1 12 1 31.5t10.5 52t23 80t36.5 115.5q5 15 11 15q3 0 12.5 -3.5 t19.5 -8t18.5 -9.5t8.5 -9t-6 -18q-29 -73 -46 -129t-16 -85q3 -11 10.5 -15t15.5 -4t18.5 9.5t23 27t25.5 41t24 50.5q8 24 14.5 42.5t11.5 33t9.5 26.5t8.5 24q3 10 8 10t15 -7t19.5 -17.5t15 -21.5t2.5 -20q-11 -22 -22.5 -44.5t-21 -43.5t-15.5 -41.5t-5 -38.5 q1 -23 11 -34t25 -11q16 0 38.5 8.5t48.5 28t53.5 52t52.5 80.5q2 1 8 -2t13 -7.5t12.5 -9t6.5 -7.5zM342 429q0 -3 -4 -7t-9.5 -7.5t-10 -5.5t-5.5 0q-15 19 -33 39.5t-35.5 41t-33.5 40.5t-27 38q0 3 6 9t13.5 11.5t14.5 10t8 4.5h6t6 -3q9 -17 18 -34.5t21 -38 t27.5 -44.5t37.5 -54z" />
<glyph unicode="u&#x301;" horiz-adv-x="386" d="M548 182q-18 -36 -44 -70.5t-57.5 -61.5t-66 -43.5t-69.5 -16.5q-36 0 -63 15.5t-28 44.5q-1 12 0 24q-5 -10 -15 -23t-23.5 -24.5t-29.5 -19t-33 -7.5q-9 0 -19.5 2.5t-20.5 7.5t-18.5 13t-11.5 18q-1 12 1 31.5t10.5 52t23 80t36.5 115.5q5 15 11 15q3 0 12.5 -3.5 t19.5 -8t18.5 -9.5t8.5 -9t-6 -18q-29 -73 -46 -129t-16 -85q3 -11 10.5 -15t15.5 -4t18.5 9.5t23 27t25.5 41t24 50.5q8 24 14.5 42.5t11.5 33t9.5 26.5t8.5 24q3 10 8 10t15 -7t19.5 -17.5t15 -21.5t2.5 -20q-11 -22 -22.5 -44.5t-21 -43.5t-15.5 -41.5t-5 -38.5 q1 -23 11 -34t25 -11q16 0 38.5 8.5t48.5 28t53.5 52t52.5 80.5q2 1 8 -2t13 -7.5t12.5 -9t6.5 -7.5zM437 577q2 -7 -1 -10q-22 -20 -44 -37.5t-45.5 -35.5t-48.5 -38.5t-52 -45.5q-3 -3 -8.5 0t-10 7.5t-7.5 9.5t-2 6q44 44 85.5 87t81.5 87q2 3 4.5 3h3.5q2 0 8.5 -4.5 t14 -10t14 -11t7.5 -7.5z" />
<glyph unicode="y&#x301;" horiz-adv-x="348" d="M108 0q-13 0 -26.5 4.5t-24 11.5t-17.5 17t-7 20q-1 16 4.5 44.5t15.5 63.5t24 73.5t29 75.5q2 8 6 11.5t7 6.5q4 1 13.5 1.5t19.5 1t18.5 0.5h9.5q6 0 6 -6q-16 -38 -30 -77.5t-25 -73t-17 -59.5t-6 -37t5.5 -19.5t22.5 -8.5q9 0 23.5 9t28.5 21t26.5 25t18.5 20 q5 6 8.5 17t7.5 27.5t10.5 41t17.5 57.5t20 55t19 22q5 -1 14 -5.5t18.5 -9.5t16.5 -11.5t8 -12.5q-21 -57 -47.5 -118.5t-46.5 -118.5q-15 -43 -36.5 -98t-51.5 -112t-68 -111t-86.5 -96.5t-107 -68.5t-129.5 -26q-51 0 -87.5 20.5t-58 50.5t-29 65t-0.5 64 q15 -55 52.5 -88t108.5 -33q73 0 133 22t110.5 71t93.5 126t81 188q3 6 0 4.5t-4 -2.5q-14 -14 -38 -29.5t-54 -15.5zM390 577q2 -7 -1 -10q-22 -20 -44 -37.5t-45.5 -35.5t-48.5 -38.5t-52 -45.5q-3 -3 -8.5 0t-10 7.5t-7.5 9.5t-2 6q44 44 85.5 87t81.5 87q2 3 4.5 3h3.5 q2 0 8.5 -4.5t14 -10t14 -11t7.5 -7.5z" />
<glyph unicode="I&#x303;" horiz-adv-x="366" d="M44 7q23 2 35 20q12 21 30 57.5t38.5 80.5t41 93.5t38 95.5t30 86.5t15.5 67.5q1 5 0.5 8.5t-1.5 7.5q-2 8 -13.5 11t-29.5 3q-17 0 -37 -1.5t-37 -4.5l-5 1q0 2 2 10t4 17t4 16.5t3 9.5q28 2 59.5 3.5t61.5 3t56 4t43 5.5q6 -2 8 -13.5t3 -15.5q2 -3 -6 -5 q-9 -3 -14.5 -7.5t-9.5 -16.5q-20 -51 -42.5 -114.5t-46 -131.5t-48.5 -136t-50 -128q-9 -16 -24.5 -24.5t-32.5 -11.5t-35 -2.5t-33 1.5q-1 1 -3 4zM466 750q2 -18 -2.5 -34.5t-13.5 -29.5t-22.5 -21t-30.5 -8q-21 0 -40 8t-36.5 18t-34 18t-31.5 8q-11 0 -17 -3t-9.5 -8 t-6 -12.5t-6.5 -15.5q-3 -5 -12 -7t-18.5 -1t-16 5.5t-5.5 11.5q2 10 9.5 25t19 29.5t28 25t36.5 10.5q17 0 34.5 -9t34 -19.5t32 -19.5t28.5 -9q17 0 26.5 10.5t4.5 27.5q-1 3 6 6.5t16 4.5t17.5 -1t9.5 -10z" />
<glyph unicode="i&#x303;" horiz-adv-x="280" d="M383 187q-19 -35 -46.5 -70t-60.5 -63.5t-70.5 -46t-77.5 -17.5q-12 0 -26 3t-26 10t-20 19.5t-8 31.5q-1 22 8.5 58t22 73t26 69.5t21.5 48.5q3 6 12.5 11t20 9t20 6t12.5 2q8 0 9 -4q0 -3 -0.5 -9t-3.5 -9q-13 -26 -26.5 -58t-24.5 -64t-18 -60t-6 -46q1 -23 5 -30 t21 -7q29 0 59.5 18t58 44t50 55t34.5 51q2 4 8 2t12.5 -7t11 -11t2.5 -9zM314 536q2 -18 -2.5 -34.5t-13.5 -29.5t-22.5 -21t-30.5 -8q-21 0 -40 8t-36.5 18t-34 18t-31.5 8q-11 0 -17 -3t-9.5 -8t-6 -12.5t-6.5 -15.5q-3 -5 -12 -7t-18.5 -1t-16 5.5t-5.5 11.5 q2 10 9.5 25t19 29.5t28 25t36.5 10.5q17 0 34.5 -9t34 -19.5t32 -19.5t28.5 -9q17 0 26.5 10.5t4.5 27.5q-1 3 6 6.5t16 4.5t17.5 -1t9.5 -10z" />
<glyph unicode="U&#x303;" horiz-adv-x="863" d="M872 563q-6 -1 -17 -4.5t-16 -11.5q-44 -69 -71.5 -142.5t-51.5 -151.5q-10 -31 -20 -72.5t-9 -80.5q1 -28 14.5 -45.5t53.5 -17.5q17 0 35 6t33 12.5t25 12.5t11 6q4 0 8.5 -7.5t7.5 -16.5t4 -17t-3 -10q-35 -18 -73 -31t-81 -13q-32 0 -56 8t-39.5 20.5t-23.5 28.5 t-9 31q0 17 2.5 30.5t6 23t6.5 15.5t3 7q-2 1 -3 2t-3 1q-31 -47 -65.5 -78t-72.5 -49.5t-79.5 -26t-86.5 -7.5q-29 0 -59 8t-55 25.5t-41 43.5t-18 62q-1 42 17 93.5t42 103.5t47 100.5t31 83.5q3 9 1 16q-3 12 -23 12q-9 0 -21.5 -0.5t-31.5 -0.5q-9 0 -17 0.5t-16 0.5 q-5 0 -8.5 8.5t-4.5 18t0.5 18t7.5 8.5q14 0 44.5 -2t65.5 -2q32 0 55.5 1.5t41 4t30.5 4t25 1.5q2 0 3 -6t2 -13.5t1.5 -14.5t0.5 -8q3 -5 -4 -7q-11 -3 -27.5 -5.5t-24.5 -16.5q-11 -22 -26 -53.5t-31 -67t-31.5 -73t-28 -72t-19.5 -63.5t-7 -48q2 -53 31 -71.5t81 -18.5 q50 0 97 22t88.5 58t74.5 82t54 95q12 29 23.5 61t22.5 63t20.5 59t16.5 48q5 15 12.5 24.5t23.5 17.5q5 1 19.5 4.5t30.5 7t29.5 6t17.5 2.5q3 0 6 -6.5t4.5 -14.5t1 -14.5t-4.5 -6.5zM724 750q2 -18 -2.5 -34.5t-13.5 -29.5t-22.5 -21t-30.5 -8q-21 0 -40 8t-36.5 18 t-34 18t-31.5 8q-11 0 -17 -3t-9.5 -8t-6 -12.5t-6.5 -15.5q-3 -5 -12 -7t-18.5 -1t-16 5.5t-5.5 11.5q2 10 9.5 25t19 29.5t28 25t36.5 10.5q17 0 34.5 -9t34 -19.5t32 -19.5t28.5 -9q17 0 26.5 10.5t4.5 27.5q-1 3 6 6.5t16 4.5t17.5 -1t9.5 -10z" />
<glyph unicode="u&#x303;" horiz-adv-x="386" d="M548 182q-18 -36 -44 -70.5t-57.5 -61.5t-66 -43.5t-69.5 -16.5q-36 0 -63 15.5t-28 44.5q-1 12 0 24q-5 -10 -15 -23t-23.5 -24.5t-29.5 -19t-33 -7.5q-9 0 -19.5 2.5t-20.5 7.5t-18.5 13t-11.5 18q-1 12 1 31.5t10.5 52t23 80t36.5 115.5q5 15 11 15q3 0 12.5 -3.5 t19.5 -8t18.5 -9.5t8.5 -9t-6 -18q-29 -73 -46 -129t-16 -85q3 -11 10.5 -15t15.5 -4t18.5 9.5t23 27t25.5 41t24 50.5q8 24 14.5 42.5t11.5 33t9.5 26.5t8.5 24q3 10 8 10t15 -7t19.5 -17.5t15 -21.5t2.5 -20q-11 -22 -22.5 -44.5t-21 -43.5t-15.5 -41.5t-5 -38.5 q1 -23 11 -34t25 -11q16 0 38.5 8.5t48.5 28t53.5 52t52.5 80.5q2 1 8 -2t13 -7.5t12.5 -9t6.5 -7.5zM449 536q2 -18 -2.5 -34.5t-13.5 -29.5t-22.5 -21t-30.5 -8q-21 0 -40 8t-36.5 18t-34 18t-31.5 8q-11 0 -17 -3t-9.5 -8t-6 -12.5t-6.5 -15.5q-3 -5 -12 -7t-18.5 -1 t-16 5.5t-5.5 11.5q2 10 9.5 25t19 29.5t28 25t36.5 10.5q17 0 34.5 -9t34 -19.5t32 -19.5t28.5 -9q17 0 26.5 10.5t4.5 27.5q-1 3 6 6.5t16 4.5t17.5 -1t9.5 -10z" />
<glyph unicode="&#xe2f;&#xe2f;" horiz-adv-x="392" d="M335 380q13 1 24 1q10 0 19 -0.5t14 -2.5q-1 -10 -4.5 -35t-9 -60t-13.5 -76.5t-18 -83.5q-24 -106 -78.5 -176.5t-130 -106.5t-168.5 -38.5t-195 27.5q130 -1 220 23t149.5 65.5t92.5 95t50 111.5q5 18 11 40.5t12 47t11 48.5t9 45q-7 -15 -22 -25t-30 -16 q-7 -32 -17 -68t-25 -71q-39 -93 -97.5 -151.5t-137.5 -87.5t-178.5 -29t-220.5 24q135 5 231 24t163 50.5t110 74.5t70 96q14 27 24 49t16 41t9.5 35.5t5.5 34.5q-22 -51 -56.5 -72t-79.5 -21q-35 0 -56 24.5t-21 59.5q0 22 10 42.5t26 37t36 26.5t40 10q13 0 24 -7.5 t11 -24.5q0 -16 -9.5 -37t-26.5 -34q-8 -6 -25.5 -9.5t-27.5 1.5q33 20 42.5 37t9.5 30q0 3 -3 4.5t-5 1.5q-5 0 -14.5 -4.5t-19 -13.5t-16.5 -23t-7 -34t9 -33t29 -13q28 0 49.5 13t37.5 34t28 47t21 52q13 1 24 1q10 0 19 -0.5t14 -2.5q-1 -8 -2.5 -26t-5.5 -42 q14 8 23 18.5t15 20.5t8.5 18.5t2.5 12.5z" />
<glyph unicode="A&#x323;" horiz-adv-x="810" d="M315 -99q15 0 27.5 -9.5t13.5 -34.5q1 -17 -12 -31t-30 -14q-16 0 -28.5 12t-12.5 31q-1 17 10 31.5t32 14.5zM309 289q5 -12 29.5 -15.5t88.5 -3.5q43 0 70 -3.5t39 -6.5q15 -4 17 0t3 13q2 27 -2 66t-8.5 76t-8.5 65t-4 33q-1 2 -3 7t-11 -3q-3 -3 -16 -15.5t-32 -31.5 t-41.5 -42t-45 -47.5t-42 -48t-33.5 -43.5zM-5 -41q-6 25 5.5 44.5t35.5 46.5q204 244 328 378.5t162 164.5q9 6 30 6.5t34 -1.5q12 -2 15 -4t-1 -7q-7 -10 -7.5 -24.5t0.5 -31.5q0 -11 1.5 -44t4 -77t5 -93.5t5.5 -94t6 -77.5t5 -44q8 -33 21 -40.5t24 -7.5q7 0 17 4.5 t18 6.5q5 2 9.5 -3.5t7.5 -12.5t2.5 -13.5t-5.5 -8.5q-4 -1 -17.5 -6t-30.5 -10t-34.5 -10t-30.5 -7q-10 0 -28.5 7t-25.5 21q1 8 1.5 29t1 45t0.5 46t-1 30q-4 14 -13.5 26.5t-35.5 20.5q-9 3 -40 3t-67 1t-70 4t-49 11q-40 -47 -71 -84t-54 -68t-39.5 -57.5t-28.5 -52.5 q-6 -18 -6.5 -30t4.5 -35q-1 -5 -10.5 -12.5t-11.5 -5.5z" />
<glyph unicode="a&#x323;" horiz-adv-x="428" d="M576 194q-25 -43 -58.5 -80.5t-71 -65t-76 -43t-73.5 -15.5q-33 0 -55.5 16.5t-23.5 37.5q0 7 1 22.5t7 31.5q-28 -48 -65 -75.5t-75 -27.5q-10 0 -21 7.5t-20 19.5t-15.5 26t-6.5 26q-2 52 16.5 99t54 82.5t85 56.5t109.5 21q3 15 7.5 19.5t10.5 7.5l59 12l3 -1 q-7 -8 -9.5 -17.5t-8.5 -21.5q6 0 15.5 -1.5t18 -4t15.5 -5.5t8 -7q0 -1 -2 -7.5t-4.5 -14t-5 -13.5t-3.5 -6q-4 3 -11 6t-15 5.5t-15 4t-12 1.5q-19 -53 -30.5 -88t-18.5 -59.5t-9 -42t-2 -36.5q1 -11 8.5 -21t25.5 -10q20 0 49.5 14t61.5 38.5t63 59t53 74.5q2 3 4 3 q1 0 6 -4t10.5 -9t10 -9.5zM277 294q-48 0 -83 -18.5t-56.5 -48t-31.5 -65t-9 -68.5q1 -21 7.5 -36t15.5 -15q22 0 50 31.5t59 94.5q14 36 25 64t24 59zM177 -99q15 0 27.5 -9.5t13.5 -34.5q1 -17 -12 -31t-30 -14q-16 0 -28.5 12t-12.5 31q-1 17 10 31.5t32 14.5z" />
<glyph unicode="A&#x309;" horiz-adv-x="810" d="M562 652q0 2 1 9t3 8q39 16 57 39t18 43q-1 18 -10.5 26.5t-32.5 8.5q-11 0 -17 -2t-11 -2q-3 0 -4 6t-1 13t1.5 13.5t4.5 7.5q12 3 27 6t31 3q32 0 53 -16t23 -46q1 -28 -15.5 -52.5t-39.5 -42.5t-46.5 -28t-36.5 -10q-2 0 -3.5 7t-1.5 9zM309 289q5 -12 29.5 -15.5 t88.5 -3.5q43 0 70 -3.5t39 -6.5q15 -4 17 0t3 13q2 27 -2 66t-8.5 76t-8.5 65t-4 33q-1 2 -3 7t-11 -3q-3 -3 -16 -15.5t-32 -31.5t-41.5 -42t-45 -47.5t-42 -48t-33.5 -43.5zM-5 -41q-6 25 5.5 44.5t35.5 46.5q204 244 328 378.5t162 164.5q9 6 30 6.5t34 -1.5 q12 -2 15 -4t-1 -7q-7 -10 -7.5 -24.5t0.5 -31.5q0 -11 1.5 -44t4 -77t5 -93.5t5.5 -94t6 -77.5t5 -44q8 -33 21 -40.5t24 -7.5q7 0 17 4.5t18 6.5q5 2 9.5 -3.5t7.5 -12.5t2.5 -13.5t-5.5 -8.5q-4 -1 -17.5 -6t-30.5 -10t-34.5 -10t-30.5 -7q-10 0 -28.5 7t-25.5 21 q1 8 1.5 29t1 45t0.5 46t-1 30q-4 14 -13.5 26.5t-35.5 20.5q-9 3 -40 3t-67 1t-70 4t-49 11q-40 -47 -71 -84t-54 -68t-39.5 -57.5t-28.5 -52.5q-6 -18 -6.5 -30t4.5 -35q-1 -5 -10.5 -12.5t-11.5 -5.5z" />
<glyph unicode="a&#x309;" horiz-adv-x="428" d="M576 194q-25 -43 -58.5 -80.5t-71 -65t-76 -43t-73.5 -15.5q-33 0 -55.5 16.5t-23.5 37.5q0 7 1 22.5t7 31.5q-28 -48 -65 -75.5t-75 -27.5q-10 0 -21 7.5t-20 19.5t-15.5 26t-6.5 26q-2 52 16.5 99t54 82.5t85 56.5t109.5 21q3 15 7.5 19.5t10.5 7.5l59 12l3 -1 q-7 -8 -9.5 -17.5t-8.5 -21.5q6 0 15.5 -1.5t18 -4t15.5 -5.5t8 -7q0 -1 -2 -7.5t-4.5 -14t-5 -13.5t-3.5 -6q-4 3 -11 6t-15 5.5t-15 4t-12 1.5q-19 -53 -30.5 -88t-18.5 -59.5t-9 -42t-2 -36.5q1 -11 8.5 -21t25.5 -10q20 0 49.5 14t61.5 38.5t63 59t53 74.5q2 3 4 3 q1 0 6 -4t10.5 -9t10 -9.5zM277 294q-48 0 -83 -18.5t-56.5 -48t-31.5 -65t-9 -68.5q1 -21 7.5 -36t15.5 -15q22 0 50 31.5t59 94.5q14 36 25 64t24 59zM127 416q0 2 1 9t3 8q39 16 57 39t18 43q-1 18 -10.5 26.5t-32.5 8.5q-11 0 -17 -2t-11 -2q-3 0 -4 6t-1 13t1.5 13.5 t4.5 7.5q12 3 27 6t31 3q32 0 53 -16t23 -46q1 -28 -15.5 -52.5t-39.5 -42.5t-46.5 -28t-36.5 -10q-2 0 -3.5 7t-1.5 9z" />
<glyph unicode="&#xc2;&#x301;" horiz-adv-x="810" d="M666 648q3 -19 -1 -23q-1 -1 -7.5 -4t-14 -6t-14.5 -5.5t-10 -2.5t-5 11q-3 15 -5 26.5t-4 22t-5 21.5t-9 25q-2 7 -6 8.5t-8 -4.5q-9 -12 -17 -21.5t-15 -18t-14.5 -17t-15.5 -20.5q-10 -16 -14 -16q-1 0 -8.5 0.5t-16 1t-15.5 2t-8 3.5q-2 8 7 20q13 17 29.5 35.5 t34 38t35 37.5t32.5 33q4 4 10 3t8 -5q7 -21 16 -41.5t17.5 -39.5t15 -35.5t8.5 -28.5zM877 899q2 -7 -1 -10q-22 -20 -44 -37.5t-45.5 -35.5t-48.5 -38.5t-52 -45.5q-3 -3 -8.5 0t-10 7.5t-7.5 9.5t-2 6q44 44 85.5 87t81.5 87q2 3 4.5 3h3.5q2 0 8.5 -4.5t14 -10t14 -11 t7.5 -7.5zM309 289q5 -12 29.5 -15.5t88.5 -3.5q43 0 70 -3.5t39 -6.5q15 -4 17 0t3 13q2 27 -2 66t-8.5 76t-8.5 65t-4 33q-1 2 -3 7t-11 -3q-3 -3 -16 -15.5t-32 -31.5t-41.5 -42t-45 -47.5t-42 -48t-33.5 -43.5zM-5 -41q-6 25 5.5 44.5t35.5 46.5q204 244 328 378.5 t162 164.5q9 6 30 6.5t34 -1.5q12 -2 15 -4t-1 -7q-7 -10 -7.5 -24.5t0.5 -31.5q0 -11 1.5 -44t4 -77t5 -93.5t5.5 -94t6 -77.5t5 -44q8 -33 21 -40.5t24 -7.5q7 0 17 4.5t18 6.5q5 2 9.5 -3.5t7.5 -12.5t2.5 -13.5t-5.5 -8.5q-4 -1 -17.5 -6t-30.5 -10t-34.5 -10t-30.5 -7 q-10 0 -28.5 7t-25.5 21q1 8 1.5 29t1 45t0.5 46t-1 30q-4 14 -13.5 26.5t-35.5 20.5q-9 3 -40 3t-67 1t-70 4t-49 11q-40 -47 -71 -84t-54 -68t-39.5 -57.5t-28.5 -52.5q-6 -18 -6.5 -30t4.5 -35q-1 -5 -10.5 -12.5t-11.5 -5.5z" />
<glyph unicode="&#xe2;&#x301;" horiz-adv-x="428" d="M576 194q-25 -43 -58.5 -80.5t-71 -65t-76 -43t-73.5 -15.5q-33 0 -55.5 16.5t-23.5 37.5q0 7 1 22.5t7 31.5q-28 -48 -65 -75.5t-75 -27.5q-10 0 -21 7.5t-20 19.5t-15.5 26t-6.5 26q-2 52 16.5 99t54 82.5t85 56.5t109.5 21q3 15 7.5 19.5t10.5 7.5l59 12l3 -1 q-7 -8 -9.5 -17.5t-8.5 -21.5q6 0 15.5 -1.5t18 -4t15.5 -5.5t8 -7q0 -1 -2 -7.5t-4.5 -14t-5 -13.5t-3.5 -6q-4 3 -11 6t-15 5.5t-15 4t-12 1.5q-19 -53 -30.5 -88t-18.5 -59.5t-9 -42t-2 -36.5q1 -11 8.5 -21t25.5 -10q20 0 49.5 14t61.5 38.5t63 59t53 74.5q2 3 4 3 q1 0 6 -4t10.5 -9t10 -9.5zM277 294q-48 0 -83 -18.5t-56.5 -48t-31.5 -65t-9 -68.5q1 -21 7.5 -36t15.5 -15q22 0 50 31.5t59 94.5q14 36 25 64t24 59zM389 452q3 -19 -1 -23q-1 -1 -7.5 -4t-14 -6t-14.5 -5.5t-10 -2.5t-5 11q-3 15 -5 26.5t-4 22t-5 21.5t-9 25 q-2 7 -6 8.5t-8 -4.5q-9 -12 -17 -21.5t-15 -18t-14.5 -17t-15.5 -20.5q-10 -16 -14 -16q-1 0 -8.5 0.5t-16 1t-15.5 2t-8 3.5q-2 8 7 20q13 17 29.5 35.5t34 38t35 37.5t32.5 33q4 4 10 3t8 -5q7 -21 16 -41.5t17.5 -39.5t15 -35.5t8.5 -28.5zM590 747q2 -7 -1 -10 q-22 -20 -44 -37.5t-45.5 -35.5t-48.5 -38.5t-52 -45.5q-3 -3 -8.5 0t-10 7.5t-7.5 9.5t-2 6q44 44 85.5 87t81.5 87q2 3 4.5 3h3.5q2 0 8.5 -4.5t14 -10t14 -11t7.5 -7.5z" />
<glyph unicode="&#xc2;&#x300;" horiz-adv-x="810" d="M653 655q3 -19 -1 -23q-1 -1 -7.5 -4t-14 -6t-14.5 -5.5t-10 -2.5t-5 11q-3 15 -5 26.5t-4 22t-5 21.5t-9 25q-2 7 -6 8.5t-8 -4.5q-9 -12 -17 -21.5t-15 -18t-14.5 -17t-15.5 -20.5q-10 -16 -14 -16q-1 0 -8.5 0.5t-16 1t-15.5 2t-8 3.5q-2 8 7 20q13 17 29.5 35.5 t34 38t35 37.5t32.5 33q4 4 10 3t8 -5q7 -21 16 -41.5t17.5 -39.5t15 -35.5t8.5 -28.5zM749 767q0 -3 -4 -7t-9.5 -7.5t-10 -5.5t-5.5 0q-15 19 -33 39.5t-35.5 41t-33.5 40.5t-27 38q0 3 6 9t13.5 11.5t14.5 10t8 4.5h6t6 -3q9 -17 18 -34.5t21 -38t27.5 -44.5t37.5 -54z M309 289q5 -12 29.5 -15.5t88.5 -3.5q43 0 70 -3.5t39 -6.5q15 -4 17 0t3 13q2 27 -2 66t-8.5 76t-8.5 65t-4 33q-1 2 -3 7t-11 -3q-3 -3 -16 -15.5t-32 -31.5t-41.5 -42t-45 -47.5t-42 -48t-33.5 -43.5zM-5 -41q-6 25 5.5 44.5t35.5 46.5q204 244 328 378.5t162 164.5 q9 6 30 6.5t34 -1.5q12 -2 15 -4t-1 -7q-7 -10 -7.5 -24.5t0.5 -31.5q0 -11 1.5 -44t4 -77t5 -93.5t5.5 -94t6 -77.5t5 -44q8 -33 21 -40.5t24 -7.5q7 0 17 4.5t18 6.5q5 2 9.5 -3.5t7.5 -12.5t2.5 -13.5t-5.5 -8.5q-4 -1 -17.5 -6t-30.5 -10t-34.5 -10t-30.5 -7 q-10 0 -28.5 7t-25.5 21q1 8 1.5 29t1 45t0.5 46t-1 30q-4 14 -13.5 26.5t-35.5 20.5q-9 3 -40 3t-67 1t-70 4t-49 11q-40 -47 -71 -84t-54 -68t-39.5 -57.5t-28.5 -52.5q-6 -18 -6.5 -30t4.5 -35q-1 -5 -10.5 -12.5t-11.5 -5.5z" />
<glyph unicode="&#xe2;&#x300;" horiz-adv-x="428" d="M576 194q-25 -43 -58.5 -80.5t-71 -65t-76 -43t-73.5 -15.5q-33 0 -55.5 16.5t-23.5 37.5q0 7 1 22.5t7 31.5q-28 -48 -65 -75.5t-75 -27.5q-10 0 -21 7.5t-20 19.5t-15.5 26t-6.5 26q-2 52 16.5 99t54 82.5t85 56.5t109.5 21q3 15 7.5 19.5t10.5 7.5l59 12l3 -1 q-7 -8 -9.5 -17.5t-8.5 -21.5q6 0 15.5 -1.5t18 -4t15.5 -5.5t8 -7q0 -1 -2 -7.5t-4.5 -14t-5 -13.5t-3.5 -6q-4 3 -11 6t-15 5.5t-15 4t-12 1.5q-19 -53 -30.5 -88t-18.5 -59.5t-9 -42t-2 -36.5q1 -11 8.5 -21t25.5 -10q20 0 49.5 14t61.5 38.5t63 59t53 74.5q2 3 4 3 q1 0 6 -4t10.5 -9t10 -9.5zM277 294q-48 0 -83 -18.5t-56.5 -48t-31.5 -65t-9 -68.5q1 -21 7.5 -36t15.5 -15q22 0 50 31.5t59 94.5q14 36 25 64t24 59zM347 450q3 -19 -1 -23q-1 -1 -7.5 -4t-14 -6t-14.5 -5.5t-10 -2.5t-5 11q-3 15 -5 26.5t-4 22t-5 21.5t-9 25 q-2 7 -6 8.5t-8 -4.5q-9 -12 -17 -21.5t-15 -18t-14.5 -17t-15.5 -20.5q-10 -16 -14 -16q-1 0 -8.5 0.5t-16 1t-15.5 2t-8 3.5q-2 8 7 20q13 17 29.5 35.5t34 38t35 37.5t32.5 33q4 4 10 3t8 -5q7 -21 16 -41.5t17.5 -39.5t15 -35.5t8.5 -28.5zM432 552q0 -3 -4 -7 t-9.5 -7.5t-10 -5.5t-5.5 0q-15 19 -33 39.5t-35.5 41t-33.5 40.5t-27 38q0 3 6 9t13.5 11.5t14.5 10t8 4.5h6t6 -3q9 -17 18 -34.5t21 -38t27.5 -44.5t37.5 -54z" />
<glyph unicode="&#xc2;&#x309;" horiz-adv-x="810" d="M664 645q3 -19 -1 -23q-1 -1 -7.5 -4t-14 -6t-14.5 -5.5t-10 -2.5t-5 11q-3 15 -5 26.5t-4 22t-5 21.5t-9 25q-2 7 -6 8.5t-8 -4.5q-9 -12 -17 -21.5t-15 -18t-14.5 -17t-15.5 -20.5q-10 -16 -14 -16q-1 0 -8.5 0.5t-16 1t-15.5 2t-8 3.5q-2 8 7 20q13 17 29.5 35.5 t34 38t35 37.5t32.5 33q4 4 10 3t8 -5q7 -21 16 -41.5t17.5 -39.5t15 -35.5t8.5 -28.5zM617 742q0 2 1 9t3 8q39 16 57 39t18 43q-1 18 -10.5 26.5t-32.5 8.5q-11 0 -17 -2t-11 -2q-3 0 -4 6t-1 13t1.5 13.5t4.5 7.5q12 3 27 6t31 3q32 0 53 -16t23 -46q1 -28 -15.5 -52.5 t-39.5 -42.5t-46.5 -28t-36.5 -10q-2 0 -3.5 7t-1.5 9zM309 289q5 -12 29.5 -15.5t88.5 -3.5q43 0 70 -3.5t39 -6.5q15 -4 17 0t3 13q2 27 -2 66t-8.5 76t-8.5 65t-4 33q-1 2 -3 7t-11 -3q-3 -3 -16 -15.5t-32 -31.5t-41.5 -42t-45 -47.5t-42 -48t-33.5 -43.5zM-5 -41 q-6 25 5.5 44.5t35.5 46.5q204 244 328 378.5t162 164.5q9 6 30 6.5t34 -1.5q12 -2 15 -4t-1 -7q-7 -10 -7.5 -24.5t0.5 -31.5q0 -11 1.5 -44t4 -77t5 -93.5t5.5 -94t6 -77.5t5 -44q8 -33 21 -40.5t24 -7.5q7 0 17 4.5t18 6.5q5 2 9.5 -3.5t7.5 -12.5t2.5 -13.5t-5.5 -8.5 q-4 -1 -17.5 -6t-30.5 -10t-34.5 -10t-30.5 -7q-10 0 -28.5 7t-25.5 21q1 8 1.5 29t1 45t0.5 46t-1 30q-4 14 -13.5 26.5t-35.5 20.5q-9 3 -40 3t-67 1t-70 4t-49 11q-40 -47 -71 -84t-54 -68t-39.5 -57.5t-28.5 -52.5q-6 -18 -6.5 -30t4.5 -35q-1 -5 -10.5 -12.5 t-11.5 -5.5z" />
<glyph unicode="&#xe2;&#x309;" horiz-adv-x="428" d="M576 194q-25 -43 -58.5 -80.5t-71 -65t-76 -43t-73.5 -15.5q-33 0 -55.5 16.5t-23.5 37.5q0 7 1 22.5t7 31.5q-28 -48 -65 -75.5t-75 -27.5q-10 0 -21 7.5t-20 19.5t-15.5 26t-6.5 26q-2 52 16.5 99t54 82.5t85 56.5t109.5 21q3 15 7.5 19.5t10.5 7.5l59 12l3 -1 q-7 -8 -9.5 -17.5t-8.5 -21.5q6 0 15.5 -1.5t18 -4t15.5 -5.5t8 -7q0 -1 -2 -7.5t-4.5 -14t-5 -13.5t-3.5 -6q-4 3 -11 6t-15 5.5t-15 4t-12 1.5q-19 -53 -30.5 -88t-18.5 -59.5t-9 -42t-2 -36.5q1 -11 8.5 -21t25.5 -10q20 0 49.5 14t61.5 38.5t63 59t53 74.5q2 3 4 3 q1 0 6 -4t10.5 -9t10 -9.5zM277 294q-48 0 -83 -18.5t-56.5 -48t-31.5 -65t-9 -68.5q1 -21 7.5 -36t15.5 -15q22 0 50 31.5t59 94.5q14 36 25 64t24 59zM377 450q3 -19 -1 -23q-1 -1 -7.5 -4t-14 -6t-14.5 -5.5t-10 -2.5t-5 11q-3 15 -5 26.5t-4 22t-5 21.5t-9 25 q-2 7 -6 8.5t-8 -4.5q-9 -12 -17 -21.5t-15 -18t-14.5 -17t-15.5 -20.5q-10 -16 -14 -16q-1 0 -8.5 0.5t-16 1t-15.5 2t-8 3.5q-2 8 7 20q13 17 29.5 35.5t34 38t35 37.5t32.5 33q4 4 10 3t8 -5q7 -21 16 -41.5t17.5 -39.5t15 -35.5t8.5 -28.5zM305 544q0 2 1 9t3 8 q39 16 57 39t18 43q-1 18 -10.5 26.5t-32.5 8.5q-11 0 -17 -2t-11 -2q-3 0 -4 6t-1 13t1.5 13.5t4.5 7.5q12 3 27 6t31 3q32 0 53 -16t23 -46q1 -28 -15.5 -52.5t-39.5 -42.5t-46.5 -28t-36.5 -10q-2 0 -3.5 7t-1.5 9z" />
<glyph unicode="&#xc2;&#x303;" horiz-adv-x="810" d="M654 674q3 -19 -1 -23q-1 -1 -7.5 -4t-14 -6t-14.5 -5.5t-10 -2.5t-5 11q-3 15 -5 26.5t-4 22t-5 21.5t-9 25q-2 7 -6 8.5t-8 -4.5q-9 -12 -17 -21.5t-15 -18t-14.5 -17t-15.5 -20.5q-10 -16 -14 -16q-1 0 -8.5 0.5t-16 1t-15.5 2t-8 3.5q-2 8 7 20q13 17 29.5 35.5 t34 38t35 37.5t32.5 33q4 4 10 3t8 -5q7 -21 16 -41.5t17.5 -39.5t15 -35.5t8.5 -28.5zM745 947q2 -18 -2.5 -34.5t-13.5 -29.5t-22.5 -21t-30.5 -8q-21 0 -40 8t-36.5 18t-34 18t-31.5 8q-11 0 -17 -3t-9.5 -8t-6 -12.5t-6.5 -15.5q-3 -5 -12 -7t-18.5 -1t-16 5.5 t-5.5 11.5q2 10 9.5 25t19 29.5t28 25t36.5 10.5q17 0 34.5 -9t34 -19.5t32 -19.5t28.5 -9q17 0 26.5 10.5t4.5 27.5q-1 3 6 6.5t16 4.5t17.5 -1t9.5 -10zM309 289q5 -12 29.5 -15.5t88.5 -3.5q43 0 70 -3.5t39 -6.5q15 -4 17 0t3 13q2 27 -2 66t-8.5 76t-8.5 65t-4 33 q-1 2 -3 7t-11 -3q-3 -3 -16 -15.5t-32 -31.5t-41.5 -42t-45 -47.5t-42 -48t-33.5 -43.5zM-5 -41q-6 25 5.5 44.5t35.5 46.5q204 244 328 378.5t162 164.5q9 6 30 6.5t34 -1.5q12 -2 15 -4t-1 -7q-7 -10 -7.5 -24.5t0.5 -31.5q0 -11 1.5 -44t4 -77t5 -93.5t5.5 -94t6 -77.5 t5 -44q8 -33 21 -40.5t24 -7.5q7 0 17 4.5t18 6.5q5 2 9.5 -3.5t7.5 -12.5t2.5 -13.5t-5.5 -8.5q-4 -1 -17.5 -6t-30.5 -10t-34.5 -10t-30.5 -7q-10 0 -28.5 7t-25.5 21q1 8 1.5 29t1 45t0.5 46t-1 30q-4 14 -13.5 26.5t-35.5 20.5q-9 3 -40 3t-67 1t-70 4t-49 11 q-40 -47 -71 -84t-54 -68t-39.5 -57.5t-28.5 -52.5q-6 -18 -6.5 -30t4.5 -35q-1 -5 -10.5 -12.5t-11.5 -5.5z" />
<glyph unicode="&#xe2;&#x303;" horiz-adv-x="428" d="M576 194q-25 -43 -58.5 -80.5t-71 -65t-76 -43t-73.5 -15.5q-33 0 -55.5 16.5t-23.5 37.5q0 7 1 22.5t7 31.5q-28 -48 -65 -75.5t-75 -27.5q-10 0 -21 7.5t-20 19.5t-15.5 26t-6.5 26q-2 52 16.5 99t54 82.5t85 56.5t109.5 21q3 15 7.5 19.5t10.5 7.5l59 12l3 -1 q-7 -8 -9.5 -17.5t-8.5 -21.5q6 0 15.5 -1.5t18 -4t15.5 -5.5t8 -7q0 -1 -2 -7.5t-4.5 -14t-5 -13.5t-3.5 -6q-4 3 -11 6t-15 5.5t-15 4t-12 1.5q-19 -53 -30.5 -88t-18.5 -59.5t-9 -42t-2 -36.5q1 -11 8.5 -21t25.5 -10q20 0 49.5 14t61.5 38.5t63 59t53 74.5q2 3 4 3 q1 0 6 -4t10.5 -9t10 -9.5zM277 294q-48 0 -83 -18.5t-56.5 -48t-31.5 -65t-9 -68.5q1 -21 7.5 -36t15.5 -15q22 0 50 31.5t59 94.5q14 36 25 64t24 59zM355 450q3 -19 -1 -23q-1 -1 -7.5 -4t-14 -6t-14.5 -5.5t-10 -2.5t-5 11q-3 15 -5 26.5t-4 22t-5 21.5t-9 25 q-2 7 -6 8.5t-8 -4.5q-9 -12 -17 -21.5t-15 -18t-14.5 -17t-15.5 -20.5q-10 -16 -14 -16q-1 0 -8.5 0.5t-16 1t-15.5 2t-8 3.5q-2 8 7 20q13 17 29.5 35.5t34 38t35 37.5t32.5 33q4 4 10 3t8 -5q7 -21 16 -41.5t17.5 -39.5t15 -35.5t8.5 -28.5zM454 736q2 -18 -2.5 -34.5 t-13.5 -29.5t-22.5 -21t-30.5 -8q-21 0 -40 8t-36.5 18t-34 18t-31.5 8q-11 0 -17 -3t-9.5 -8t-6 -12.5t-6.5 -15.5q-3 -5 -12 -7t-18.5 -1t-16 5.5t-5.5 11.5q2 10 9.5 25t19 29.5t28 25t36.5 10.5q17 0 34.5 -9t34 -19.5t32 -19.5t28.5 -9q17 0 26.5 10.5t4.5 27.5 q-1 3 6 6.5t16 4.5t17.5 -1t9.5 -10z" />
<glyph unicode="&#xc2;&#x323;" horiz-adv-x="810" d="M215 -99q15 0 27.5 -9.5t13.5 -34.5q1 -17 -12 -31t-30 -14q-16 0 -28.5 12t-12.5 31q-1 17 10 31.5t32 14.5zM666 669q3 -19 -1 -23q-1 -1 -7.5 -4t-14 -6t-14.5 -5.5t-10 -2.5t-5 11q-3 15 -5 26.5t-4 22t-5 21.5t-9 25q-2 7 -6 8.5t-8 -4.5q-9 -12 -17 -21.5t-15 -18 t-14.5 -17t-15.5 -20.5q-10 -16 -14 -16q-1 0 -8.5 0.5t-16 1t-15.5 2t-8 3.5q-2 8 7 20q13 17 29.5 35.5t34 38t35 37.5t32.5 33q4 4 10 3t8 -5q7 -21 16 -41.5t17.5 -39.5t15 -35.5t8.5 -28.5zM309 289q5 -12 29.5 -15.5t88.5 -3.5q43 0 70 -3.5t39 -6.5q15 -4 17 0t3 13 q2 27 -2 66t-8.5 76t-8.5 65t-4 33q-1 2 -3 7t-11 -3q-3 -3 -16 -15.5t-32 -31.5t-41.5 -42t-45 -47.5t-42 -48t-33.5 -43.5zM-5 -41q-6 25 5.5 44.5t35.5 46.5q204 244 328 378.5t162 164.5q9 6 30 6.5t34 -1.5q12 -2 15 -4t-1 -7q-7 -10 -7.5 -24.5t0.5 -31.5 q0 -11 1.5 -44t4 -77t5 -93.5t5.5 -94t6 -77.5t5 -44q8 -33 21 -40.5t24 -7.5q7 0 17 4.5t18 6.5q5 2 9.5 -3.5t7.5 -12.5t2.5 -13.5t-5.5 -8.5q-4 -1 -17.5 -6t-30.5 -10t-34.5 -10t-30.5 -7q-10 0 -28.5 7t-25.5 21q1 8 1.5 29t1 45t0.5 46t-1 30q-4 14 -13.5 26.5 t-35.5 20.5q-9 3 -40 3t-67 1t-70 4t-49 11q-40 -47 -71 -84t-54 -68t-39.5 -57.5t-28.5 -52.5q-6 -18 -6.5 -30t4.5 -35q-1 -5 -10.5 -12.5t-11.5 -5.5z" />
<glyph unicode="&#xe2;&#x323;" horiz-adv-x="428" d="M576 194q-25 -43 -58.5 -80.5t-71 -65t-76 -43t-73.5 -15.5q-33 0 -55.5 16.5t-23.5 37.5q0 7 1 22.5t7 31.5q-28 -48 -65 -75.5t-75 -27.5q-10 0 -21 7.5t-20 19.5t-15.5 26t-6.5 26q-2 52 16.5 99t54 82.5t85 56.5t109.5 21q3 15 7.5 19.5t10.5 7.5l59 12l3 -1 q-7 -8 -9.5 -17.5t-8.5 -21.5q6 0 15.5 -1.5t18 -4t15.5 -5.5t8 -7q0 -1 -2 -7.5t-4.5 -14t-5 -13.5t-3.5 -6q-4 3 -11 6t-15 5.5t-15 4t-12 1.5q-19 -53 -30.5 -88t-18.5 -59.5t-9 -42t-2 -36.5q1 -11 8.5 -21t25.5 -10q20 0 49.5 14t61.5 38.5t63 59t53 74.5q2 3 4 3 q1 0 6 -4t10.5 -9t10 -9.5zM277 294q-48 0 -83 -18.5t-56.5 -48t-31.5 -65t-9 -68.5q1 -21 7.5 -36t15.5 -15q22 0 50 31.5t59 94.5q14 36 25 64t24 59zM177 -99q15 0 27.5 -9.5t13.5 -34.5q1 -17 -12 -31t-30 -14q-16 0 -28.5 12t-12.5 31q-1 17 10 31.5t32 14.5zM340 450 q3 -19 -1 -23q-1 -1 -7.5 -4t-14 -6t-14.5 -5.5t-10 -2.5t-5 11q-3 15 -5 26.5t-4 22t-5 21.5t-9 25q-2 7 -6 8.5t-8 -4.5q-9 -12 -17 -21.5t-15 -18t-14.5 -17t-15.5 -20.5q-10 -16 -14 -16q-1 0 -8.5 0.5t-16 1t-15.5 2t-8 3.5q-2 8 7 20q13 17 29.5 35.5t34 38t35 37.5 t32.5 33q4 4 10 3t8 -5q7 -21 16 -41.5t17.5 -39.5t15 -35.5t8.5 -28.5z" />
<glyph unicode="&#x102;&#x301;" horiz-adv-x="810" d="M661 757q3 0 10.5 -2t15.5 -5t14 -6t6 -6v-7.5t-2 -10.5q-11 -35 -38.5 -59t-76.5 -24q-42 0 -69 24.5t-35 60.5q-2 6 3 12t12.5 11t15.5 8t12 3q6 0 7 -9q7 -28 19 -44.5t42 -16.5q29 0 42.5 17t17.5 38q2 7 1.5 11.5t2.5 4.5zM805 916q2 -7 -1 -10q-22 -20 -44 -37.5 t-45.5 -35.5t-48.5 -38.5t-52 -45.5q-3 -3 -8.5 0t-10 7.5t-7.5 9.5t-2 6q44 44 85.5 87t81.5 87q2 3 4.5 3h3.5q2 0 8.5 -4.5t14 -10t14 -11t7.5 -7.5zM309 289q5 -12 29.5 -15.5t88.5 -3.5q43 0 70 -3.5t39 -6.5q15 -4 17 0t3 13q2 27 -2 66t-8.5 76t-8.5 65t-4 33 q-1 2 -3 7t-11 -3q-3 -3 -16 -15.5t-32 -31.5t-41.5 -42t-45 -47.5t-42 -48t-33.5 -43.5zM-5 -41q-6 25 5.5 44.5t35.5 46.5q204 244 328 378.5t162 164.5q9 6 30 6.5t34 -1.5q12 -2 15 -4t-1 -7q-7 -10 -7.5 -24.5t0.5 -31.5q0 -11 1.5 -44t4 -77t5 -93.5t5.5 -94t6 -77.5 t5 -44q8 -33 21 -40.5t24 -7.5q7 0 17 4.5t18 6.5q5 2 9.5 -3.5t7.5 -12.5t2.5 -13.5t-5.5 -8.5q-4 -1 -17.5 -6t-30.5 -10t-34.5 -10t-30.5 -7q-10 0 -28.5 7t-25.5 21q1 8 1.5 29t1 45t0.5 46t-1 30q-4 14 -13.5 26.5t-35.5 20.5q-9 3 -40 3t-67 1t-70 4t-49 11 q-40 -47 -71 -84t-54 -68t-39.5 -57.5t-28.5 -52.5q-6 -18 -6.5 -30t4.5 -35q-1 -5 -10.5 -12.5t-11.5 -5.5z" />
<glyph unicode="&#x103;&#x301;" horiz-adv-x="428" d="M576 194q-25 -43 -58.5 -80.5t-71 -65t-76 -43t-73.5 -15.5q-33 0 -55.5 16.5t-23.5 37.5q0 7 1 22.5t7 31.5q-28 -48 -65 -75.5t-75 -27.5q-10 0 -21 7.5t-20 19.5t-15.5 26t-6.5 26q-2 52 16.5 99t54 82.5t85 56.5t109.5 21q3 15 7.5 19.5t10.5 7.5l59 12l3 -1 q-7 -8 -9.5 -17.5t-8.5 -21.5q6 0 15.5 -1.5t18 -4t15.5 -5.5t8 -7q0 -1 -2 -7.5t-4.5 -14t-5 -13.5t-3.5 -6q-4 3 -11 6t-15 5.5t-15 4t-12 1.5q-19 -53 -30.5 -88t-18.5 -59.5t-9 -42t-2 -36.5q1 -11 8.5 -21t25.5 -10q20 0 49.5 14t61.5 38.5t63 59t53 74.5q2 3 4 3 q1 0 6 -4t10.5 -9t10 -9.5zM277 294q-48 0 -83 -18.5t-56.5 -48t-31.5 -65t-9 -68.5q1 -21 7.5 -36t15.5 -15q22 0 50 31.5t59 94.5q14 36 25 64t24 59zM327 556q3 0 10.5 -2t15.5 -5t14 -6t6 -6v-7.5t-2 -10.5q-11 -35 -38.5 -59t-76.5 -24q-42 0 -69 24.5t-35 60.5 q-2 6 3 12t12.5 11t15.5 8t12 3q6 0 7 -9q7 -28 19 -44.5t42 -16.5q29 0 42.5 17t17.5 38q2 7 1.5 11.5t2.5 4.5zM466 729q2 -7 -1 -10q-22 -20 -44 -37.5t-45.5 -35.5t-48.5 -38.5t-52 -45.5q-3 -3 -8.5 0t-10 7.5t-7.5 9.5t-2 6q44 44 85.5 87t81.5 87q2 3 4.5 3h3.5 q2 0 8.5 -4.5t14 -10t14 -11t7.5 -7.5z" />
<glyph unicode="&#x102;&#x300;" horiz-adv-x="810" d="M644 746q3 0 10.5 -2t15.5 -5t14 -6t6 -6v-7.5t-2 -10.5q-11 -35 -38.5 -59t-76.5 -24q-42 0 -69 24.5t-35 60.5q-2 6 3 12t12.5 11t15.5 8t12 3q6 0 7 -9q7 -28 19 -44.5t42 -16.5q29 0 42.5 17t17.5 38q2 7 1.5 11.5t2.5 4.5zM621 751q0 -3 -4 -7t-9.5 -7.5t-10 -5.5 t-5.5 0q-15 19 -33 39.5t-35.5 41t-33.5 40.5t-27 38q0 3 6 9t13.5 11.5t14.5 10t8 4.5h6t6 -3q9 -17 18 -34.5t21 -38t27.5 -44.5t37.5 -54zM309 289q5 -12 29.5 -15.5t88.5 -3.5q43 0 70 -3.5t39 -6.5q15 -4 17 0t3 13q2 27 -2 66t-8.5 76t-8.5 65t-4 33q-1 2 -3 7t-11 -3 q-3 -3 -16 -15.5t-32 -31.5t-41.5 -42t-45 -47.5t-42 -48t-33.5 -43.5zM-5 -41q-6 25 5.5 44.5t35.5 46.5q204 244 328 378.5t162 164.5q9 6 30 6.5t34 -1.5q12 -2 15 -4t-1 -7q-7 -10 -7.5 -24.5t0.5 -31.5q0 -11 1.5 -44t4 -77t5 -93.5t5.5 -94t6 -77.5t5 -44 q8 -33 21 -40.5t24 -7.5q7 0 17 4.5t18 6.5q5 2 9.5 -3.5t7.5 -12.5t2.5 -13.5t-5.5 -8.5q-4 -1 -17.5 -6t-30.5 -10t-34.5 -10t-30.5 -7q-10 0 -28.5 7t-25.5 21q1 8 1.5 29t1 45t0.5 46t-1 30q-4 14 -13.5 26.5t-35.5 20.5q-9 3 -40 3t-67 1t-70 4t-49 11q-40 -47 -71 -84 t-54 -68t-39.5 -57.5t-28.5 -52.5q-6 -18 -6.5 -30t4.5 -35q-1 -5 -10.5 -12.5t-11.5 -5.5z" />
<glyph unicode="&#x103;&#x300;" horiz-adv-x="428" d="M576 194q-25 -43 -58.5 -80.5t-71 -65t-76 -43t-73.5 -15.5q-33 0 -55.5 16.5t-23.5 37.5q0 7 1 22.5t7 31.5q-28 -48 -65 -75.5t-75 -27.5q-10 0 -21 7.5t-20 19.5t-15.5 26t-6.5 26q-2 52 16.5 99t54 82.5t85 56.5t109.5 21q3 15 7.5 19.5t10.5 7.5l59 12l3 -1 q-7 -8 -9.5 -17.5t-8.5 -21.5q6 0 15.5 -1.5t18 -4t15.5 -5.5t8 -7q0 -1 -2 -7.5t-4.5 -14t-5 -13.5t-3.5 -6q-4 3 -11 6t-15 5.5t-15 4t-12 1.5q-19 -53 -30.5 -88t-18.5 -59.5t-9 -42t-2 -36.5q1 -11 8.5 -21t25.5 -10q20 0 49.5 14t61.5 38.5t63 59t53 74.5q2 3 4 3 q1 0 6 -4t10.5 -9t10 -9.5zM277 294q-48 0 -83 -18.5t-56.5 -48t-31.5 -65t-9 -68.5q1 -21 7.5 -36t15.5 -15q22 0 50 31.5t59 94.5q14 36 25 64t24 59zM318 545q3 0 10.5 -2t15.5 -5t14 -6t6 -6v-7.5t-2 -10.5q-11 -35 -38.5 -59t-76.5 -24q-42 0 -69 24.5t-35 60.5 q-2 6 3 12t12.5 11t15.5 8t12 3q6 0 7 -9q7 -28 19 -44.5t42 -16.5q29 0 42.5 17t17.5 38q2 7 1.5 11.5t2.5 4.5zM307 548q0 -3 -4 -7t-9.5 -7.5t-10 -5.5t-5.5 0q-15 19 -33 39.5t-35.5 41t-33.5 40.5t-27 38q0 3 6 9t13.5 11.5t14.5 10t8 4.5h6t6 -3q9 -17 18 -34.5 t21 -38t27.5 -44.5t37.5 -54z" />
<glyph unicode="&#x102;&#x309;" horiz-adv-x="810" d="M649 750q3 0 10.5 -2t15.5 -5t14 -6t6 -6v-7.5t-2 -10.5q-11 -35 -38.5 -59t-76.5 -24q-42 0 -69 24.5t-35 60.5q-2 6 3 12t12.5 11t15.5 8t12 3q6 0 7 -9q7 -28 19 -44.5t42 -16.5q29 0 42.5 17t17.5 38q2 7 1.5 11.5t2.5 4.5zM559 760q0 2 1 9t3 8q39 16 57 39t18 43 q-1 18 -10.5 26.5t-32.5 8.5q-11 0 -17 -2t-11 -2q-3 0 -4 6t-1 13t1.5 13.5t4.5 7.5q12 3 27 6t31 3q32 0 53 -16t23 -46q1 -28 -15.5 -52.5t-39.5 -42.5t-46.5 -28t-36.5 -10q-2 0 -3.5 7t-1.5 9zM309 289q5 -12 29.5 -15.5t88.5 -3.5q43 0 70 -3.5t39 -6.5q15 -4 17 0 t3 13q2 27 -2 66t-8.5 76t-8.5 65t-4 33q-1 2 -3 7t-11 -3q-3 -3 -16 -15.5t-32 -31.5t-41.5 -42t-45 -47.5t-42 -48t-33.5 -43.5zM-5 -41q-6 25 5.5 44.5t35.5 46.5q204 244 328 378.5t162 164.5q9 6 30 6.5t34 -1.5q12 -2 15 -4t-1 -7q-7 -10 -7.5 -24.5t0.5 -31.5 q0 -11 1.5 -44t4 -77t5 -93.5t5.5 -94t6 -77.5t5 -44q8 -33 21 -40.5t24 -7.5q7 0 17 4.5t18 6.5q5 2 9.5 -3.5t7.5 -12.5t2.5 -13.5t-5.5 -8.5q-4 -1 -17.5 -6t-30.5 -10t-34.5 -10t-30.5 -7q-10 0 -28.5 7t-25.5 21q1 8 1.5 29t1 45t0.5 46t-1 30q-4 14 -13.5 26.5 t-35.5 20.5q-9 3 -40 3t-67 1t-70 4t-49 11q-40 -47 -71 -84t-54 -68t-39.5 -57.5t-28.5 -52.5q-6 -18 -6.5 -30t4.5 -35q-1 -5 -10.5 -12.5t-11.5 -5.5z" />
<glyph unicode="&#x103;&#x309;" horiz-adv-x="428" d="M576 194q-25 -43 -58.5 -80.5t-71 -65t-76 -43t-73.5 -15.5q-33 0 -55.5 16.5t-23.5 37.5q0 7 1 22.5t7 31.5q-28 -48 -65 -75.5t-75 -27.5q-10 0 -21 7.5t-20 19.5t-15.5 26t-6.5 26q-2 52 16.5 99t54 82.5t85 56.5t109.5 21q3 15 7.5 19.5t10.5 7.5l59 12l3 -1 q-7 -8 -9.5 -17.5t-8.5 -21.5q6 0 15.5 -1.5t18 -4t15.5 -5.5t8 -7q0 -1 -2 -7.5t-4.5 -14t-5 -13.5t-3.5 -6q-4 3 -11 6t-15 5.5t-15 4t-12 1.5q-19 -53 -30.5 -88t-18.5 -59.5t-9 -42t-2 -36.5q1 -11 8.5 -21t25.5 -10q20 0 49.5 14t61.5 38.5t63 59t53 74.5q2 3 4 3 q1 0 6 -4t10.5 -9t10 -9.5zM277 294q-48 0 -83 -18.5t-56.5 -48t-31.5 -65t-9 -68.5q1 -21 7.5 -36t15.5 -15q22 0 50 31.5t59 94.5q14 36 25 64t24 59zM321 557q3 0 10.5 -2t15.5 -5t14 -6t6 -6v-7.5t-2 -10.5q-11 -35 -38.5 -59t-76.5 -24q-42 0 -69 24.5t-35 60.5 q-2 6 3 12t12.5 11t15.5 8t12 3q6 0 7 -9q7 -28 19 -44.5t42 -16.5q29 0 42.5 17t17.5 38q2 7 1.5 11.5t2.5 4.5zM245 567q0 2 1 9t3 8q39 16 57 39t18 43q-1 18 -10.5 26.5t-32.5 8.5q-11 0 -17 -2t-11 -2q-3 0 -4 6t-1 13t1.5 13.5t4.5 7.5q12 3 27 6t31 3q32 0 53 -16 t23 -46q1 -28 -15.5 -52.5t-39.5 -42.5t-46.5 -28t-36.5 -10q-2 0 -3.5 7t-1.5 9z" />
<glyph unicode="&#x102;&#x303;" horiz-adv-x="810" d="M645 750q3 0 10.5 -2t15.5 -5t14 -6t6 -6v-7.5t-2 -10.5q-11 -35 -38.5 -59t-76.5 -24q-42 0 -69 24.5t-35 60.5q-2 6 3 12t12.5 11t15.5 8t12 3q6 0 7 -9q7 -28 19 -44.5t42 -16.5q29 0 42.5 17t17.5 38q2 7 1.5 11.5t2.5 4.5zM751 870q2 -18 -2.5 -34.5t-13.5 -29.5 t-22.5 -21t-30.5 -8q-21 0 -40 8t-36.5 18t-34 18t-31.5 8q-11 0 -17 -3t-9.5 -8t-6 -12.5t-6.5 -15.5q-3 -5 -12 -7t-18.5 -1t-16 5.5t-5.5 11.5q2 10 9.5 25t19 29.5t28 25t36.5 10.5q17 0 34.5 -9t34 -19.5t32 -19.5t28.5 -9q17 0 26.5 10.5t4.5 27.5q-1 3 6 6.5t16 4.5 t17.5 -1t9.5 -10zM309 289q5 -12 29.5 -15.5t88.5 -3.5q43 0 70 -3.5t39 -6.5q15 -4 17 0t3 13q2 27 -2 66t-8.5 76t-8.5 65t-4 33q-1 2 -3 7t-11 -3q-3 -3 -16 -15.5t-32 -31.5t-41.5 -42t-45 -47.5t-42 -48t-33.5 -43.5zM-5 -41q-6 25 5.5 44.5t35.5 46.5 q204 244 328 378.5t162 164.5q9 6 30 6.5t34 -1.5q12 -2 15 -4t-1 -7q-7 -10 -7.5 -24.5t0.5 -31.5q0 -11 1.5 -44t4 -77t5 -93.5t5.5 -94t6 -77.5t5 -44q8 -33 21 -40.5t24 -7.5q7 0 17 4.5t18 6.5q5 2 9.5 -3.5t7.5 -12.5t2.5 -13.5t-5.5 -8.5q-4 -1 -17.5 -6t-30.5 -10 t-34.5 -10t-30.5 -7q-10 0 -28.5 7t-25.5 21q1 8 1.5 29t1 45t0.5 46t-1 30q-4 14 -13.5 26.5t-35.5 20.5q-9 3 -40 3t-67 1t-70 4t-49 11q-40 -47 -71 -84t-54 -68t-39.5 -57.5t-28.5 -52.5q-6 -18 -6.5 -30t4.5 -35q-1 -5 -10.5 -12.5t-11.5 -5.5z" />
<glyph unicode="&#x103;&#x303;" horiz-adv-x="428" d="M576 194q-25 -43 -58.5 -80.5t-71 -65t-76 -43t-73.5 -15.5q-33 0 -55.5 16.5t-23.5 37.5q0 7 1 22.5t7 31.5q-28 -48 -65 -75.5t-75 -27.5q-10 0 -21 7.5t-20 19.5t-15.5 26t-6.5 26q-2 52 16.5 99t54 82.5t85 56.5t109.5 21q3 15 7.5 19.5t10.5 7.5l59 12l3 -1 q-7 -8 -9.5 -17.5t-8.5 -21.5q6 0 15.5 -1.5t18 -4t15.5 -5.5t8 -7q0 -1 -2 -7.5t-4.5 -14t-5 -13.5t-3.5 -6q-4 3 -11 6t-15 5.5t-15 4t-12 1.5q-19 -53 -30.5 -88t-18.5 -59.5t-9 -42t-2 -36.5q1 -11 8.5 -21t25.5 -10q20 0 49.5 14t61.5 38.5t63 59t53 74.5q2 3 4 3 q1 0 6 -4t10.5 -9t10 -9.5zM277 294q-48 0 -83 -18.5t-56.5 -48t-31.5 -65t-9 -68.5q1 -21 7.5 -36t15.5 -15q22 0 50 31.5t59 94.5q14 36 25 64t24 59zM324 546q3 0 10.5 -2t15.5 -5t14 -6t6 -6v-7.5t-2 -10.5q-11 -35 -38.5 -59t-76.5 -24q-42 0 -69 24.5t-35 60.5 q-2 6 3 12t12.5 11t15.5 8t12 3q6 0 7 -9q7 -28 19 -44.5t42 -16.5q29 0 42.5 17t17.5 38q2 7 1.5 11.5t2.5 4.5zM412 654q2 -18 -2.5 -34.5t-13.5 -29.5t-22.5 -21t-30.5 -8q-21 0 -40 8t-36.5 18t-34 18t-31.5 8q-11 0 -17 -3t-9.5 -8t-6 -12.5t-6.5 -15.5q-3 -5 -12 -7 t-18.5 -1t-16 5.5t-5.5 11.5q2 10 9.5 25t19 29.5t28 25t36.5 10.5q17 0 34.5 -9t34 -19.5t32 -19.5t28.5 -9q17 0 26.5 10.5t4.5 27.5q-1 3 6 6.5t16 4.5t17.5 -1t9.5 -10z" />
<glyph unicode="&#x102;&#x323;" horiz-adv-x="810" d="M293 -99q15 0 27.5 -9.5t13.5 -34.5q1 -17 -12 -31t-30 -14q-16 0 -28.5 12t-12.5 31q-1 17 10 31.5t32 14.5zM637 751q3 0 10.5 -2t15.5 -5t14 -6t6 -6v-7.5t-2 -10.5q-11 -35 -38.5 -59t-76.5 -24q-42 0 -69 24.5t-35 60.5q-2 6 3 12t12.5 11t15.5 8t12 3q6 0 7 -9 q7 -28 19 -44.5t42 -16.5q29 0 42.5 17t17.5 38q2 7 1.5 11.5t2.5 4.5zM309 289q5 -12 29.5 -15.5t88.5 -3.5q43 0 70 -3.5t39 -6.5q15 -4 17 0t3 13q2 27 -2 66t-8.5 76t-8.5 65t-4 33q-1 2 -3 7t-11 -3q-3 -3 -16 -15.5t-32 -31.5t-41.5 -42t-45 -47.5t-42 -48 t-33.5 -43.5zM-5 -41q-6 25 5.5 44.5t35.5 46.5q204 244 328 378.5t162 164.5q9 6 30 6.5t34 -1.5q12 -2 15 -4t-1 -7q-7 -10 -7.5 -24.5t0.5 -31.5q0 -11 1.5 -44t4 -77t5 -93.5t5.5 -94t6 -77.5t5 -44q8 -33 21 -40.5t24 -7.5q7 0 17 4.5t18 6.5q5 2 9.5 -3.5t7.5 -12.5 t2.5 -13.5t-5.5 -8.5q-4 -1 -17.5 -6t-30.5 -10t-34.5 -10t-30.5 -7q-10 0 -28.5 7t-25.5 21q1 8 1.5 29t1 45t0.5 46t-1 30q-4 14 -13.5 26.5t-35.5 20.5q-9 3 -40 3t-67 1t-70 4t-49 11q-40 -47 -71 -84t-54 -68t-39.5 -57.5t-28.5 -52.5q-6 -18 -6.5 -30t4.5 -35 q-1 -5 -10.5 -12.5t-11.5 -5.5z" />
<glyph unicode="&#x103;&#x323;" horiz-adv-x="428" d="M576 194q-25 -43 -58.5 -80.5t-71 -65t-76 -43t-73.5 -15.5q-33 0 -55.5 16.5t-23.5 37.5q0 7 1 22.5t7 31.5q-28 -48 -65 -75.5t-75 -27.5q-10 0 -21 7.5t-20 19.5t-15.5 26t-6.5 26q-2 52 16.5 99t54 82.5t85 56.5t109.5 21q3 15 7.5 19.5t10.5 7.5l59 12l3 -1 q-7 -8 -9.5 -17.5t-8.5 -21.5q6 0 15.5 -1.5t18 -4t15.5 -5.5t8 -7q0 -1 -2 -7.5t-4.5 -14t-5 -13.5t-3.5 -6q-4 3 -11 6t-15 5.5t-15 4t-12 1.5q-19 -53 -30.5 -88t-18.5 -59.5t-9 -42t-2 -36.5q1 -11 8.5 -21t25.5 -10q20 0 49.5 14t61.5 38.5t63 59t53 74.5q2 3 4 3 q1 0 6 -4t10.5 -9t10 -9.5zM277 294q-48 0 -83 -18.5t-56.5 -48t-31.5 -65t-9 -68.5q1 -21 7.5 -36t15.5 -15q22 0 50 31.5t59 94.5q14 36 25 64t24 59zM177 -99q15 0 27.5 -9.5t13.5 -34.5q1 -17 -12 -31t-30 -14q-16 0 -28.5 12t-12.5 31q-1 17 10 31.5t32 14.5zM357 546 q3 0 10.5 -2t15.5 -5t14 -6t6 -6v-7.5t-2 -10.5q-11 -35 -38.5 -59t-76.5 -24q-42 0 -69 24.5t-35 60.5q-2 6 3 12t12.5 11t15.5 8t12 3q6 0 7 -9q7 -28 19 -44.5t42 -16.5q29 0 42.5 17t17.5 38q2 7 1.5 11.5t2.5 4.5z" />
<glyph unicode="E&#x323;" horiz-adv-x="645" d="M654 128q4 3 7 -5q-3 -4 -6 -14t-5.5 -22t-4 -22.5t-2.5 -14.5q-8 -17 -34 -24q-32 -8 -69.5 -14.5t-76.5 -11.5t-78 -8t-73 -3q-54 0 -92 3.5t-62 12t-35.5 22.5t-12.5 34q0 19 6 35q1 3 6 17.5t12.5 35t15.5 44t15 44.5t11.5 36.5t4.5 19.5q0 3 -4 4.5t-20 1.5 q-5 0 -9 4q0 3 3 9t8.5 12.5t11 11.5t9.5 6q28 5 37 33q3 9 10.5 33.5t15.5 50.5t13.5 48t3.5 28q-2 5 -9 5q-41 0 -81 -3t-67 -11l-3 1q-1 6 -0.5 16.5t2.5 21.5t4.5 20t4.5 11q42 -3 88.5 -4.5t88.5 -1.5q10 0 31.5 0.5t50 1.5t61.5 2.5t65.5 2.5t62 1.5t50.5 0.5 q7 0 9 -8q-1 -3 -4 -14t-6.5 -24.5t-6.5 -27t-4 -20.5l-5 1q-4 8 -8 14.5t-9 8.5q-44 6 -93 9t-98 3q-20 0 -28 -14q-14 -24 -23.5 -43t-17 -38.5t-15 -41.5t-17.5 -51q-3 -12 12 -12q5 0 10.5 -0.5t13.5 -1t21 -0.5h33q62 0 107 3.5t91 14.5l4 -4q-1 -3 -5 -10.5 t-7.5 -16.5t-6.5 -17t-3 -11q-1 -5 -11 -5q-35 0 -76 1t-83 1h-49.5t-32 -0.5t-20 -1t-13.5 -0.5q-10 0 -13 -8q-13 -41 -25 -75.5t-20 -76.5q-2 -9 -2 -17v-15q2 -37 28.5 -48t81.5 -11q35 0 83 5.5t96.5 16.5t91 27t65.5 37zM284 -99q15 0 27.5 -9.5t13.5 -34.5 q1 -17 -12 -31t-30 -14q-16 0 -28.5 12t-12.5 31q-1 17 10 31.5t32 14.5z" />
<glyph unicode="e&#x323;" horiz-adv-x="308" d="M128 161q-3 -11 -5 -29.5t-1 -35.5q2 -37 14 -46t32 -9q34 0 67 14t62 36.5t52 49.5t36 52q2 2 7 -1t11 -7.5t11 -9t6 -6.5q-18 -32 -47 -64t-65.5 -58t-78 -42t-84.5 -16q-35 0 -62.5 26t-29.5 71q-1 41 12 84t36.5 78.5t57 58.5t72.5 23q23 0 42 -12t21 -40 q1 -21 -9 -42t-31 -37.5t-52.5 -27t-73.5 -10.5zM137 204q10 -2 21 -2q15 0 30.5 5.5t28 14.5t20 20.5t7.5 23.5q0 10 -4.5 14.5t-19.5 4.5q-7 0 -19 -5t-24.5 -15.5t-23 -25.5t-16.5 -35zM166 -99q15 0 27.5 -9.5t13.5 -34.5q1 -17 -12 -31t-30 -14q-16 0 -28.5 12 t-12.5 31q-1 17 10 31.5t32 14.5z" />
<glyph unicode="E&#x309;" horiz-adv-x="645" d="M654 128q4 3 7 -5q-3 -4 -6 -14t-5.5 -22t-4 -22.5t-2.5 -14.5q-8 -17 -34 -24q-32 -8 -69.5 -14.5t-76.5 -11.5t-78 -8t-73 -3q-54 0 -92 3.5t-62 12t-35.5 22.5t-12.5 34q0 19 6 35q1 3 6 17.5t12.5 35t15.5 44t15 44.5t11.5 36.5t4.5 19.5q0 3 -4 4.5t-20 1.5 q-5 0 -9 4q0 3 3 9t8.5 12.5t11 11.5t9.5 6q28 5 37 33q3 9 10.5 33.5t15.5 50.5t13.5 48t3.5 28q-2 5 -9 5q-41 0 -81 -3t-67 -11l-3 1q-1 6 -0.5 16.5t2.5 21.5t4.5 20t4.5 11q42 -3 88.5 -4.5t88.5 -1.5q10 0 31.5 0.5t50 1.5t61.5 2.5t65.5 2.5t62 1.5t50.5 0.5 q7 0 9 -8q-1 -3 -4 -14t-6.5 -24.5t-6.5 -27t-4 -20.5l-5 1q-4 8 -8 14.5t-9 8.5q-44 6 -93 9t-98 3q-20 0 -28 -14q-14 -24 -23.5 -43t-17 -38.5t-15 -41.5t-17.5 -51q-3 -12 12 -12q5 0 10.5 -0.5t13.5 -1t21 -0.5h33q62 0 107 3.5t91 14.5l4 -4q-1 -3 -5 -10.5 t-7.5 -16.5t-6.5 -17t-3 -11q-1 -5 -11 -5q-35 0 -76 1t-83 1h-49.5t-32 -0.5t-20 -1t-13.5 -0.5q-10 0 -13 -8q-13 -41 -25 -75.5t-20 -76.5q-2 -9 -2 -17v-15q2 -37 28.5 -48t81.5 -11q35 0 83 5.5t96.5 16.5t91 27t65.5 37zM393 650q0 2 1 9t3 8q39 16 57 39t18 43 q-1 18 -10.5 26.5t-32.5 8.5q-11 0 -17 -2t-11 -2q-3 0 -4 6t-1 13t1.5 13.5t4.5 7.5q12 3 27 6t31 3q32 0 53 -16t23 -46q1 -28 -15.5 -52.5t-39.5 -42.5t-46.5 -28t-36.5 -10q-2 0 -3.5 7t-1.5 9z" />
<glyph unicode="e&#x309;" horiz-adv-x="308" d="M128 161q-3 -11 -5 -29.5t-1 -35.5q2 -37 14 -46t32 -9q34 0 67 14t62 36.5t52 49.5t36 52q2 2 7 -1t11 -7.5t11 -9t6 -6.5q-18 -32 -47 -64t-65.5 -58t-78 -42t-84.5 -16q-35 0 -62.5 26t-29.5 71q-1 41 12 84t36.5 78.5t57 58.5t72.5 23q23 0 42 -12t21 -40 q1 -21 -9 -42t-31 -37.5t-52.5 -27t-73.5 -10.5zM137 204q10 -2 21 -2q15 0 30.5 5.5t28 14.5t20 20.5t7.5 23.5q0 10 -4.5 14.5t-19.5 4.5q-7 0 -19 -5t-24.5 -15.5t-23 -25.5t-16.5 -35zM195 416q0 2 1 9t3 8q39 16 57 39t18 43q-1 18 -10.5 26.5t-32.5 8.5q-11 0 -17 -2 t-11 -2q-3 0 -4 6t-1 13t1.5 13.5t4.5 7.5q12 3 27 6t31 3q32 0 53 -16t23 -46q1 -28 -15.5 -52.5t-39.5 -42.5t-46.5 -28t-36.5 -10q-2 0 -3.5 7t-1.5 9z" />
<glyph unicode="E&#x303;" horiz-adv-x="645" d="M654 128q4 3 7 -5q-3 -4 -6 -14t-5.5 -22t-4 -22.5t-2.5 -14.5q-8 -17 -34 -24q-32 -8 -69.5 -14.5t-76.5 -11.5t-78 -8t-73 -3q-54 0 -92 3.5t-62 12t-35.5 22.5t-12.5 34q0 19 6 35q1 3 6 17.5t12.5 35t15.5 44t15 44.5t11.5 36.5t4.5 19.5q0 3 -4 4.5t-20 1.5 q-5 0 -9 4q0 3 3 9t8.5 12.5t11 11.5t9.5 6q28 5 37 33q3 9 10.5 33.5t15.5 50.5t13.5 48t3.5 28q-2 5 -9 5q-41 0 -81 -3t-67 -11l-3 1q-1 6 -0.5 16.5t2.5 21.5t4.5 20t4.5 11q42 -3 88.5 -4.5t88.5 -1.5q10 0 31.5 0.5t50 1.5t61.5 2.5t65.5 2.5t62 1.5t50.5 0.5 q7 0 9 -8q-1 -3 -4 -14t-6.5 -24.5t-6.5 -27t-4 -20.5l-5 1q-4 8 -8 14.5t-9 8.5q-44 6 -93 9t-98 3q-20 0 -28 -14q-14 -24 -23.5 -43t-17 -38.5t-15 -41.5t-17.5 -51q-3 -12 12 -12q5 0 10.5 -0.5t13.5 -1t21 -0.5h33q62 0 107 3.5t91 14.5l4 -4q-1 -3 -5 -10.5 t-7.5 -16.5t-6.5 -17t-3 -11q-1 -5 -11 -5q-35 0 -76 1t-83 1h-49.5t-32 -0.5t-20 -1t-13.5 -0.5q-10 0 -13 -8q-13 -41 -25 -75.5t-20 -76.5q-2 -9 -2 -17v-15q2 -37 28.5 -48t81.5 -11q35 0 83 5.5t96.5 16.5t91 27t65.5 37zM569 754q2 -18 -2.5 -34.5t-13.5 -29.5 t-22.5 -21t-30.5 -8q-21 0 -40 8t-36.5 18t-34 18t-31.5 8q-11 0 -17 -3t-9.5 -8t-6 -12.5t-6.5 -15.5q-3 -5 -12 -7t-18.5 -1t-16 5.5t-5.5 11.5q2 10 9.5 25t19 29.5t28 25t36.5 10.5q17 0 34.5 -9t34 -19.5t32 -19.5t28.5 -9q17 0 26.5 10.5t4.5 27.5q-1 3 6 6.5t16 4.5 t17.5 -1t9.5 -10z" />
<glyph unicode="e&#x303;" horiz-adv-x="308" d="M128 161q-3 -11 -5 -29.5t-1 -35.5q2 -37 14 -46t32 -9q34 0 67 14t62 36.5t52 49.5t36 52q2 2 7 -1t11 -7.5t11 -9t6 -6.5q-18 -32 -47 -64t-65.5 -58t-78 -42t-84.5 -16q-35 0 -62.5 26t-29.5 71q-1 41 12 84t36.5 78.5t57 58.5t72.5 23q23 0 42 -12t21 -40 q1 -21 -9 -42t-31 -37.5t-52.5 -27t-73.5 -10.5zM137 204q10 -2 21 -2q15 0 30.5 5.5t28 14.5t20 20.5t7.5 23.5q0 10 -4.5 14.5t-19.5 4.5q-7 0 -19 -5t-24.5 -15.5t-23 -25.5t-16.5 -35zM423 536q2 -18 -2.5 -34.5t-13.5 -29.5t-22.5 -21t-30.5 -8q-21 0 -40 8t-36.5 18 t-34 18t-31.5 8q-11 0 -17 -3t-9.5 -8t-6 -12.5t-6.5 -15.5q-3 -5 -12 -7t-18.5 -1t-16 5.5t-5.5 11.5q2 10 9.5 25t19 29.5t28 25t36.5 10.5q17 0 34.5 -9t34 -19.5t32 -19.5t28.5 -9q17 0 26.5 10.5t4.5 27.5q-1 3 6 6.5t16 4.5t17.5 -1t9.5 -10z" />
<glyph unicode="&#xca;&#x301;" horiz-adv-x="645" d="M654 128q4 3 7 -5q-3 -4 -6 -14t-5.5 -22t-4 -22.5t-2.5 -14.5q-8 -17 -34 -24q-32 -8 -69.5 -14.5t-76.5 -11.5t-78 -8t-73 -3q-54 0 -92 3.5t-62 12t-35.5 22.5t-12.5 34q0 19 6 35q1 3 6 17.5t12.5 35t15.5 44t15 44.5t11.5 36.5t4.5 19.5q0 3 -4 4.5t-20 1.5 q-5 0 -9 4q0 3 3 9t8.5 12.5t11 11.5t9.5 6q28 5 37 33q3 9 10.5 33.5t15.5 50.5t13.5 48t3.5 28q-2 5 -9 5q-41 0 -81 -3t-67 -11l-3 1q-1 6 -0.5 16.5t2.5 21.5t4.5 20t4.5 11q42 -3 88.5 -4.5t88.5 -1.5q10 0 31.5 0.5t50 1.5t61.5 2.5t65.5 2.5t62 1.5t50.5 0.5 q7 0 9 -8q-1 -3 -4 -14t-6.5 -24.5t-6.5 -27t-4 -20.5l-5 1q-4 8 -8 14.5t-9 8.5q-44 6 -93 9t-98 3q-20 0 -28 -14q-14 -24 -23.5 -43t-17 -38.5t-15 -41.5t-17.5 -51q-3 -12 12 -12q5 0 10.5 -0.5t13.5 -1t21 -0.5h33q62 0 107 3.5t91 14.5l4 -4q-1 -3 -5 -10.5 t-7.5 -16.5t-6.5 -17t-3 -11q-1 -5 -11 -5q-35 0 -76 1t-83 1h-49.5t-32 -0.5t-20 -1t-13.5 -0.5q-10 0 -13 -8q-13 -41 -25 -75.5t-20 -76.5q-2 -9 -2 -17v-15q2 -37 28.5 -48t81.5 -11q35 0 83 5.5t96.5 16.5t91 27t65.5 37zM542 672q3 -19 -1 -23q-1 -1 -7.5 -4t-14 -6 t-14.5 -5.5t-10 -2.5t-5 11q-3 15 -5 26.5t-4 22t-5 21.5t-9 25q-2 7 -6 8.5t-8 -4.5q-9 -12 -17 -21.5t-15 -18t-14.5 -17t-15.5 -20.5q-10 -16 -14 -16q-1 0 -8.5 0.5t-16 1t-15.5 2t-8 3.5q-2 8 7 20q13 17 29.5 35.5t34 38t35 37.5t32.5 33q4 4 10 3t8 -5 q7 -21 16 -41.5t17.5 -39.5t15 -35.5t8.5 -28.5zM749 936q2 -7 -1 -10q-22 -20 -44 -37.5t-45.5 -35.5t-48.5 -38.5t-52 -45.5q-3 -3 -8.5 0t-10 7.5t-7.5 9.5t-2 6q44 44 85.5 87t81.5 87q2 3 4.5 3h3.5q2 0 8.5 -4.5t14 -10t14 -11t7.5 -7.5z" />
<glyph unicode="&#xea;&#x301;" horiz-adv-x="308" d="M128 161q-3 -11 -5 -29.5t-1 -35.5q2 -37 14 -46t32 -9q34 0 67 14t62 36.5t52 49.5t36 52q2 2 7 -1t11 -7.5t11 -9t6 -6.5q-18 -32 -47 -64t-65.5 -58t-78 -42t-84.5 -16q-35 0 -62.5 26t-29.5 71q-1 41 12 84t36.5 78.5t57 58.5t72.5 23q23 0 42 -12t21 -40 q1 -21 -9 -42t-31 -37.5t-52.5 -27t-73.5 -10.5zM137 204q10 -2 21 -2q15 0 30.5 5.5t28 14.5t20 20.5t7.5 23.5q0 10 -4.5 14.5t-19.5 4.5q-7 0 -19 -5t-24.5 -15.5t-23 -25.5t-16.5 -35zM347 443q3 -19 -1 -23q-1 -1 -7.5 -4t-14 -6t-14.5 -5.5t-10 -2.5t-5 11 q-3 15 -5 26.5t-4 22t-5 21.5t-9 25q-2 7 -6 8.5t-8 -4.5q-9 -12 -17 -21.5t-15 -18t-14.5 -17t-15.5 -20.5q-10 -16 -14 -16q-1 0 -8.5 0.5t-16 1t-15.5 2t-8 3.5q-2 8 7 20q13 17 29.5 35.5t34 38t35 37.5t32.5 33q4 4 10 3t8 -5q7 -21 16 -41.5t17.5 -39.5t15 -35.5 t8.5 -28.5zM554 703q2 -7 -1 -10q-22 -20 -44 -37.5t-45.5 -35.5t-48.5 -38.5t-52 -45.5q-3 -3 -8.5 0t-10 7.5t-7.5 9.5t-2 6q44 44 85.5 87t81.5 87q2 3 4.5 3h3.5q2 0 8.5 -4.5t14 -10t14 -11t7.5 -7.5z" />
<glyph unicode="&#xca;&#x300;" horiz-adv-x="645" d="M654 128q4 3 7 -5q-3 -4 -6 -14t-5.5 -22t-4 -22.5t-2.5 -14.5q-8 -17 -34 -24q-32 -8 -69.5 -14.5t-76.5 -11.5t-78 -8t-73 -3q-54 0 -92 3.5t-62 12t-35.5 22.5t-12.5 34q0 19 6 35q1 3 6 17.5t12.5 35t15.5 44t15 44.5t11.5 36.5t4.5 19.5q0 3 -4 4.5t-20 1.5 q-5 0 -9 4q0 3 3 9t8.5 12.5t11 11.5t9.5 6q28 5 37 33q3 9 10.5 33.5t15.5 50.5t13.5 48t3.5 28q-2 5 -9 5q-41 0 -81 -3t-67 -11l-3 1q-1 6 -0.5 16.5t2.5 21.5t4.5 20t4.5 11q42 -3 88.5 -4.5t88.5 -1.5q10 0 31.5 0.5t50 1.5t61.5 2.5t65.5 2.5t62 1.5t50.5 0.5 q7 0 9 -8q-1 -3 -4 -14t-6.5 -24.5t-6.5 -27t-4 -20.5l-5 1q-4 8 -8 14.5t-9 8.5q-44 6 -93 9t-98 3q-20 0 -28 -14q-14 -24 -23.5 -43t-17 -38.5t-15 -41.5t-17.5 -51q-3 -12 12 -12q5 0 10.5 -0.5t13.5 -1t21 -0.5h33q62 0 107 3.5t91 14.5l4 -4q-1 -3 -5 -10.5 t-7.5 -16.5t-6.5 -17t-3 -11q-1 -5 -11 -5q-35 0 -76 1t-83 1h-49.5t-32 -0.5t-20 -1t-13.5 -0.5q-10 0 -13 -8q-13 -41 -25 -75.5t-20 -76.5q-2 -9 -2 -17v-15q2 -37 28.5 -48t81.5 -11q35 0 83 5.5t96.5 16.5t91 27t65.5 37zM533 676q3 -19 -1 -23q-1 -1 -7.5 -4t-14 -6 t-14.5 -5.5t-10 -2.5t-5 11q-3 15 -5 26.5t-4 22t-5 21.5t-9 25q-2 7 -6 8.5t-8 -4.5q-9 -12 -17 -21.5t-15 -18t-14.5 -17t-15.5 -20.5q-10 -16 -14 -16q-1 0 -8.5 0.5t-16 1t-15.5 2t-8 3.5q-2 8 7 20q13 17 29.5 35.5t34 38t35 37.5t32.5 33q4 4 10 3t8 -5 q7 -21 16 -41.5t17.5 -39.5t15 -35.5t8.5 -28.5zM645 797q0 -3 -4 -7t-9.5 -7.5t-10 -5.5t-5.5 0q-15 19 -33 39.5t-35.5 41t-33.5 40.5t-27 38q0 3 6 9t13.5 11.5t14.5 10t8 4.5h6t6 -3q9 -17 18 -34.5t21 -38t27.5 -44.5t37.5 -54z" />
<glyph unicode="&#xea;&#x300;" horiz-adv-x="308" d="M128 161q-3 -11 -5 -29.5t-1 -35.5q2 -37 14 -46t32 -9q34 0 67 14t62 36.5t52 49.5t36 52q2 2 7 -1t11 -7.5t11 -9t6 -6.5q-18 -32 -47 -64t-65.5 -58t-78 -42t-84.5 -16q-35 0 -62.5 26t-29.5 71q-1 41 12 84t36.5 78.5t57 58.5t72.5 23q23 0 42 -12t21 -40 q1 -21 -9 -42t-31 -37.5t-52.5 -27t-73.5 -10.5zM137 204q10 -2 21 -2q15 0 30.5 5.5t28 14.5t20 20.5t7.5 23.5q0 10 -4.5 14.5t-19.5 4.5q-7 0 -19 -5t-24.5 -15.5t-23 -25.5t-16.5 -35zM327 443q3 -19 -1 -23q-1 -1 -7.5 -4t-14 -6t-14.5 -5.5t-10 -2.5t-5 11 q-3 15 -5 26.5t-4 22t-5 21.5t-9 25q-2 7 -6 8.5t-8 -4.5q-9 -12 -17 -21.5t-15 -18t-14.5 -17t-15.5 -20.5q-10 -16 -14 -16q-1 0 -8.5 0.5t-16 1t-15.5 2t-8 3.5q-2 8 7 20q13 17 29.5 35.5t34 38t35 37.5t32.5 33q4 4 10 3t8 -5q7 -21 16 -41.5t17.5 -39.5t15 -35.5 t8.5 -28.5zM403 580q0 -3 -4 -7t-9.5 -7.5t-10 -5.5t-5.5 0q-15 19 -33 39.5t-35.5 41t-33.5 40.5t-27 38q0 3 6 9t13.5 11.5t14.5 10t8 4.5h6t6 -3q9 -17 18 -34.5t21 -38t27.5 -44.5t37.5 -54z" />
<glyph unicode="&#xca;&#x309;" horiz-adv-x="645" d="M654 128q4 3 7 -5q-3 -4 -6 -14t-5.5 -22t-4 -22.5t-2.5 -14.5q-8 -17 -34 -24q-32 -8 -69.5 -14.5t-76.5 -11.5t-78 -8t-73 -3q-54 0 -92 3.5t-62 12t-35.5 22.5t-12.5 34q0 19 6 35q1 3 6 17.5t12.5 35t15.5 44t15 44.5t11.5 36.5t4.5 19.5q0 3 -4 4.5t-20 1.5 q-5 0 -9 4q0 3 3 9t8.5 12.5t11 11.5t9.5 6q28 5 37 33q3 9 10.5 33.5t15.5 50.5t13.5 48t3.5 28q-2 5 -9 5q-41 0 -81 -3t-67 -11l-3 1q-1 6 -0.5 16.5t2.5 21.5t4.5 20t4.5 11q42 -3 88.5 -4.5t88.5 -1.5q10 0 31.5 0.5t50 1.5t61.5 2.5t65.5 2.5t62 1.5t50.5 0.5 q7 0 9 -8q-1 -3 -4 -14t-6.5 -24.5t-6.5 -27t-4 -20.5l-5 1q-4 8 -8 14.5t-9 8.5q-44 6 -93 9t-98 3q-20 0 -28 -14q-14 -24 -23.5 -43t-17 -38.5t-15 -41.5t-17.5 -51q-3 -12 12 -12q5 0 10.5 -0.5t13.5 -1t21 -0.5h33q62 0 107 3.5t91 14.5l4 -4q-1 -3 -5 -10.5 t-7.5 -16.5t-6.5 -17t-3 -11q-1 -5 -11 -5q-35 0 -76 1t-83 1h-49.5t-32 -0.5t-20 -1t-13.5 -0.5q-10 0 -13 -8q-13 -41 -25 -75.5t-20 -76.5q-2 -9 -2 -17v-15q2 -37 28.5 -48t81.5 -11q35 0 83 5.5t96.5 16.5t91 27t65.5 37zM543 695q3 -19 -1 -23q-1 -1 -7.5 -4t-14 -6 t-14.5 -5.5t-10 -2.5t-5 11q-3 15 -5 26.5t-4 22t-5 21.5t-9 25q-2 7 -6 8.5t-8 -4.5q-9 -12 -17 -21.5t-15 -18t-14.5 -17t-15.5 -20.5q-10 -16 -14 -16q-1 0 -8.5 0.5t-16 1t-15.5 2t-8 3.5q-2 8 7 20q13 17 29.5 35.5t34 38t35 37.5t32.5 33q4 4 10 3t8 -5 q7 -21 16 -41.5t17.5 -39.5t15 -35.5t8.5 -28.5zM546 806q0 2 1 9t3 8q39 16 57 39t18 43q-1 18 -10.5 26.5t-32.5 8.5q-11 0 -17 -2t-11 -2q-3 0 -4 6t-1 13t1.5 13.5t4.5 7.5q12 3 27 6t31 3q32 0 53 -16t23 -46q1 -28 -15.5 -52.5t-39.5 -42.5t-46.5 -28t-36.5 -10 q-2 0 -3.5 7t-1.5 9z" />
<glyph unicode="&#xea;&#x309;" horiz-adv-x="308" d="M128 161q-3 -11 -5 -29.5t-1 -35.5q2 -37 14 -46t32 -9q34 0 67 14t62 36.5t52 49.5t36 52q2 2 7 -1t11 -7.5t11 -9t6 -6.5q-18 -32 -47 -64t-65.5 -58t-78 -42t-84.5 -16q-35 0 -62.5 26t-29.5 71q-1 41 12 84t36.5 78.5t57 58.5t72.5 23q23 0 42 -12t21 -40 q1 -21 -9 -42t-31 -37.5t-52.5 -27t-73.5 -10.5zM137 204q10 -2 21 -2q15 0 30.5 5.5t28 14.5t20 20.5t7.5 23.5q0 10 -4.5 14.5t-19.5 4.5q-7 0 -19 -5t-24.5 -15.5t-23 -25.5t-16.5 -35zM362 449q3 -19 -1 -23q-1 -1 -7.5 -4t-14 -6t-14.5 -5.5t-10 -2.5t-5 11 q-3 15 -5 26.5t-4 22t-5 21.5t-9 25q-2 7 -6 8.5t-8 -4.5q-9 -12 -17 -21.5t-15 -18t-14.5 -17t-15.5 -20.5q-10 -16 -14 -16q-1 0 -8.5 0.5t-16 1t-15.5 2t-8 3.5q-2 8 7 20q13 17 29.5 35.5t34 38t35 37.5t32.5 33q4 4 10 3t8 -5q7 -21 16 -41.5t17.5 -39.5t15 -35.5 t8.5 -28.5zM351 554q0 2 1 9t3 8q39 16 57 39t18 43q-1 18 -10.5 26.5t-32.5 8.5q-11 0 -17 -2t-11 -2q-3 0 -4 6t-1 13t1.5 13.5t4.5 7.5q12 3 27 6t31 3q32 0 53 -16t23 -46q1 -28 -15.5 -52.5t-39.5 -42.5t-46.5 -28t-36.5 -10q-2 0 -3.5 7t-1.5 9z" />
<glyph unicode="&#xca;&#x303;" horiz-adv-x="645" d="M654 128q4 3 7 -5q-3 -4 -6 -14t-5.5 -22t-4 -22.5t-2.5 -14.5q-8 -17 -34 -24q-32 -8 -69.5 -14.5t-76.5 -11.5t-78 -8t-73 -3q-54 0 -92 3.5t-62 12t-35.5 22.5t-12.5 34q0 19 6 35q1 3 6 17.5t12.5 35t15.5 44t15 44.5t11.5 36.5t4.5 19.5q0 3 -4 4.5t-20 1.5 q-5 0 -9 4q0 3 3 9t8.5 12.5t11 11.5t9.5 6q28 5 37 33q3 9 10.5 33.5t15.5 50.5t13.5 48t3.5 28q-2 5 -9 5q-41 0 -81 -3t-67 -11l-3 1q-1 6 -0.5 16.5t2.5 21.5t4.5 20t4.5 11q42 -3 88.5 -4.5t88.5 -1.5q10 0 31.5 0.5t50 1.5t61.5 2.5t65.5 2.5t62 1.5t50.5 0.5 q7 0 9 -8q-1 -3 -4 -14t-6.5 -24.5t-6.5 -27t-4 -20.5l-5 1q-4 8 -8 14.5t-9 8.5q-44 6 -93 9t-98 3q-20 0 -28 -14q-14 -24 -23.5 -43t-17 -38.5t-15 -41.5t-17.5 -51q-3 -12 12 -12q5 0 10.5 -0.5t13.5 -1t21 -0.5h33q62 0 107 3.5t91 14.5l4 -4q-1 -3 -5 -10.5 t-7.5 -16.5t-6.5 -17t-3 -11q-1 -5 -11 -5q-35 0 -76 1t-83 1h-49.5t-32 -0.5t-20 -1t-13.5 -0.5q-10 0 -13 -8q-13 -41 -25 -75.5t-20 -76.5q-2 -9 -2 -17v-15q2 -37 28.5 -48t81.5 -11q35 0 83 5.5t96.5 16.5t91 27t65.5 37zM534 698q3 -19 -1 -23q-1 -1 -7.5 -4t-14 -6 t-14.5 -5.5t-10 -2.5t-5 11q-3 15 -5 26.5t-4 22t-5 21.5t-9 25q-2 7 -6 8.5t-8 -4.5q-9 -12 -17 -21.5t-15 -18t-14.5 -17t-15.5 -20.5q-10 -16 -14 -16q-1 0 -8.5 0.5t-16 1t-15.5 2t-8 3.5q-2 8 7 20q13 17 29.5 35.5t34 38t35 37.5t32.5 33q4 4 10 3t8 -5 q7 -21 16 -41.5t17.5 -39.5t15 -35.5t8.5 -28.5zM641 961q2 -18 -2.5 -34.5t-13.5 -29.5t-22.5 -21t-30.5 -8q-21 0 -40 8t-36.5 18t-34 18t-31.5 8q-11 0 -17 -3t-9.5 -8t-6 -12.5t-6.5 -15.5q-3 -5 -12 -7t-18.5 -1t-16 5.5t-5.5 11.5q2 10 9.5 25t19 29.5t28 25 t36.5 10.5q17 0 34.5 -9t34 -19.5t32 -19.5t28.5 -9q17 0 26.5 10.5t4.5 27.5q-1 3 6 6.5t16 4.5t17.5 -1t9.5 -10z" />
<glyph unicode="&#xea;&#x303;" horiz-adv-x="308" d="M128 161q-3 -11 -5 -29.5t-1 -35.5q2 -37 14 -46t32 -9q34 0 67 14t62 36.5t52 49.5t36 52q2 2 7 -1t11 -7.5t11 -9t6 -6.5q-18 -32 -47 -64t-65.5 -58t-78 -42t-84.5 -16q-35 0 -62.5 26t-29.5 71q-1 41 12 84t36.5 78.5t57 58.5t72.5 23q23 0 42 -12t21 -40 q1 -21 -9 -42t-31 -37.5t-52.5 -27t-73.5 -10.5zM137 204q10 -2 21 -2q15 0 30.5 5.5t28 14.5t20 20.5t7.5 23.5q0 10 -4.5 14.5t-19.5 4.5q-7 0 -19 -5t-24.5 -15.5t-23 -25.5t-16.5 -35zM363 443q3 -19 -1 -23q-1 -1 -7.5 -4t-14 -6t-14.5 -5.5t-10 -2.5t-5 11 q-3 15 -5 26.5t-4 22t-5 21.5t-9 25q-2 7 -6 8.5t-8 -4.5q-9 -12 -17 -21.5t-15 -18t-14.5 -17t-15.5 -20.5q-10 -16 -14 -16q-1 0 -8.5 0.5t-16 1t-15.5 2t-8 3.5q-2 8 7 20q13 17 29.5 35.5t34 38t35 37.5t32.5 33q4 4 10 3t8 -5q7 -21 16 -41.5t17.5 -39.5t15 -35.5 t8.5 -28.5zM464 731q2 -18 -2.5 -34.5t-13.5 -29.5t-22.5 -21t-30.5 -8q-21 0 -40 8t-36.5 18t-34 18t-31.5 8q-11 0 -17 -3t-9.5 -8t-6 -12.5t-6.5 -15.5q-3 -5 -12 -7t-18.5 -1t-16 5.5t-5.5 11.5q2 10 9.5 25t19 29.5t28 25t36.5 10.5q17 0 34.5 -9t34 -19.5t32 -19.5 t28.5 -9q17 0 26.5 10.5t4.5 27.5q-1 3 6 6.5t16 4.5t17.5 -1t9.5 -10z" />
<glyph unicode="&#xca;&#x323;" horiz-adv-x="645" d="M654 128q4 3 7 -5q-3 -4 -6 -14t-5.5 -22t-4 -22.5t-2.5 -14.5q-8 -17 -34 -24q-32 -8 -69.5 -14.5t-76.5 -11.5t-78 -8t-73 -3q-54 0 -92 3.5t-62 12t-35.5 22.5t-12.5 34q0 19 6 35q1 3 6 17.5t12.5 35t15.5 44t15 44.5t11.5 36.5t4.5 19.5q0 3 -4 4.5t-20 1.5 q-5 0 -9 4q0 3 3 9t8.5 12.5t11 11.5t9.5 6q28 5 37 33q3 9 10.5 33.5t15.5 50.5t13.5 48t3.5 28q-2 5 -9 5q-41 0 -81 -3t-67 -11l-3 1q-1 6 -0.5 16.5t2.5 21.5t4.5 20t4.5 11q42 -3 88.5 -4.5t88.5 -1.5q10 0 31.5 0.5t50 1.5t61.5 2.5t65.5 2.5t62 1.5t50.5 0.5 q7 0 9 -8q-1 -3 -4 -14t-6.5 -24.5t-6.5 -27t-4 -20.5l-5 1q-4 8 -8 14.5t-9 8.5q-44 6 -93 9t-98 3q-20 0 -28 -14q-14 -24 -23.5 -43t-17 -38.5t-15 -41.5t-17.5 -51q-3 -12 12 -12q5 0 10.5 -0.5t13.5 -1t21 -0.5h33q62 0 107 3.5t91 14.5l4 -4q-1 -3 -5 -10.5 t-7.5 -16.5t-6.5 -17t-3 -11q-1 -5 -11 -5q-35 0 -76 1t-83 1h-49.5t-32 -0.5t-20 -1t-13.5 -0.5q-10 0 -13 -8q-13 -41 -25 -75.5t-20 -76.5q-2 -9 -2 -17v-15q2 -37 28.5 -48t81.5 -11q35 0 83 5.5t96.5 16.5t91 27t65.5 37zM278 -99q15 0 27.5 -9.5t13.5 -34.5 q1 -17 -12 -31t-30 -14q-16 0 -28.5 12t-12.5 31q-1 17 10 31.5t32 14.5zM535 695q3 -19 -1 -23q-1 -1 -7.5 -4t-14 -6t-14.5 -5.5t-10 -2.5t-5 11q-3 15 -5 26.5t-4 22t-5 21.5t-9 25q-2 7 -6 8.5t-8 -4.5q-9 -12 -17 -21.5t-15 -18t-14.5 -17t-15.5 -20.5q-10 -16 -14 -16 q-1 0 -8.5 0.5t-16 1t-15.5 2t-8 3.5q-2 8 7 20q13 17 29.5 35.5t34 38t35 37.5t32.5 33q4 4 10 3t8 -5q7 -21 16 -41.5t17.5 -39.5t15 -35.5t8.5 -28.5z" />
<glyph unicode="&#xea;&#x323;" horiz-adv-x="308" d="M128 161q-3 -11 -5 -29.5t-1 -35.5q2 -37 14 -46t32 -9q34 0 67 14t62 36.5t52 49.5t36 52q2 2 7 -1t11 -7.5t11 -9t6 -6.5q-18 -32 -47 -64t-65.5 -58t-78 -42t-84.5 -16q-35 0 -62.5 26t-29.5 71q-1 41 12 84t36.5 78.5t57 58.5t72.5 23q23 0 42 -12t21 -40 q1 -21 -9 -42t-31 -37.5t-52.5 -27t-73.5 -10.5zM137 204q10 -2 21 -2q15 0 30.5 5.5t28 14.5t20 20.5t7.5 23.5q0 10 -4.5 14.5t-19.5 4.5q-7 0 -19 -5t-24.5 -15.5t-23 -25.5t-16.5 -35zM192 -99q15 0 27.5 -9.5t13.5 -34.5q1 -17 -12 -31t-30 -14q-16 0 -28.5 12 t-12.5 31q-1 17 10 31.5t32 14.5zM333 443q3 -19 -1 -23q-1 -1 -7.5 -4t-14 -6t-14.5 -5.5t-10 -2.5t-5 11q-3 15 -5 26.5t-4 22t-5 21.5t-9 25q-2 7 -6 8.5t-8 -4.5q-9 -12 -17 -21.5t-15 -18t-14.5 -17t-15.5 -20.5q-10 -16 -14 -16q-1 0 -8.5 0.5t-16 1t-15.5 2t-8 3.5 q-2 8 7 20q13 17 29.5 35.5t34 38t35 37.5t32.5 33q4 4 10 3t8 -5q7 -21 16 -41.5t17.5 -39.5t15 -35.5t8.5 -28.5z" />
<glyph unicode="I&#x309;" horiz-adv-x="366" d="M44 7q23 2 35 20q12 21 30 57.5t38.5 80.5t41 93.5t38 95.5t30 86.5t15.5 67.5q1 5 0.5 8.5t-1.5 7.5q-2 8 -13.5 11t-29.5 3q-17 0 -37 -1.5t-37 -4.5l-5 1q0 2 2 10t4 17t4 16.5t3 9.5q28 2 59.5 3.5t61.5 3t56 4t43 5.5q6 -2 8 -13.5t3 -15.5q2 -3 -6 -5 q-9 -3 -14.5 -7.5t-9.5 -16.5q-20 -51 -42.5 -114.5t-46 -131.5t-48.5 -136t-50 -128q-9 -16 -24.5 -24.5t-32.5 -11.5t-35 -2.5t-33 1.5q-1 1 -3 4zM266 671q0 2 1 9t3 8q39 16 57 39t18 43q-1 18 -10.5 26.5t-32.5 8.5q-11 0 -17 -2t-11 -2q-3 0 -4 6t-1 13t1.5 13.5 t4.5 7.5q12 3 27 6t31 3q32 0 53 -16t23 -46q1 -28 -15.5 -52.5t-39.5 -42.5t-46.5 -28t-36.5 -10q-2 0 -3.5 7t-1.5 9z" />
<glyph unicode="i&#x309;" horiz-adv-x="280" d="M133 416q0 2 1 9t3 8q39 16 57 39t18 43q-1 18 -10.5 26.5t-32.5 8.5q-11 0 -17 -2t-11 -2q-3 0 -4 6t-1 13t1.5 13.5t4.5 7.5q12 3 27 6t31 3q32 0 53 -16t23 -46q1 -28 -15.5 -52.5t-39.5 -42.5t-46.5 -28t-36.5 -10q-2 0 -3.5 7t-1.5 9zM383 187q-19 -35 -46.5 -70 t-60.5 -63.5t-70.5 -46t-77.5 -17.5q-12 0 -26 3t-26 10t-20 19.5t-8 31.5q-1 22 8.5 58t22 73t26 69.5t21.5 48.5q3 6 12.5 11t20 9t20 6t12.5 2q8 0 9 -4q0 -3 -0.5 -9t-3.5 -9q-13 -26 -26.5 -58t-24.5 -64t-18 -60t-6 -46q1 -23 5 -30t21 -7q29 0 59.5 18t58 44t50 55 t34.5 51q2 4 8 2t12.5 -7t11 -11t2.5 -9z" />
<glyph unicode="I&#x323;" horiz-adv-x="366" d="M44 7q23 2 35 20q12 21 30 57.5t38.5 80.5t41 93.5t38 95.5t30 86.5t15.5 67.5q1 5 0.5 8.5t-1.5 7.5q-2 8 -13.5 11t-29.5 3q-17 0 -37 -1.5t-37 -4.5l-5 1q0 2 2 10t4 17t4 16.5t3 9.5q28 2 59.5 3.5t61.5 3t56 4t43 5.5q6 -2 8 -13.5t3 -15.5q2 -3 -6 -5 q-9 -3 -14.5 -7.5t-9.5 -16.5q-20 -51 -42.5 -114.5t-46 -131.5t-48.5 -136t-50 -128q-9 -16 -24.5 -24.5t-32.5 -11.5t-35 -2.5t-33 1.5q-1 1 -3 4zM118 -99q15 0 27.5 -9.5t13.5 -34.5q1 -17 -12 -31t-30 -14q-16 0 -28.5 12t-12.5 31q-1 17 10 31.5t32 14.5z" />
<glyph unicode="i&#x323;" horiz-adv-x="270" d="M240 531q2 -9 -0.5 -19.5t-8.5 -19t-15 -14.5t-19 -6q-9 0 -18.5 4.5t-12.5 13.5q-2 10 0.5 21t9 20t16 14.5t19.5 5.5t18.5 -5t10.5 -15zM383 187q-19 -35 -46.5 -70t-60.5 -63.5t-70.5 -46t-77.5 -17.5q-12 0 -26 3t-26 10t-20 19.5t-8 31.5q-1 22 8.5 58t22 73 t26 69.5t21.5 48.5q3 6 12.5 11t20 9t20 6t12.5 2q8 0 9 -4q0 -3 -0.5 -9t-3.5 -9q-13 -26 -26.5 -58t-24.5 -64t-18 -60t-6 -46q1 -23 5 -30t21 -7q29 0 59.5 18t58 44t50 55t34.5 51q2 4 8 2t12.5 -7t11 -11t2.5 -9zM88 -99q15 0 27.5 -9.5t13.5 -34.5q1 -17 -12 -31 t-30 -14q-16 0 -28.5 12t-12.5 31q-1 17 10 31.5t32 14.5z" />
<glyph unicode="O&#x323;" horiz-adv-x="786" d="M748 357q3 -75 -18 -142t-63 -117.5t-104 -80.5t-142 -30q-60 0 -114 13.5t-95.5 42t-67 73t-27.5 107.5q-3 85 19 155t65.5 120.5t107.5 78t146 27.5q56 0 107.5 -14.5t92 -44.5t66 -76.5t27.5 -111.5zM660 367q-3 90 -57.5 135.5t-142.5 45.5q-72 0 -122 -26.5t-80 -72 t-42.5 -107.5t-10.5 -133q2 -46 19 -77t45 -50t64 -27.5t75 -8.5q70 0 119 25t79 68.5t43 102t11 125.5zM401 -99q15 0 27.5 -9.5t13.5 -34.5q1 -17 -12 -31t-30 -14q-16 0 -28.5 12t-12.5 31q-1 17 10 31.5t32 14.5z" />
<glyph unicode="o&#x323;" horiz-adv-x="381" d="M537 256q-9 -17 -24 -33t-34 -29t-41 -20.5t-46 -7.5q-25 0 -46 6.5t-40 23.5q-4 -30 -13 -65.5t-26.5 -67t-47 -52.5t-75.5 -21q-23 0 -41.5 8.5t-32 22.5t-20.5 31t-8 34q-1 48 15 91t44.5 76t66.5 53t80 21q2 12 4 27.5t16 18.5q7 2 19.5 3.5t17.5 4.5q3 3 8.5 0.5 t3.5 -8.5q-3 -8 -5.5 -20.5t-1.5 -25.5q1 -25 5 -46.5t14 -37.5t25.5 -25.5t39.5 -9.5q15 0 30.5 6t29.5 16t26.5 23.5t20.5 28.5q1 3 7.5 0.5t14 -7.5t12.5 -10.5t2 -8.5zM264 252q-3 7 -4.5 12.5l-4.5 16.5q-1 7 -7 7q-27 0 -51 -19t-42.5 -48t-29 -63.5t-9.5 -66.5 q0 -7 1 -16t4 -16t8.5 -12t15.5 -5q26 0 48.5 25t39 59t25 69.5t6.5 56.5zM132 -99q15 0 27.5 -9.5t13.5 -34.5q1 -17 -12 -31t-30 -14q-16 0 -28.5 12t-12.5 31q-1 17 10 31.5t32 14.5z" />
<glyph unicode="O&#x309;" horiz-adv-x="786" d="M748 357q3 -75 -18 -142t-63 -117.5t-104 -80.5t-142 -30q-60 0 -114 13.5t-95.5 42t-67 73t-27.5 107.5q-3 85 19 155t65.5 120.5t107.5 78t146 27.5q56 0 107.5 -14.5t92 -44.5t66 -76.5t27.5 -111.5zM660 367q-3 90 -57.5 135.5t-142.5 45.5q-72 0 -122 -26.5t-80 -72 t-42.5 -107.5t-10.5 -133q2 -46 19 -77t45 -50t64 -27.5t75 -8.5q70 0 119 25t79 68.5t43 102t11 125.5zM485 657q0 2 1 9t3 8q39 16 57 39t18 43q-1 18 -10.5 26.5t-32.5 8.5q-11 0 -17 -2t-11 -2q-3 0 -4 6t-1 13t1.5 13.5t4.5 7.5q12 3 27 6t31 3q32 0 53 -16t23 -46 q1 -28 -15.5 -52.5t-39.5 -42.5t-46.5 -28t-36.5 -10q-2 0 -3.5 7t-1.5 9z" />
<glyph unicode="o&#x309;" horiz-adv-x="381" d="M537 256q-9 -17 -24 -33t-34 -29t-41 -20.5t-46 -7.5q-25 0 -46 6.5t-40 23.5q-4 -30 -13 -65.5t-26.5 -67t-47 -52.5t-75.5 -21q-23 0 -41.5 8.5t-32 22.5t-20.5 31t-8 34q-1 48 15 91t44.5 76t66.5 53t80 21q2 12 4 27.5t16 18.5q7 2 19.5 3.5t17.5 4.5q3 3 8.5 0.5 t3.5 -8.5q-3 -8 -5.5 -20.5t-1.5 -25.5q1 -25 5 -46.5t14 -37.5t25.5 -25.5t39.5 -9.5q15 0 30.5 6t29.5 16t26.5 23.5t20.5 28.5q1 3 7.5 0.5t14 -7.5t12.5 -10.5t2 -8.5zM264 252q-3 7 -4.5 12.5l-4.5 16.5q-1 7 -7 7q-27 0 -51 -19t-42.5 -48t-29 -63.5t-9.5 -66.5 q0 -7 1 -16t4 -16t8.5 -12t15.5 -5q26 0 48.5 25t39 59t25 69.5t6.5 56.5zM200 416q0 2 1 9t3 8q39 16 57 39t18 43q-1 18 -10.5 26.5t-32.5 8.5q-11 0 -17 -2t-11 -2q-3 0 -4 6t-1 13t1.5 13.5t4.5 7.5q12 3 27 6t31 3q32 0 53 -16t23 -46q1 -28 -15.5 -52.5t-39.5 -42.5 t-46.5 -28t-36.5 -10q-2 0 -3.5 7t-1.5 9z" />
<glyph unicode="&#xd4;&#x301;" horiz-adv-x="786" d="M748 357q3 -75 -18 -142t-63 -117.5t-104 -80.5t-142 -30q-60 0 -114 13.5t-95.5 42t-67 73t-27.5 107.5q-3 85 19 155t65.5 120.5t107.5 78t146 27.5q56 0 107.5 -14.5t92 -44.5t66 -76.5t27.5 -111.5zM660 367q-3 90 -57.5 135.5t-142.5 45.5q-72 0 -122 -26.5t-80 -72 t-42.5 -107.5t-10.5 -133q2 -46 19 -77t45 -50t64 -27.5t75 -8.5q70 0 119 25t79 68.5t43 102t11 125.5zM595 689q3 -19 -1 -23q-1 -1 -7.5 -4t-14 -6t-14.5 -5.5t-10 -2.5t-5 11q-3 15 -5 26.5t-4 22t-5 21.5t-9 25q-2 7 -6 8.5t-8 -4.5q-9 -12 -17 -21.5t-15 -18 t-14.5 -17t-15.5 -20.5q-10 -16 -14 -16q-1 0 -8.5 0.5t-16 1t-15.5 2t-8 3.5q-2 8 7 20q13 17 29.5 35.5t34 38t35 37.5t32.5 33q4 4 10 3t8 -5q7 -21 16 -41.5t17.5 -39.5t15 -35.5t8.5 -28.5zM809 934q2 -7 -1 -10q-22 -20 -44 -37.5t-45.5 -35.5t-48.5 -38.5t-52 -45.5 q-3 -3 -8.5 0t-10 7.5t-7.5 9.5t-2 6q44 44 85.5 87t81.5 87q2 3 4.5 3h3.5q2 0 8.5 -4.5t14 -10t14 -11t7.5 -7.5z" />
<glyph unicode="&#xf4;&#x301;" horiz-adv-x="381" d="M537 256q-9 -17 -24 -33t-34 -29t-41 -20.5t-46 -7.5q-25 0 -46 6.5t-40 23.5q-4 -30 -13 -65.5t-26.5 -67t-47 -52.5t-75.5 -21q-23 0 -41.5 8.5t-32 22.5t-20.5 31t-8 34q-1 48 15 91t44.5 76t66.5 53t80 21q2 12 4 27.5t16 18.5q7 2 19.5 3.5t17.5 4.5q3 3 8.5 0.5 t3.5 -8.5q-3 -8 -5.5 -20.5t-1.5 -25.5q1 -25 5 -46.5t14 -37.5t25.5 -25.5t39.5 -9.5q15 0 30.5 6t29.5 16t26.5 23.5t20.5 28.5q1 3 7.5 0.5t14 -7.5t12.5 -10.5t2 -8.5zM264 252q-3 7 -4.5 12.5l-4.5 16.5q-1 7 -7 7q-27 0 -51 -19t-42.5 -48t-29 -63.5t-9.5 -66.5 q0 -7 1 -16t4 -16t8.5 -12t15.5 -5q26 0 48.5 25t39 59t25 69.5t6.5 56.5zM361 443q3 -19 -1 -23q-1 -1 -7.5 -4t-14 -6t-14.5 -5.5t-10 -2.5t-5 11q-3 15 -5 26.5t-4 22t-5 21.5t-9 25q-2 7 -6 8.5t-8 -4.5q-9 -12 -17 -21.5t-15 -18t-14.5 -17t-15.5 -20.5 q-10 -16 -14 -16q-1 0 -8.5 0.5t-16 1t-15.5 2t-8 3.5q-2 8 7 20q13 17 29.5 35.5t34 38t35 37.5t32.5 33q4 4 10 3t8 -5q7 -21 16 -41.5t17.5 -39.5t15 -35.5t8.5 -28.5zM575 711q2 -7 -1 -10q-22 -20 -44 -37.5t-45.5 -35.5t-48.5 -38.5t-52 -45.5q-3 -3 -8.5 0t-10 7.5 t-7.5 9.5t-2 6q44 44 85.5 87t81.5 87q2 3 4.5 3h3.5q2 0 8.5 -4.5t14 -10t14 -11t7.5 -7.5z" />
<glyph unicode="&#xd4;&#x300;" horiz-adv-x="786" d="M748 357q3 -75 -18 -142t-63 -117.5t-104 -80.5t-142 -30q-60 0 -114 13.5t-95.5 42t-67 73t-27.5 107.5q-3 85 19 155t65.5 120.5t107.5 78t146 27.5q56 0 107.5 -14.5t92 -44.5t66 -76.5t27.5 -111.5zM660 367q-3 90 -57.5 135.5t-142.5 45.5q-72 0 -122 -26.5t-80 -72 t-42.5 -107.5t-10.5 -133q2 -46 19 -77t45 -50t64 -27.5t75 -8.5q70 0 119 25t79 68.5t43 102t11 125.5zM602 694q3 -19 -1 -23q-1 -1 -7.5 -4t-14 -6t-14.5 -5.5t-10 -2.5t-5 11q-3 15 -5 26.5t-4 22t-5 21.5t-9 25q-2 7 -6 8.5t-8 -4.5q-9 -12 -17 -21.5t-15 -18 t-14.5 -17t-15.5 -20.5q-10 -16 -14 -16q-1 0 -8.5 0.5t-16 1t-15.5 2t-8 3.5q-2 8 7 20q13 17 29.5 35.5t34 38t35 37.5t32.5 33q4 4 10 3t8 -5q7 -21 16 -41.5t17.5 -39.5t15 -35.5t8.5 -28.5zM698 808q0 -3 -4 -7t-9.5 -7.5t-10 -5.5t-5.5 0q-15 19 -33 39.5t-35.5 41 t-33.5 40.5t-27 38q0 3 6 9t13.5 11.5t14.5 10t8 4.5h6t6 -3q9 -17 18 -34.5t21 -38t27.5 -44.5t37.5 -54z" />
<glyph unicode="&#xf4;&#x300;" horiz-adv-x="381" d="M537 256q-9 -17 -24 -33t-34 -29t-41 -20.5t-46 -7.5q-25 0 -46 6.5t-40 23.5q-4 -30 -13 -65.5t-26.5 -67t-47 -52.5t-75.5 -21q-23 0 -41.5 8.5t-32 22.5t-20.5 31t-8 34q-1 48 15 91t44.5 76t66.5 53t80 21q2 12 4 27.5t16 18.5q7 2 19.5 3.5t17.5 4.5q3 3 8.5 0.5 t3.5 -8.5q-3 -8 -5.5 -20.5t-1.5 -25.5q1 -25 5 -46.5t14 -37.5t25.5 -25.5t39.5 -9.5q15 0 30.5 6t29.5 16t26.5 23.5t20.5 28.5q1 3 7.5 0.5t14 -7.5t12.5 -10.5t2 -8.5zM264 252q-3 7 -4.5 12.5l-4.5 16.5q-1 7 -7 7q-27 0 -51 -19t-42.5 -48t-29 -63.5t-9.5 -66.5 q0 -7 1 -16t4 -16t8.5 -12t15.5 -5q26 0 48.5 25t39 59t25 69.5t6.5 56.5zM353 443q3 -19 -1 -23q-1 -1 -7.5 -4t-14 -6t-14.5 -5.5t-10 -2.5t-5 11q-3 15 -5 26.5t-4 22t-5 21.5t-9 25q-2 7 -6 8.5t-8 -4.5q-9 -12 -17 -21.5t-15 -18t-14.5 -17t-15.5 -20.5 q-10 -16 -14 -16q-1 0 -8.5 0.5t-16 1t-15.5 2t-8 3.5q-2 8 7 20q13 17 29.5 35.5t34 38t35 37.5t32.5 33q4 4 10 3t8 -5q7 -21 16 -41.5t17.5 -39.5t15 -35.5t8.5 -28.5zM449 573q0 -3 -4 -7t-9.5 -7.5t-10 -5.5t-5.5 0q-15 19 -33 39.5t-35.5 41t-33.5 40.5t-27 38 q0 3 6 9t13.5 11.5t14.5 10t8 4.5h6t6 -3q9 -17 18 -34.5t21 -38t27.5 -44.5t37.5 -54z" />
<glyph unicode="&#xd4;&#x309;" horiz-adv-x="786" d="M748 357q3 -75 -18 -142t-63 -117.5t-104 -80.5t-142 -30q-60 0 -114 13.5t-95.5 42t-67 73t-27.5 107.5q-3 85 19 155t65.5 120.5t107.5 78t146 27.5q56 0 107.5 -14.5t92 -44.5t66 -76.5t27.5 -111.5zM660 367q-3 90 -57.5 135.5t-142.5 45.5q-72 0 -122 -26.5t-80 -72 t-42.5 -107.5t-10.5 -133q2 -46 19 -77t45 -50t64 -27.5t75 -8.5q70 0 119 25t79 68.5t43 102t11 125.5zM596 692q3 -19 -1 -23q-1 -1 -7.5 -4t-14 -6t-14.5 -5.5t-10 -2.5t-5 11q-3 15 -5 26.5t-4 22t-5 21.5t-9 25q-2 7 -6 8.5t-8 -4.5q-9 -12 -17 -21.5t-15 -18 t-14.5 -17t-15.5 -20.5q-10 -16 -14 -16q-1 0 -8.5 0.5t-16 1t-15.5 2t-8 3.5q-2 8 7 20q13 17 29.5 35.5t34 38t35 37.5t32.5 33q4 4 10 3t8 -5q7 -21 16 -41.5t17.5 -39.5t15 -35.5t8.5 -28.5zM611 793q0 2 1 9t3 8q39 16 57 39t18 43q-1 18 -10.5 26.5t-32.5 8.5 q-11 0 -17 -2t-11 -2q-3 0 -4 6t-1 13t1.5 13.5t4.5 7.5q12 3 27 6t31 3q32 0 53 -16t23 -46q1 -28 -15.5 -52.5t-39.5 -42.5t-46.5 -28t-36.5 -10q-2 0 -3.5 7t-1.5 9z" />
<glyph unicode="&#xf4;&#x309;" horiz-adv-x="381" d="M537 256q-9 -17 -24 -33t-34 -29t-41 -20.5t-46 -7.5q-25 0 -46 6.5t-40 23.5q-4 -30 -13 -65.5t-26.5 -67t-47 -52.5t-75.5 -21q-23 0 -41.5 8.5t-32 22.5t-20.5 31t-8 34q-1 48 15 91t44.5 76t66.5 53t80 21q2 12 4 27.5t16 18.5q7 2 19.5 3.5t17.5 4.5q3 3 8.5 0.5 t3.5 -8.5q-3 -8 -5.5 -20.5t-1.5 -25.5q1 -25 5 -46.5t14 -37.5t25.5 -25.5t39.5 -9.5q15 0 30.5 6t29.5 16t26.5 23.5t20.5 28.5q1 3 7.5 0.5t14 -7.5t12.5 -10.5t2 -8.5zM264 252q-3 7 -4.5 12.5l-4.5 16.5q-1 7 -7 7q-27 0 -51 -19t-42.5 -48t-29 -63.5t-9.5 -66.5 q0 -7 1 -16t4 -16t8.5 -12t15.5 -5q26 0 48.5 25t39 59t25 69.5t6.5 56.5zM352 443q3 -19 -1 -23q-1 -1 -7.5 -4t-14 -6t-14.5 -5.5t-10 -2.5t-5 11q-3 15 -5 26.5t-4 22t-5 21.5t-9 25q-2 7 -6 8.5t-8 -4.5q-9 -12 -17 -21.5t-15 -18t-14.5 -17t-15.5 -20.5 q-10 -16 -14 -16q-1 0 -8.5 0.5t-16 1t-15.5 2t-8 3.5q-2 8 7 20q13 17 29.5 35.5t34 38t35 37.5t32.5 33q4 4 10 3t8 -5q7 -21 16 -41.5t17.5 -39.5t15 -35.5t8.5 -28.5zM345 562q0 2 1 9t3 8q39 16 57 39t18 43q-1 18 -10.5 26.5t-32.5 8.5q-11 0 -17 -2t-11 -2q-3 0 -4 6 t-1 13t1.5 13.5t4.5 7.5q12 3 27 6t31 3q32 0 53 -16t23 -46q1 -28 -15.5 -52.5t-39.5 -42.5t-46.5 -28t-36.5 -10q-2 0 -3.5 7t-1.5 9z" />
<glyph unicode="&#xd4;&#x303;" horiz-adv-x="786" d="M748 357q3 -75 -18 -142t-63 -117.5t-104 -80.5t-142 -30q-60 0 -114 13.5t-95.5 42t-67 73t-27.5 107.5q-3 85 19 155t65.5 120.5t107.5 78t146 27.5q56 0 107.5 -14.5t92 -44.5t66 -76.5t27.5 -111.5zM660 367q-3 90 -57.5 135.5t-142.5 45.5q-72 0 -122 -26.5t-80 -72 t-42.5 -107.5t-10.5 -133q2 -46 19 -77t45 -50t64 -27.5t75 -8.5q70 0 119 25t79 68.5t43 102t11 125.5zM600 686q3 -19 -1 -23q-1 -1 -7.5 -4t-14 -6t-14.5 -5.5t-10 -2.5t-5 11q-3 15 -5 26.5t-4 22t-5 21.5t-9 25q-2 7 -6 8.5t-8 -4.5q-9 -12 -17 -21.5t-15 -18 t-14.5 -17t-15.5 -20.5q-10 -16 -14 -16q-1 0 -8.5 0.5t-16 1t-15.5 2t-8 3.5q-2 8 7 20q13 17 29.5 35.5t34 38t35 37.5t32.5 33q4 4 10 3t8 -5q7 -21 16 -41.5t17.5 -39.5t15 -35.5t8.5 -28.5zM715 955q2 -18 -2.5 -34.5t-13.5 -29.5t-22.5 -21t-30.5 -8q-21 0 -40 8 t-36.5 18t-34 18t-31.5 8q-11 0 -17 -3t-9.5 -8t-6 -12.5t-6.5 -15.5q-3 -5 -12 -7t-18.5 -1t-16 5.5t-5.5 11.5q2 10 9.5 25t19 29.5t28 25t36.5 10.5q17 0 34.5 -9t34 -19.5t32 -19.5t28.5 -9q17 0 26.5 10.5t4.5 27.5q-1 3 6 6.5t16 4.5t17.5 -1t9.5 -10z" />
<glyph unicode="&#xf4;&#x303;" horiz-adv-x="381" d="M537 256q-9 -17 -24 -33t-34 -29t-41 -20.5t-46 -7.5q-25 0 -46 6.5t-40 23.5q-4 -30 -13 -65.5t-26.5 -67t-47 -52.5t-75.5 -21q-23 0 -41.5 8.5t-32 22.5t-20.5 31t-8 34q-1 48 15 91t44.5 76t66.5 53t80 21q2 12 4 27.5t16 18.5q7 2 19.5 3.5t17.5 4.5q3 3 8.5 0.5 t3.5 -8.5q-3 -8 -5.5 -20.5t-1.5 -25.5q1 -25 5 -46.5t14 -37.5t25.5 -25.5t39.5 -9.5q15 0 30.5 6t29.5 16t26.5 23.5t20.5 28.5q1 3 7.5 0.5t14 -7.5t12.5 -10.5t2 -8.5zM264 252q-3 7 -4.5 12.5l-4.5 16.5q-1 7 -7 7q-27 0 -51 -19t-42.5 -48t-29 -63.5t-9.5 -66.5 q0 -7 1 -16t4 -16t8.5 -12t15.5 -5q26 0 48.5 25t39 59t25 69.5t6.5 56.5zM353 443q3 -19 -1 -23q-1 -1 -7.5 -4t-14 -6t-14.5 -5.5t-10 -2.5t-5 11q-3 15 -5 26.5t-4 22t-5 21.5t-9 25q-2 7 -6 8.5t-8 -4.5q-9 -12 -17 -21.5t-15 -18t-14.5 -17t-15.5 -20.5 q-10 -16 -14 -16q-1 0 -8.5 0.5t-16 1t-15.5 2t-8 3.5q-2 8 7 20q13 17 29.5 35.5t34 38t35 37.5t32.5 33q4 4 10 3t8 -5q7 -21 16 -41.5t17.5 -39.5t15 -35.5t8.5 -28.5zM467 716q2 -18 -2.5 -34.5t-13.5 -29.5t-22.5 -21t-30.5 -8q-21 0 -40 8t-36.5 18t-34 18t-31.5 8 q-11 0 -17 -3t-9.5 -8t-6 -12.5t-6.5 -15.5q-3 -5 -12 -7t-18.5 -1t-16 5.5t-5.5 11.5q2 10 9.5 25t19 29.5t28 25t36.5 10.5q17 0 34.5 -9t34 -19.5t32 -19.5t28.5 -9q17 0 26.5 10.5t4.5 27.5q-1 3 6 6.5t16 4.5t17.5 -1t9.5 -10z" />
<glyph unicode="&#xd4;&#x323;" horiz-adv-x="786" d="M748 357q3 -75 -18 -142t-63 -117.5t-104 -80.5t-142 -30q-60 0 -114 13.5t-95.5 42t-67 73t-27.5 107.5q-3 85 19 155t65.5 120.5t107.5 78t146 27.5q56 0 107.5 -14.5t92 -44.5t66 -76.5t27.5 -111.5zM660 367q-3 90 -57.5 135.5t-142.5 45.5q-72 0 -122 -26.5t-80 -72 t-42.5 -107.5t-10.5 -133q2 -46 19 -77t45 -50t64 -27.5t75 -8.5q70 0 119 25t79 68.5t43 102t11 125.5zM371 -99q15 0 27.5 -9.5t13.5 -34.5q1 -17 -12 -31t-30 -14q-16 0 -28.5 12t-12.5 31q-1 17 10 31.5t32 14.5zM612 684q3 -19 -1 -23q-1 -1 -7.5 -4t-14 -6t-14.5 -5.5 t-10 -2.5t-5 11q-3 15 -5 26.5t-4 22t-5 21.5t-9 25q-2 7 -6 8.5t-8 -4.5q-9 -12 -17 -21.5t-15 -18t-14.5 -17t-15.5 -20.5q-10 -16 -14 -16q-1 0 -8.5 0.5t-16 1t-15.5 2t-8 3.5q-2 8 7 20q13 17 29.5 35.5t34 38t35 37.5t32.5 33q4 4 10 3t8 -5q7 -21 16 -41.5 t17.5 -39.5t15 -35.5t8.5 -28.5z" />
<glyph unicode="&#xf4;&#x323;" horiz-adv-x="381" d="M537 256q-9 -17 -24 -33t-34 -29t-41 -20.5t-46 -7.5q-25 0 -46 6.5t-40 23.5q-4 -30 -13 -65.5t-26.5 -67t-47 -52.5t-75.5 -21q-23 0 -41.5 8.5t-32 22.5t-20.5 31t-8 34q-1 48 15 91t44.5 76t66.5 53t80 21q2 12 4 27.5t16 18.5q7 2 19.5 3.5t17.5 4.5q3 3 8.5 0.5 t3.5 -8.5q-3 -8 -5.5 -20.5t-1.5 -25.5q1 -25 5 -46.5t14 -37.5t25.5 -25.5t39.5 -9.5q15 0 30.5 6t29.5 16t26.5 23.5t20.5 28.5q1 3 7.5 0.5t14 -7.5t12.5 -10.5t2 -8.5zM264 252q-3 7 -4.5 12.5l-4.5 16.5q-1 7 -7 7q-27 0 -51 -19t-42.5 -48t-29 -63.5t-9.5 -66.5 q0 -7 1 -16t4 -16t8.5 -12t15.5 -5q26 0 48.5 25t39 59t25 69.5t6.5 56.5zM128 -99q15 0 27.5 -9.5t13.5 -34.5q1 -17 -12 -31t-30 -14q-16 0 -28.5 12t-12.5 31q-1 17 10 31.5t32 14.5zM354 443q3 -19 -1 -23q-1 -1 -7.5 -4t-14 -6t-14.5 -5.5t-10 -2.5t-5 11 q-3 15 -5 26.5t-4 22t-5 21.5t-9 25q-2 7 -6 8.5t-8 -4.5q-9 -12 -17 -21.5t-15 -18t-14.5 -17t-15.5 -20.5q-10 -16 -14 -16q-1 0 -8.5 0.5t-16 1t-15.5 2t-8 3.5q-2 8 7 20q13 17 29.5 35.5t34 38t35 37.5t32.5 33q4 4 10 3t8 -5q7 -21 16 -41.5t17.5 -39.5t15 -35.5 t8.5 -28.5z" />
<glyph unicode="&#x1a0;&#x301;" horiz-adv-x="776" d="M694 451q5 -8 12 -13.5t22 -5.5q23 0 36 9t12 26q0 13 -7.5 32t-18.5 30q0 2 6.5 5.5t15 6.5t15.5 5.5t8 1.5q18 -11 29.5 -35t12.5 -50q1 -22 -6 -36.5t-18 -23.5t-25 -13t-27 -4q-34 0 -56 12.5t-33 34.5zM748 357q3 -75 -18 -142t-63 -117.5t-104 -80.5t-142 -30 q-60 0 -114 15t-96 45t-67.5 76.5t-27.5 109.5q-3 85 19 153.5t66 117t108 74.5t146 26q56 0 107.5 -14.5t92 -44.5t66 -76.5t27.5 -111.5zM660 367q-3 90 -57.5 135.5t-142.5 45.5q-72 0 -122 -25t-80.5 -69t-43 -104t-9.5 -131q2 -46 19 -78.5t45 -53.5t64 -31t75 -10 q70 0 119 25t79 68.5t43 102t11 125.5zM655 838q2 -7 -1 -10q-22 -20 -44 -37.5t-45.5 -35.5t-48.5 -38.5t-52 -45.5q-3 -3 -8.5 0t-10 7.5t-7.5 9.5t-2 6q44 44 85.5 87t81.5 87q2 3 4.5 3h3.5q2 0 8.5 -4.5t14 -10t14 -11t7.5 -7.5z" />
<glyph unicode="&#x1a1;&#x301;" horiz-adv-x="381" d="M287 324q5 -14 14.5 -18.5t25.5 -4.5q21 0 31.5 16t9.5 44q0 5 -1 11t-2 11q2 2 5 2t8.5 -1l11 -2t10 -2t5.5 -2q9 -15 11 -37q0 -16 -6 -31t-17 -26t-26 -17.5t-32 -6.5q-15 0 -25 4t-17 10t-11.5 12l-7.5 10zM531 256q-9 -17 -24 -33t-34 -29t-41 -20.5t-46 -7.5 q-25 0 -46 6.5t-40 23.5q-4 -30 -13 -65.5t-26.5 -67t-47 -52.5t-75.5 -21q-23 0 -41.5 8.5t-32 22.5t-20.5 31t-8 34q-1 48 15 91t44.5 76t66.5 53t80 21q2 12 4 27.5t16 18.5q7 2 19.5 3.5t17.5 4.5q3 3 8.5 0.5t3.5 -8.5q-3 -8 -5.5 -20.5t-1.5 -25.5q1 -25 5 -46.5 t14 -37.5t25.5 -25.5t39.5 -9.5q15 0 30.5 6t29.5 16t26.5 23.5t20.5 28.5q1 3 7.5 0.5t14 -7.5t12.5 -10.5t2 -8.5zM258 252q-3 7 -4.5 12.5l-4.5 16.5q-1 7 -7 7q-27 0 -51 -19t-42.5 -48t-29 -63.5t-9.5 -66.5q0 -7 1 -16t4 -16t8.5 -12t15.5 -5q26 0 48.5 25t39 59 t25 69.5t6.5 56.5zM457 577q2 -7 -1 -10q-22 -20 -44 -37.5t-45.5 -35.5t-48.5 -38.5t-52 -45.5q-3 -3 -8.5 0t-10 7.5t-7.5 9.5t-2 6q44 44 85.5 87t81.5 87q2 3 4.5 3h3.5q2 0 8.5 -4.5t14 -10t14 -11t7.5 -7.5z" />
<glyph unicode="&#x1a0;&#x300;" horiz-adv-x="776" d="M694 451q5 -8 12 -13.5t22 -5.5q23 0 36 9t12 26q0 13 -7.5 32t-18.5 30q0 2 6.5 5.5t15 6.5t15.5 5.5t8 1.5q18 -11 29.5 -35t12.5 -50q1 -22 -6 -36.5t-18 -23.5t-25 -13t-27 -4q-34 0 -56 12.5t-33 34.5zM748 357q3 -75 -18 -142t-63 -117.5t-104 -80.5t-142 -30 q-60 0 -114 15t-96 45t-67.5 76.5t-27.5 109.5q-3 85 19 153.5t66 117t108 74.5t146 26q56 0 107.5 -14.5t92 -44.5t66 -76.5t27.5 -111.5zM660 367q-3 90 -57.5 135.5t-142.5 45.5q-72 0 -122 -25t-80.5 -69t-43 -104t-9.5 -131q2 -46 19 -78.5t45 -53.5t64 -31t75 -10 q70 0 119 25t79 68.5t43 102t11 125.5zM537 678q0 -3 -4 -7t-9.5 -7.5t-10 -5.5t-5.5 0q-15 19 -33 39.5t-35.5 41t-33.5 40.5t-27 38q0 3 6 9t13.5 11.5t14.5 10t8 4.5h6t6 -3q9 -17 18 -34.5t21 -38t27.5 -44.5t37.5 -54z" />
<glyph unicode="&#x1a1;&#x300;" horiz-adv-x="381" d="M287 324q5 -14 14.5 -18.5t25.5 -4.5q21 0 31.5 16t9.5 44q0 5 -1 11t-2 11q2 2 5 2t8.5 -1l11 -2t10 -2t5.5 -2q9 -15 11 -37q0 -16 -6 -31t-17 -26t-26 -17.5t-32 -6.5q-15 0 -25 4t-17 10t-11.5 12l-7.5 10zM531 256q-9 -17 -24 -33t-34 -29t-41 -20.5t-46 -7.5 q-25 0 -46 6.5t-40 23.5q-4 -30 -13 -65.5t-26.5 -67t-47 -52.5t-75.5 -21q-23 0 -41.5 8.5t-32 22.5t-20.5 31t-8 34q-1 48 15 91t44.5 76t66.5 53t80 21q2 12 4 27.5t16 18.5q7 2 19.5 3.5t17.5 4.5q3 3 8.5 0.5t3.5 -8.5q-3 -8 -5.5 -20.5t-1.5 -25.5q1 -25 5 -46.5 t14 -37.5t25.5 -25.5t39.5 -9.5q15 0 30.5 6t29.5 16t26.5 23.5t20.5 28.5q1 3 7.5 0.5t14 -7.5t12.5 -10.5t2 -8.5zM258 252q-3 7 -4.5 12.5l-4.5 16.5q-1 7 -7 7q-27 0 -51 -19t-42.5 -48t-29 -63.5t-9.5 -66.5q0 -7 1 -16t4 -16t8.5 -12t15.5 -5q26 0 48.5 25t39 59 t25 69.5t6.5 56.5zM336 429q0 -3 -4 -7t-9.5 -7.5t-10 -5.5t-5.5 0q-15 19 -33 39.5t-35.5 41t-33.5 40.5t-27 38q0 3 6 9t13.5 11.5t14.5 10t8 4.5h6t6 -3q9 -17 18 -34.5t21 -38t27.5 -44.5t37.5 -54z" />
<glyph unicode="&#x1a0;&#x309;" horiz-adv-x="776" d="M694 451q5 -8 12 -13.5t22 -5.5q23 0 36 9t12 26q0 13 -7.5 32t-18.5 30q0 2 6.5 5.5t15 6.5t15.5 5.5t8 1.5q18 -11 29.5 -35t12.5 -50q1 -22 -6 -36.5t-18 -23.5t-25 -13t-27 -4q-34 0 -56 12.5t-33 34.5zM748 357q3 -75 -18 -142t-63 -117.5t-104 -80.5t-142 -30 q-60 0 -114 15t-96 45t-67.5 76.5t-27.5 109.5q-3 85 19 153.5t66 117t108 74.5t146 26q56 0 107.5 -14.5t92 -44.5t66 -76.5t27.5 -111.5zM660 367q-3 90 -57.5 135.5t-142.5 45.5q-72 0 -122 -25t-80.5 -69t-43 -104t-9.5 -131q2 -46 19 -78.5t45 -53.5t64 -31t75 -10 q70 0 119 25t79 68.5t43 102t11 125.5zM460 679q0 2 1 9t3 8q39 16 57 39t18 43q-1 18 -10.5 26.5t-32.5 8.5q-11 0 -17 -2t-11 -2q-3 0 -4 6t-1 13t1.5 13.5t4.5 7.5q12 3 27 6t31 3q32 0 53 -16t23 -46q1 -28 -15.5 -52.5t-39.5 -42.5t-46.5 -28t-36.5 -10q-2 0 -3.5 7 t-1.5 9z" />
<glyph unicode="&#x1a1;&#x309;" horiz-adv-x="381" d="M287 324q5 -14 14.5 -18.5t25.5 -4.5q21 0 31.5 16t9.5 44q0 5 -1 11t-2 11q2 2 5 2t8.5 -1l11 -2t10 -2t5.5 -2q9 -15 11 -37q0 -16 -6 -31t-17 -26t-26 -17.5t-32 -6.5q-15 0 -25 4t-17 10t-11.5 12l-7.5 10zM531 256q-9 -17 -24 -33t-34 -29t-41 -20.5t-46 -7.5 q-25 0 -46 6.5t-40 23.5q-4 -30 -13 -65.5t-26.5 -67t-47 -52.5t-75.5 -21q-23 0 -41.5 8.5t-32 22.5t-20.5 31t-8 34q-1 48 15 91t44.5 76t66.5 53t80 21q2 12 4 27.5t16 18.5q7 2 19.5 3.5t17.5 4.5q3 3 8.5 0.5t3.5 -8.5q-3 -8 -5.5 -20.5t-1.5 -25.5q1 -25 5 -46.5 t14 -37.5t25.5 -25.5t39.5 -9.5q15 0 30.5 6t29.5 16t26.5 23.5t20.5 28.5q1 3 7.5 0.5t14 -7.5t12.5 -10.5t2 -8.5zM258 252q-3 7 -4.5 12.5l-4.5 16.5q-1 7 -7 7q-27 0 -51 -19t-42.5 -48t-29 -63.5t-9.5 -66.5q0 -7 1 -16t4 -16t8.5 -12t15.5 -5q26 0 48.5 25t39 59 t25 69.5t6.5 56.5zM211 416q0 2 1 9t3 8q39 16 57 39t18 43q-1 18 -10.5 26.5t-32.5 8.5q-11 0 -17 -2t-11 -2q-3 0 -4 6t-1 13t1.5 13.5t4.5 7.5q12 3 27 6t31 3q32 0 53 -16t23 -46q1 -28 -15.5 -52.5t-39.5 -42.5t-46.5 -28t-36.5 -10q-2 0 -3.5 7t-1.5 9z" />
<glyph unicode="&#x1a0;&#x303;" horiz-adv-x="776" d="M694 451q5 -8 12 -13.5t22 -5.5q23 0 36 9t12 26q0 13 -7.5 32t-18.5 30q0 2 6.5 5.5t15 6.5t15.5 5.5t8 1.5q18 -11 29.5 -35t12.5 -50q1 -22 -6 -36.5t-18 -23.5t-25 -13t-27 -4q-34 0 -56 12.5t-33 34.5zM748 357q3 -75 -18 -142t-63 -117.5t-104 -80.5t-142 -30 q-60 0 -114 15t-96 45t-67.5 76.5t-27.5 109.5q-3 85 19 153.5t66 117t108 74.5t146 26q56 0 107.5 -14.5t92 -44.5t66 -76.5t27.5 -111.5zM660 367q-3 90 -57.5 135.5t-142.5 45.5q-72 0 -122 -25t-80.5 -69t-43 -104t-9.5 -131q2 -46 19 -78.5t45 -53.5t64 -31t75 -10 q70 0 119 25t79 68.5t43 102t11 125.5zM635 785q2 -18 -2.5 -34.5t-13.5 -29.5t-22.5 -21t-30.5 -8q-21 0 -40 8t-36.5 18t-34 18t-31.5 8q-11 0 -17 -3t-9.5 -8t-6 -12.5t-6.5 -15.5q-3 -5 -12 -7t-18.5 -1t-16 5.5t-5.5 11.5q2 10 9.5 25t19 29.5t28 25t36.5 10.5 q17 0 34.5 -9t34 -19.5t32 -19.5t28.5 -9q17 0 26.5 10.5t4.5 27.5q-1 3 6 6.5t16 4.5t17.5 -1t9.5 -10z" />
<glyph unicode="&#x1a1;&#x303;" horiz-adv-x="381" d="M287 324q5 -14 14.5 -18.5t25.5 -4.5q21 0 31.5 16t9.5 44q0 5 -1 11t-2 11q2 2 5 2t8.5 -1l11 -2t10 -2t5.5 -2q9 -15 11 -37q0 -16 -6 -31t-17 -26t-26 -17.5t-32 -6.5q-15 0 -25 4t-17 10t-11.5 12l-7.5 10zM531 256q-9 -17 -24 -33t-34 -29t-41 -20.5t-46 -7.5 q-25 0 -46 6.5t-40 23.5q-4 -30 -13 -65.5t-26.5 -67t-47 -52.5t-75.5 -21q-23 0 -41.5 8.5t-32 22.5t-20.5 31t-8 34q-1 48 15 91t44.5 76t66.5 53t80 21q2 12 4 27.5t16 18.5q7 2 19.5 3.5t17.5 4.5q3 3 8.5 0.5t3.5 -8.5q-3 -8 -5.5 -20.5t-1.5 -25.5q1 -25 5 -46.5 t14 -37.5t25.5 -25.5t39.5 -9.5q15 0 30.5 6t29.5 16t26.5 23.5t20.5 28.5q1 3 7.5 0.5t14 -7.5t12.5 -10.5t2 -8.5zM258 252q-3 7 -4.5 12.5l-4.5 16.5q-1 7 -7 7q-27 0 -51 -19t-42.5 -48t-29 -63.5t-9.5 -66.5q0 -7 1 -16t4 -16t8.5 -12t15.5 -5q26 0 48.5 25t39 59 t25 69.5t6.5 56.5zM415 536q2 -18 -2.5 -34.5t-13.5 -29.5t-22.5 -21t-30.5 -8q-21 0 -40 8t-36.5 18t-34 18t-31.5 8q-11 0 -17 -3t-9.5 -8t-6 -12.5t-6.5 -15.5q-3 -5 -12 -7t-18.5 -1t-16 5.5t-5.5 11.5q2 10 9.5 25t19 29.5t28 25t36.5 10.5q17 0 34.5 -9t34 -19.5 t32 -19.5t28.5 -9q17 0 26.5 10.5t4.5 27.5q-1 3 6 6.5t16 4.5t17.5 -1t9.5 -10z" />
<glyph unicode="&#x1a0;&#x323;" horiz-adv-x="776" d="M694 451q5 -8 12 -13.5t22 -5.5q23 0 36 9t12 26q0 13 -7.5 32t-18.5 30q0 2 6.5 5.5t15 6.5t15.5 5.5t8 1.5q18 -11 29.5 -35t12.5 -50q1 -22 -6 -36.5t-18 -23.5t-25 -13t-27 -4q-34 0 -56 12.5t-33 34.5zM748 357q3 -75 -18 -142t-63 -117.5t-104 -80.5t-142 -30 q-60 0 -114 15t-96 45t-67.5 76.5t-27.5 109.5q-3 85 19 153.5t66 117t108 74.5t146 26q56 0 107.5 -14.5t92 -44.5t66 -76.5t27.5 -111.5zM660 367q-3 90 -57.5 135.5t-142.5 45.5q-72 0 -122 -25t-80.5 -69t-43 -104t-9.5 -131q2 -46 19 -78.5t45 -53.5t64 -31t75 -10 q70 0 119 25t79 68.5t43 102t11 125.5zM386 -99q15 0 27.5 -9.5t13.5 -34.5q1 -17 -12 -31t-30 -14q-16 0 -28.5 12t-12.5 31q-1 17 10 31.5t32 14.5z" />
<glyph unicode="&#x1a1;&#x323;" horiz-adv-x="381" d="M287 324q5 -14 14.5 -18.5t25.5 -4.5q21 0 31.5 16t9.5 44q0 5 -1 11t-2 11q2 2 5 2t8.5 -1l11 -2t10 -2t5.5 -2q9 -15 11 -37q0 -16 -6 -31t-17 -26t-26 -17.5t-32 -6.5q-15 0 -25 4t-17 10t-11.5 12l-7.5 10zM531 256q-9 -17 -24 -33t-34 -29t-41 -20.5t-46 -7.5 q-25 0 -46 6.5t-40 23.5q-4 -30 -13 -65.5t-26.5 -67t-47 -52.5t-75.5 -21q-23 0 -41.5 8.5t-32 22.5t-20.5 31t-8 34q-1 48 15 91t44.5 76t66.5 53t80 21q2 12 4 27.5t16 18.5q7 2 19.5 3.5t17.5 4.5q3 3 8.5 0.5t3.5 -8.5q-3 -8 -5.5 -20.5t-1.5 -25.5q1 -25 5 -46.5 t14 -37.5t25.5 -25.5t39.5 -9.5q15 0 30.5 6t29.5 16t26.5 23.5t20.5 28.5q1 3 7.5 0.5t14 -7.5t12.5 -10.5t2 -8.5zM258 252q-3 7 -4.5 12.5l-4.5 16.5q-1 7 -7 7q-27 0 -51 -19t-42.5 -48t-29 -63.5t-9.5 -66.5q0 -7 1 -16t4 -16t8.5 -12t15.5 -5q26 0 48.5 25t39 59 t25 69.5t6.5 56.5zM136 -99q15 0 27.5 -9.5t13.5 -34.5q1 -17 -12 -31t-30 -14q-16 0 -28.5 12t-12.5 31q-1 17 10 31.5t32 14.5z" />
<glyph unicode="U&#x323;" horiz-adv-x="863" d="M872 563q-6 -1 -17 -4.5t-16 -11.5q-44 -69 -71.5 -142.5t-51.5 -151.5q-10 -31 -20 -72.5t-9 -80.5q1 -28 14.5 -45.5t53.5 -17.5q17 0 35 6t33 12.5t25 12.5t11 6q4 0 8.5 -7.5t7.5 -16.5t4 -17t-3 -10q-35 -18 -73 -31t-81 -13q-32 0 -56 8t-39.5 20.5t-23.5 28.5 t-9 31q0 17 2.5 30.5t6 23t6.5 15.5t3 7q-2 1 -3 2t-3 1q-31 -47 -65.5 -78t-72.5 -49.5t-79.5 -26t-86.5 -7.5q-29 0 -59 8t-55 25.5t-41 43.5t-18 62q-1 42 17 93.5t42 103.5t47 100.5t31 83.5q3 9 1 16q-3 12 -23 12q-9 0 -21.5 -0.5t-31.5 -0.5q-9 0 -17 0.5t-16 0.5 q-5 0 -8.5 8.5t-4.5 18t0.5 18t7.5 8.5q14 0 44.5 -2t65.5 -2q32 0 55.5 1.5t41 4t30.5 4t25 1.5q2 0 3 -6t2 -13.5t1.5 -14.5t0.5 -8q3 -5 -4 -7q-11 -3 -27.5 -5.5t-24.5 -16.5q-11 -22 -26 -53.5t-31 -67t-31.5 -73t-28 -72t-19.5 -63.5t-7 -48q2 -53 31 -71.5t81 -18.5 q50 0 97 22t88.5 58t74.5 82t54 95q12 29 23.5 61t22.5 63t20.5 59t16.5 48q5 15 12.5 24.5t23.5 17.5q5 1 19.5 4.5t30.5 7t29.5 6t17.5 2.5q3 0 6 -6.5t4.5 -14.5t1 -14.5t-4.5 -6.5zM305 -99q15 0 27.5 -9.5t13.5 -34.5q1 -17 -12 -31t-30 -14q-16 0 -28.5 12t-12.5 31 q-1 17 10 31.5t32 14.5z" />
<glyph unicode="u&#x323;" horiz-adv-x="386" d="M548 182q-18 -36 -44 -70.5t-57.5 -61.5t-66 -43.5t-69.5 -16.5q-36 0 -63 15.5t-28 44.5q-1 12 0 24q-5 -10 -15 -23t-23.5 -24.5t-29.5 -19t-33 -7.5q-9 0 -19.5 2.5t-20.5 7.5t-18.5 13t-11.5 18q-1 12 1 31.5t10.5 52t23 80t36.5 115.5q5 15 11 15q3 0 12.5 -3.5 t19.5 -8t18.5 -9.5t8.5 -9t-6 -18q-29 -73 -46 -129t-16 -85q3 -11 10.5 -15t15.5 -4t18.5 9.5t23 27t25.5 41t24 50.5q8 24 14.5 42.5t11.5 33t9.5 26.5t8.5 24q3 10 8 10t15 -7t19.5 -17.5t15 -21.5t2.5 -20q-11 -22 -22.5 -44.5t-21 -43.5t-15.5 -41.5t-5 -38.5 q1 -23 11 -34t25 -11q16 0 38.5 8.5t48.5 28t53.5 52t52.5 80.5q2 1 8 -2t13 -7.5t12.5 -9t6.5 -7.5zM114 -99q15 0 27.5 -9.5t13.5 -34.5q1 -17 -12 -31t-30 -14q-16 0 -28.5 12t-12.5 31q-1 17 10 31.5t32 14.5z" />
<glyph unicode="U&#x309;" horiz-adv-x="863" d="M872 563q-6 -1 -17 -4.5t-16 -11.5q-44 -69 -71.5 -142.5t-51.5 -151.5q-10 -31 -20 -72.5t-9 -80.5q1 -28 14.5 -45.5t53.5 -17.5q17 0 35 6t33 12.5t25 12.5t11 6q4 0 8.5 -7.5t7.5 -16.5t4 -17t-3 -10q-35 -18 -73 -31t-81 -13q-32 0 -56 8t-39.5 20.5t-23.5 28.5 t-9 31q0 17 2.5 30.5t6 23t6.5 15.5t3 7q-2 1 -3 2t-3 1q-31 -47 -65.5 -78t-72.5 -49.5t-79.5 -26t-86.5 -7.5q-29 0 -59 8t-55 25.5t-41 43.5t-18 62q-1 42 17 93.5t42 103.5t47 100.5t31 83.5q3 9 1 16q-3 12 -23 12q-9 0 -21.5 -0.5t-31.5 -0.5q-9 0 -17 0.5t-16 0.5 q-5 0 -8.5 8.5t-4.5 18t0.5 18t7.5 8.5q14 0 44.5 -2t65.5 -2q32 0 55.5 1.5t41 4t30.5 4t25 1.5q2 0 3 -6t2 -13.5t1.5 -14.5t0.5 -8q3 -5 -4 -7q-11 -3 -27.5 -5.5t-24.5 -16.5q-11 -22 -26 -53.5t-31 -67t-31.5 -73t-28 -72t-19.5 -63.5t-7 -48q2 -53 31 -71.5t81 -18.5 q50 0 97 22t88.5 58t74.5 82t54 95q12 29 23.5 61t22.5 63t20.5 59t16.5 48q5 15 12.5 24.5t23.5 17.5q5 1 19.5 4.5t30.5 7t29.5 6t17.5 2.5q3 0 6 -6.5t4.5 -14.5t1 -14.5t-4.5 -6.5zM526 645q0 2 1 9t3 8q39 16 57 39t18 43q-1 18 -10.5 26.5t-32.5 8.5q-11 0 -17 -2 t-11 -2q-3 0 -4 6t-1 13t1.5 13.5t4.5 7.5q12 3 27 6t31 3q32 0 53 -16t23 -46q1 -28 -15.5 -52.5t-39.5 -42.5t-46.5 -28t-36.5 -10q-2 0 -3.5 7t-1.5 9z" />
<glyph unicode="u&#x309;" horiz-adv-x="386" d="M548 182q-18 -36 -44 -70.5t-57.5 -61.5t-66 -43.5t-69.5 -16.5q-36 0 -63 15.5t-28 44.5q-1 12 0 24q-5 -10 -15 -23t-23.5 -24.5t-29.5 -19t-33 -7.5q-9 0 -19.5 2.5t-20.5 7.5t-18.5 13t-11.5 18q-1 12 1 31.5t10.5 52t23 80t36.5 115.5q5 15 11 15q3 0 12.5 -3.5 t19.5 -8t18.5 -9.5t8.5 -9t-6 -18q-29 -73 -46 -129t-16 -85q3 -11 10.5 -15t15.5 -4t18.5 9.5t23 27t25.5 41t24 50.5q8 24 14.5 42.5t11.5 33t9.5 26.5t8.5 24q3 10 8 10t15 -7t19.5 -17.5t15 -21.5t2.5 -20q-11 -22 -22.5 -44.5t-21 -43.5t-15.5 -41.5t-5 -38.5 q1 -23 11 -34t25 -11q16 0 38.5 8.5t48.5 28t53.5 52t52.5 80.5q2 1 8 -2t13 -7.5t12.5 -9t6.5 -7.5zM198 416q0 2 1 9t3 8q39 16 57 39t18 43q-1 18 -10.5 26.5t-32.5 8.5q-11 0 -17 -2t-11 -2q-3 0 -4 6t-1 13t1.5 13.5t4.5 7.5q12 3 27 6t31 3q32 0 53 -16t23 -46 q1 -28 -15.5 -52.5t-39.5 -42.5t-46.5 -28t-36.5 -10q-2 0 -3.5 7t-1.5 9z" />
<glyph unicode="&#x1af;&#x301;" horiz-adv-x="803" d="M752 462q-3 -7 0.5 -17.5t12 -20t21.5 -16t28 -6.5q25 0 42 16.5t15 48.5q0 11 -6 23q4 2 11 2.5t14.5 -0.5t13 -2t6.5 -2q5 -8 6.5 -20t2.5 -22q1 -18 -6 -35.5t-20.5 -31t-32.5 -21.5t-43 -8q-18 0 -35.5 8t-31 20.5t-21 27t-5.5 26.5zM872 563q-6 -1 -17 -4.5 t-16 -11.5q-44 -69 -71.5 -142.5t-51.5 -151.5q-10 -31 -20 -72.5t-9 -80.5q1 -28 14.5 -45.5t53.5 -17.5q17 0 35 6t33 12.5t25 12.5t11 6q4 0 8.5 -7.5t7.5 -16.5t4 -17t-3 -10q-35 -18 -73 -31t-81 -13q-32 0 -56 8t-39.5 20.5t-23.5 28.5t-9 31q0 17 2.5 30.5t6 23 t6.5 15.5t3 7q-2 1 -3 2t-3 1q-31 -47 -65.5 -78t-72.5 -49.5t-79.5 -26t-86.5 -7.5q-29 0 -59 8t-55 25.5t-41 43.5t-18 62q-1 42 17 93.5t42 103.5t47 100.5t31 83.5q3 9 1 16q-3 12 -23 12q-9 0 -21.5 -0.5t-31.5 -0.5q-9 0 -17 0.5t-16 0.5q-5 0 -8.5 8.5t-4.5 18 t0.5 18t7.5 8.5q14 0 44.5 -2t65.5 -2q32 0 55.5 1.5t41 4t30.5 4t25 1.5q2 0 3 -6t2 -13.5t1.5 -14.5t0.5 -8q3 -5 -4 -7q-11 -3 -27.5 -5.5t-24.5 -16.5q-11 -22 -26 -53.5t-31 -67t-31.5 -73t-28 -72t-19.5 -63.5t-7 -48q2 -53 31 -71.5t81 -18.5q50 0 97 22t88.5 58 t74.5 82t54 95q12 29 23.5 61t22.5 63t20.5 59t16.5 48q5 15 12.5 24.5t23.5 17.5q5 1 19.5 4.5t30.5 7t29.5 6t17.5 2.5q3 0 6 -6.5t4.5 -14.5t1 -14.5t-4.5 -6.5zM726 834q2 -7 -1 -10q-22 -20 -44 -37.5t-45.5 -35.5t-48.5 -38.5t-52 -45.5q-3 -3 -8.5 0t-10 7.5 t-7.5 9.5t-2 6q44 44 85.5 87t81.5 87q2 3 4.5 3h3.5q2 0 8.5 -4.5t14 -10t14 -11t7.5 -7.5z" />
<glyph unicode="&#x1b0;&#x301;" horiz-adv-x="386" d="M307 266q5 -14 14.5 -18.5t25.5 -4.5q21 0 31.5 16t9.5 44q0 5 -1 11t-2 11q2 2 5 2t8.5 -1l11 -2t10 -2t5.5 -2q9 -15 11 -37q0 -16 -6 -31t-17 -26t-26 -17.5t-32 -6.5q-15 0 -25 4t-17 10t-11.5 12l-7.5 10zM548 182q-18 -36 -44 -70.5t-57.5 -61.5t-66 -43.5 t-69.5 -16.5q-36 0 -63 15.5t-28 44.5q-1 12 0 24q-5 -10 -15 -23t-23.5 -24.5t-29.5 -19t-33 -7.5q-9 0 -19.5 2.5t-20.5 7.5t-18.5 13t-11.5 18q-1 12 1 31.5t10.5 52t23 80t36.5 115.5q5 15 11 15q3 0 12.5 -3.5t19.5 -8t18.5 -9.5t8.5 -9t-6 -18q-29 -73 -46 -129 t-16 -85q3 -11 10.5 -15t15.5 -4t18.5 9.5t23 27t25.5 41t24 50.5q8 24 14.5 42.5t11.5 33t9.5 26.5t8.5 24q3 10 8 10t15 -7t19.5 -17.5t15 -21.5t2.5 -20q-11 -22 -22.5 -44.5t-21 -43.5t-15.5 -41.5t-5 -38.5q1 -23 11 -34t25 -11q16 0 38.5 8.5t48.5 28t53.5 52 t52.5 80.5q2 1 8 -2t13 -7.5t12.5 -9t6.5 -7.5zM440 577q2 -7 -1 -10q-22 -20 -44 -37.5t-45.5 -35.5t-48.5 -38.5t-52 -45.5q-3 -3 -8.5 0t-10 7.5t-7.5 9.5t-2 6q44 44 85.5 87t81.5 87q2 3 4.5 3h3.5q2 0 8.5 -4.5t14 -10t14 -11t7.5 -7.5z" />
<glyph unicode="&#x1af;&#x300;" horiz-adv-x="803" d="M752 462q-3 -7 0.5 -17.5t12 -20t21.5 -16t28 -6.5q25 0 42 16.5t15 48.5q0 11 -6 23q4 2 11 2.5t14.5 -0.5t13 -2t6.5 -2q5 -8 6.5 -20t2.5 -22q1 -18 -6 -35.5t-20.5 -31t-32.5 -21.5t-43 -8q-18 0 -35.5 8t-31 20.5t-21 27t-5.5 26.5zM872 563q-6 -1 -17 -4.5 t-16 -11.5q-44 -69 -71.5 -142.5t-51.5 -151.5q-10 -31 -20 -72.5t-9 -80.5q1 -28 14.5 -45.5t53.5 -17.5q17 0 35 6t33 12.5t25 12.5t11 6q4 0 8.5 -7.5t7.5 -16.5t4 -17t-3 -10q-35 -18 -73 -31t-81 -13q-32 0 -56 8t-39.5 20.5t-23.5 28.5t-9 31q0 17 2.5 30.5t6 23 t6.5 15.5t3 7q-2 1 -3 2t-3 1q-31 -47 -65.5 -78t-72.5 -49.5t-79.5 -26t-86.5 -7.5q-29 0 -59 8t-55 25.5t-41 43.5t-18 62q-1 42 17 93.5t42 103.5t47 100.5t31 83.5q3 9 1 16q-3 12 -23 12q-9 0 -21.5 -0.5t-31.5 -0.5q-9 0 -17 0.5t-16 0.5q-5 0 -8.5 8.5t-4.5 18 t0.5 18t7.5 8.5q14 0 44.5 -2t65.5 -2q32 0 55.5 1.5t41 4t30.5 4t25 1.5q2 0 3 -6t2 -13.5t1.5 -14.5t0.5 -8q3 -5 -4 -7q-11 -3 -27.5 -5.5t-24.5 -16.5q-11 -22 -26 -53.5t-31 -67t-31.5 -73t-28 -72t-19.5 -63.5t-7 -48q2 -53 31 -71.5t81 -18.5q50 0 97 22t88.5 58 t74.5 82t54 95q12 29 23.5 61t22.5 63t20.5 59t16.5 48q5 15 12.5 24.5t23.5 17.5q5 1 19.5 4.5t30.5 7t29.5 6t17.5 2.5q3 0 6 -6.5t4.5 -14.5t1 -14.5t-4.5 -6.5zM589 693q0 -3 -4 -7t-9.5 -7.5t-10 -5.5t-5.5 0q-15 19 -33 39.5t-35.5 41t-33.5 40.5t-27 38q0 3 6 9 t13.5 11.5t14.5 10t8 4.5h6t6 -3q9 -17 18 -34.5t21 -38t27.5 -44.5t37.5 -54z" />
<glyph unicode="&#x1b0;&#x300;" horiz-adv-x="386" d="M307 266q5 -14 14.5 -18.5t25.5 -4.5q21 0 31.5 16t9.5 44q0 5 -1 11t-2 11q2 2 5 2t8.5 -1l11 -2t10 -2t5.5 -2q9 -15 11 -37q0 -16 -6 -31t-17 -26t-26 -17.5t-32 -6.5q-15 0 -25 4t-17 10t-11.5 12l-7.5 10zM548 182q-18 -36 -44 -70.5t-57.5 -61.5t-66 -43.5 t-69.5 -16.5q-36 0 -63 15.5t-28 44.5q-1 12 0 24q-5 -10 -15 -23t-23.5 -24.5t-29.5 -19t-33 -7.5q-9 0 -19.5 2.5t-20.5 7.5t-18.5 13t-11.5 18q-1 12 1 31.5t10.5 52t23 80t36.5 115.5q5 15 11 15q3 0 12.5 -3.5t19.5 -8t18.5 -9.5t8.5 -9t-6 -18q-29 -73 -46 -129 t-16 -85q3 -11 10.5 -15t15.5 -4t18.5 9.5t23 27t25.5 41t24 50.5q8 24 14.5 42.5t11.5 33t9.5 26.5t8.5 24q3 10 8 10t15 -7t19.5 -17.5t15 -21.5t2.5 -20q-11 -22 -22.5 -44.5t-21 -43.5t-15.5 -41.5t-5 -38.5q1 -23 11 -34t25 -11q16 0 38.5 8.5t48.5 28t53.5 52 t52.5 80.5q2 1 8 -2t13 -7.5t12.5 -9t6.5 -7.5zM279 429q0 -3 -4 -7t-9.5 -7.5t-10 -5.5t-5.5 0q-15 19 -33 39.5t-35.5 41t-33.5 40.5t-27 38q0 3 6 9t13.5 11.5t14.5 10t8 4.5h6t6 -3q9 -17 18 -34.5t21 -38t27.5 -44.5t37.5 -54z" />
<glyph unicode="&#x1af;&#x309;" horiz-adv-x="803" d="M752 462q-3 -7 0.5 -17.5t12 -20t21.5 -16t28 -6.5q25 0 42 16.5t15 48.5q0 11 -6 23q4 2 11 2.5t14.5 -0.5t13 -2t6.5 -2q5 -8 6.5 -20t2.5 -22q1 -18 -6 -35.5t-20.5 -31t-32.5 -21.5t-43 -8q-18 0 -35.5 8t-31 20.5t-21 27t-5.5 26.5zM872 563q-6 -1 -17 -4.5 t-16 -11.5q-44 -69 -71.5 -142.5t-51.5 -151.5q-10 -31 -20 -72.5t-9 -80.5q1 -28 14.5 -45.5t53.5 -17.5q17 0 35 6t33 12.5t25 12.5t11 6q4 0 8.5 -7.5t7.5 -16.5t4 -17t-3 -10q-35 -18 -73 -31t-81 -13q-32 0 -56 8t-39.5 20.5t-23.5 28.5t-9 31q0 17 2.5 30.5t6 23 t6.5 15.5t3 7q-2 1 -3 2t-3 1q-31 -47 -65.5 -78t-72.5 -49.5t-79.5 -26t-86.5 -7.5q-29 0 -59 8t-55 25.5t-41 43.5t-18 62q-1 42 17 93.5t42 103.5t47 100.5t31 83.5q3 9 1 16q-3 12 -23 12q-9 0 -21.5 -0.5t-31.5 -0.5q-9 0 -17 0.5t-16 0.5q-5 0 -8.5 8.5t-4.5 18 t0.5 18t7.5 8.5q14 0 44.5 -2t65.5 -2q32 0 55.5 1.5t41 4t30.5 4t25 1.5q2 0 3 -6t2 -13.5t1.5 -14.5t0.5 -8q3 -5 -4 -7q-11 -3 -27.5 -5.5t-24.5 -16.5q-11 -22 -26 -53.5t-31 -67t-31.5 -73t-28 -72t-19.5 -63.5t-7 -48q2 -53 31 -71.5t81 -18.5q50 0 97 22t88.5 58 t74.5 82t54 95q12 29 23.5 61t22.5 63t20.5 59t16.5 48q5 15 12.5 24.5t23.5 17.5q5 1 19.5 4.5t30.5 7t29.5 6t17.5 2.5q3 0 6 -6.5t4.5 -14.5t1 -14.5t-4.5 -6.5zM553 680q0 2 1 9t3 8q39 16 57 39t18 43q-1 18 -10.5 26.5t-32.5 8.5q-11 0 -17 -2t-11 -2q-3 0 -4 6t-1 13 t1.5 13.5t4.5 7.5q12 3 27 6t31 3q32 0 53 -16t23 -46q1 -28 -15.5 -52.5t-39.5 -42.5t-46.5 -28t-36.5 -10q-2 0 -3.5 7t-1.5 9z" />
<glyph unicode="&#x1b0;&#x309;" horiz-adv-x="386" d="M307 266q5 -14 14.5 -18.5t25.5 -4.5q21 0 31.5 16t9.5 44q0 5 -1 11t-2 11q2 2 5 2t8.5 -1l11 -2t10 -2t5.5 -2q9 -15 11 -37q0 -16 -6 -31t-17 -26t-26 -17.5t-32 -6.5q-15 0 -25 4t-17 10t-11.5 12l-7.5 10zM548 182q-18 -36 -44 -70.5t-57.5 -61.5t-66 -43.5 t-69.5 -16.5q-36 0 -63 15.5t-28 44.5q-1 12 0 24q-5 -10 -15 -23t-23.5 -24.5t-29.5 -19t-33 -7.5q-9 0 -19.5 2.5t-20.5 7.5t-18.5 13t-11.5 18q-1 12 1 31.5t10.5 52t23 80t36.5 115.5q5 15 11 15q3 0 12.5 -3.5t19.5 -8t18.5 -9.5t8.5 -9t-6 -18q-29 -73 -46 -129 t-16 -85q3 -11 10.5 -15t15.5 -4t18.5 9.5t23 27t25.5 41t24 50.5q8 24 14.5 42.5t11.5 33t9.5 26.5t8.5 24q3 10 8 10t15 -7t19.5 -17.5t15 -21.5t2.5 -20q-11 -22 -22.5 -44.5t-21 -43.5t-15.5 -41.5t-5 -38.5q1 -23 11 -34t25 -11q16 0 38.5 8.5t48.5 28t53.5 52 t52.5 80.5q2 1 8 -2t13 -7.5t12.5 -9t6.5 -7.5zM213 416q0 2 1 9t3 8q39 16 57 39t18 43q-1 18 -10.5 26.5t-32.5 8.5q-11 0 -17 -2t-11 -2q-3 0 -4 6t-1 13t1.5 13.5t4.5 7.5q12 3 27 6t31 3q32 0 53 -16t23 -46q1 -28 -15.5 -52.5t-39.5 -42.5t-46.5 -28t-36.5 -10 q-2 0 -3.5 7t-1.5 9z" />
<glyph unicode="&#x1af;&#x303;" horiz-adv-x="803" d="M752 462q-3 -7 0.5 -17.5t12 -20t21.5 -16t28 -6.5q25 0 42 16.5t15 48.5q0 11 -6 23q4 2 11 2.5t14.5 -0.5t13 -2t6.5 -2q5 -8 6.5 -20t2.5 -22q1 -18 -6 -35.5t-20.5 -31t-32.5 -21.5t-43 -8q-18 0 -35.5 8t-31 20.5t-21 27t-5.5 26.5zM872 563q-6 -1 -17 -4.5 t-16 -11.5q-44 -69 -71.5 -142.5t-51.5 -151.5q-10 -31 -20 -72.5t-9 -80.5q1 -28 14.5 -45.5t53.5 -17.5q17 0 35 6t33 12.5t25 12.5t11 6q4 0 8.5 -7.5t7.5 -16.5t4 -17t-3 -10q-35 -18 -73 -31t-81 -13q-32 0 -56 8t-39.5 20.5t-23.5 28.5t-9 31q0 17 2.5 30.5t6 23 t6.5 15.5t3 7q-2 1 -3 2t-3 1q-31 -47 -65.5 -78t-72.5 -49.5t-79.5 -26t-86.5 -7.5q-29 0 -59 8t-55 25.5t-41 43.5t-18 62q-1 42 17 93.5t42 103.5t47 100.5t31 83.5q3 9 1 16q-3 12 -23 12q-9 0 -21.5 -0.5t-31.5 -0.5q-9 0 -17 0.5t-16 0.5q-5 0 -8.5 8.5t-4.5 18 t0.5 18t7.5 8.5q14 0 44.5 -2t65.5 -2q32 0 55.5 1.5t41 4t30.5 4t25 1.5q2 0 3 -6t2 -13.5t1.5 -14.5t0.5 -8q3 -5 -4 -7q-11 -3 -27.5 -5.5t-24.5 -16.5q-11 -22 -26 -53.5t-31 -67t-31.5 -73t-28 -72t-19.5 -63.5t-7 -48q2 -53 31 -71.5t81 -18.5q50 0 97 22t88.5 58 t74.5 82t54 95q12 29 23.5 61t22.5 63t20.5 59t16.5 48q5 15 12.5 24.5t23.5 17.5q5 1 19.5 4.5t30.5 7t29.5 6t17.5 2.5q3 0 6 -6.5t4.5 -14.5t1 -14.5t-4.5 -6.5zM729 771q2 -18 -2.5 -34.5t-13.5 -29.5t-22.5 -21t-30.5 -8q-21 0 -40 8t-36.5 18t-34 18t-31.5 8 q-11 0 -17 -3t-9.5 -8t-6 -12.5t-6.5 -15.5q-3 -5 -12 -7t-18.5 -1t-16 5.5t-5.5 11.5q2 10 9.5 25t19 29.5t28 25t36.5 10.5q17 0 34.5 -9t34 -19.5t32 -19.5t28.5 -9q17 0 26.5 10.5t4.5 27.5q-1 3 6 6.5t16 4.5t17.5 -1t9.5 -10z" />
<glyph unicode="&#x1b0;&#x303;" horiz-adv-x="386" d="M307 266q5 -14 14.5 -18.5t25.5 -4.5q21 0 31.5 16t9.5 44q0 5 -1 11t-2 11q2 2 5 2t8.5 -1l11 -2t10 -2t5.5 -2q9 -15 11 -37q0 -16 -6 -31t-17 -26t-26 -17.5t-32 -6.5q-15 0 -25 4t-17 10t-11.5 12l-7.5 10zM548 182q-18 -36 -44 -70.5t-57.5 -61.5t-66 -43.5 t-69.5 -16.5q-36 0 -63 15.5t-28 44.5q-1 12 0 24q-5 -10 -15 -23t-23.5 -24.5t-29.5 -19t-33 -7.5q-9 0 -19.5 2.5t-20.5 7.5t-18.5 13t-11.5 18q-1 12 1 31.5t10.5 52t23 80t36.5 115.5q5 15 11 15q3 0 12.5 -3.5t19.5 -8t18.5 -9.5t8.5 -9t-6 -18q-29 -73 -46 -129 t-16 -85q3 -11 10.5 -15t15.5 -4t18.5 9.5t23 27t25.5 41t24 50.5q8 24 14.5 42.5t11.5 33t9.5 26.5t8.5 24q3 10 8 10t15 -7t19.5 -17.5t15 -21.5t2.5 -20q-11 -22 -22.5 -44.5t-21 -43.5t-15.5 -41.5t-5 -38.5q1 -23 11 -34t25 -11q16 0 38.5 8.5t48.5 28t53.5 52 t52.5 80.5q2 1 8 -2t13 -7.5t12.5 -9t6.5 -7.5zM405 536q2 -18 -2.5 -34.5t-13.5 -29.5t-22.5 -21t-30.5 -8q-21 0 -40 8t-36.5 18t-34 18t-31.5 8q-11 0 -17 -3t-9.5 -8t-6 -12.5t-6.5 -15.5q-3 -5 -12 -7t-18.5 -1t-16 5.5t-5.5 11.5q2 10 9.5 25t19 29.5t28 25t36.5 10.5 q17 0 34.5 -9t34 -19.5t32 -19.5t28.5 -9q17 0 26.5 10.5t4.5 27.5q-1 3 6 6.5t16 4.5t17.5 -1t9.5 -10z" />
<glyph unicode="&#x1af;&#x323;" horiz-adv-x="803" d="M752 462q-3 -7 0.5 -17.5t12 -20t21.5 -16t28 -6.5q25 0 42 16.5t15 48.5q0 11 -6 23q4 2 11 2.5t14.5 -0.5t13 -2t6.5 -2q5 -8 6.5 -20t2.5 -22q1 -18 -6 -35.5t-20.5 -31t-32.5 -21.5t-43 -8q-18 0 -35.5 8t-31 20.5t-21 27t-5.5 26.5zM872 563q-6 -1 -17 -4.5 t-16 -11.5q-44 -69 -71.5 -142.5t-51.5 -151.5q-10 -31 -20 -72.5t-9 -80.5q1 -28 14.5 -45.5t53.5 -17.5q17 0 35 6t33 12.5t25 12.5t11 6q4 0 8.5 -7.5t7.5 -16.5t4 -17t-3 -10q-35 -18 -73 -31t-81 -13q-32 0 -56 8t-39.5 20.5t-23.5 28.5t-9 31q0 17 2.5 30.5t6 23 t6.5 15.5t3 7q-2 1 -3 2t-3 1q-31 -47 -65.5 -78t-72.5 -49.5t-79.5 -26t-86.5 -7.5q-29 0 -59 8t-55 25.5t-41 43.5t-18 62q-1 42 17 93.5t42 103.5t47 100.5t31 83.5q3 9 1 16q-3 12 -23 12q-9 0 -21.5 -0.5t-31.5 -0.5q-9 0 -17 0.5t-16 0.5q-5 0 -8.5 8.5t-4.5 18 t0.5 18t7.5 8.5q14 0 44.5 -2t65.5 -2q32 0 55.5 1.5t41 4t30.5 4t25 1.5q2 0 3 -6t2 -13.5t1.5 -14.5t0.5 -8q3 -5 -4 -7q-11 -3 -27.5 -5.5t-24.5 -16.5q-11 -22 -26 -53.5t-31 -67t-31.5 -73t-28 -72t-19.5 -63.5t-7 -48q2 -53 31 -71.5t81 -18.5q50 0 97 22t88.5 58 t74.5 82t54 95q12 29 23.5 61t22.5 63t20.5 59t16.5 48q5 15 12.5 24.5t23.5 17.5q5 1 19.5 4.5t30.5 7t29.5 6t17.5 2.5q3 0 6 -6.5t4.5 -14.5t1 -14.5t-4.5 -6.5zM256 -99q15 0 27.5 -9.5t13.5 -34.5q1 -17 -12 -31t-30 -14q-16 0 -28.5 12t-12.5 31q-1 17 10 31.5 t32 14.5z" />
<glyph unicode="&#x1b0;&#x323;" horiz-adv-x="386" d="M307 266q5 -14 14.5 -18.5t25.5 -4.5q21 0 31.5 16t9.5 44q0 5 -1 11t-2 11q2 2 5 2t8.5 -1l11 -2t10 -2t5.5 -2q9 -15 11 -37q0 -16 -6 -31t-17 -26t-26 -17.5t-32 -6.5q-15 0 -25 4t-17 10t-11.5 12l-7.5 10zM548 182q-18 -36 -44 -70.5t-57.5 -61.5t-66 -43.5 t-69.5 -16.5q-36 0 -63 15.5t-28 44.5q-1 12 0 24q-5 -10 -15 -23t-23.5 -24.5t-29.5 -19t-33 -7.5q-9 0 -19.5 2.5t-20.5 7.5t-18.5 13t-11.5 18q-1 12 1 31.5t10.5 52t23 80t36.5 115.5q5 15 11 15q3 0 12.5 -3.5t19.5 -8t18.5 -9.5t8.5 -9t-6 -18q-29 -73 -46 -129 t-16 -85q3 -11 10.5 -15t15.5 -4t18.5 9.5t23 27t25.5 41t24 50.5q8 24 14.5 42.5t11.5 33t9.5 26.5t8.5 24q3 10 8 10t15 -7t19.5 -17.5t15 -21.5t2.5 -20q-11 -22 -22.5 -44.5t-21 -43.5t-15.5 -41.5t-5 -38.5q1 -23 11 -34t25 -11q16 0 38.5 8.5t48.5 28t53.5 52 t52.5 80.5q2 1 8 -2t13 -7.5t12.5 -9t6.5 -7.5zM154 -99q15 0 27.5 -9.5t13.5 -34.5q1 -17 -12 -31t-30 -14q-16 0 -28.5 12t-12.5 31q-1 17 10 31.5t32 14.5z" />
<glyph unicode="Y&#x300;" horiz-adv-x="572" d="M867 592q0 -1 -1.5 -6.5t-4.5 -11t-5.5 -10t-3.5 -3.5q-3 1 -16.5 4t-29.5 3q-41 0 -86 -18t-89 -48t-85.5 -68.5t-76.5 -79t-60.5 -79.5t-38.5 -71q-23 -59 -32.5 -110t-11.5 -83q-1 -5 -3 -9t-13 -2q-31 5 -54.5 0t-43.5 -22q-4 -2 -10.5 5t-3.5 12q18 21 38 58 t37 80.5t28 89t11 82.5q0 43 -11 82.5t-33.5 70t-55.5 48.5t-77 18q-39 0 -70.5 -16t-54.5 -49q-1 -3 -8 -1t-14.5 6t-13.5 10t-4 11q27 52 75 81.5t111 29.5q48 0 86.5 -25t65 -64t41 -85.5t14.5 -89.5q0 -6 5 -9t7 1q34 47 77 102.5t92.5 104t105 81t114.5 32.5 q8 0 23.5 -6.5t32 -15t30 -17t17.5 -13.5zM483 646q0 -3 -4 -7t-9.5 -7.5t-10 -5.5t-5.5 0q-15 19 -33 39.5t-35.5 41t-33.5 40.5t-27 38q0 3 6 9t13.5 11.5t14.5 10t8 4.5h6t6 -3q9 -17 18 -34.5t21 -38t27.5 -44.5t37.5 -54z" />
<glyph unicode="y&#x300;" horiz-adv-x="348" d="M108 0q-13 0 -26.5 4.5t-24 11.5t-17.5 17t-7 20q-1 16 4.5 44.5t15.5 63.5t24 73.5t29 75.5q2 8 6 11.5t7 6.5q4 1 13.5 1.5t19.5 1t18.5 0.5h9.5q6 0 6 -6q-16 -38 -30 -77.5t-25 -73t-17 -59.5t-6 -37t5.5 -19.5t22.5 -8.5q9 0 23.5 9t28.5 21t26.5 25t18.5 20 q5 6 8.5 17t7.5 27.5t10.5 41t17.5 57.5t20 55t19 22q5 -1 14 -5.5t18.5 -9.5t16.5 -11.5t8 -12.5q-21 -57 -47.5 -118.5t-46.5 -118.5q-15 -43 -36.5 -98t-51.5 -112t-68 -111t-86.5 -96.5t-107 -68.5t-129.5 -26q-51 0 -87.5 20.5t-58 50.5t-29 65t-0.5 64 q15 -55 52.5 -88t108.5 -33q73 0 133 22t110.5 71t93.5 126t81 188q3 6 0 4.5t-4 -2.5q-14 -14 -38 -29.5t-54 -15.5zM295 429q0 -3 -4 -7t-9.5 -7.5t-10 -5.5t-5.5 0q-15 19 -33 39.5t-35.5 41t-33.5 40.5t-27 38q0 3 6 9t13.5 11.5t14.5 10t8 4.5h6t6 -3q9 -17 18 -34.5 t21 -38t27.5 -44.5t37.5 -54z" />
<glyph unicode="Y&#x323;" horiz-adv-x="572" d="M867 592q0 -1 -1.5 -6.5t-4.5 -11t-5.5 -10t-3.5 -3.5q-3 1 -16.5 4t-29.5 3q-41 0 -86 -18t-89 -48t-85.5 -68.5t-76.5 -79t-60.5 -79.5t-38.5 -71q-23 -59 -32.5 -110t-11.5 -83q-1 -5 -3 -9t-13 -2q-31 5 -54.5 0t-43.5 -22q-4 -2 -10.5 5t-3.5 12q18 21 38 58 t37 80.5t28 89t11 82.5q0 43 -11 82.5t-33.5 70t-55.5 48.5t-77 18q-39 0 -70.5 -16t-54.5 -49q-1 -3 -8 -1t-14.5 6t-13.5 10t-4 11q27 52 75 81.5t111 29.5q48 0 86.5 -25t65 -64t41 -85.5t14.5 -89.5q0 -6 5 -9t7 1q34 47 77 102.5t92.5 104t105 81t114.5 32.5 q8 0 23.5 -6.5t32 -15t30 -17t17.5 -13.5zM253 -99q15 0 27.5 -9.5t13.5 -34.5q1 -17 -12 -31t-30 -14q-16 0 -28.5 12t-12.5 31q-1 17 10 31.5t32 14.5z" />
<glyph unicode="y&#x323;" horiz-adv-x="348" d="M108 0q-13 0 -26.5 4.5t-24 11.5t-17.5 17t-7 20q-1 16 4.5 44.5t15.5 63.5t24 73.5t29 75.5q2 8 6 11.5t7 6.5q4 1 13.5 1.5t19.5 1t18.5 0.5h9.5q6 0 6 -6q-16 -38 -30 -77.5t-25 -73t-17 -59.5t-6 -37t5.5 -19.5t22.5 -8.5q9 0 23.5 9t28.5 21t26.5 25t18.5 20 q5 6 8.5 17t7.5 27.5t10.5 41t17.5 57.5t20 55t19 22q5 -1 14 -5.5t18.5 -9.5t16.5 -11.5t8 -12.5q-21 -57 -47.5 -118.5t-46.5 -118.5q-15 -43 -36.5 -98t-51.5 -112t-68 -111t-86.5 -96.5t-107 -68.5t-129.5 -26q-51 0 -87.5 20.5t-58 50.5t-29 65t-0.5 64 q15 -55 52.5 -88t108.5 -33q73 0 133 22t110.5 71t93.5 126t81 188q3 6 0 4.5t-4 -2.5q-14 -14 -38 -29.5t-54 -15.5zM289 -99q15 0 27.5 -9.5t13.5 -34.5q1 -17 -12 -31t-30 -14q-16 0 -28.5 12t-12.5 31q-1 17 10 31.5t32 14.5z" />
<glyph unicode="Y&#x309;" horiz-adv-x="572" d="M867 592q0 -1 -1.5 -6.5t-4.5 -11t-5.5 -10t-3.5 -3.5q-3 1 -16.5 4t-29.5 3q-41 0 -86 -18t-89 -48t-85.5 -68.5t-76.5 -79t-60.5 -79.5t-38.5 -71q-23 -59 -32.5 -110t-11.5 -83q-1 -5 -3 -9t-13 -2q-31 5 -54.5 0t-43.5 -22q-4 -2 -10.5 5t-3.5 12q18 21 38 58 t37 80.5t28 89t11 82.5q0 43 -11 82.5t-33.5 70t-55.5 48.5t-77 18q-39 0 -70.5 -16t-54.5 -49q-1 -3 -8 -1t-14.5 6t-13.5 10t-4 11q27 52 75 81.5t111 29.5q48 0 86.5 -25t65 -64t41 -85.5t14.5 -89.5q0 -6 5 -9t7 1q34 47 77 102.5t92.5 104t105 81t114.5 32.5 q8 0 23.5 -6.5t32 -15t30 -17t17.5 -13.5zM420 596q0 2 1 9t3 8q39 16 57 39t18 43q-1 18 -10.5 26.5t-32.5 8.5q-11 0 -17 -2t-11 -2q-3 0 -4 6t-1 13t1.5 13.5t4.5 7.5q12 3 27 6t31 3q32 0 53 -16t23 -46q1 -28 -15.5 -52.5t-39.5 -42.5t-46.5 -28t-36.5 -10q-2 0 -3.5 7 t-1.5 9z" />
<glyph unicode="y&#x309;" horiz-adv-x="348" d="M108 0q-13 0 -26.5 4.5t-24 11.5t-17.5 17t-7 20q-1 16 4.5 44.5t15.5 63.5t24 73.5t29 75.5q2 8 6 11.5t7 6.5q4 1 13.5 1.5t19.5 1t18.5 0.5h9.5q6 0 6 -6q-16 -38 -30 -77.5t-25 -73t-17 -59.5t-6 -37t5.5 -19.5t22.5 -8.5q9 0 23.5 9t28.5 21t26.5 25t18.5 20 q5 6 8.5 17t7.5 27.5t10.5 41t17.5 57.5t20 55t19 22q5 -1 14 -5.5t18.5 -9.5t16.5 -11.5t8 -12.5q-21 -57 -47.5 -118.5t-46.5 -118.5q-15 -43 -36.5 -98t-51.5 -112t-68 -111t-86.5 -96.5t-107 -68.5t-129.5 -26q-51 0 -87.5 20.5t-58 50.5t-29 65t-0.5 64 q15 -55 52.5 -88t108.5 -33q73 0 133 22t110.5 71t93.5 126t81 188q3 6 0 4.5t-4 -2.5q-14 -14 -38 -29.5t-54 -15.5zM196 418q0 2 1 9t3 8q39 16 57 39t18 43q-1 18 -10.5 26.5t-32.5 8.5q-11 0 -17 -2t-11 -2q-3 0 -4 6t-1 13t1.5 13.5t4.5 7.5q12 3 27 6t31 3 q32 0 53 -16t23 -46q1 -28 -15.5 -52.5t-39.5 -42.5t-46.5 -28t-36.5 -10q-2 0 -3.5 7t-1.5 9z" />
<glyph unicode="Y&#x303;" horiz-adv-x="572" d="M867 592q0 -1 -1.5 -6.5t-4.5 -11t-5.5 -10t-3.5 -3.5q-3 1 -16.5 4t-29.5 3q-41 0 -86 -18t-89 -48t-85.5 -68.5t-76.5 -79t-60.5 -79.5t-38.5 -71q-23 -59 -32.5 -110t-11.5 -83q-1 -5 -3 -9t-13 -2q-31 5 -54.5 0t-43.5 -22q-4 -2 -10.5 5t-3.5 12q18 21 38 58 t37 80.5t28 89t11 82.5q0 43 -11 82.5t-33.5 70t-55.5 48.5t-77 18q-39 0 -70.5 -16t-54.5 -49q-1 -3 -8 -1t-14.5 6t-13.5 10t-4 11q27 52 75 81.5t111 29.5q48 0 86.5 -25t65 -64t41 -85.5t14.5 -89.5q0 -6 5 -9t7 1q34 47 77 102.5t92.5 104t105 81t114.5 32.5 q8 0 23.5 -6.5t32 -15t30 -17t17.5 -13.5zM615 747q2 -18 -2.5 -34.5t-13.5 -29.5t-22.5 -21t-30.5 -8q-21 0 -40 8t-36.5 18t-34 18t-31.5 8q-11 0 -17 -3t-9.5 -8t-6 -12.5t-6.5 -15.5q-3 -5 -12 -7t-18.5 -1t-16 5.5t-5.5 11.5q2 10 9.5 25t19 29.5t28 25t36.5 10.5 q17 0 34.5 -9t34 -19.5t32 -19.5t28.5 -9q17 0 26.5 10.5t4.5 27.5q-1 3 6 6.5t16 4.5t17.5 -1t9.5 -10z" />
<glyph unicode="y&#x303;" horiz-adv-x="348" d="M108 0q-13 0 -26.5 4.5t-24 11.5t-17.5 17t-7 20q-1 16 4.5 44.5t15.5 63.5t24 73.5t29 75.5q2 8 6 11.5t7 6.5q4 1 13.5 1.5t19.5 1t18.5 0.5h9.5q6 0 6 -6q-16 -38 -30 -77.5t-25 -73t-17 -59.5t-6 -37t5.5 -19.5t22.5 -8.5q9 0 23.5 9t28.5 21t26.5 25t18.5 20 q5 6 8.5 17t7.5 27.5t10.5 41t17.5 57.5t20 55t19 22q5 -1 14 -5.5t18.5 -9.5t16.5 -11.5t8 -12.5q-21 -57 -47.5 -118.5t-46.5 -118.5q-15 -43 -36.5 -98t-51.5 -112t-68 -111t-86.5 -96.5t-107 -68.5t-129.5 -26q-51 0 -87.5 20.5t-58 50.5t-29 65t-0.5 64 q15 -55 52.5 -88t108.5 -33q73 0 133 22t110.5 71t93.5 126t81 188q3 6 0 4.5t-4 -2.5q-14 -14 -38 -29.5t-54 -15.5zM400 536q2 -18 -2.5 -34.5t-13.5 -29.5t-22.5 -21t-30.5 -8q-21 0 -40 8t-36.5 18t-34 18t-31.5 8q-11 0 -17 -3t-9.5 -8t-6 -12.5t-6.5 -15.5 q-3 -5 -12 -7t-18.5 -1t-16 5.5t-5.5 11.5q2 10 9.5 25t19 29.5t28 25t36.5 10.5q17 0 34.5 -9t34 -19.5t32 -19.5t28.5 -9q17 0 26.5 10.5t4.5 27.5q-1 3 6 6.5t16 4.5t17.5 -1t9.5 -10z" />
<glyph unicode="&#xe4f;&#x22;" horiz-adv-x="481" d="M256 544h51l-16 -115h-31zM170 544h51l-4 -115h-31zM241 395q36 0 69.5 -13.5t59 -37.5t41 -58t15.5 -75q0 -40 -15.5 -73.5t-41 -57.5t-59 -37.5t-69.5 -13.5q-37 0 -70.5 13.5t-59 37.5t-41 57.5t-15.5 73.5q0 41 15.5 75t41 58t59 37.5t70.5 13.5zM241 68q29 0 55 11 t45.5 30.5t30.5 45.5t11 56t-11 56.5t-30.5 46t-45.5 31t-55 11.5q-30 0 -56 -11.5t-45.5 -31t-30.5 -46t-11 -56.5t11 -56t30.5 -45.5t45.5 -30.5t56 -11zM242 301q36 0 62 -25.5t26 -61.5q0 -38 -26 -63t-62 -25t-62 25t-26 63q0 36 26 61.5t62 25.5zM242 162q21 0 36 15 t15 37q0 20 -15 35t-36 15t-36 -15t-15 -35q0 -22 15 -37t36 -15z" />
<glyph unicode="&#xe24;&#xe32;" horiz-adv-x="396" d="M118 147q10 -2 21.5 -10.5t18.5 -19.5q5 -9 9.5 -26t4.5 -25q0 -12 -3.5 -24.5t-11 -23t-19 -17t-28.5 -6.5q-36 0 -55 27t-19 67q0 32 6 58.5t15.5 48t20.5 39t20 30.5q0 11 -11.5 23t-34.5 12l-11 29q45 36 94.5 49t109.5 13q9 0 27 -9.5t37 -24t33 -31.5t14 -32 q0 -10 -6.5 -39t-14 -66t-14 -76t-6.5 -69q-5 -68 -33.5 -127.5t-73 -106t-100 -77t-115 -40t-118 4t-108.5 56.5q118 -15 207 -1t149 53t93.5 100t40.5 139q0 30 6.5 67t15 71.5t15 62t6.5 37.5q0 7 -8 18.5t-18.5 22.5t-22 19t-17.5 8q-42 0 -73 -7t-62 -26 q13 -5 19.5 -13.5t8.5 -19.5q2 2 14 7.5t18 5.5t9 -7q-20 -25 -34 -47.5t-23 -47t-13.5 -53t-4.5 -66.5q0 -9 3.5 -23.5t13.5 -14.5q16 0 21.5 17.5t5.5 34.5q0 31 -19 56z" />
<glyph unicode="&#xe26;&#xe32;" horiz-adv-x="396" d="M50 124q-21 -11 -35 -26.5t-14 -38.5q0 -11 4.5 -14.5t10.5 -3.5q16 0 29 26t22 60.5t14 68.5t5 49q0 17 -5.5 31.5t-28.5 14.5l-11 28q24 18 47 31.5t47.5 22.5t51 13.5t58.5 4.5q9 0 27 -9.5t37 -24t33 -31.5t14 -32q0 -10 -5.5 -39t-12.5 -66t-14 -76t-9 -69 q-5 -68 -33.5 -127.5t-73 -106t-100 -77t-115 -40t-118 4t-108.5 56.5q118 -15 207 -1t149 53t93.5 100t40.5 139q3 30 10 67t14.5 71.5t13 62t5.5 37.5q0 7 -8 18.5t-18.5 22.5t-22 19t-17.5 8q-19 0 -34.5 -1.5t-30 -5.5t-29 -10.5t-31.5 -15.5q22 -13 26 -35.5t4 -42.5 q0 -12 -2 -34.5t-7 -49.5t-14 -55t-23 -50.5t-34 -37t-47 -14.5q-21 0 -35.5 13t-14.5 42q0 19 12 40.5t35 30.5q14 5 23.5 4.5t17.5 -5.5z" />
<glyph unicode="fi" horiz-adv-x="624" d="M602 641q-2 17 -4.5 29.5t-10 21t-22.5 13t-42 4.5q-42 0 -73.5 -28t-59 -79.5t-53 -125t-54.5 -165.5q6 0 28.5 0.5t54 2.5t68.5 7.5t71 14.5q6 2 16 2.5t19.5 0t16.5 -1.5t8 -3q2 -5 0.5 -13.5t-4.5 -11.5q-14 -26 -28.5 -57.5t-26.5 -62t-20 -58t-8 -45.5 q0 -23 14 -30t31 -7q29 0 60.5 17t60 42t51.5 53.5t36 50.5q2 4 8 2t12 -7t10.5 -11t2.5 -9q-21 -35 -49.5 -68.5t-62.5 -60t-72 -42.5t-78 -16q-12 0 -29 2t-32.5 8.5t-26 18t-10.5 30.5q0 20 8.5 49t21 59.5t26 59.5t23.5 50q3 5 0.5 10t-14.5 2q-58 -11 -110.5 -16 t-84.5 -5q-12 -40 -23.5 -73t-22 -62.5t-20 -57t-19.5 -57.5q-38 -120 -93 -211.5t-115.5 -153t-121.5 -93t-111 -31.5q-27 0 -53.5 18.5t-46.5 49.5t-31.5 71.5t-9.5 84.5q0 8 8 19t18.5 22t22.5 20t21 13q5 2 9 -0.5t8 -4.5q-4 -7 -8 -16q-3 -8 -5 -17.5t-2 -21.5 q0 -27 3.5 -58.5t14.5 -57.5t30.5 -43.5t52.5 -17.5q39 0 81.5 20.5t84 65t81 113.5t72.5 165q11 31 25 70.5t29 81.5t30 84.5t27 79.5q-64 1 -102.5 3t-70.5 12q-2 14 1 29.5t10 18.5q10 -2 23 -5.5t32.5 -6.5t47 -5.5t66.5 -2.5q18 56 40 116.5t50.5 117.5t65.5 105t86 79 q21 14 47 23t51 9q34 0 54.5 -13t25.5 -22q2 -3 2 -14.5t-1 -25.5t-2 -27.5t-3 -19.5q-1 -3 -5.5 -3.5t-10.5 0.5q-7 1 -15 3zM633 526q-2 11 -13.5 16.5t-22.5 5.5q-12 0 -22.5 -5.5t-18.5 -14.5t-11.5 -20t-1.5 -22q2 -10 13.5 -15t21.5 -5q11 0 22 5.5t19 14.5t12 19.5 t2 20.5z" />
<glyph unicode="fl" horiz-adv-x="680" d="M561 301q-13 -31 -25.5 -60t-22.5 -54.5t-16 -46.5t-6 -35q0 -29 8 -40.5t34 -11.5q36 0 73.5 17t71.5 43t61.5 56.5t43.5 56.5q5 6 12.5 3t15 -9t12.5 -13t3 -10q-22 -34 -59 -70t-81.5 -65.5t-93 -48.5t-93.5 -19q-42 0 -65 23.5t-23 55.5q0 19 7 44t17.5 53.5t24 58.5 t26.5 60q-29 -6 -59.5 -10.5t-59 -6.5t-52.5 -3t-41 -1q-12 -40 -23.5 -73t-22 -62.5t-20 -57t-19.5 -57.5q-41 -129 -99 -225t-128 -159.5t-149 -95t-161 -31.5q-51 0 -94 10.5t-75 32t-51 55t-21 79.5q18 -23 35 -42t45 -32.5t71.5 -20.5t112.5 -7q80 0 144.5 23t116 69.5 t91.5 116.5t72 163q11 31 25 70.5t29 81.5t30 84.5t27 79.5q-64 1 -102.5 3t-70.5 12q-2 14 1 29.5t10 18.5q10 -2 23 -5.5t32.5 -6.5t47 -5.5t66.5 -2.5q18 56 40 116.5t50.5 117.5t65.5 105t86 79q21 14 47 23t51 9q35 0 53 -7.5t31 -30.5q1 -3 3.5 -11t5.5 -17.5t5.5 -19 t3.5 -15.5q23 42 44.5 81t41.5 71q28 47 52.5 62t47.5 15t38 -10t24 -26t12.5 -34t3.5 -35q0 -63 -18 -120.5t-47.5 -108.5t-67.5 -94t-78 -76t-79.5 -55t-71.5 -31zM283 311q6 0 28 0.5t53.5 2.5t68 7t70.5 14q11 24 20 43.5t14 33.5q7 17 19 43t28 58.5t34.5 69t38.5 73.5 q-23 25 -58 39t-77 14q-38 0 -69 -28t-59.5 -79.5t-55 -125t-55.5 -165.5zM569 349q49 22 99.5 64.5t91.5 99.5t67 126t26 144q0 19 -3.5 33.5t-16.5 14.5q-6 0 -11.5 -3t-14.5 -15t-23 -35.5t-38 -63.5q-12 -21 -26 -47t-27.5 -54t-27.5 -57t-26 -56q-29 -63 -58 -130z" />
<glyph unicode="B&#x35;&#x31;&#x33;DS&#x21;GN" horiz-adv-x="4844" d="M85 3q7 9 14 20.5t13 21.5t10.5 18t5.5 11q21 69 39 125.5t35.5 110t35.5 109t39 122.5q1 2 -1 7q-1 4 -9 4q-18 0 -40 -2.5t-43 -6t-39.5 -6t-29.5 -2.5q-21 0 -25 13v13v18.5t1 18t2 10.5q1 0 5 -4q3 -2 5.5 -3.5t8.5 -2t16 -1t27 -0.5q43 0 90.5 2t104.5 2 q62 0 112 -4t85.5 -17.5t55.5 -39t21 -67.5q1 -20 -3 -42t-16.5 -42t-35 -37.5t-58.5 -28.5q-3 -1 -3 -3q0 -3 3 -3q22 -2 43.5 -11.5t39 -26.5t28.5 -42.5t12 -58.5q2 -35 -14.5 -69.5t-49 -61.5t-81 -44t-110.5 -17q-43 0 -75 8t-55 17.5t-37.5 17.5t-23.5 8 q-11 0 -21.5 -13t-22.5 -29l-59 8v0zM225 133q-5 -16 -3 -24t14 -20.5t31.5 -24t45 -19.5t53.5 -8q41 0 75 9t58 27.5t37.5 47t11.5 68.5q-1 20 -7 37.5t-19 30.5t-35 20t-54 7q-19 0 -38.5 -2t-43.5 -2q-1 0 -3 4.5t-3.5 10.5l-3 12t-1.5 10q0 7 2 16t10 9q14 0 28 -1 t29 -1q12 0 27 2t26 6q40 11 59 35.5t17 77.5q-1 29 -9.5 46.5t-24.5 27.5t-39.5 13t-53.5 3q-20 0 -33 -7.5t-22 -19.5t-15 -27.5t-12 -32.5q-13 -38 -25.5 -76t-25.5 -77.5t-26 -83.5t-27 -94zM1315 65q11 0 54.5 -2t123.5 -2q96 0 154 15t89 36.5t41 45.5t10 42 q-1 21 -13 36.5t-30 25t-38.5 14t-37.5 4.5t-19 26q0 11 2 20.5t8 9.5q10 0 34 11.5t48.5 29t43.5 38.5t18 41q-1 24 -19.5 37.5t-57.5 13.5q-16 0 -30 -8.5t-21 -23.5q-2 -11 -12.5 -21t-14.5 -10t-12 5.5t-15.5 12.5t-13 15t-5.5 12q0 12 12.5 24.5t33 23t45.5 17.5t49 7 q27 0 50.5 -8.5t41.5 -22.5t29 -30.5t12 -33.5q0 -21 -8 -41.5t-21 -38t-30 -32t-34 -23.5q-21 -11 -4 -18q39 -14 64.5 -37t27.5 -70q1 -39 -17 -75.5t-64.5 -64t-125 -44.5t-198.5 -17h-42.5t-69.5 1t-81.5 2.5t-77.5 4.5t-58 7t-23 9q-1 0 -2.5 7.5t-2.5 18t0 20.5t5 16 q1 2 17 -2t35 -9t35 -7.5t16 2.5q4 44 17 92.5t29.5 97.5t34 96t30.5 87q5 14 0 19.5t-10 5.5q-59 -3 -107.5 -3.5t-91.5 0t-82.5 1.5t-81.5 2q-17 0 -26.5 -6t-20.5 -24q-14 -24 -17.5 -49.5t-2.5 -39.5q1 -17 12 -27.5t28 -19.5t36.5 -18t37 -21t29 -29.5t12.5 -44.5 q-2 -36 -21 -71t-49 -62t-69 -44t-81 -17q-16 0 -38.5 9t-43 21t-35 24.5t-14.5 19.5q0 5 4.5 13t10.5 16t12.5 14t11.5 6q12 0 21 -10t19 -21.5t23.5 -21.5t34.5 -10q23 0 47.5 10.5t44 27.5t32 39.5t11.5 47.5q-1 23 -14 39t-32.5 27.5t-42 18.5t-42.5 13q-9 3 -15 9.5 t-9 14.5t-4 16t0 13q6 21 14.5 44t16.5 46.5t14.5 46t8.5 42.5q2 10 10.5 19t17.5 14q14 6 24 -3q11 -8 25.5 -13t42.5 -7q48 -4 103 -4t105.5 1.5t90.5 3.5t57 3q12 1 20.5 6t16 11.5t14 12t15.5 6.5h1q5 0 12.5 -3t15 -8.5t13.5 -11.5t7 -12q2 -8 -2.5 -15t-10.5 -12 q-14 -14 -21 -28.5t-18 -38.5q-6 -15 -16.5 -44t-23 -66.5t-25 -81.5t-23.5 -88q-4 -15 -7.5 -31t-3.5 -29.5t3.5 -22t13.5 -8.5zM2296 532q-38 -109 -75 -210.5t-68 -203.5q-2 -8 -2.5 -11t0.5 -5q1 -5 4 -10t9 -9q28 -23 57 -30.5t64 -7.5q69 0 125.5 22t96 62t60 95.5 t17.5 122.5q-1 51 -13 88.5t-40.5 62.5t-75.5 37.5t-119 12.5q-16 0 -25.5 -2t-14.5 -14zM2004 3q14 19 28.5 41.5t19.5 36.5q5 13 16.5 46.5t27.5 77.5t33.5 93.5t33.5 95.5t28 84t16 59q-1 4 -5 5.5t-7 1.5q-21 0 -38.5 -2.5t-34.5 -6t-34.5 -6.5t-38.5 -3q-6 0 -9.5 7.5 t-6 17t-4 19.5t-3.5 15q-1 3 -1.5 11t4.5 8q1 0 7 -2.5t15 -5.5t19.5 -5.5t19.5 -2.5q38 0 68.5 1.5t58 4t55.5 4t61 1.5q61 0 121 -10.5t108 -38t79 -75t34 -122.5q1 -38 -6.5 -79.5t-25.5 -82t-47 -77t-71 -64.5t-98 -44.5t-127 -16.5q-32 0 -72.5 8t-87.5 26 q-8 3 -13.5 5t-10.5 2q-11 0 -25 -9.5t-29 -25.5zM3126 539q0 -9 -0.5 -21.5t-1.5 -25t-2.5 -24t-3.5 -19.5q-2 -2 -14 -1t-14 5q1 4 0.5 13.5t-2.5 15.5q-5 25 -24.5 39.5t-70.5 14.5q-17 0 -30.5 -7t-23 -18t-14 -24.5t-4.5 -26.5q2 -44 24 -78.5t54 -69.5 q25 -26 43.5 -45t30.5 -35t18.5 -31.5t7.5 -36.5q2 -44 -23 -77t-63.5 -54.5t-83.5 -32t-84 -10.5q-32 0 -63 6t-59 18q-20 8 -23 15q1 11 1 27.5v34t0.5 33t0.5 24.5q0 2 7.5 2h9.5t10 -1.5t9 -5.5q-1 -6 -0.5 -16.5t2.5 -16.5q8 -38 39 -53t72 -15q30 0 58 8t49 22.5 t33 34.5t11 44q0 12 -3 23t-10.5 24t-21 29.5t-36.5 39.5q-42 40 -67.5 81t-27.5 87q-1 33 11 62t35.5 51.5t57 35.5t75.5 13q22 0 40.5 -6t33 -14.5t24.5 -18.5t13 -19zM3472 602q7 -3 7 -7.5t-4 -4.5q-10 0 -19 -7t-14 -15q-20 -27 -34.5 -66.5t-26.5 -89.5t-23 -108 t-24 -123q-1 -3 -9.5 -4t-18 -0.5t-17.5 2.5t-8 5q8 65 16 117.5t16.5 98t18.5 85.5t22 79q11 47 60 47q12 0 30.5 -3t27.5 -6zM3339 37q2 -10 -3 -18.5t-13 -15t-18.5 -9.5t-19.5 -3q-14 0 -26.5 7.5t-15.5 21.5q-5 21 9.5 38.5t38.5 17.5q17 0 31.5 -11.5t16.5 -27.5z M3548 -293q-2 7 -3 15q-2 15 4 35q8 -4 22.5 -8.5t30.5 -8.5t31 -6.5t24 -2.5q46 0 85.5 17.5t73 46t61 66t49 77t37 79t24.5 71.5q-1 10 -8 3q-10 -11 -29.5 -29.5t-49.5 -35.5t-70.5 -30t-93.5 -14q-112 0 -174 52t-66 142q-2 71 26.5 146t84 136.5t136 101t180.5 39.5 q23 0 50 -3t53.5 -9.5t50.5 -17t41 -24.5q-1 -24 -5.5 -56.5t-9.5 -57.5q-1 0 -3 -1q-4 -2 -12 -2q-4 0 -10 2q-3 1 -5 2q0 8 0.5 11t-0.5 13q-3 25 -18 42t-39 27.5t-56 15.5t-68 5q-67 0 -125.5 -34t-100.5 -88t-65.5 -121t-20.5 -134q1 -27 9.5 -52t26.5 -44.5t46.5 -31 t68.5 -11.5q61 0 113 23.5t90 55t61 63.5t25 48q2 15 -0.5 21t-16.5 6q-22 0 -43.5 -3t-59.5 -5v44q27 0 62.5 1t72 3t69.5 6t55 11q1 -1 2 -6.5t1 -12.5v-13t-1 -8q-20 -6 -36.5 -13t-21.5 -26q-15 -50 -32 -103.5t-36 -104.5t-40 -95.5t-42 -75.5q-19 -28 -45.5 -56.5 t-62 -52t-81.5 -38.5t-104 -15q-27 0 -56.5 7.5t-55.5 15.5zM4335 -21q-4 2 -15.5 8t-24.5 12.5t-24 13.5t-13 12q-2 14 3 36.5t10 41.5q4 14 14.5 43.5t25 67t29.5 79.5t27.5 81.5t20.5 72t7 51.5q-1 16 -6 26.5t-25 10.5q-16 0 -32 -1t-30 -2q-3 0 -5.5 7.5t-4.5 17 t-4 18.5t-4 13q0 5 5 5q14 -5 33 -6.5t39 -1.5q13 0 29 1t32 3t29.5 4.5t20.5 5.5q8 0 13 -13q48 -103 103 -219t110 -225q5 -11 8 -14t9 -3q3 0 5.5 2.5t4.5 10.5q17 63 33 126.5t33 125t35.5 119t39.5 109.5q7 14 17 28.5t22.5 27t28 20.5t32.5 8q5 0 19.5 -2.5t30 -6 t29 -8.5t16.5 -11q0 -3 -5 -3q-15 0 -30.5 -4t-31.5 -15t-31 -30.5t-30 -51.5q-28 -64 -52 -135.5t-43.5 -146t-35.5 -149.5t-30 -146q-4 -9 -8 -9q-1 0 -10 0.5t-19.5 1.5t-19.5 2.5t-11 4.5q-21 44 -48 99t-56.5 111.5t-57.5 109t-51 91.5q-5 9 -10 13t-8 4q-5 0 -10 -4 t-8 -12q-19 -53 -33 -89.5t-25.5 -67.5t-22.5 -62.5t-23 -74.5q-3 -11 -7 -27t-6 -34t-2.5 -36.5t3.5 -34.5h-4z" />
<glyph unicode="&#xd;" horiz-adv-x="216" />
<glyph unicode=" "  horiz-adv-x="250" />
<glyph unicode="&#x09;" horiz-adv-x="250" />
<glyph unicode="&#xa0;" horiz-adv-x="250" />
<glyph unicode="!" horiz-adv-x="330" d="M331 602q7 -3 7 -7.5t-4 -4.5q-10 0 -19 -7t-14 -15q-20 -27 -34.5 -66.5t-26.5 -89.5t-23 -108t-24 -123q-1 -3 -9.5 -4t-18 -0.5t-17.5 2.5t-8 5q8 65 16 117.5t16.5 98t18.5 85.5t22 79q11 47 60 47q12 0 30.5 -3t27.5 -6zM198 37q2 -10 -3 -18.5t-13 -15t-18.5 -9.5 t-19.5 -3q-14 0 -26.5 7.5t-15.5 21.5q-5 21 9.5 38.5t38.5 17.5q17 0 31.5 -11.5t16.5 -27.5z" />
<glyph unicode="&#x22;" horiz-adv-x="491" d="M345 672q5 0 14 -2t17.5 -5.5t14 -8.5t2.5 -11q-25 -46 -40 -73.5t-27.5 -51t-26.5 -51t-36 -74.5q-2 -3 -10 -3.5t-16.5 1.5t-14.5 6t-4 9q14 32 24.5 56.5t21 51.5t24 61t34.5 83q5 12 23 12zM213 684q6 0 15.5 -2.5t17.5 -7t13 -10t1 -12.5q-24 -42 -40.5 -71.5 t-30.5 -56t-28.5 -55t-32.5 -69.5q-1 -3 -10 -3t-18 2t-15.5 6.5t-3.5 11.5q17 38 30 67.5t25.5 58t25.5 58.5t30 69q6 14 21 14z" />
<glyph unicode="#" horiz-adv-x="461" d="M381 517q0 -2 -3 -14t-8.5 -31t-12.5 -42t-15 -48q20 1 32.5 2t25.5 2q6 0 6 -7q-5 -8 -7.5 -21.5t-5.5 -19.5q-4 -5 -12 -3t-28 2h-10.5t-10.5 -1q-6 -18 -9 -30.5t-5.5 -23.5t-5 -23.5t-8.5 -30.5q27 0 50 -3t25 -16q2 -6 -1.5 -19.5t-7.5 -24.5q-9 8 -24.5 10.5 t-53.5 2.5q-10 -44 -17 -81.5t-13 -69.5q-4 -11 -9 -11q-2 0 -10.5 2t-18 5t-17 6t-7.5 4q-2 4 -1.5 7.5t1.5 7.5q11 33 19 62.5t18 67.5q-19 0 -41 -1t-44 -3q-13 -49 -23.5 -83t-15.5 -70q-3 -16 -11 -16q-3 0 -11 1.5t-17 4t-16.5 5.5t-9.5 6q-2 6 1 12q6 17 11 33l10 32 t11 33.5t14 38.5q-20 -2 -32 -5.5t-17 -3.5q-1 0 -1.5 5.5t-0.5 12.5t1 14t2 10q3 8 7.5 9.5t9.5 2.5q8 1 20.5 2t22.5 3q6 18 9.5 31t6.5 25t6.5 24.5t8.5 30.5q-15 -2 -29.5 -3.5t-28.5 -3.5q-5 0 -5 4q0 2 0.5 7t2 11.5t3 12.5t3.5 10q2 8 14 8q11 0 23 0.5t26 0.5 q10 29 13 57t9 51q3 9 14.5 13t23.5 4.5t21 -2t7 -6.5q-13 -27 -18 -57.5t-15 -59.5q21 2 42 1.5t42 1.5q9 23 15.5 45.5t11 41.5t7 33.5t4.5 20.5q1 3 8.5 5.5t16 3.5t16.5 1t11 -1q5 -2 6.5 -4.5t-1.5 -10.5zM274 336q-22 0 -43 0.5t-36 -2.5q-5 -16 -8.5 -28.5 t-6.5 -24.5t-6.5 -25.5t-8.5 -31.5q19 2 40.5 2t41.5 2q5 18 8 30.5t5.5 23.5t5.5 23.5t8 30.5z" />
<glyph unicode="$" horiz-adv-x="445" d="M152 -219q28 246 94.5 486.5t157.5 485.5q3 3 8 4t10.5 0t10 -3.5t5.5 -6.5q-49 -130 -87.5 -248.5t-68.5 -235.5t-52 -237.5t-39 -255.5q-1 -6 -6.5 -7t-12 1t-12.5 6.5t-8 10.5zM450 539q0 -9 -0.5 -21.5t-1.5 -25t-2.5 -24t-3.5 -19.5q-2 -2 -14 -1t-14 5 q1 4 0.5 13.5t-2.5 15.5q-5 25 -24.5 39.5t-70.5 14.5q-17 0 -30.5 -7t-23 -18t-14 -24.5t-4.5 -26.5q2 -44 24 -78.5t54 -69.5q25 -26 43.5 -45t30.5 -35t18.5 -31.5t7.5 -36.5q2 -44 -23 -77t-63.5 -54.5t-83.5 -32t-84 -10.5q-32 0 -63 6t-59 18q-20 8 -23 15 q1 11 1 27.5v34t0.5 33t0.5 24.5q0 2 7.5 2h9.5t10 -1.5t9 -5.5q-1 -6 -0.5 -16.5t2.5 -16.5q8 -38 39 -53t72 -15q30 0 58 8t49 22.5t33 34.5t11 44q0 12 -3 23t-10.5 24t-21 29.5t-36.5 39.5q-42 40 -67.5 81t-27.5 87q-1 33 11 62t35.5 51.5t57 35.5t75.5 13 q22 0 40.5 -6t33 -14.5t24.5 -18.5t13 -19z" />
<glyph unicode="%" horiz-adv-x="653" d="M554 501q6 0 15 -1.5t17.5 -4t15.5 -5.5t8 -7q2 -7 -2 -13.5t-11 -10.5q-20 -10 -47 -39.5t-58 -68.5t-63 -84t-61 -86.5t-52.5 -75t-38.5 -50.5q-8 -9 -15.5 -21.5t-13.5 -25.5t-10 -23.5t-6 -15.5q-2 -4 -15.5 -3.5t-28.5 4.5t-25 10.5t-6 13.5q7 11 32.5 47t61 84.5 t77 103.5t80 104.5t69.5 88t45 53.5q11 13 17 19.5t14 6.5h1zM115 355q-1 32 17.5 63.5t45 57t53.5 41t42 15.5q18 0 33 -9.5t26 -24.5t17.5 -34t7.5 -37q1 -31 -15 -57.5t-41 -45t-55.5 -29t-59.5 -10.5q-30 0 -49.5 18t-21.5 52zM178 366q0 -11 8 -19t22 -8t30 6.5 t29.5 17.5t22 25.5t8.5 31.5q-1 17 -8 32t-23 15q-18 2 -34.5 -10t-28.5 -29t-19 -34.5t-7 -27.5zM406 71q0 16 12.5 43.5t32.5 53.5t45 45.5t49 19.5q20 0 39.5 -6.5t34.5 -18t25 -26t10 -31.5q1 -26 -17.5 -54.5t-45 -52.5t-56 -39.5t-50.5 -15.5q-8 0 -21 4t-26 14 t-22 25.5t-10 38.5zM465 83q0 -14 7.5 -24t21.5 -10q16 0 33.5 10t32 25t24 31.5t8.5 29.5q0 11 -15 23.5t-28 12.5q-15 0 -30 -11t-27.5 -26t-20 -32t-6.5 -29z" />
<glyph unicode="&#x26;" horiz-adv-x="798" d="M680 293q-2 0 -2.5 6t0.5 6q9 0 19.5 3t16.5 3q18 0 34 -10.5t27.5 -27t18 -37t7.5 -39.5q1 -32 -7.5 -59.5t-26.5 -47.5t-46.5 -31t-66.5 -11q-12 0 -27.5 3t-32 7.5t-31.5 10t-25 11.5q-31 -19 -65 -29.5t-76 -10.5q-33 0 -64.5 8t-56.5 25.5t-40.5 44.5t-17.5 65 q-1 37 13.5 65t37.5 50.5t51 42.5t54 41q-4 45 0 92q-39 0 -83 -16.5t-80.5 -50t-59.5 -85t-21 -121.5q2 -52 21.5 -95.5t54.5 -75t84.5 -49.5t111.5 -18q26 0 54 2.5t55.5 10t54.5 21t51 34.5q3 2 7 -4t8 -14.5t5.5 -17t-0.5 -11.5q-10 -13 -32.5 -27t-54 -25.5t-70 -19 t-80.5 -7.5q-71 0 -131 21t-104.5 59.5t-70.5 92t-28 118.5t20 124.5t63.5 104.5t100 71t130.5 26q2 6 8 16t16 19.5t22.5 16.5t28.5 7q17 0 28.5 -9t18 -21.5t9 -25.5t0.5 -22q29 -9 55.5 -27.5t47 -44t33 -57t13.5 -66.5q2 -61 -18 -111.5t-64 -84.5q34 -20 75 -20 q18 0 35.5 5.5t31 17t22 29t7.5 41.5q-1 21 -5.5 40.5t-13.5 34.5t-21.5 24t-28.5 9zM477 515q2 13 -4.5 25t-18.5 12q-10 0 -21.5 -9t-16.5 -20q13 0 30 -2.5t31 -5.5zM462 468q-12 2 -25 4.5t-26 2.5q-2 -17 -2.5 -34.5t0.5 -38.5q9 7 20 19t19.5 23t13 18.5t0.5 5.5z M531 137q24 20 38.5 38.5t23 37t11 38.5t1.5 44q-2 57 -31.5 100.5t-73.5 63.5q-11 -28 -32 -51.5t-53 -49.5q3 -34 9.5 -65t19.5 -59t34 -52.5t53 -44.5zM488 109q-27 20 -46.5 45.5t-32.5 55t-20 62t-9 64.5q-22 -21 -40.5 -37.5t-31 -34.5t-19.5 -39.5t-6 -50.5 q1 -25 10 -42t24 -27t34.5 -14.5t41.5 -4.5q26 0 47.5 4.5t47.5 18.5z" />
<glyph unicode="'" horiz-adv-x="327" d="M232 693q-11 -33 -28.5 -71t-36.5 -77.5t-37 -79.5t-32 -79q-1 -4 -8 -5.5t-14.5 0t-12.5 5t-2 9.5q27 80 47.5 153.5t53.5 149.5q7 13 21 13q3 0 11 -1.5t16 -3.5t15 -5.5t7 -7.5z" />
<glyph unicode="(" horiz-adv-x="435" d="M407 735q-49 -26 -86.5 -66.5t-65.5 -88.5t-47 -101t-30.5 -105t-15.5 -99.5t-3 -85.5q1 -31 9.5 -65.5t24.5 -66.5t38.5 -58t50.5 -41q6 -3 1 -18q-2 -8 -9.5 -15.5t-9.5 -5.5q-41 18 -75 46.5t-59 63t-39.5 74.5t-16.5 82q-3 84 14.5 169.5t54 164t92.5 145t130 111.5 q8 0 22 -14q8 -7 15.5 -15.5t4.5 -10.5z" />
<glyph unicode=")" horiz-adv-x="609" d="M457 472q-2 73 -30 141.5t-79 111.5q-5 4 4 20q5 8 14 16.5t11 6.5q34 -22 63.5 -58t51 -78t34.5 -86.5t14 -85.5q2 -50 -7 -106t-27.5 -111.5t-46 -108t-62.5 -97t-77 -78t-90 -49.5q-11 0 -20 14q-5 7 -11 16t-2 11q70 31 120.5 89.5t82.5 130.5t46 150.5t11 150.5z " />
<glyph unicode="*" horiz-adv-x="381" d="M274 412q8 -6 8 -17t-8.5 -19t-19.5 -8q-12 0 -18 9l-51 72l-18 -74q-2 -9 -8 -13t-13 -4q-10 0 -18.5 6t-8.5 16q0 3 2 9l34 71q-32 -6 -50 -9t-26 -4.5t-10 -2t-3 -0.5q-11 0 -15.5 7t-4.5 16t5 16.5t16 7.5h81l-64 57q-7 7 -7 17t7 18t16 8t18 -10l57 -72l15 78 q4 23 24 23q9 0 17 -5t8 -15q0 -3 -2 -9l-33 -81l78 13q13 2 21.5 -4t8.5 -21q0 -10 -6 -16.5t-20 -5.5l-78 3z" />
<glyph unicode="+" horiz-adv-x="400" d="M331 132q-29 6 -62 8t-70 2q-3 -21 -5 -38t-3.5 -31.5t-2.5 -28t-3 -28.5h-62q2 11 5 27t6 33t5.5 34.5t5.5 32.5h-25.5t-32.5 -0.5t-32.5 -1t-24.5 -1.5l1 55q10 -2 40 -1.5t78 -1.5q4 32 8 58.5t8 54.5h57q-6 -23 -10.5 -51.5t-9.5 -61.5q38 0 74.5 -0.5t57.5 -4.5 l-3 -55v0z" />
<glyph unicode="," horiz-adv-x="315" d="M245 104q5 -15 -6 -27q-30 -41 -53.5 -73.5t-44 -63t-41 -61.5t-45.5 -68q0 -2 -5.5 -3.5t-12 -2t-12.5 1t-8 7.5q-1 7 3 12q48 75 85.5 154t80.5 160q3 10 14 10q3 0 9 -1.5t12.5 -6.5t13 -14t10.5 -24z" />
<glyph unicode="-" horiz-adv-x="474" d="M347 219q8 0 13.5 -10.5t6.5 -18.5q0 -8 -3.5 -17t-13.5 -10l-230 -2q-8 0 -12.5 9.5t-4.5 16.5q0 9 2.5 19.5t11.5 10.5q21 0 54 0.5t66.5 0.5t63.5 0.5t46 0.5z" />
<glyph unicode="." horiz-adv-x="345" d="M178 103q17 0 29.5 -14.5t13.5 -33.5q0 -10 -2.5 -21t-9 -20.5t-17 -15.5t-27.5 -6q-20 0 -31.5 14.5t-12.5 33.5q-1 30 15 46.5t42 16.5z" />
<glyph unicode="/" horiz-adv-x="552" d="M471 822q0 10 -10 -23.5t-26 -97t-36.5 -150t-42.5 -181t-43.5 -190.5t-39.5 -178.5t-30.5 -145t-16.5 -90.5q-3 -10 -26 -12h-13t-14 1.5t-12 3.5t-5 5q4 24 14.5 74t26 116.5t34 145.5t38 162.5t39.5 166t37.5 156t32.5 134t25 99.5q0 9 22 14q6 1 13.5 1t14.5 -1.5 t12 -4t6 -5.5z" />
<glyph unicode="0" horiz-adv-x="400" d="M364 330q-1 -30 -7.5 -67.5t-20 -75.5t-34 -74t-48.5 -64t-63.5 -45t-79.5 -17q-21 0 -39 11.5t-31.5 29t-21.5 37.5t-9 38q-1 30 8 67t25 73.5t37 70t44 57.5q15 16 33 30.5t36 26t33 18t24 6.5q11 0 16 -3t18 -3q17 0 31.5 -10t25 -26.5t16.5 -37t7 -41.5v-1zM293 334 q-1 27 -8.5 43t-23.5 16q-9 0 -20 -5t-22 -12.5t-20.5 -16t-16.5 -16.5q-15 -17 -33 -44t-32.5 -58.5t-24 -65.5t-8.5 -66q1 -24 5 -37.5t9.5 -20t11.5 -8t11 -1.5q26 0 48.5 15.5t41.5 40.5t34 56.5t25.5 63.5t16.5 62.5t6 52.5v1z" />
<glyph unicode="1" horiz-adv-x="400" d="M286 458q5 0 12 -3t13.5 -7.5t11.5 -10t6 -10.5q2 -8 -2 -14t-9 -11q-14 -12 -20 -25t-16 -36q-6 -13 -15 -36.5t-20.5 -54.5t-23 -67.5t-21.5 -76.5q-4 -14 -3.5 -26t2.5 -22t4.5 -16.5t2.5 -9.5q0 -6 -10 -15t-24 -17t-27 -14t-19 -6q-3 0 -7 8t-2 30q3 39 12.5 76.5 t22 74t26 72.5t25.5 72q8 25 -3 25q-10 0 -21 -6.5t-21.5 -14.5t-19.5 -14.5t-14 -6.5t-15.5 4.5t-21 10.5t-18.5 13t-8 12q0 7 15 11q10 3 26 8.5t35.5 12.5t41 16t40.5 20q9 6 17 15t16 17t15.5 14.5t15.5 7.5h1z" />
<glyph unicode="2" horiz-adv-x="400" d="M101 338q-1 19 12.5 39t36.5 36t53 26t61 10q19 0 38.5 -6t35.5 -17t26.5 -27t11.5 -36q0 -17 -6 -34t-16 -33t-21 -30t-20 -25q-16 -19 -40 -45t-47.5 -51.5t-42.5 -46t-24 -29.5q-6 -9 30 -12q17 -2 31 -2h28q35 0 56 6t32 6q6 0 11 -5.5t5 -7.5q0 -5 -5 -15t-12 -20.5 t-15.5 -18t-15.5 -7.5t-13.5 2t-17.5 4t-28.5 4t-47.5 2q-50 0 -73.5 0.5t-37.5 0.5q-17 -1 -26 -5.5t-12 -4.5t-8 5.5t-9.5 13t-8 14t-3.5 8.5q0 5 6.5 11.5t12.5 10.5q29 16 61.5 44t63.5 59.5t57.5 62t44.5 51.5q23 27 31.5 46t7.5 36q-1 24 -15 31.5t-33 7.5 q-14 0 -30 -6.5t-30.5 -17.5t-25.5 -24.5t-14 -28.5q-1 -7 -10 -8t-19 2.5t-18 10t-8 13.5z" />
<glyph unicode="3" horiz-adv-x="400" d="M118 390q0 10 11.5 21.5t30 21t41 15.5t44.5 6q24 0 46 -7.5t38.5 -20t26 -27.5t10.5 -30q0 -19 -7 -36.5t-19 -32t-27.5 -26t-31.5 -19.5q-20 -10 -4 -16q36 -13 59.5 -34t24.5 -63q1 -36 -25.5 -66t-65.5 -52t-84 -34.5t-80 -12.5q-32 0 -54 14.5t-22 29.5q0 3 4 9.5 t11 13.5t16.5 12t19.5 5q5 0 11.5 -5t14 -11t16 -11t15.5 -5q25 0 51.5 10.5t48 26.5t35 35t13.5 35q-1 20 -12 33.5t-27.5 22.5t-35 13t-34.5 4q-15 0 -17 24q0 9 2 17.5t8 8.5q9 0 30.5 9t44 23.5t39.5 32t16 35.5q-2 47 -69 47q-14 0 -27 -8t-20 -22q-2 -10 -11.5 -18.5 t-13.5 -8.5q-3 0 -10 4.5t-14 11.5t-12 14t-5 11z" />
<glyph unicode="4" horiz-adv-x="400" d="M195 103q5 12 -8 12q-35 0 -59.5 2t-41 5t-26.5 6.5t-16 6.5q-21 11 -21 30q0 14 12 35.5t31.5 46t44 49.5t50 47t48 39t38.5 25q12 6 17.5 10.5t10.5 9.5q7 8 19 14.5t20 6.5q4 0 11 -5t13 -11.5t10.5 -13t4.5 -9.5q1 -8 -3 -10.5t-8 -4.5q-13 -8 -22.5 -37t-17 -63.5 t-13 -67.5t-10.5 -48q-2 -11 5 -11q20 0 40.5 6t37.5 6q8 0 10.5 -8t1.5 -17.5t-3.5 -18t-4.5 -10.5q-4 -4 -15 -5t-24 -0.5t-25.5 1.5t-19.5 0q-19 -3 -23 -14q-8 -33 -14 -64.5t-5 -53.5q0 -10 -11.5 -16.5t-25.5 -9t-25.5 -1t-11.5 7.5q-2 23 7.5 53t21.5 80zM235 335 q-7 -4 -21.5 -15t-31 -26t-34 -33t-30 -34t-18.5 -29t-1 -20q3 -3 6.5 -5.5t13.5 -4.5t28.5 -3.5t49.5 -1.5q12 0 15 15q6 16 11.5 36.5t10.5 41t9.5 38.5t7.5 29q6 14 0.5 16t-16.5 -4z" />
<glyph unicode="5" horiz-adv-x="400" d="M232 374q-15 0 -24 -4.5t-19 -21.5q-12 -23 -15.5 -41t-2.5 -31q1 -15 11 -25t25.5 -18t33 -16t33 -19t26 -27t11.5 -40q-1 -33 -18 -63t-44.5 -53t-63 -37t-73.5 -14q-15 0 -35 8t-38.5 19t-32 22t-13.5 18q0 4 4 11.5t9.5 14.5t11.5 12.5t10 5.5q12 0 20 -9t17 -19.5 t21 -19.5t32 -9q21 0 43 8t40 22t29 33.5t10 41.5q-1 21 -13 35.5t-29.5 24.5t-38 17t-38.5 12q-16 5 -21.5 21.5t-3.5 25.5q11 39 27.5 78t20.5 76q2 9 10 17t16 13q12 5 22 -3q9 -7 23 -10t39 -3q18 0 37 4t35.5 9t29.5 9t19 4q5 0 5 -8t-3 -18t-8.5 -19t-13.5 -11 q-16 -5 -28.5 -9t-25.5 -7t-29 -5t-40 -2z" />
<glyph unicode="6" horiz-adv-x="400" d="M367 430q1 -8 -10 -22t-26 -19q-9 -3 -13.5 -1t-9.5 8q-16 16 -36 16q-22 0 -53 -22.5t-60 -54.5t-50 -66t-22 -57q0 -4 2 -7.5t7 0.5q24 20 46 31.5t51 11.5q21 0 40 -9t33.5 -23.5t23 -33.5t9.5 -39q1 -29 -14 -56.5t-38 -49t-51 -34.5t-54 -13q-31 0 -55 13.5 t-40.5 35.5t-25.5 49.5t-10 55.5q-1 26 8.5 60t27 70t44 70.5t59.5 62t73 44t85 16.5q9 0 19.5 -4t19 -9.5t14.5 -12t6 -11.5zM236 139q0 9 -2.5 19t-8.5 18.5t-15.5 14t-24.5 5.5q-16 -2 -33.5 -9.5t-32.5 -18.5t-24.5 -24t-9.5 -27q0 -12 4.5 -25t12 -24t18.5 -18t24 -7 q14 0 30 7.5t30 20t23.5 30t8.5 38.5z" />
<glyph unicode="7" horiz-adv-x="400" d="M88 447q7 0 28 -2.5t51 -2.5q14 0 37 0.5t47 1t44.5 1t28.5 0.5t14.5 -7.5t10.5 -17.5t5 -20t-3 -16q-23 -42 -51 -88t-56.5 -91t-54.5 -87t-46 -77q-12 -21 -16.5 -37.5t-6 -28t-2.5 -18t-6 -6.5q-4 0 -17.5 2.5t-27.5 7.5t-25 12.5t-11 16.5t6 20.5t15.5 24t20.5 25.5 t20 25q30 39 57.5 80.5t49 77.5t36 62.5t19.5 35.5q9 17 12.5 25.5t2.5 16.5q0 10 -25 11q-11 1 -24.5 1h-27.5q-33 0 -51.5 -3t-28 -7t-14 -7t-10.5 -3q-4 0 -10 6.5t-12 16t-10.5 20t-4.5 17.5q0 8 10.5 10t25.5 2z" />
<glyph unicode="8" horiz-adv-x="400" d="M205 427q13 6 10 11t1 10t10 9.5t13.5 7t11.5 2.5q11 0 29 -12q14 -10 30 -22t29 -26.5t22 -31t10 -37.5q0 -19 -13.5 -36.5t-32.5 -33.5t-39.5 -29t-34.5 -22q-13 -9 -2 -17q27 -23 40 -45t13 -39q1 -31 -17 -56t-45 -41.5t-58 -25.5t-57 -9q-16 0 -35.5 8.5t-36 22 t-28 31.5t-11.5 36q-1 21 10.5 38t29 32t38.5 28t40 26q13 7 0 17q-24 21 -35.5 40t-12.5 34q-1 23 12 43t31.5 36.5t40 29.5t37.5 21zM148 305q0 -9 5.5 -23.5t31.5 -34.5q6 -5 12 -4t11 3q12 5 28.5 14.5t32.5 21.5t26.5 26t10.5 28q-1 17 -13.5 31t-28.5 23q-10 6 -30 -3 q-15 -6 -30.5 -15t-28 -19.5t-20 -22.5t-7.5 -24v-1zM142 38q14 0 31 4.5t31 13.5t23.5 21.5t9.5 28.5q-1 15 -5 28.5t-15 24.5q-14 14 -23 18t-13 4t-17.5 -7t-29.5 -18q-26 -19 -39.5 -36t-12.5 -37q1 -24 18.5 -34.5t40.5 -10.5h1z" />
<glyph unicode="9" horiz-adv-x="400" d="M367 332q1 -32 -5 -68t-16 -64q-30 -75 -84 -131.5t-126 -83.5q-31 -11 -46.5 -18t-26.5 -7q-5 0 -14 8.5t-18 20.5t-15.5 24t-6.5 19q0 5 9.5 6.5t22.5 1.5h27t24 3q42 12 77.5 35.5t62.5 51t43 56.5t18 51q0 13 -15 1q-21 -17 -51.5 -31t-62.5 -14t-55 18.5t-25 60.5 q-1 32 13.5 62t38.5 54t55 38.5t62 14.5q56 0 82.5 -29.5t31.5 -78.5v-1zM144 282q1 -20 10.5 -27.5t23.5 -7.5q15 0 36.5 10.5t41 26t33.5 32.5t13 29q-1 29 -12.5 37t-37.5 8q-14 0 -33 -8.5t-36 -23.5t-28.5 -34.5t-10.5 -41.5z" />
<glyph unicode=":" horiz-adv-x="359" d="M239 319q2 -9 -1.5 -22.5t-11 -27t-18.5 -23t-25 -9.5q-11 0 -22.5 6.5t-13.5 20.5q-4 17 -1 31.5t10.5 26t19.5 18t25 6.5q10 0 22 -5t16 -22zM175 66q0 -9 -3 -22.5t-10 -26.5t-17.5 -22.5t-25.5 -9.5q-11 0 -22 6.5t-13 20.5q-4 17 -1.5 32t10 26t19.5 18t25 7 q9 0 21 -6t17 -23z" />
<glyph unicode=";" horiz-adv-x="347" d="M243 310q2 -9 -2 -23t-11.5 -27t-18.5 -22t-25 -9q-11 0 -22.5 6.5t-12.5 20.5q-4 17 -1 31.5t10.5 26t19.5 18t25 6.5q9 0 21 -5.5t17 -22.5zM157 69q5 -17 -7 -30q-7 -10 -21.5 -30t-32 -44.5t-36.5 -51.5t-36.5 -52t-31 -45t-20.5 -31q-1 -3 -9.5 -6t-12.5 9 q-1 7 4 14l159 306q3 11 17 11q4 0 11.5 -8.5t15.5 -41.5z" />
<glyph unicode="&#x3c;" horiz-adv-x="600" d="M493 278q-19 -7 -56 -19t-78.5 -25t-82.5 -26t-68 -22q25 -7 58.5 -19t67.5 -25t63.5 -25.5t47.5 -21.5l-9 -60q-22 12 -59 29t-77 33.5t-78 31t-64 21.5l-2 77q8 1 29 7.5t50 16.5t63 22t67.5 24.5t63.5 24.5t51 20l13 -64v0z" />
<glyph unicode="=" horiz-adv-x="400" d="M309 231h-254l3 54h254zM311 102h-265l3 54h262v-54z" />
<glyph unicode="&#x3e;" horiz-adv-x="600" d="M506 150q-7 -1 -28 -7t-50.5 -16t-64 -22.5t-68.5 -25t-64.5 -25t-52.5 -21.5l-14 65q22 7 60 19.5t80 27t82.5 28.5t67.5 23q-23 4 -58 14t-70 22t-65 22.5t-44 14.5l15 58q22 -9 57 -21.5t73.5 -25t76 -24.5t64.5 -19z" />
<glyph unicode="?" horiz-adv-x="352" d="M129 449q0 6 9 14.5t24.5 16t36.5 13t44 5.5q43 0 68 -22t27 -52q1 -21 -3.5 -34t-12 -22t-17.5 -15t-20 -14q-17 -11 -36.5 -22.5t-36.5 -24t-28 -26t-11 -28.5q1 -20 12 -27.5t19 -7.5q12 0 18.5 7t11.5 7t11 -3.5t11.5 -8.5t9 -10.5t3.5 -9.5t-8 -11t-19 -13.5 t-23 -11t-20 -4.5q-13 0 -27.5 8.5t-26 22t-19 29.5t-8.5 32q-1 21 10 37.5t27.5 30.5t36 26t36.5 24.5t28 25.5t10 29q0 12 -4.5 20t-13.5 8q-10 0 -18.5 -5t-15 -11t-11 -11t-7.5 -5q-6 0 -17 4t-22.5 10.5t-19.5 14t-8 14.5zM142 4q-6 0 -13 2t-14 7t-12 13.5t-5 20.5 q0 17 14 28t28 11q17 0 31.5 -12t15.5 -32q0 -9 -4 -16t-11 -12t-14.5 -7.5t-14.5 -2.5h-1z" />
<glyph unicode="@" horiz-adv-x="634" d="M406 481q44 0 81 -14.5t64.5 -40.5t43.5 -62.5t18 -80.5q1 -39 -11.5 -75.5t-36 -65t-56.5 -46t-73 -17.5q-28 0 -44.5 14t-21.5 32q-2 11 -2.5 16t-0.5 11q0 12 -7 5q-9 -9 -22 -23t-30.5 -27t-38.5 -22.5t-45 -9.5q-6 0 -16 8.5t-11 30.5q-1 28 16.5 68.5t45.5 78.5 t63 65t69 27q7 0 12.5 -5.5t7.5 -10.5q3 -6 12 -1q3 3 5.5 4t8.5 -3q3 -3 7.5 -5t8 -5t5 -6t-0.5 -8q-21 -37 -34.5 -72.5t-15.5 -66.5q-2 -23 7 -36t26 -13q21 0 41 11.5t36 31.5t25.5 48.5t8.5 62.5q-1 40 -13.5 67t-33.5 44t-51 24.5t-67 7.5q-69 0 -121.5 -22.5t-87 -61 t-51 -88.5t-14.5 -106q3 -84 47.5 -125.5t140.5 -41.5q26 0 50.5 6t45 14t36 16t23.5 13q3 2 6 -3.5t5 -13t2.5 -15t-1.5 -9.5q-48 -37 -99.5 -49.5t-103.5 -12.5q-41 0 -78.5 15t-67 42.5t-47 66t-19.5 84.5q-3 72 21.5 135.5t71 111.5t113 75.5t147.5 27.5h1zM365 298 q-21 -6 -38 -23t-29.5 -37t-21 -38.5t-12.5 -27.5q-4 -11 -6.5 -23.5t3.5 -12.5q17 0 34 13.5t32.5 32.5t29 39.5t23.5 35.5q2 5 5 12t2 12q-2 6 -7 11.5t-14 5.5h-1z" />
<glyph unicode="A" horiz-adv-x="877" d="M794 601q1 -5 -2.5 -21t-8.5 -27q-6 6 -18.5 11t-18.5 5q-19 0 -24 -19.5t-8 -49.5q-13 -130 -10 -229.5t18 -159.5q6 -26 20.5 -41t27.5 -15q6 0 16 4t20 10t19.5 13t13.5 12q2 0 5 -5t6.5 -11.5t6 -12.5t1.5 -7q-7 -9 -23.5 -20t-35.5 -21t-37.5 -16.5t-31.5 -6.5 q-9 0 -22.5 3.5t-26 10.5t-22.5 16t-13 21q-6 24 -8 50.5t-5 72.5q-1 9 -10 19t-20 10q-7 0 -23 -0.5t-36.5 -1.5t-44 -1.5t-46.5 -0.5q-36 -52 -71.5 -91t-75 -64.5t-84.5 -38t-100 -12.5q-42 0 -75 14.5t-55 38.5t-33.5 54.5t-11.5 63.5q0 41 16 76t39 59q1 0 8.5 -1 t16 -2.5t16 -3t8.5 -2.5q-15 -20 -25.5 -52.5t-10.5 -61.5q0 -58 30.5 -89t72.5 -31q41 0 73.5 5t62.5 20.5t61 43.5t69 74q-46 0 -49 9q0 3 1.5 11.5t4 17.5t5 16.5t3.5 7.5q10 -5 27 -7t34 -3q29 38 54.5 69.5l51 63t52 65.5t56.5 77q-10 -4 -33.5 -10t-48.5 -6 q-30 0 -61.5 8.5t-62.5 18.5t-60.5 18.5t-56.5 8.5q-30 0 -52 -6.5t-35 -23t-17 -45.5t1 -73q0 -3 -6.5 -3.5t-15 -0.5t-15.5 1t-7 2q-10 41 -4.5 79.5t25.5 69t54.5 49t81.5 18.5q36 0 70.5 -11t68 -24.5t65.5 -25t64 -11.5q13 0 29.5 3.5t26.5 17.5q13 18 34 35t40 17 q11 0 25 -2t26.5 -5.5t22.5 -8t11 -9.5zM649 459q0 3 -1.5 5.5t-6.5 -2.5q-24 -33 -45 -62t-41 -55.5t-39 -51.5t-39 -51q12 -1 23 -1.5t16 -0.5h52q14 0 30 0.5t32 1.5q2 47 4.5 98.5t14.5 118.5z" />
<glyph unicode="B" horiz-adv-x="717" d="M85 3q7 9 14 20.5t13 21.5t10.5 18t5.5 11q21 69 39 125.5t35.5 110t35.5 109t39 122.5q1 2 -1 7q-1 4 -9 4q-18 0 -40 -2.5t-43 -6t-39.5 -6t-29.5 -2.5q-21 0 -25 13v13v18.5t1 18t2 10.5q1 0 5 -4q3 -2 5.5 -3.5t8.5 -2t16 -1t27 -0.5q43 0 90.5 2t104.5 2 q62 0 112 -4t85.5 -17.5t55.5 -39t21 -67.5q1 -20 -3 -42t-16.5 -42t-35 -37.5t-58.5 -28.5q-3 -1 -3 -3q0 -3 3 -3q22 -2 43.5 -11.5t39 -26.5t28.5 -42.5t12 -58.5q2 -35 -14.5 -69.5t-49 -61.5t-81 -44t-110.5 -17q-43 0 -75 8t-55 17.5t-37.5 17.5t-23.5 8 q-11 0 -21.5 -13t-22.5 -29l-59 8v0zM225 133q-5 -16 -3 -24t14 -20.5t31.5 -24t45 -19.5t53.5 -8q41 0 75 9t58 27.5t37.5 47t11.5 68.5q-1 20 -7 37.5t-19 30.5t-35 20t-54 7q-19 0 -38.5 -2t-43.5 -2q-1 0 -3 4.5t-3.5 10.5l-3 12t-1.5 10q0 7 2 16t10 9q14 0 28 -1 t29 -1q12 0 27 2t26 6q40 11 59 35.5t17 77.5q-1 29 -9.5 46.5t-24.5 27.5t-39.5 13t-53.5 3q-20 0 -33 -7.5t-22 -19.5t-15 -27.5t-12 -32.5q-13 -38 -25.5 -76t-25.5 -77.5t-26 -83.5t-27 -94z" />
<glyph unicode="C" horiz-adv-x="697" d="M615 424q0 8 -0.5 16.5t-4.5 19.5q-4 21 -11.5 38t-24 29.5t-45 19t-76.5 6.5q-54 0 -102.5 -28.5t-84.5 -76.5t-56 -110t-18 -128q3 -86 45 -126.5t111 -40.5q99 0 176.5 47t135.5 161q1 3 3 3.5t4 0.5t6.5 -5t9 -12t8 -14t3.5 -12q0 -14 -3 -26q-43 -93 -132 -146.5 t-211 -53.5q-48 0 -91 13.5t-76 41t-53.5 69t-22.5 97.5q-3 77 23.5 148.5t74.5 126.5t114 87.5t142 32.5q48 0 101.5 -10t101.5 -36q11 -4 16 -16q-3 -8 -5.5 -25.5t-7.5 -34.5q-3 -17 -5.5 -27.5t-3.5 -24.5z" />
<glyph unicode="D" horiz-adv-x="799" d="M369 532q-38 -109 -75 -210.5t-68 -203.5q-2 -8 -2.5 -11t0.5 -5q1 -5 4 -10t9 -9q28 -23 57 -30.5t64 -7.5q69 0 125.5 22t96 62t60 95.5t17.5 122.5q-1 51 -13 88.5t-40.5 62.5t-75.5 37.5t-119 12.5q-16 0 -25.5 -2t-14.5 -14zM77 3q14 19 28.5 41.5t19.5 36.5 q4 13 16 46.5t28 77.5t33.5 93.5t33.5 95.5t28 84t16 59q-1 4 -5 5.5t-7 1.5q-43 0 -83 -8.5t-83 -9.5q-6 0 -9.5 7.5t-6 17t-4 19.5t-3.5 15q-1 3 -1.5 11t4.5 8q1 0 7 -2.5t15 -5.5t19.5 -5.5t19.5 -2.5q38 0 71.5 1.5t65 4t62.5 4t64 1.5q61 0 121 -10.5t108 -38t79 -75 t34 -122.5q1 -38 -6.5 -79.5t-25.5 -82t-47 -77t-71 -64.5t-98 -44.5t-127 -16.5q-32 0 -72.5 8t-87.5 26q-8 3 -13.5 5t-10.5 2q-11 0 -25 -9.5t-29 -25.5z" />
<glyph unicode="E" horiz-adv-x="645" d="M654 128q4 3 7 -5q-3 -4 -6 -14t-5.5 -22t-4 -22.5t-2.5 -14.5q-8 -17 -34 -24q-32 -8 -69.5 -14.5t-76.5 -11.5t-78 -8t-73 -3q-54 0 -92 3.5t-62 12t-35.5 22.5t-12.5 34q0 19 6 35q1 3 6 17.5t12.5 35t15.5 44t15 44.5t11.5 36.5t4.5 19.5q0 3 -4 4.5t-20 1.5 q-5 0 -9 4q0 3 3 9t8.5 12.5t11 11.5t9.5 6q28 5 37 33q3 9 10.5 33.5t15.5 50.5t13.5 48t3.5 28q-2 5 -9 5q-41 0 -81 -3t-67 -11l-3 1q-1 6 -0.5 16.5t2.5 21.5t4.5 20t4.5 11q42 -3 88.5 -4.5t88.5 -1.5q10 0 31.5 0.5t50 1.5t61.5 2.5t65.5 2.5t62 1.5t50.5 0.5 q7 0 9 -8q-1 -3 -4 -14t-6.5 -24.5t-6.5 -27t-4 -20.5l-5 1q-4 8 -8 14.5t-9 8.5q-44 6 -93 9t-98 3q-20 0 -28 -14q-14 -24 -23.5 -43t-17 -38.5t-15 -41.5t-17.5 -51q-3 -12 12 -12q5 0 10.5 -0.5t13.5 -1t21 -0.5h33q62 0 107 3.5t91 14.5l4 -4q-1 -3 -5 -10.5 t-7.5 -16.5t-6.5 -17t-3 -11q-1 -5 -11 -5q-35 0 -76 1t-83 1h-49.5t-32 -0.5t-20 -1t-13.5 -0.5q-10 0 -13 -8q-13 -41 -25 -75.5t-20 -76.5q-2 -9 -2 -17v-15q2 -37 28.5 -48t81.5 -11q35 0 83 5.5t96.5 16.5t91 27t65.5 37z" />
<glyph unicode="F" horiz-adv-x="499" d="M543 321q0 -1 -2 -10.5t-5 -20.5t-6 -21t-6 -12q-23 0 -60.5 -1t-72.5 -1h-43q-22 0 -46.5 0.5t-40.5 2.5q-12 0 -16 -11q-10 -31 -18.5 -55t-15 -43t-11.5 -34.5t-9 -29.5q-3 -11 -2 -20.5t8 -16.5t22 -11t39 -4q5 0 7.5 -5.5t3.5 -12.5t-0.5 -13t-6.5 -7 q-4 -1 -10 -1.5t-21 -0.5q-42 0 -70.5 1.5t-45.5 4.5t-25 7t-9 10q-1 4 -1.5 9t1.5 12q24 62 46.5 129t43.5 131.5t40 122.5t35 103q3 7 -2 13t-11 7q-9 1 -26.5 1.5t-28.5 0.5q-10 0 -10 4q0 2 1.5 9t4 15t5 14.5t3.5 6.5q12 -1 26.5 -1h34.5h90q30 0 65 2t70 6.5t67 12 t55 18.5q4 2 5 2q6 0 8 -5q-2 -3 -5 -12.5t-6 -20t-5.5 -20.5l-3.5 -14q-5 -14 -14 -14q-22 -1 -51 -2t-58 -1.5t-56.5 -1t-47.5 -2.5q-11 -1 -15.5 -5t-8.5 -12q-7 -18 -15.5 -44t-16.5 -53.5t-16 -54.5t-13 -47q3 -8 26.5 -15t67.5 -7q48 0 93 5t82 16z" />
<glyph unicode="G" horiz-adv-x="769" d="M213 -315l3 22q17 -8 43 -12t45 -4q46 0 83.5 20.5t67.5 53.5t53.5 75.5t41.5 86.5t31.5 86.5t22.5 74.5q-1 10 -8 3q-10 -11 -29.5 -29.5t-49.5 -35.5t-70.5 -30t-93.5 -14q-112 0 -174 52t-66 142q-2 71 26.5 146t84 136.5t136 101t180.5 39.5q23 0 50 -3t53.5 -9.5 t50.5 -17t41 -24.5q-1 -24 -5.5 -56.5t-9.5 -57.5q-1 0 -3 -1q-4 -2 -12 -2q-4 0 -10 2q-3 1 -5 2q0 8 0.5 11t-0.5 13q-3 25 -18 42t-39 27.5t-56 15.5t-68 5q-67 0 -125.5 -34t-100.5 -88t-65.5 -121t-20.5 -134q1 -27 9.5 -52t26.5 -44.5t46.5 -31t68.5 -11.5 q61 0 113 23.5t90 55t61 63.5t25 48q2 15 -0.5 21t-16.5 6q-22 0 -43.5 -3t-59.5 -5v44q27 0 59.5 1t65 3t62.5 6t52 11q1 -1 2 -6.5t1 -12.5v-13t-1 -8q-10 -3 -16.5 -6t-10.5 -7t-6.5 -10.5t-4.5 -15.5q-15 -50 -33.5 -111.5t-39 -121.5t-41 -113t-39.5 -86 q-10 -18 -30.5 -44t-52 -49t-75.5 -39.5t-102 -16.5q-19 0 -42.5 2.5t-49.5 10.5z" />
<glyph unicode="H" horiz-adv-x="802" d="M81 -4q5 13 13 27.5t21.5 41.5t34.5 72.5t51 120.5q-11 12 -20 22.5t-13 16.5q0 3 3 13t9 10h27q9 0 15 11t16 38t19.5 57t16.5 56.5t5 37.5q-3 17 -12 20.5t-28 3.5q-14 0 -34 -0.5t-34 -2.5q-4 0 -6.5 11.5t-3.5 15.5q-2 4 0.5 10.5t7.5 6.5q16 0 42.5 0.5t56.5 2 t59.5 3.5t50.5 5q15 0 7 -18q-9 -19 -19.5 -40t-18.5 -50q-11 -36 -24.5 -75.5t-23.5 -76.5q-3 -14 5 -15q15 -1 26 -1.5t20 -0.5h17.5h19.5q12 0 37.5 0.5t55 1.5t57 3t43.5 6q13 3 16 16q14 38 25.5 72t22 65.5t20 61t20.5 59.5q7 11 14 14q13 8 40.5 20.5t57.5 24 t57 19.5t39 8q3 0 9 -4t6 -12q0 -14 -8 -14q-6 0 -18.5 -3.5t-27.5 -9.5t-30 -15t-26 -20q-27 -29 -46 -63t-33 -71t-25 -75t-23 -76q-14 -50 -22 -86.5t-11.5 -63.5t-3.5 -46t2 -34q5 -26 17.5 -34.5t39.5 -8.5q9 0 22 2.5t26.5 6.5t26 9.5t19.5 10.5q3 0 4.5 -6t2.5 -14 t0 -15t-3 -10q-12 -6 -27 -13t-34.5 -13t-44 -11t-55.5 -6q-15 0 -28.5 6t-24.5 15.5t-18 21.5t-7 24q-1 38 9.5 80t18.5 73q3 11 0 23q-2 10 -9 16.5t-17 10t-21 5t-20 1.5q-65 0 -118 -1t-100 -9q-8 -2 -11 -7t-8 -14q-24 -52 -46.5 -104t-33.5 -114q0 -8 -2 -11t-13 -3 q-26 0 -49 -0.5t-46 -13.5z" />
<glyph unicode="I" horiz-adv-x="366" d="M44 7q23 2 35 20q12 21 30 57.5t38.5 80.5t41 93.5t38 95.5t30 86.5t15.5 67.5q1 5 0.5 8.5t-1.5 7.5q-2 8 -13.5 11t-29.5 3q-17 0 -37 -1.5t-37 -4.5l-5 1q0 2 2 10t4 17t4 16.5t3 9.5q28 2 59.5 3.5t61.5 3t56 4t43 5.5q6 -2 8 -13.5t3 -15.5q2 -3 -6 -5 q-9 -3 -14.5 -7.5t-9.5 -16.5q-20 -51 -42.5 -114.5t-46 -131.5t-48.5 -136t-50 -128q-9 -16 -24.5 -24.5t-32.5 -11.5t-35 -2.5t-33 1.5q-1 1 -3 4z" />
<glyph unicode="J" horiz-adv-x="496" d="M567 601q3 -1 5 -7l3 -9v-6t-0.5 -10t-1.5 -9t-2 -4q-5 1 -10.5 1h-23.5q-13 0 -22.5 -6.5t-16 -17.5t-11 -24t-8.5 -27q-25 -85 -55 -170t-59 -163q-21 -57 -55 -110t-82 -94t-109.5 -66t-136.5 -25q-61 0 -109 17q-6 3 -10.5 6.5t-6.5 12.5q0 5 -1.5 16t-3.5 24 t-4.5 26.5t-3.5 22.5l28 3q7 -18 16 -31.5t23 -23.5t36 -15t54 -5q69 0 118 27t85 72t62 104.5t50 124.5q29 78 57.5 152t47.5 140q1 2 1 8q-3 6 -11 6q-28 0 -57 -0.5t-56 -3.5t-51.5 -9.5t-44.5 -18.5q-32 -20 -31 -62q0 -9 2 -21.5t7 -20.5q0 -1 -5.5 -3t-12.5 -4.5 t-13.5 -4t-7.5 -1.5q-5 2 -11 9.5t-11.5 18t-9 23t-3.5 24.5q-2 38 18.5 64t68.5 38q19 5 48 10.5t73.5 10.5t106.5 8t147 3z" />
<glyph unicode="K" horiz-adv-x="783" d="M100 -27q-8 0 -8 4q13 25 33.5 66t41.5 95q40 100 69.5 194t58.5 195q2 4 -0.5 7.5t-7.5 3.5q-38 0 -76 -4t-68 -4q-15 0 -17 8q0 2 2.5 14.5t6 26.5t8 25.5t7.5 11.5q0 -10 15 -15q21 -4 47.5 -6.5t54.5 -3t55 -0.5t48 1q19 1 41.5 3t48.5 4q2 -2 1.5 -10.5t-2 -18 t-3 -17.5t-2.5 -10h-24t-27 -2q-9 0 -15 -11q-12 -27 -19.5 -48t-15.5 -43t-17.5 -49.5t-25.5 -69.5q-2 -11 2.5 -12.5t7.5 3.5q31 21 55 39.5t46 36.5t43 35.5t45 35.5q3 2 17 14t33.5 28t42 34.5t42 34t34.5 26t19 10.5h5l13 -6.5t19.5 -9.5t20 -9t14.5 -6q2 -3 0 -7 q-7 -2 -21.5 -11t-41.5 -28t-68.5 -49.5t-103.5 -77.5q-34 -26 -72 -54.5t-73 -60.5q-6 -5 -5 -8q36 -37 71 -70.5t76 -70.5t92.5 -79.5t120.5 -96.5q51 -38 94 -61.5t79.5 -36.5t67.5 -17t59 -4q55 0 101 17t74 39q5 4 10.5 2t5.5 -4v-11.5v-17.5v-16.5t-1 -8.5 q-34 -25 -90 -40t-121 -15q-40 0 -88.5 9t-105 33.5t-122 67t-139.5 108.5q-68 62 -135 118.5t-132 123.5q-5 8 -7 7t-6 -10q-13 -33 -22.5 -59.5t-17 -51.5t-14.5 -49.5t-16 -51.5q-2 -10 -4 -19.5t0 -15.5q-6 1 -14 2t-13 1q-9 0 -22.5 -2.5t-26.5 -6.5t-23.5 -9t-14.5 -9 z" />
<glyph unicode="L" horiz-adv-x="624" d="M480 561q-8 2 -18 3.5t-26 1.5q-25 0 -40.5 -15.5t-23.5 -35.5q-31 -81 -58 -164t-61 -181q-17 -49 -30.5 -70t-30.5 -30q-2 -1 -2 -5t5 -4q34 0 83 5.5t101.5 11t102.5 7.5t87 -5q21 -3 25 -19q1 -3 1.5 -16t0.5 -28.5t-1 -29.5t-3 -19q-2 0 -5 5q0 6 -4 13t-12 9 q-22 8 -49 12.5t-54.5 7t-54 3t-48.5 0.5q-78 0 -133.5 -2.5t-95 -6.5t-64.5 -9.5t-41 -10.5q-3 0 -6 6t-5 13.5t-4 14.5t-4 10q-2 8 9 8q25 0 42 3t31 10q6 3 13.5 7t16 12t18 22.5t18.5 38.5q18 46 36.5 103.5t37 116t36 114.5t33.5 99q2 8 8 11t12 5q13 6 33 10.5 t42.5 7.5t45 5t39.5 2q4 -1 4.5 -8.5t0 -15.5t-3 -15t-4.5 -8z" />
<glyph unicode="M" horiz-adv-x="1018" d="M528 128q15 23 36 54.5l45 67.5t50 74t50.5 73.5t47 66t39.5 51.5q27 35 46 60.5t34 43t26.5 26t23.5 8.5q8 0 22 -8.5t28 -19.5t24.5 -23t11.5 -18q0 -1 -3.5 -4.5l-7.5 -7.5t-8 -6.5t-6 -1.5q-6 6 -16 6q-26 0 -46.5 -18.5t-37 -49.5t-28 -71.5t-19 -85.5t-10 -90 t-1.5 -86q1 -22 4 -43.5t11.5 -38.5t23 -27t37.5 -10q35 0 67 27.5t48 68.5q1 1 8 -6.5t14.5 -17t14 -17.5t6.5 -10q-4 -14 -19.5 -35t-39.5 -40t-53.5 -32.5t-61.5 -13.5q-30 0 -55 14.5t-43 38.5t-28.5 55t-11.5 63v45t2.5 53t8.5 57.5t16 57.5q3 6 -0.5 9.5t-7.5 -1.5 q-26 -30 -50.5 -65.5t-47.5 -73t-45 -75t-43 -72.5q-6 -9 -13 -21t-9 -21q-1 -8 2 -13.5t-4 -7.5q-5 -1 -18.5 -2.5t-28.5 -4t-28 -6t-17 -8.5q-1 -2 -8 1.5t-9 5.5q0 2 1.5 3t3.5 5.5t4 13.5t2 27q0 32 -4 67.5t-10 76.5q-62 -93 -145 -147.5t-188 -54.5q-28 0 -54 11 t-46.5 31.5t-33.5 50t-14 66.5q-1 19 2 41t10 43.5t17.5 40.5t24.5 31q1 2 8.5 -0.5t16.5 -7t15.5 -9t6.5 -7.5q-20 -25 -27.5 -51.5t-6.5 -51.5q2 -61 27 -88t78 -27q45 0 89.5 21t84 52.5t71 68t50.5 67.5q-13 94 -14.5 161.5t25.5 118.5q10 20 26 33t32 21.5t28.5 12 t15.5 3.5q12 0 25.5 -5.5t25.5 -14.5t20 -20t8 -22q1 -39 -8.5 -79.5t-25.5 -79.5t-37 -76t-42 -71q2 -14 4 -31.5t4.5 -35.5t4 -34.5t2.5 -28.5zM493 335q20 37 32.5 66t19.5 51.5t9 40t2 30.5q0 11 -5 21t-19 10q-13 0 -24 -12.5t-17.5 -39t-6.5 -68t9 -99.5z" />
<glyph unicode="N" horiz-adv-x="791" d="M182 -21q-4 2 -15.5 8t-24.5 12.5t-24 13.5t-13 12q-2 14 3 36.5t10 41.5q4 14 14.5 43.5t25 67t29.5 79.5t27.5 81.5t20.5 72t7 51.5q-1 16 -6 26.5t-25 10.5q-16 0 -32 -1t-30 -2q-3 0 -5.5 7.5t-4.5 17t-4 18.5t-4 13q0 5 5 5q14 -5 33 -6.5t39 -1.5q13 0 29 1t32 3 t29.5 4.5t20.5 5.5q8 0 13 -13q48 -103 103 -219t110 -225q5 -11 8 -14t9 -3q3 0 5.5 2.5t4.5 10.5q17 63 33 126.5t33 125t35.5 119t39.5 109.5q7 14 17 28.5t22.5 27t28 20.5t32.5 8q5 0 19.5 -2.5t30 -6t29 -8.5t16.5 -11q0 -3 -5 -3q-15 0 -30.5 -4t-31.5 -15t-31 -30.5 t-30 -51.5q-28 -64 -52 -135.5t-43.5 -146t-35.5 -149.5t-30 -146q-4 -9 -8 -9q-1 0 -10 0.5t-19.5 1.5t-19.5 2.5t-11 4.5q-21 44 -48 99t-56.5 111.5t-57.5 109t-51 91.5q-5 9 -10 13t-8 4q-5 0 -10 -4t-8 -12q-19 -53 -33 -89.5t-25.5 -67.5t-22.5 -62.5t-23 -74.5 q-3 -11 -7 -27t-6 -34t-2.5 -36.5t3.5 -34.5h-4z" />
<glyph unicode="O" horiz-adv-x="786" d="M748 357q3 -75 -18 -142t-63 -117.5t-104 -80.5t-142 -30q-60 0 -114 13.5t-95.5 42t-67 73t-27.5 107.5q-3 85 19 155t65.5 120.5t107.5 78t146 27.5q56 0 107.5 -14.5t92 -44.5t66 -76.5t27.5 -111.5zM660 367q-3 90 -57.5 135.5t-142.5 45.5q-72 0 -122 -26.5t-80 -72 t-42.5 -107.5t-10.5 -133q2 -46 19 -77t45 -50t64 -27.5t75 -8.5q70 0 119 25t79 68.5t43 102t11 125.5z" />
<glyph unicode="P" horiz-adv-x="631" d="M71 607q2 0 5 -6q5 -7 19 -10q11 -2 29 -2.5t34 -0.5q41 0 85.5 3t84 6.5t71.5 6.5t48 3q38 0 74 -7.5t64 -24.5t45.5 -45t18.5 -70q2 -33 -13.5 -70.5t-47.5 -69t-80.5 -52t-113.5 -20.5q-34 0 -60 9q-1 0 -3 8.5t-2.5 18t-0.5 17.5t2 7q8 -3 27 -6t35 -3 q39 0 71.5 11.5t55.5 32t35 49t11 63.5q-5 98 -123 98q-17 0 -35.5 -1.5t-32.5 -5.5q-15 -5 -21 -23q-18 -43 -36.5 -95.5t-37 -106.5t-36 -107t-31.5 -97q-2 -11 -5 -22t-2 -19q1 -26 27.5 -30.5t72.5 -4.5q3 0 4.5 -6t1 -13t-2 -13t-3.5 -6q-21 -4 -51 -7t-59 -3 q-7 0 -22.5 1.5t-31 5.5t-28 11.5t-13.5 19.5q0 7 3 19q36 109 74 220t75 217q2 3 4 9.5t3.5 14t2 14.5t-0.5 11q-1 5 -8 5q-44 -1 -79.5 -6.5t-79.5 -5.5q-26 0 -28 15v11t0.5 21.5t1.5 21t3 9.5z" />
<glyph unicode="Q" horiz-adv-x="769" d="M915 -55q-7 -29 -21.5 -55.5t-35.5 -47t-48.5 -33t-59.5 -12.5q-42 0 -79.5 23t-69 56.5t-57 71.5t-43.5 67q-31 -11 -57.5 -16.5t-58.5 -5.5q-22 0 -47 2t-50 7t-49 15t-44 25q-21 -17 -40.5 -46t-33.5 -55q-2 0 -8 5t-12.5 11.5t-12 12.5t-5.5 8q17 27 39 52.5t42 44.5 q-22 21 -41 62.5t-21 88.5q-3 77 23 145.5t73 119.5t110.5 80.5t134.5 29.5q8 0 10.5 -11.5t2.5 -14.5q1 -2 0.5 -12.5t-1.5 -10.5q-5 1 -12 1h-10q-63 0 -109.5 -31.5t-77 -79.5t-45 -106t-12.5 -111q1 -28 9.5 -60t19.5 -49q40 32 82.5 46.5t69.5 14.5q15 0 33.5 -2 t39 -10t42.5 -25t44 -47q37 32 61 69t38 73t19.5 68.5t4.5 56.5q-1 35 -5.5 66.5t-16 56.5t-32 42t-53.5 23q-2 2 -4 9t-2.5 15t0.5 14.5t4 7.5q8 2 23.5 2h29.5q15 0 38 -15q18 -12 35 -31.5t30.5 -45t22 -55.5t9.5 -63q2 -42 -4 -85.5t-24.5 -86.5t-54 -85t-93.5 -81 q16 -24 37 -52.5t46 -52.5t54.5 -40t63.5 -16q14 0 29.5 3.5t31.5 13.5t30.5 28t25.5 47q2 2 8 -2t13 -10.5t13.5 -12.5t7.5 -9zM477 61q-19 30 -46.5 47.5t-72.5 17.5q-33 0 -57.5 -12.5t-50.5 -31.5q10 -9 26 -16.5t34 -12.5t35 -8t30 -3q26 0 52 5t50 14z" />
<glyph unicode="R" horiz-adv-x="758" d="M141 415q-1 0 -5 -0.5t-9 0t-9 1.5t-4 2v16.5v24v24v17.5q0 15 12 23q31 19 71 35.5t82 24.5q36 8 78 12t84 4q54 0 100 -6t79 -20t52 -38.5t20 -61.5q1 -27 -6.5 -59t-28 -59.5t-56.5 -48t-91 -25.5q-12 -1 -4 -11q18 -24 35 -49.5t37.5 -55t47 -63t63.5 -73.5 q40 -40 82.5 -73.5t89 -57.5t96 -37.5t102.5 -13.5q41 0 78 11t72 31q4 3 8.5 1.5t6.5 -5.5q1 -2 3.5 -9t5 -14.5t3.5 -13.5t0 -6q-39 -23 -82.5 -37.5t-97.5 -14.5q-77 0 -140.5 15.5t-121.5 48.5t-115 84.5t-122 123.5q-18 22 -42.5 54t-50.5 65.5t-50 65t-41 52.5 q0 5 4 5q109 0 166.5 36t55.5 109q-2 53 -38.5 76t-92.5 23q-14 0 -25.5 -3.5t-19.5 -14.5q-10 -17 -27.5 -55.5t-37.5 -88.5t-41.5 -106t-40.5 -109t-33.5 -97.5t-20.5 -70.5q-7 1 -19.5 1h-25t-22 -1t-12.5 -3q-8 -5 -9.5 -8.5t-6.5 -8.5q-2 0 -10 1.5t-6 3.5 q40 92 72.5 165t58.5 136t47 120t38 116q2 11 -1 13.5t-9 2.5q-20 -1 -35 -4t-28 -8t-25.5 -12t-28.5 -16q-21 -14 -36 -36.5t-23 -49.5z" />
<glyph unicode="S" horiz-adv-x="445" d="M450 539q0 -9 -0.5 -21.5t-1.5 -25t-2.5 -24t-3.5 -19.5q-2 -2 -14 -1t-14 5q1 4 0.5 13.5t-2.5 15.5q-5 25 -24.5 39.5t-70.5 14.5q-17 0 -30.5 -7t-23 -18t-14 -24.5t-4.5 -26.5q2 -44 24 -78.5t54 -69.5q25 -26 43.5 -45t30.5 -35t18.5 -31.5t7.5 -36.5q2 -44 -23 -77 t-63.5 -54.5t-83.5 -32t-84 -10.5q-32 0 -63 6t-59 18q-20 8 -23 15q1 11 1 27.5v34t0.5 33t0.5 24.5q0 2 7.5 2h9.5t10 -1.5t9 -5.5q-1 -6 -0.5 -16.5t2.5 -16.5q8 -38 39 -53t72 -15q30 0 58 8t49 22.5t33 34.5t11 44q0 12 -3 23t-10.5 24t-21 29.5t-36.5 39.5 q-42 40 -67.5 81t-27.5 87q-1 33 11 62t35.5 51.5t57 35.5t75.5 13q22 0 40.5 -6t33 -14.5t24.5 -18.5t13 -19z" />
<glyph unicode="T" horiz-adv-x="520" d="M305 545q-74 8 -118 8t-70 -17t-40 -55t-27 -107q-1 -3 -6.5 -3.5t-13 0.5t-14.5 3.5t-10 6.5q4 37 11.5 77.5t20 75.5t32 60t48.5 30q35 6 80.5 0.5t97 -14.5t106.5 -17.5t109 -8.5q15 0 41.5 -1t51.5 3.5t43 18t17 42.5q-1 11 -10.5 21.5t-20.5 18.5q0 1 10.5 4.5t23 7 t23.5 6t12 2.5q19 -10 35.5 -23.5t17.5 -44.5t-12 -53t-34.5 -36t-48.5 -20.5t-54 -6.5q-14 0 -32.5 1.5t-37.5 3.5t-36 3t-29 1q-22 0 -28 -15q-22 -62 -38 -108.5t-29 -88t-26 -81.5t-30 -89q-6 -17 -11 -37.5t-4 -34.5q1 -20 22 -25.5t46 -5.5q19 0 39 4.5t24 5.5 q1 -1 1.5 -9.5t0.5 -18.5v-18.5t-1 -10.5q-24 -3 -52.5 -5.5t-53.5 -2.5q-39 0 -66.5 4.5t-43.5 15.5t-20 30.5t6 49.5q20 61 39.5 116.5t39 109t37.5 105.5t35 105q2 8 1 10.5t-9 2.5z" />
<glyph unicode="U" horiz-adv-x="863" d="M872 563q-6 -1 -17 -4.5t-16 -11.5q-44 -69 -71.5 -142.5t-51.5 -151.5q-10 -31 -20 -72.5t-9 -80.5q1 -28 14.5 -45.5t53.5 -17.5q17 0 35 6t33 12.5t25 12.5t11 6q4 0 8.5 -7.5t7.5 -16.5t4 -17t-3 -10q-35 -18 -73 -31t-81 -13q-32 0 -56 8t-39.5 20.5t-23.5 28.5 t-9 31q0 17 2.5 30.5t6 23t6.5 15.5t3 7q-2 1 -3 2t-3 1q-31 -47 -65.5 -78t-72.5 -49.5t-79.5 -26t-86.5 -7.5q-29 0 -59 8t-55 25.5t-41 43.5t-18 62q-1 42 17 93.5t42 103.5t47 100.5t31 83.5q3 9 1 16q-3 12 -23 12q-9 0 -21.5 -0.5t-31.5 -0.5q-9 0 -17 0.5t-16 0.5 q-5 0 -8.5 8.5t-4.5 18t0.5 18t7.5 8.5q14 0 44.5 -2t65.5 -2q32 0 55.5 1.5t41 4t30.5 4t25 1.5q2 0 3 -6t2 -13.5t1.5 -14.5t0.5 -8q3 -5 -4 -7q-11 -3 -27.5 -5.5t-24.5 -16.5q-11 -22 -26 -53.5t-31 -67t-31.5 -73t-28 -72t-19.5 -63.5t-7 -48q2 -53 31 -71.5t81 -18.5 q50 0 97 22t88.5 58t74.5 82t54 95q12 29 23.5 61t22.5 63t20.5 59t16.5 48q5 15 12.5 24.5t23.5 17.5q5 1 19.5 4.5t30.5 7t29.5 6t17.5 2.5q3 0 6 -6.5t4.5 -14.5t1 -14.5t-4.5 -6.5z" />
<glyph unicode="V" horiz-adv-x="606" d="M309 151q57 71 106.5 139t90.5 130t72 116.5t49 97.5q14 30 8 54q-1 3 -2.5 7t-2.5 7q-1 5 1 5q5 0 8 -3q4 -4 18 -9.5t29 -11.5t27.5 -11.5t12.5 -9.5q3 -20 -11.5 -53.5t-41 -75t-61.5 -90t-73 -98t-76 -98.5t-69.5 -93t-54 -80.5t-30.5 -60.5q-6 -18 -23 -18 q-25 -2 -46.5 -9.5t-29.5 -7.5q-5 0 -8 6q0 3 3 14.5t5 25.5q4 35 5.5 76t0.5 83t-3.5 82t-5.5 74t-6 59t-5 37q-8 49 -29 79t-58 30q-13 0 -28.5 -5t-29.5 -13t-26 -18t-20 -19q-3 -2 -8.5 2.5t-10.5 11t-8.5 13.5t-2.5 10q17 14 38.5 27t45 23t48 16.5t48.5 6.5 q51 0 78.5 -28t37.5 -71q8 -37 12.5 -84t7.5 -94.5t4.5 -91.5t4.5 -76q0 -6 4 -6t5 3z" />
<glyph unicode="W" horiz-adv-x="1127" d="M1260 631q8 -6 1 -9q-4 1 -11 1h-8q-9 0 -20.5 -0.5t-28.5 -8t-39.5 -24.5t-53.5 -50.5t-71.5 -86.5t-93.5 -132q-18 -31 -43 -73.5t-49 -86t-43.5 -83.5t-28.5 -65q-2 -6 -5 -11t-11 -7q-8 -1 -21 -3t-26 -5t-24 -7t-16 -10q-13 0 -7 14q4 4 3 28t-5.5 60t-11 81 t-14.5 90.5t-16 89t-15 76.5q-6 18 -16 18q-5 0 -11 -6q-9 -9 -28 -33t-45 -57.5t-57.5 -74.5t-64.5 -84t-65.5 -86t-60.5 -81q0 -5 -3.5 -9t-8.5 -4q-10 0 -24.5 -1.5t-29.5 -3.5t-28 -5t-19 -6q-9 0 -6 11q7 17 12 43.5t13 61.5q3 16 8 50.5t10.5 77t11 88.5t10 86 t6.5 69.5t0 38.5q-4 19 -24 19q-19 0 -37 -5.5t-30 -5.5q-4 0 -6.5 7.5t-3.5 16.5t0.5 17t5.5 8q61 12 97.5 20t57 12.5t27.5 6t10 1.5q7 0 7 -6t-2 -8q-3 -4 -6 -14.5t-6 -24.5t-6 -30t-5 -31q-7 -47 -13 -89t-11 -84t-9 -86t-6 -94q-1 -14 2.5 -15.5t5.5 3.5 q89 112 175.5 229.5t174.5 222.5q2 0 17.5 -1t33.5 -2.5t32.5 -3.5t12.5 -3q-22 -14 -29 -30.5t-6 -30.5q1 -30 9 -80t18.5 -105.5t21.5 -108.5t20 -89q3 -9 7 -9q6 0 7 6q17 29 41.5 80t54.5 110t64.5 120t70.5 110t74 80.5t74 31.5q3 0 23.5 -2t44 -4.5t43.5 -5t22 -4.5z " />
<glyph unicode="X" horiz-adv-x="750" d="M792 579q4 -10 -5 -16q-32 -24 -71.5 -54.5t-82.5 -64t-86 -68t-83 -65.5q9 -27 16.5 -47t14.5 -39t15.5 -39t19.5 -47q22 -53 44 -73t53 -20q24 0 50.5 13.5t50.5 37.5q3 3 9 -1t12 -10.5t9.5 -13t0.5 -7.5q-10 -15 -28.5 -29.5t-41 -26t-46.5 -18t-47 -6.5 q-43 0 -71.5 26t-52.5 91q-15 40 -28 78.5t-32 86.5q-35 -28 -66 -55t-60 -54.5t-58 -55.5t-61 -59l-25.5 -25.5t-28.5 -33.5t-21 -38t-4 -39q2 -8 -2 -9l-16 12t-24.5 19t-22 19.5t-10.5 14.5q-3 15 5.5 33t25.5 37.5t40 40.5t47 42q62 54 124.5 107.5t129.5 105.5 q-18 41 -32.5 75.5t-33.5 78.5q-17 39 -44 49t-60 10q-27 0 -58 -8.5t-54 -27.5q-4 -3 -10.5 3.5t-11 15.5t-7 17.5t0.5 10.5q38 23 89 38.5t102 15.5q23 0 41.5 -4t33.5 -15t26.5 -30.5t21.5 -49.5q5 -15 12 -34t15 -39t15 -38.5t11 -30.5q35 30 66 58.5t61.5 56.5 t61.5 57.5t67 62.5q12 10 3 24q-1 2 6.5 10t11.5 8q2 0 13.5 -9t24.5 -20t24 -21.5t11 -13.5z" />
<glyph unicode="Y" horiz-adv-x="572" d="M867 592q0 -1 -1.5 -6.5t-4.5 -11t-5.5 -10t-3.5 -3.5q-3 1 -16.5 4t-29.5 3q-41 0 -86 -18t-89 -48t-85.5 -68.5t-76.5 -79t-60.5 -79.5t-38.5 -71q-23 -59 -32.5 -110t-11.5 -83q-1 -5 -3 -9t-13 -2q-31 5 -54.5 0t-43.5 -22q-4 -2 -10.5 5t-3.5 12q18 21 38 58 t37 80.5t28 89t11 82.5q0 43 -11 82.5t-33.5 70t-55.5 48.5t-77 18q-39 0 -70.5 -16t-54.5 -49q-1 -3 -8 -1t-14.5 6t-13.5 10t-4 11q27 52 75 81.5t111 29.5q48 0 86.5 -25t65 -64t41 -85.5t14.5 -89.5q0 -6 5 -9t7 1q34 47 77 102.5t92.5 104t105 81t114.5 32.5 q8 0 23.5 -6.5t32 -15t30 -17t17.5 -13.5z" />
<glyph unicode="Z" horiz-adv-x="625" d="M930 105q1 -39 -8 -84t-29 -75q-21 -32 -51.5 -45.5t-71.5 -13.5q-68 1 -149.5 17.5t-172 37t-186.5 39t-193 21.5q-3 0 -5.5 8t-3.5 17.5t0.5 17t6.5 7.5q18 0 36 6t29 17q17 18 47 49.5t66.5 70.5t77 83t79 86.5t72.5 80.5t58 66q8 12 4 19q-2 11 -28 11q-19 0 -36 0.5 t-49 0.5q-36 0 -73 -2t-70 -7.5t-59.5 -15.5t-41.5 -27q-4 -7 -12 -6.5t-10 8.5q3 12 5 26.5t5 28t8.5 23t14.5 10.5q28 2 69.5 3.5t89 3t98 3t96 2.5t83.5 1.5t60 0.5q7 0 10.5 -6.5t4.5 -14t-1 -14.5t-7 -7q-6 -2 -17 -7.5t-17 -13.5q-41 -47 -92 -104t-104.5 -117.5 t-105 -123t-92.5 -119.5q-6 -9 -3 -14q2 -8 13 -11q32 -9 81 -22t107.5 -24.5t123 -20t128.5 -8.5q53 0 85.5 6.5t51 23t25 43.5t5.5 67q0 5 5 6.5t7 1.5q1 0 6.5 -0.5t12 -2t11.5 -3t6 -4.5z" />
<glyph unicode="[" horiz-adv-x="507" d="M458 687q1 -4 -3.5 -10t-7.5 -6h-52q-29 0 -46 -0.5t-25.5 -2t-11 -4.5t-2.5 -9q-27 -102 -45 -184t-32.5 -161.5t-29 -163.5t-34.5 -190q-2 -10 3 -15q3 -15 23 -15h60q24 0 39.5 1t24.5 1h17q6 0 10 -6t5.5 -12.5t-0.5 -12.5t-8 -6q-27 0 -58 1t-61 1q-33 0 -72.5 -1 t-72.5 -1q-10 0 -12 8q0 2 1 10t2.5 17.5t4 19.5t4.5 16q30 112 51.5 206t38.5 179t31 164t29 161q1 5 -0.5 10.5t-2 10t0.5 7.5t7 3q21 0 50.5 -1.5t50.5 -1.5q12 0 28 0.5t31.5 1t30.5 1t25 0.5q5 0 6 -6.5t2 -9.5z" />
<glyph unicode="\" horiz-adv-x="552" d="M673 -235q1 -5 -6.5 -7.5t-15.5 -2.5q-11 0 -22.5 3.5t-13.5 7.5l-532 996q-32 59 -32 60q0 3 5 5t12 3.5t14 1.5h10q14 -2 17 -8q2 -3 8.5 -15.5t19.5 -35.5q21 -39 55.5 -102t76 -140t87.5 -162.5t90.5 -169.5t85 -160.5l72 -136t50 -96.5t19.5 -41z" />
<glyph unicode="]" horiz-adv-x="528" d="M570 696q3 -5 -3 -11.5t-11 -32.5q-26 -107 -45 -200t-34 -178.5t-28.5 -166.5t-29.5 -164q0 -6 2 -14.5t3.5 -17t0.5 -14.5t-7 -6q-20 0 -51.5 1.5t-56.5 1.5q-35 0 -69.5 -1.5t-58.5 -1.5q-8 0 -10 8q-1 2 -1.5 7t0 10t1.5 8.5t3 3.5h87q22 0 34.5 0.5t19 2t8 4.5 t2.5 9q27 103 45 185t32.5 160t28.5 161.5t33 189.5q5 10 2 15q-6 15 -26 15q-48 0 -74 -2.5t-46 -2.5q-4 0 -6.5 5t-3.5 9q-2 8 2 14.5t10 6.5q76 0 134 1.5t100 1.5q3 0 7.5 -1.5t5.5 -5.5z" />
<glyph unicode="^" horiz-adv-x="600" d="M391 585q2 -22 9 -57.5t16 -72.5t18 -70.5t15 -53.5l-62 -7q-5 24 -12.5 50.5t-14.5 53.5t-13 53.5t-8 50.5q-28 -39 -78.5 -92t-105.5 -114l-67 12q27 29 58 60t61 62.5t57.5 63t48.5 61.5h78v0z" />
<glyph unicode="_" horiz-adv-x="750" d="M2 -70l8 70h750l-8 -70h-750z" />
<glyph unicode="`" horiz-adv-x="345" d="M231 429q0 -3 -4 -7t-9.5 -7.5t-10 -5.5t-5.5 0q-15 19 -33 39.5t-35.5 41t-33.5 40.5t-27 38q0 3 6 9t13.5 11.5t14.5 10t8 4.5h6t6 -3q9 -17 18 -34.5t21 -38t27.5 -44.5t37.5 -54z" />
<glyph unicode="a" horiz-adv-x="458" d="M576 194q-25 -43 -58.5 -80.5t-71 -65t-76 -43t-73.5 -15.5q-33 0 -55.5 16.5t-23.5 37.5q0 7 1 22.5t7 31.5q-28 -48 -65 -75.5t-75 -27.5q-10 0 -21 7.5t-20 19.5t-15.5 26t-6.5 26q-2 52 16.5 99t54 82.5t85 56.5t109.5 21q3 15 7.5 19.5t10.5 7.5l59 12l3 -1 q-7 -8 -9.5 -17.5t-8.5 -21.5q6 0 15.5 -1.5t18 -4t15.5 -5.5t8 -7q0 -1 -2 -7.5t-4.5 -14t-5 -13.5t-3.5 -6q-4 3 -11 6t-15 5.5t-15 4t-12 1.5q-19 -53 -30.5 -88t-18.5 -59.5t-9 -42t-2 -36.5q1 -11 8.5 -21t25.5 -10q20 0 49.5 14t61.5 38.5t63 59t53 74.5q2 3 4 3 q1 0 6 -4t10.5 -9t10 -9.5zM277 294q-48 0 -83 -18.5t-56.5 -48t-31.5 -65t-9 -68.5q1 -21 7.5 -36t15.5 -15q22 0 50 31.5t59 94.5q14 36 25 64t24 59z" />
<glyph unicode="b" horiz-adv-x="419" d="M563 288q2 1 5 1q1 0 3 -3.5t4 -8t3.5 -9t1.5 -5.5q0 -4 -2 -6q-35 -31 -65 -47t-77 -16q-12 0 -27.5 3.5t-30.5 9.5t-28 14.5t-21 18.5q13 -29 13 -58q2 -47 -8.5 -83t-31 -60t-48.5 -36.5t-62 -12.5q-11 0 -28.5 5t-34.5 20.5t-29.5 43t-14.5 72.5q-3 94 18.5 184 t60 170t90 148t106.5 119t110 82t101.5 37.5t80 -14.5t45.5 -74q-73 20 -142.5 4.5t-130.5 -58t-112.5 -107.5t-87.5 -144t-54.5 -167t-15.5 -177q1 -34 6.5 -52t13 -26.5t17 -10t18.5 -1.5q13 0 27.5 7.5t26.5 23t20 40.5t6 60q0 14 -2.5 30.5t-6 32.5t-8 29t-10.5 20 q0 9 9 23.5t23 21.5q5 0 6 -3q7 -30 25 -47.5t40.5 -26.5t46.5 -12t42 -3q35 0 58.5 14t50.5 34z" />
<glyph unicode="c" horiz-adv-x="331" d="M428 191q-23 -40 -53 -76.5t-65 -64t-73.5 -43.5t-78.5 -16q-48 0 -72.5 27.5t-26.5 73.5q-1 42 13 84.5t38.5 76.5t56.5 55.5t65 21.5q32 0 54 -20t23 -49q1 -12 -11 -23.5t-26 -20.5l-4 1q1 3 1 6q0 8 -2.5 18.5t-7.5 20t-14.5 16.5t-24.5 7q-20 0 -37.5 -16.5 t-30.5 -42t-20 -56.5t-6 -61q1 -38 14.5 -57t30.5 -19q21 0 47 10.5t55 33t59.5 58t60.5 84.5q3 4 7 4q1 0 6 -3.5t10.5 -8t10.5 -8.5t5 -5q0 -4 -4 -8z" />
<glyph unicode="d" horiz-adv-x="342" d="M302 253q2 -47 -8.5 -94t-32 -84t-55 -60t-77.5 -23q-17 0 -33.5 6.5t-30 19t-22.5 30.5t-10 42q-1 33 14 68.5t42 68.5t64 60t80 43q7 4 7 12q-1 16 -10 52.5t-29.5 83t-52.5 98t-78 97t-107 80t-139 47.5q44 26 95.5 23t103.5 -31t101 -78.5t87 -120t63 -155.5t28 -185 zM241 291q-29 -10 -55 -32t-45 -49.5t-30 -59t-10 -61.5q1 -23 11 -37.5t25 -14.5q20 0 41 17t37.5 46t27 67t8.5 80q-2 44 -10 44z" />
<glyph unicode="e" horiz-adv-x="311" d="M121 161q-3 -11 -5 -29.5t-1 -35.5q2 -37 14 -46t32 -9q34 0 67 14t62 36.5t52 49.5t36 52q2 2 7 -1t11 -7.5t11 -9t6 -6.5q-18 -32 -47 -64t-65.5 -58t-78 -42t-84.5 -16q-35 0 -62.5 26t-29.5 71q-1 41 12 84t36.5 78.5t57 58.5t72.5 23q23 0 42 -12t21 -40 q1 -21 -9 -42t-31 -37.5t-52.5 -27t-73.5 -10.5zM130 204q10 -2 21 -2q15 0 30.5 5.5t28 14.5t20 20.5t7.5 23.5q0 10 -4.5 14.5t-19.5 4.5q-7 0 -19 -5t-24.5 -15.5t-23 -25.5t-16.5 -35z" />
<glyph unicode="f" horiz-adv-x="326" d="M263 314h18t34.5 0.5t58 0.5h88.5q2 -1 3.5 -7t2 -12.5t0 -13t-2.5 -8.5q-58 0 -112.5 -1.5t-97.5 -1.5q-11 -40 -21 -73.5t-19.5 -63.5t-18.5 -58t-18 -58q-28 -98 -73 -168.5t-101 -115.5t-120 -66.5t-130 -21.5q-102 0 -143 47.5t-15 126.5q22 -54 69 -88t104 -34 q31 0 76.5 14t92 45t87.5 79.5t65 117.5q11 31 24 70.5t26 81.5t26 84.5t24 79.5q-49 -2 -80 -6t-49 -13t-27.5 -25.5t-17.5 -43.5l-30 3q10 49 28 78.5t35 35.5q10 3 28.5 5.5t39.5 4.5t42 3t37 1q16 56 35.5 122.5t46 130t62 117.5t83.5 85q20 14 46 23t51 9q35 0 50 -7.5 t16 -27.5q0 -4 -1.5 -12.5t-4.5 -17.5t-9 -15.5t-15 -6.5q-11 0 -19.5 4.5t-17.5 9.5t-18.5 9.5t-23.5 4.5q-38 0 -66.5 -32.5t-53 -89.5t-46.5 -135t-48 -170z" />
<glyph unicode="g" horiz-adv-x="376" d="M350 372q5 -13 0 -27q-29 -93 -47.5 -152t-31.5 -98t-22 -65.5t-20 -55.5t-25.5 -68.5t-38.5 -103.5q-16 -43 -49 -98t-87.5 -104.5t-132 -83.5t-182.5 -34q-60 0 -103 19.5t-70.5 51t-40.5 71t-13 80.5q13 -33 35.5 -60.5t55 -48t73 -32t89.5 -11.5q80 0 141.5 23.5 t108 64t79 95.5t53.5 119q15 46 24.5 74.5l15 45t8.5 25t5.5 16t6 17t9.5 27.5q-28 -44 -51.5 -60t-52.5 -16q-10 0 -21.5 5.5t-21.5 16t-16.5 25t-7.5 32.5q-1 26 8 60.5t26.5 69t43.5 65t59 49.5q8 5 20.5 10t26.5 9t27.5 7t22.5 3t17 -2q4 11 6.5 16.5t4 11t3.5 12 t5 18.5q3 20 15 20q3 0 10 -4t14.5 -9.5t13.5 -12.5t7 -13zM261 282q-6 2 -12 2q-29 0 -52 -10t-33 -21q-25 -28 -39 -52.5t-21 -45.5t-8.5 -39.5t-0.5 -35.5q0 -11 6 -23t17 -12q8 0 26 17t39 47.5t42.5 74.5t35.5 98z" />
<glyph unicode="h" horiz-adv-x="399" d="M558 191q-21 -40 -50.5 -76t-62.5 -64t-68.5 -44.5t-69.5 -16.5q-15 0 -31 5.5t-28.5 14.5t-21 21.5t-9.5 27.5q-1 29 6.5 55.5t17 50t17.5 42.5t8 33q-3 7 -7 7q-6 0 -21 -9t-33.5 -25.5t-37.5 -39t-33 -48.5q-6 -19 -10.5 -32t-8.5 -24.5t-7 -23t-7 -26.5 q-7 -25 -18 -25q-3 0 -11.5 1t-17.5 3t-16.5 5.5t-9.5 9.5q-1 5 -1 16q38 115 74 215t77 197q42 104 87.5 188t94.5 143.5t102 91t111 31.5q29 0 55 -9t45 -28t29 -49.5t7 -74.5q-10 29 -25.5 46t-35 25.5t-42.5 11t-49 2.5q-44 0 -85 -24.5t-79 -67t-71.5 -99.5t-62.5 -122 t-53 -133.5t-42 -135.5q7 9 24 24.5t38 31t43 26.5t39 11q3 0 11 -3.5t15.5 -8t13.5 -9t6 -7.5q0 -10 -10.5 -36.5t-23.5 -58.5t-24 -63t-10 -51t8 -31.5t32 -11.5q17 0 38 5t46 22.5t53 49.5t59 86q2 3 5 3q1 0 5.5 -3.5t10 -7.5t10.5 -8t5 -6z" />
<glyph unicode="i" horiz-adv-x="280" d="M240 531q2 -9 -0.5 -19.5t-8.5 -19t-15 -14.5t-19 -6q-9 0 -18.5 4.5t-12.5 13.5q-2 10 0.5 21t9 20t16 14.5t19.5 5.5t18.5 -5t10.5 -15zM383 187q-19 -35 -46.5 -70t-60.5 -63.5t-70.5 -46t-77.5 -17.5q-12 0 -26 3t-26 10t-20 19.5t-8 31.5q-1 22 8.5 58t22 73 t26 69.5t21.5 48.5q3 6 12.5 11t20 9t20 6t12.5 2q8 0 9 -4q0 -3 -0.5 -9t-3.5 -9q-13 -26 -26.5 -58t-24.5 -64t-18 -60t-6 -46q1 -23 5 -30t21 -7q29 0 59.5 18t58 44t50 55t34.5 51q2 4 8 2t12.5 -7t11 -11t2.5 -9z" />
<glyph unicode="j" horiz-adv-x="334" d="M178 471q-13 0 -21.5 8.5t-9.5 19.5q-1 18 11.5 32t30.5 14q11 0 21 -7.5t10 -18.5q1 -17 -12 -32.5t-30 -15.5zM42 302q64 12 95 21.5t45 9.5q15 0 19 -16q2 -7 -1 -21q-24 -78 -43 -137.5t-38 -116.5t-40.5 -118t-48.5 -142q18 29 46 57.5t58.5 58t61 60t55 64t39 71 t12.5 79.5q-1 35 -10 52t-14 28q16 -3 32.5 -11.5t30 -20.5t22 -26.5t9.5 -28.5q2 -51 -16.5 -92t-50.5 -78t-73.5 -73t-85.5 -76t-86.5 -87t-77.5 -107q-11 -20 -25 -51.5t-45 -68.5q-2 -3 -9 -3q-4 0 -12.5 4t-17 10t-15.5 12t-8 10q-3 15 1 22q12 24 23.5 38.5t22.5 25 t21 19.5t20.5 21.5t20.5 30.5t20 47q18 58 34 110.5t32 106.5t32.5 114t35.5 132q1 8 1.5 13t0.5 8q-4 13 -16 13q-1 0 -7.5 -1.5t-15 -3t-18 -3.5t-17.5 -2q-3 0 -4 7t-1 15.5t1.5 16t4.5 7.5z" />
<glyph unicode="k" horiz-adv-x="450" d="M709 734q-18 29 -34.5 46t-33 25.5t-32 11t-32.5 2.5q-52 0 -101.5 -34t-94.5 -90t-85 -129t-73 -151t-59.5 -155.5t-44.5 -142.5q-1 -12 0 -12q2 0 5 2t7 7q9 12 17 22.5l16 21t17.5 21.5t21.5 25q-3 6 -6 20q-3 12 14 23q8 5 17.5 11.5t14.5 8.5q4 0 5 -6q0 -3 4 -7 q5 6 21.5 24t34.5 37.5t34.5 35t21.5 15.5q2 0 7 -5t10.5 -12t10.5 -15t8 -14q2 -5 -1 -7t-10 -7q-35 -23 -63 -51t-51 -55q8 -31 15 -60.5t16 -51.5t21.5 -35.5t31.5 -13.5q38 0 69 16t55 42t41 60t26 70q2 3 9.5 0t15.5 -8.5t14.5 -11.5t6.5 -8q-16 -43 -40 -81.5 t-53.5 -66.5t-62.5 -44.5t-67 -16.5q-19 0 -37.5 2.5t-36 18t-34.5 48.5t-34 94q-38 -46 -73.5 -87.5t-53.5 -78.5q-5 -8 -12 -8q-6 0 -15.5 5t-19 12.5t-17 15.5t-9.5 14l-1 6q-1 2 1 6q9 21 20.5 55.5t28 83.5t40.5 114.5t58 149.5q42 104 87.5 188t94.5 143.5t102 91 t111 31.5q29 0 55 -9t45 -28t29 -49.5t7 -74.5z" />
<glyph unicode="l" horiz-adv-x="341" d="M163 226q-12 -31 -20 -50t-12 -32.5t-5 -24t-1 -24.5q2 -29 20 -40.5t44 -11.5q29 0 60 19t60 46.5t53.5 59.5t40.5 58q4 6 12 3t15.5 -9t13 -13t3.5 -10q-21 -34 -50.5 -70t-65.5 -65.5t-77.5 -48.5t-86.5 -19q-21 0 -40.5 6.5t-35 17t-25.5 25t-10 30.5q-1 31 9.5 69.5 t25.5 76.5t30 72.5t24 58.5q10 26 33 75t52 107t60 117t57 104q15 27 31 42t29 22.5t22 9.5t12 2q11 0 24 -7t24.5 -19t19.5 -27t9 -32q2 -54 -17.5 -109t-51.5 -107.5t-72 -100t-80 -87t-75.5 -69t-58.5 -45.5zM200 319q48 32 95 82.5t83.5 106.5t59 112.5t20.5 100.5 q-1 19 -4.5 33.5t-16.5 14.5q-6 0 -12 -3t-15 -15t-22.5 -35t-35.5 -63q-12 -21 -24.5 -46.5t-25.5 -53t-25.5 -55.5t-23.5 -54q-26 -62 -53 -125z" />
<glyph unicode="m" horiz-adv-x="598" d="M680 119q-16 -24 -38.5 -47t-50 -41.5t-58.5 -29.5t-64 -11q-15 0 -30 4t-27 12t-20 19.5t-8 26.5q-1 33 5.5 62.5t14.5 55t14.5 46.5t6.5 37q-1 5 -4.5 7t-7.5 2q-8 0 -24.5 -15t-35.5 -35.5t-35.5 -42.5t-24.5 -37q-6 -15 -11.5 -36t-11.5 -40.5t-12.5 -33.5t-13.5 -14 q-3 0 -10 2.5t-14.5 6t-13 7.5t-6.5 7q-4 9 10 44q12 30 20 57.5t13 49.5t7 36t2 17q-1 12 -7 12q-9 0 -27.5 -16t-38 -40t-38 -51.5t-27.5 -51.5q-14 -31 -23.5 -55.5t-17.5 -24.5q-12 0 -26 11t-18 21q-1 11 2 20q26 64 49.5 131.5t46.5 133.5q5 14 16 14q3 0 10 -2.5 t14.5 -6.5t14 -8.5t7.5 -7.5q-2 -9 -5.5 -16t-8 -18.5t-11.5 -29t-17 -47.5q22 35 42 56t37 32.5t31.5 15.5t24.5 4q6 0 13.5 -3t14.5 -7.5t12 -10.5t5 -12q0 -5 -1.5 -13t-4 -16.5t-4.5 -16t-4 -12.5q-2 -6 0 -6t4 4q26 42 61 67.5t67 38.5q8 3 19.5 1t22 -7.5t17 -12.5 t4.5 -15q-4 -15 -14.5 -40.5t-21 -55t-18.5 -59.5t-7 -54q1 -19 7 -30t25 -11q27 0 50 9.5t42.5 24.5t36 34.5t30.5 40.5q3 5 11 3.5t16 -6.5t13 -12.5t2 -14.5z" />
<glyph unicode="n" horiz-adv-x="457" d="M566 190q-18 -37 -46.5 -73t-63 -64t-73 -45.5t-76.5 -17.5q-12 0 -26 3t-25 10t-19 17t-8 24q-1 24 8.5 56t21.5 63.5t22 56t10 33.5q-2 13 -14 7q-13 -11 -31.5 -27.5t-38 -35t-37 -38.5t-27.5 -37q-8 -18 -13 -30t-9 -23.5t-8.5 -24.5t-11.5 -33q-4 -10 -6 -10 q-3 0 -10.5 5t-15.5 11.5t-14 13t-6 8.5q-4 14 10 37t29 52q14 48 26.5 101t22.5 95q2 8 11 8q5 0 12.5 -2t15.5 -5.5t14.5 -7.5t8.5 -9q1 -4 -13 -42q-7 -17 -9.5 -25t-8.5 -24q49 51 86.5 85t57.5 34q3 0 12.5 -2t19.5 -5t18.5 -6.5t9.5 -6.5q2 -4 -3 -18 q-10 -22 -23 -51.5t-24.5 -61t-19 -62t-6.5 -54.5q1 -15 6.5 -23.5t21.5 -8.5q23 0 51 16.5t55.5 42.5t51 59t36.5 66q1 2 10 -1t18.5 -8t16 -11t3.5 -11z" />
<glyph unicode="o" horiz-adv-x="399" d="M541 256q-9 -17 -24 -33t-34 -29t-41 -20.5t-46 -7.5q-25 0 -46 6.5t-40 23.5q-4 -30 -13 -65.5t-26.5 -67t-47 -52.5t-75.5 -21q-23 0 -41.5 8.5t-32 22.5t-20.5 31t-8 34q-1 48 15 91t44.5 76t66.5 53t80 21q2 12 4 27.5t16 18.5q7 2 19.5 3.5t17.5 4.5q3 3 8.5 0.5 t3.5 -8.5q-3 -8 -5.5 -20.5t-1.5 -25.5q1 -25 5 -46.5t14 -37.5t25.5 -25.5t39.5 -9.5q15 0 30.5 6t29.5 16t26.5 23.5t20.5 28.5q1 3 7.5 0.5t14 -7.5t12.5 -10.5t2 -8.5zM268 252q-3 7 -4.5 12.5l-4.5 16.5q-1 7 -7 7q-27 0 -51 -19t-42.5 -48t-29 -63.5t-9.5 -66.5 q0 -7 1 -16t4 -16t8.5 -12t15.5 -5q26 0 48.5 25t39 59t25 69.5t6.5 56.5z" />
<glyph unicode="p" horiz-adv-x="406" d="M533 214q-36 -63 -88 -102.5t-113.5 -63.5t-127.5 -35.5t-129 -16.5q-21 -56 -34.5 -97t-23 -74t-16.5 -61.5t-15.5 -60t-20.5 -70t-31 -91.5q-6 -18 -24.5 -27.5t-45 -16.5t-59 -15t-66.5 -22q-5 -2 -8 2.5t-4.5 10.5t-0.5 11.5t6 7.5q36 15 59.5 26.5t41 27t31.5 39.5 t30 64q10 28 17.5 48.5t15 40t15 40.5t18 50t24.5 69t34 98q-10 3 -13 17q-1 5 2 9.5t7.5 8.5t10 7t8.5 3q29 75 51.5 135t42 108.5t37.5 87.5t36 72q3 3 8 7.5t9 6.5q3 1 15 2.5t25.5 3t24 2.5t11.5 1q7 0 7 -7q2 -3 0 -7q-20 -25 -36 -46t-29 -41.5t-24.5 -42t-23.5 -48.5 q8 12 21.5 22t28 17t27.5 11t20 4q9 0 21.5 -5.5t24 -14t20 -20t8.5 -23.5q1 -23 -5.5 -49.5t-24.5 -54.5t-50.5 -57t-83.5 -56q30 6 69.5 17.5t80.5 33t79.5 56.5t66.5 87q1 2 8 -1.5t14.5 -8.5t14 -10.5t6.5 -8.5zM91 46q44 13 80 35.5t61.5 49.5t39.5 56t13 56 q0 10 -8.5 16.5t-19.5 6.5q-6 0 -19.5 -5t-29 -16.5t-31.5 -29.5t-27 -44q-8 -18 -15.5 -31.5t-14.5 -27t-14 -29t-15 -37.5z" />
<glyph unicode="q" horiz-adv-x="440" d="M547 176q-62 -42 -105.5 -67.5t-78 -44t-64 -34.5t-63.5 -38q0 -3 -2 -5q23 -38 35 -90t12 -103q0 -44 -10 -88.5t-32.5 -80t-57.5 -58t-86 -22.5q-6 0 -16 4.5t-19.5 12.5t-17 19t-7.5 24q0 22 15 66t37 97t45.5 108.5t40.5 102.5q-2 3 -4.5 5.5t-4.5 7.5t5 8.5t16 6.5 q5 11 8.5 16.5t5.5 14.5q-22 -23 -44 -33t-48 -10q-9 0 -20.5 5.5t-21 14.5t-17 20t-9.5 21q-7 30 7 71t41.5 80t64.5 70.5t75 41.5q16 5 41.5 6t41.5 1q6 14 9.5 24.5t6 18.5t6 12t10.5 4q3 0 12 -0.5t18 -2t16.5 -4t8.5 -5.5q2 -2 -1 -7q-4 -9 -7.5 -14.5t-5.5 -10.5 t-4 -10.5t-5 -14.5q21 -2 38.5 -12t29.5 -24q0 -5 -3.5 -12.5t-8 -15t-9.5 -12.5t-9 -6q-11 18 -27.5 27.5t-28.5 10.5q-9 -20 -32 -74t-58 -137q26 17 52 34.5t55.5 37.5t64 42.5t77.5 48.5q4 3 10.5 -3.5t12.5 -15.5t9 -18t0 -11zM115 -398q21 0 41.5 18t37 48.5 t26.5 71.5t10 87q0 26 -3.5 56.5t-11.5 56.5q-21 -53 -42.5 -104.5t-38.5 -94t-27.5 -73.5t-10.5 -43q0 -8 3.5 -15.5t15.5 -7.5zM293 277q-17 5 -34 0.5t-29 -10.5q-24 -12 -47 -38t-40 -56t-26 -59t-4 -47q2 -7 7.5 -10t10.5 -3q6 0 17.5 4.5t25 13.5t26.5 21.5t22 27.5 q11 18 17.5 30.5t13.5 27.5t15.5 37.5t24.5 60.5z" />
<glyph unicode="r" horiz-adv-x="328" d="M355 306q-3 -5 -7.5 -15t-8.5 -20.5t-7.5 -20t-4.5 -13.5q-3 -4 -6 -4q-2 0 -2.5 3.5t-3.5 7t-10.5 7t-22.5 3.5q-10 0 -25.5 -7.5t-31.5 -18t-30 -21.5t-21 -19q-23 -26 -35.5 -46t-20.5 -41t-15.5 -45t-19.5 -58q-3 -4 -9 -4q-1 0 -9 2.5t-16 6.5l-15 7.5t-7 6.5 q-4 11 3 27q15 42 30 85t28 80t23 65t13 41q3 14 8 14q2 0 9.5 -2t17 -5.5t17.5 -9t10 -12.5q0 -2 -4 -13t-9 -23.5t-8.5 -22.5t-2.5 -10q5 0 7 2q12 15 29.5 31.5t37.5 30.5t41 23t40 9q13 0 24.5 -6.5t13.5 -14.5z" />
<glyph unicode="s" horiz-adv-x="288" d="M236 249q-2 -9 -7 -2l-10 12.5t-13.5 14t-15.5 11.5t-15 5q-40 0 -39 -39q1 -20 15.5 -39.5t31.5 -39.5t31.5 -40.5t15.5 -41.5t-9 -40t-28 -33t-42 -22.5t-53 -8.5q-40 0 -73.5 18.5t-52.5 44.5q0 5 2.5 13t7 16t9.5 15t10 9q21 -38 50 -54.5t57 -16.5q32 0 46 14.5 t13 31.5t-15.5 37t-31.5 41.5t-31.5 42.5t-15.5 39q-1 20 9.5 37.5t28 31t39 21.5t42.5 8q6 0 17 -3t21.5 -7t18.5 -8.5t9 -8.5q0 -3 -3 -11.5t-7 -18t-7.5 -18t-4.5 -11.5z" />
<glyph unicode="t" horiz-adv-x="317" d="M323 527q-6 -1 -15.5 -4.5t-19 -8t-17.5 -10t-11 -11.5q-11 -24 -19 -44.5t-15 -40.5t-14.5 -41t-16.5 -47h186q5 -3 7 -8q0 -2 -3 -13.5t-4 -12.5q-12 0 -36 -0.5t-52.5 -1.5t-57.5 -3t-52 -4q-20 -61 -36.5 -102t-15.5 -77q1 -55 54 -55q12 0 33 8t44.5 20t45.5 25.5 t37 23.5q2 2 7.5 -3t11.5 -12.5t9.5 -14t1.5 -8.5q-23 -16 -50.5 -32.5t-56 -29t-55.5 -20.5t-50 -8q-15 0 -32 6t-31.5 17t-24.5 26.5t-11 35.5q-2 33 10.5 79t40.5 118q-9 -1 -19.5 -1.5t-23.5 -2.5q-13 -1 -20 -1.5t-9 -0.5q-8 0 -11 6q1 3 3.5 9t5.5 13t6 13t5 9l76 2 q20 46 39.5 100.5t37.5 98.5q8 4 22 9.5t30 11t31.5 10.5t25.5 8q2 0 4.5 -4.5t4.5 -9.5t2.5 -10t-2.5 -7z" />
<glyph unicode="u" horiz-adv-x="436" d="M548 182q-18 -36 -44 -70.5t-57.5 -61.5t-66 -43.5t-69.5 -16.5q-36 0 -63 15.5t-28 44.5q-1 12 0 24q-5 -10 -15 -23t-23.5 -24.5t-29.5 -19t-33 -7.5q-9 0 -19.5 2.5t-20.5 7.5t-18.5 13t-11.5 18q-1 12 1 31.5t10.5 52t23 80t36.5 115.5q5 15 11 15q3 0 12.5 -3.5 t19.5 -8t18.5 -9.5t8.5 -9t-6 -18q-29 -73 -46 -129t-16 -85q3 -11 10.5 -15t15.5 -4t18.5 9.5t23 27t25.5 41t24 50.5q8 24 14.5 42.5t11.5 33t9.5 26.5t8.5 24q3 10 8 10t15 -7t19.5 -17.5t15 -21.5t2.5 -20q-11 -22 -22.5 -44.5t-21 -43.5t-15.5 -41.5t-5 -38.5 q1 -23 11 -34t25 -11q16 0 38.5 8.5t48.5 28t53.5 52t52.5 80.5q2 1 8 -2t13 -7.5t12.5 -9t6.5 -7.5z" />
<glyph unicode="v" horiz-adv-x="374" d="M266 380q-3 1 -2.5 2.5t9.5 0.5q18 -2 35 -11t30 -23.5t21 -32.5t9 -38q1 -39 -13 -75t-37.5 -67t-53.5 -56.5t-61.5 -43.5t-60.5 -28.5t-50 -11.5l-30 34q-1 3 0 6.5t4 3.5q13 -1 22.5 2.5t15.5 14t7.5 30.5t-0.5 51q-3 42 -2 82.5t0 61.5q-1 17 -19 12l-41 -13 q-2 2 -3.5 14t3.5 18q14 3 34 6.5t40.5 7t39 7.5t30.5 7q3 -2 4 -13t-1 -13q-5 -4 -12 -11.5t-9 -18.5q-4 -16 -4 -39t1.5 -45.5t3.5 -40.5t3 -26q1 -13 1 -22.5t-2.5 -17t-7.5 -14t-13 -14.5q-3 -3 -1 -5.5t4 -0.5q28 11 54.5 33.5t46.5 53t32 66.5t10 75q0 14 -3 28.5 t-8 27.5t-11.5 22.5t-14.5 13.5z" />
<glyph unicode="w" horiz-adv-x="655" d="M775 276q-69 -17 -121.5 -20.5t-88.5 0.5q-7 1 -5 -4t3 -12q3 -15 5 -30t2 -30q2 -48 -11.5 -83.5t-37.5 -59.5t-55.5 -35.5t-66.5 -11.5q-17 0 -35.5 3.5t-36 11.5t-32 21.5t-23.5 33.5q-24 -26 -63.5 -43t-81.5 -17q-13 0 -27 5t-25.5 14t-19.5 20.5t-8 24.5 q-1 27 7 60t20 64.5t26 57.5t24 39l10 12.5t13 10.5q6 2 15.5 3.5t20 3.5t20 3.5t13.5 2.5q3 0 5.5 -5.5t2.5 -7.5q0 -3 -12.5 -7.5t-23.5 -17.5q-14 -24 -28.5 -51t-26 -53t-18.5 -51t-6 -46q0 -13 8.5 -22.5t22.5 -9.5q17 0 47.5 17.5t62.5 46.5q-6 26 -7 51.5t2 48.5 t9.5 42t14.5 32q3 4 14 9.5t26 11t30.5 9t27.5 3.5q10 0 20.5 -6.5t18.5 -16t13.5 -19.5t5.5 -18q1 -13 -2 -32.5t-13.5 -42.5t-30.5 -48.5t-52 -50.5q20 -47 71 -47q20 0 41 8t37.5 26t27 46t8.5 68q-1 16 -4.5 35t-10 35t-16 26.5t-23.5 10.5q-5 3 -5 10t4 9q5 0 13 2 t16.5 4.5t16 4.5t10.5 2q4 0 8 -3.5t15 -7.5t31.5 -7.5t57.5 -3.5q16 0 36 1t40.5 4t39 7t31.5 10q2 1 4.5 -6.5t4 -17t0.5 -18t-6 -9.5zM305 136q21 20 32.5 33.5t17 24t6.5 20t1 21.5q-1 37 -21 37q-8 0 -16.5 -8.5t-14.5 -25.5t-8 -42.5t3 -59.5z" />
<glyph unicode="x" horiz-adv-x="425" d="M378 126q2 2 8.5 -1.5t14 -9t13 -11t5.5 -8.5q-10 -13 -27.5 -31t-40.5 -34.5t-50 -28t-57 -11.5q-27 0 -45.5 6.5t-32 19.5t-22 33t-16.5 48q-59 -58 -93.5 -129.5t-48 -141t-8 -128t25.5 -90.5q-13 9 -27 18t-26.5 18.5t-22 19t-12.5 18.5q-13 32 -9 86.5t27.5 120 t66.5 135.5t107 133q-7 40 -8 70t4 57q1 22 13 27q5 2 21 6.5t24 10.5q1 3 4.5 -1t1.5 -7q-5 -18 -8 -31.5t-3.5 -27t0.5 -27.5t3 -34q31 30 58.5 54t49 40.5t35 25.5t16.5 9q5 0 6 -4q1 -3 4.5 -9.5l7 -13t6 -13t0.5 -9.5q-45 -26 -88.5 -63.5t-81.5 -76.5q9 -54 27.5 -78 t54.5 -24q16 0 33 7t33 19t30.5 27.5t26.5 33.5z" />
<glyph unicode="y" horiz-adv-x="368" d="M88 0q-13 0 -26.5 4.5t-24 11.5t-17.5 17t-7 20q-1 16 4.5 44.5t15.5 63.5t24 73.5t29 75.5q2 8 6 11.5t7 6.5q4 1 13.5 1.5t19.5 1t18.5 0.5h9.5q6 0 6 -6q-16 -38 -30 -77.5t-25 -73t-17 -59.5t-6 -37t5.5 -19.5t22.5 -8.5q9 0 23.5 9t28.5 21t26.5 25t18.5 20 q5 6 8.5 17t7.5 27.5t10.5 41t17.5 57.5t20 55t19 22q5 -1 14 -5.5t18.5 -9.5t16.5 -11.5t8 -12.5q-21 -57 -47.5 -118.5t-46.5 -118.5q-15 -43 -36.5 -98t-51.5 -112t-68 -111t-86.5 -96.5t-107 -68.5t-129.5 -26q-51 0 -87.5 20.5t-58 50.5t-29 65t-0.5 64 q15 -55 52.5 -88t108.5 -33q73 0 133 22t110.5 71t93.5 126t81 188q3 6 0 4.5t-4 -2.5q-14 -14 -38 -29.5t-54 -15.5z" />
<glyph unicode="z" horiz-adv-x="365" d="M858 -63q0 -30 -15.5 -58t-44 -49.5t-68 -35t-89.5 -13.5q-67 0 -125.5 17.5t-119 49t-129 75t-155.5 94.5q-7 3 -10 4t-9 -4q-10 -7 -19 -13t-17 -16q-6 -3 -18 0t-23 9t-17 13t0 10q47 27 89.5 58.5t75.5 59.5t52 47.5t19 22.5q-1 6 -7 6q-12 -6 -30.5 -8t-34.5 -2 q-10 0 -23 5t-25.5 15.5t-22 27t-13.5 40.5q2 12 22 30t40 33q3 0 10 -7.5t9 -10.5q-5 -5 -10 -15t-4 -18q1 -32 18.5 -40t49.5 -8q17 0 28.5 2.5t22 8.5t21 16.5t25.5 26.5q2 3 12 1.5t20.5 -5.5t18.5 -9.5t5 -10.5q-20 -26 -45.5 -55t-53.5 -58t-57.5 -56.5t-58.5 -50.5 q-6 -3 -2.5 -8t12.5 -11q86 -50 155 -88.5t126 -65t104 -40t87 -13.5q33 0 62.5 5t54 18t43 35t30.5 57q1 1 5.5 -1t10.5 -5t11.5 -6.5t6.5 -5.5z" />
<glyph unicode="{" horiz-adv-x="401" d="M467 714q-5 0 -10 2t-15 2h-25t-22.5 -4t-20 -13.5t-19.5 -28.5q-28 -51 -43 -101t-29.5 -92t-35 -73t-61.5 -44q-5 -1 -5 -6q2 -4 4 -5q19 -11 32.5 -24t19.5 -33q7 -20 3 -48t-12.5 -60.5t-19 -68t-18.5 -70t-11 -66t5 -56.5q9 -27 26.5 -36t47.5 -9q5 0 8 -5t4 -11 t-1 -11t-8 -5q-21 0 -47.5 7t-51 19.5t-44 30.5t-27.5 39q-7 24 -2.5 54.5t15 63t24 66.5t24 65t15.5 58t-1 45q-7 21 -28.5 30.5t-39.5 9.5q-12 0 -19 -2t-22 -2q-7 0 -12.5 8.5t-6.5 15.5q-1 8 2.5 14.5t11.5 6.5q7 0 13 -1.5t17 -1.5q18 0 33 3t26 14q29 29 43 62.5 t24.5 71t22 78.5t34.5 84q17 30 42.5 41t58.5 16q7 1 18 2t24 1.5l26 1t23 0.5q5 0 10.5 -5t6.5 -13q1 -17 -7 -17z" />
<glyph unicode="|" horiz-adv-x="333" d="M125 -375v1375h70v-1375h-70z" />
<glyph unicode="}" horiz-adv-x="398" d="M340 644q9 -34 0 -74t-23 -78t-24.5 -71.5t-4.5 -53.5q3 -15 18 -15q13 0 29.5 2t32.5 2q7 0 11 -6t5 -13.5t-2 -14t-11 -6.5q-21 0 -33 -2t-26 -13q-25 -21 -37.5 -56t-23.5 -83q-9 -46 -18 -95t-33 -94q-11 -21 -34.5 -43t-52.5 -40.5t-59.5 -30.5t-55.5 -12q-4 0 -7 4 t-4 9q-1 9 -0.5 12.5t5.5 4.5q39 8 68 25t48 60q16 33 24 64.5t13.5 63t11.5 61.5t17 59t30.5 56.5t51.5 53.5q3 5 2 7q0 3 -4 6t-9.5 9t-12 16.5t-11.5 28.5q-7 22 -4.5 45t9.5 46.5t17 48t17 48t9.5 47t-5.5 45.5q-12 39 -52 45q-6 2 -10 7.5t-5 11.5t0.5 11t4.5 5 q17 0 38.5 -10.5t42.5 -26t37 -33.5t20 -33z" />
<glyph unicode="~" horiz-adv-x="600" d="M502 231q-3 -21 -13 -39.5t-24 -32t-32 -21t-37 -7.5q-25 0 -48 9t-45.5 19.5t-46.5 19.5t-51 9t-38.5 -14.5t-16.5 -37.5l-57 50q3 13 12 27.5t23 26.5t32 19.5t39 7.5q24 0 50.5 -8.5t51.5 -19t48 -19.5t39 -9q25 0 36.5 14t22.5 36l55 -30v0z" />
<glyph unicode="&#xa1;" horiz-adv-x="330" d="M45 -248q-3 1 -4.5 6.5t-1.5 11t1 10t4 4.5q20 0 32 12q28 27 46 70t30 97t21 116t19 128q0 3 9 4t19.5 0.5t19.5 -2.5t9 -5q1 -16 -1 -47t-5.5 -70t-9.5 -82t-13 -83.5t-15.5 -75.5t-18.5 -56q-10 -23 -24.5 -35t-38.5 -12q-6 0 -17 1t-22.5 2t-22 2.5t-16.5 3.5z M227 382q25 0 39 -15t15 -38q1 -21 -12 -37t-37 -16q-23 0 -37 17t-15 37q-1 23 13 37.5t34 14.5z" />
<glyph unicode="&#xa2;" horiz-adv-x="481" d="M114 218q2 -37 17.5 -61.5t48.5 -24.5q8 0 24.5 2t39 16t49 45.5t54.5 89.5q1 2 9.5 1.5t18.5 -2t18.5 -5t8.5 -9.5q-20 -40 -46 -74t-57 -59t-68 -39.5t-79 -14.5q-23 0 -43 9t-34.5 25.5t-23 39t-9.5 49.5q-2 59 15.5 114.5t51 99t82 70t109.5 26.5q23 0 46.5 -16 t32.5 -40q0 -7 -4 -17t-8.5 -19.5t-9.5 -16.5t-8 -7t-6 10q-6 22 -24 37t-58 15q-42 0 -70.5 -25.5t-46 -63t-24.5 -80t-6 -75.5zM83 -219q28 246 94.5 486.5t157.5 485.5q3 3 8 4t10.5 0t10 -3.5t5.5 -6.5q-49 -130 -87.5 -248.5t-68.5 -235.5t-52 -237.5t-39 -255.5 q-1 -6 -6.5 -7t-12 1t-12.5 6.5t-8 10.5z" />
<glyph unicode="&#xa3;" horiz-adv-x="662" d="M442 602q9 0 20.5 -1t22.5 -3.5t19.5 -7.5t9.5 -13q1 -3 0.5 -15.5t-2.5 -24.5t-5 -19.5t-6 -0.5q-5 11 -25.5 22t-61.5 11q-40 0 -63.5 -23.5t-38 -58.5t-24.5 -77t-24 -78q-16 -41 -38 -84t-50 -74q-2 -2 -1 -3.5t3 -1.5t8 4.5t16 9.5t23.5 9.5t29.5 4.5q37 0 69 -20.5 t59.5 -45.5t49.5 -45.5t39 -20.5q8 0 15 1t14.5 6t14.5 15.5t13 29.5q0 2 10.5 1.5t23.5 -2.5t24 -5t12 -7q-1 -10 -10 -25.5t-24.5 -29.5t-38 -24t-51.5 -10q-35 0 -59 18t-50 40t-61 40t-92 18q-35 0 -61.5 -12.5t-40.5 -32.5q-23 -34 -36 -46.5t-18 -12.5q-3 0 -11 4.5 t-16.5 10.5t-15 11.5t-6.5 7.5q0 7 5 14q33 29 57 48t44.5 44.5t39 65t40.5 108.5q16 50 34.5 99.5t46 90t67.5 65.5t100 25zM223 307q-15 0 -34.5 -1t-37 -2.5t-30.5 -2.5t-15 -1q-7 0 -9 3q0 3 1 9.5t2.5 14t4 13t5.5 5.5h48.5t29.5 -0.5t17.5 -0.5h10.5q50 0 84 2t58 4.5 t40 4.5t31 2q9 0 11 -5q0 -1 -1 -8t-2.5 -14.5t-4 -14t-6.5 -6.5q-40 0 -64 -0.5t-43.5 -0.5t-40 -0.5t-55.5 -0.5z" />
<glyph unicode="&#xa4;" horiz-adv-x="556" d="M506 571l-53 -54q30 -33 44 -73.5t16 -82.5t-9.5 -82.5t-39.5 -73.5l56 -54l-36 -38l-58 55q-32 -28 -71 -41.5t-81 -13.5t-82 13.5t-74 41.5l-54 -55l-40 38l52 54q-29 33 -43 73.5t-16 82.5t9.5 82.5t38.5 73.5l-55 54l36 38l58 -55q32 28 71 41.5t81 13.5t82 -13.5 t74 -41.5l54 55zM272 161q40 0 75 16t60.5 43.5t39.5 64t12 76.5q-1 41 -18 77t-44 63.5t-63 43.5t-76 16t-75 -16t-60.5 -43.5t-39 -63.5t-12.5 -77q2 -40 18.5 -76.5t43.5 -64t63 -43.5t76 -16z" />
<glyph unicode="&#xa5;" horiz-adv-x="701" d="M-2 491q7 17 23 36t39.5 36t54 28t66.5 11q44 0 75 -16t51 -42t30 -59t11 -67q0 -13 0.5 -23.5t1 -20t0 -19.5t-1.5 -23q47 48 81.5 88.5t65 77.5t61 72t70.5 73q6 6 11 6q3 0 15.5 -4t26.5 -9t25.5 -10t11.5 -8q0 -5 -9 -11q-88 -72 -173.5 -156t-177.5 -177 q-6 -19 -11.5 -44.5t-10.5 -52.5t-9.5 -54t-7.5 -48q-3 -19 0.5 -27t31.5 -8q14 0 23 1.5t17 1.5q2 0 4 -4.5t4 -10.5t3.5 -11.5t1.5 -8.5q0 -4 -0.5 -6t-5.5 -2q-17 3 -43 4t-55 1q-42 0 -81.5 -1.5t-58.5 -3.5q-11 0 -16 11v7.5t1.5 11t4 10t6.5 4.5q19 0 28 0.5t13.5 1 t5.5 1t4 0.5q8 2 13.5 9.5t12.5 19.5q34 72 40.5 148.5t3.5 154.5q-1 35 -3.5 66.5t-13.5 55t-34 37t-64 13.5q-40 0 -71 -26t-45 -65q-1 -2 -8.5 1t-15.5 8.5t-14.5 11.5t-7.5 10zM239 171q-15 0 -34.5 -1t-37 -2.5t-30.5 -2.5t-15 -1q-7 0 -9 3q0 3 0.5 9.5t2.5 14t4.5 13 t5.5 5.5h48.5t29.5 -0.5t17.5 -0.5h10.5q101 0 167.5 6.5t95.5 6.5q9 0 11 -5q0 -1 -1 -8t-3 -14.5t-4.5 -14t-6.5 -6.5q-40 0 -71.5 -0.5t-60 -0.5t-57 -0.5t-63.5 -0.5zM254 277q-15 0 -34.5 -1t-37 -2.5t-30.5 -2.5t-15 -1q-7 0 -9 3q0 3 1 9.5t2.5 14t4 13t5.5 5.5h48.5 t30 -0.5t18 -0.5h10.5q101 0 167 6.5t95 6.5q9 0 11 -5q0 -1 -1 -8t-2.5 -14.5t-4 -14t-6.5 -6.5q-40 0 -72 -0.5t-60.5 -0.5t-57 -0.5t-63.5 -0.5z" />
<glyph unicode="&#xa6;" horiz-adv-x="169" d="M48 205h71v-313h-71v313zM48 657h71v-313h-71v313z" />
<glyph unicode="&#xa7;" horiz-adv-x="452" d="M295 590q10 0 21.5 -2.5t22 -6.5t18 -9.5t7.5 -11.5t-2.5 -26t-8.5 -39q-1 -5 -6 -5q-2 0 -8 1t-6 3q6 20 -10.5 32.5t-46.5 12.5q-34 0 -44 -22.5t-9 -49.5q2 -36 27 -62.5t55.5 -54t56 -62.5t27.5 -88q1 -22 -6.5 -40.5t-19.5 -33.5t-26.5 -27t-27.5 -20q2 -7 1.5 -10 t-0.5 -10q1 -30 -5 -56.5t-23.5 -46.5t-49.5 -32t-83 -12q-28 0 -56 10.5t-51 30t-38.5 47t-16.5 61.5q0 17 1.5 33t3.5 21q0 2 6.5 3.5t14 2.5t14.5 -0.5t9 -7.5q0 -5 -0.5 -6t-0.5 -7q1 -36 11 -61.5t27 -41t39.5 -23t48.5 -7.5t42.5 7.5t26.5 20t14 29t3 35.5 q-1 21 -13.5 41.5t-31.5 41.5t-41 43t-41.5 45t-32.5 47t-14 50q-2 42 24 73t66 52q-5 22 1 46.5t22.5 44.5t44 33.5t64.5 13.5zM293 132q11 10 18.5 23t6.5 30q-1 36 -20 64t-43.5 52.5t-47.5 48t-32 50.5q-13 -6 -27 -18t-13 -30q1 -27 21.5 -52.5t46.5 -52t52 -55 t38 -60.5z" />
<glyph unicode="&#xa8;" horiz-adv-x="345" d="M254 550q12 0 21.5 -7.5t9.5 -25.5q1 -20 -11 -38.5t-34 -18.5q-14 0 -22.5 10t-9.5 24q-1 21 11 38.5t35 17.5zM98 554q14 0 22 -9.5t8 -24.5q1 -20 -10.5 -38t-33.5 -18q-14 0 -22.5 10.5t-9.5 23.5q-1 23 11.5 39.5t34.5 16.5z" />
<glyph unicode="&#xa9;" horiz-adv-x="790" d="M377 610q72 0 127.5 -23t93.5 -64.5t58.5 -98t22.5 -123.5q2 -56 -13.5 -110.5t-51 -98t-91.5 -70.5t-136 -27q-63 0 -116.5 22t-93 61t-63 93.5t-25.5 119.5t15.5 122.5t54 101.5t91.5 69.5t127 25.5zM380 564q-61 0 -107.5 -21.5t-77.5 -58t-45.5 -84t-12.5 -98.5 q2 -61 22.5 -109t55 -81t80.5 -50.5t100 -17.5q59 0 104 21t75 56t45 80t13 93q-2 57 -19.5 106.5t-49.5 86t-78 57t-105 20.5zM475 378q-8 28 -30 48.5t-57 20.5q-19 0 -37.5 -8t-32 -24.5t-21 -41t-6.5 -56.5q1 -29 7 -56t18 -48t31.5 -33.5t46.5 -12.5q72 0 95 61 q9 -8 16 -18q6 -8 11.5 -18.5t6.5 -21.5q-19 -32 -55 -48t-78 -16q-39 0 -70 16t-52.5 43t-33 62.5t-13.5 74.5q-1 40 10.5 76t33.5 63.5t53.5 44t69.5 16.5q18 0 37 -4.5t36.5 -14t32 -25.5t22.5 -39q-1 -4 -6 -11t-11 -13.5t-12.5 -11.5t-10.5 -5h-1z" />
<glyph unicode="&#xaa;" horiz-adv-x="404" d="M445 357q-12 -14 -31 -31t-42 -31.5t-48 -24t-48 -9.5q-21 0 -36 13.5t-17 45.5q0 10 1 33.5t6 53.5q-30 -66 -66.5 -98.5t-76.5 -32.5q-17 0 -29.5 12t-13.5 35q-1 31 15.5 72.5t46.5 79t70.5 63.5t86.5 26q3 13 5 20.5t3.5 13t3 10t4.5 10.5q2 6 8 6.5t10 -4.5 q4 -6 10 -10t12 -7.5t11.5 -6.5t6.5 -5q3 -3 0 -8q-28 -60 -38.5 -112.5t-8.5 -90.5q1 -24 5 -43t25 -19q13 0 28.5 7t31 17.5t28 22.5t19.5 24q1 2 5.5 -1t9 -8t6.5 -11.5t-3 -11.5zM250 519q-25 3 -49.5 -12t-44 -38.5t-31.5 -50t-11 -47.5q0 -10 4 -18.5t15 -8.5 q7 0 20.5 10t30.5 31t34.5 54.5t31.5 79.5z" />
<glyph unicode="&#xab;" horiz-adv-x="540" d="M512 319q2 -7 0 -9q-39 -36 -69 -67t-66 -65q-7 -7 -7 -15q3 -4 10 -18.5t19 -36t29 -50t39 -60.5q1 -2 1 -6q1 -6 -6 -7q-3 -1 -11.5 -3t-19 -4t-19.5 -4t-12 -4q-6 0 -7 7q-16 28 -34.5 57.5t-33.5 54.5t-25 42.5t-10 20.5q-1 8 6 15q18 18 41.5 42.5t47 48.5t43.5 45 t30 32q3 3 6 3q2 0 9.5 -2t16 -5t15.5 -6.5t7 -5.5zM391 332q0 -4 -9 -10q-3 -3 -22.5 -21l-45.5 -42t-53 -49.5t-45 -43.5q-5 -7 -5 -15q1 -4 5.5 -15.5t14.5 -31.5t27 -49t42 -70l6 -9q0 -5 -4 -5q-3 0 -13.5 -1t-22.5 -2.5t-22.5 -3t-13.5 -2.5q-4 0 -10 12l-15.5 31 t-23.5 46.5t-26 51.5t-24 46q-1 6 9 15q19 17 44 40.5t51.5 49t52 51t44.5 45.5q4 4 8 4l7.5 -2.5l16.5 -5.5t17.5 -7t9.5 -7z" />
<glyph unicode="&#xac;" horiz-adv-x="400" d="M337 251q-4 -14 -9 -35.5t-9 -43.5t-7 -41.5t-4 -30.5l-46 1q2 18 9 45t15 51q-9 2 -28.5 2.5t-44.5 1.5t-52 1h-52q-17 0 -30 -0.5t-23 -1.5l10 60q14 0 52 -1.5t80.5 -2.5t80 -1.5t52.5 1.5l6 -5v0z" />
<glyph unicode="&#xae;" horiz-adv-x="600" d="M505 431q2 -39 -10.5 -76t-38.5 -66.5t-67 -47t-97 -17.5q-43 0 -81 16.5t-67 44.5t-46.5 66.5t-19.5 81.5q-1 35 10 72.5t36 68.5t65.5 50.5t98.5 19.5q103 0 157.5 -58t59.5 -155zM468 423q-1 42 -12.5 76t-33 58.5t-54 38t-77.5 13.5q-40 0 -72.5 -13t-55.5 -35.5 t-35 -53.5t-11 -66q2 -45 16.5 -79t39 -57t57 -34.5t70.5 -11.5q37 0 68.5 13.5t54 36t34.5 52.5t11 62zM258 464q25 0 40 3t23 8.5t10.5 14t2.5 18.5q0 8 -3 14.5t-10.5 10.5t-19.5 5t-31 -3zM340 318l-84 121l-21 -121h-46l45 244q40 10 67 9t43.5 -9.5t23.5 -23t8 -32.5 q1 -19 -6 -32t-18.5 -21t-25 -11.5t-25.5 -3.5l93 -120h-54z" />
<glyph unicode="&#xaf;" horiz-adv-x="600" d="M-20 600l7 70h599l-7 -70h-599z" />
<glyph unicode="&#xb0;" horiz-adv-x="342" d="M148 442q-42 0 -64.5 24t-24.5 54q0 15 3.5 31t13 29.5t26.5 22t44 8.5q42 0 65.5 -22.5t25.5 -61.5q2 -33 -19.5 -59t-69.5 -26zM152 480q20 0 31.5 12.5t10.5 31.5q-1 23 -14 36t-34 13t-33.5 -12.5t-11.5 -32.5q1 -22 14.5 -35t36.5 -13z" />
<glyph unicode="&#xb1;" horiz-adv-x="400" d="M342 -4q-15 1 -37 2t-48 1.5t-54.5 0.5h-56.5h-25.5t-33 -0.5t-31 -1t-19.5 -0.5l3 51q11 -1 42 -2t70 -2t79 -1h68h26t17 1v-49zM357 200q-29 7 -62.5 9.5t-70.5 2.5q-4 -40 -4.5 -68t-3.5 -58h-60q7 29 11 63t10 64h-27.5t-36.5 -0.5t-36.5 -1t-26.5 -1.5l4 52 q6 -2 41 -2.5t86 -2.5q4 32 4 62t2 61h55q-4 -21 -6 -36.5t-3 -29t-1.5 -27t-2.5 -30.5q38 0 74.5 -0.5t57.5 -5.5l-4 -51v0z" />
<glyph unicode="&#xb2;" horiz-adv-x="286" d="M335 389q21 0 29.5 -5.5t8.5 -13.5q0 -4 -5 -11t-11 -13.5t-12.5 -11.5t-10.5 -7q-6 -2 -12 -1.5t-10 4.5q-3 3 -7.5 4t-15.5 3q-23 2 -55.5 3.5t-87.5 -3.5q-8 -1 -12 1.5t-7 6.5q-2 4 0.5 16.5t11.5 21.5q6 5 15 8.5t23 11t34 22.5t47 43q20 20 27.5 35.5t7.5 23.5 q0 11 -7.5 18.5t-18.5 7.5q-6 0 -10 -2t-8.5 -6.5t-10.5 -12t-15 -18.5q-8 -10 -12.5 -12.5t-10.5 -2.5q-3 0 -8.5 2t-11 5t-10 7t-4.5 7q-1 13 9.5 27.5t27.5 26.5t38.5 19.5t42.5 7.5q11 0 24 -6.5t24 -16t19 -22t8 -24.5q0 -16 -10 -33t-25 -33.5t-32 -31t-29 -25.5 q-7 -8 -9 -11t3 -5q6 -2 12 -3t25 -1h41z" />
<glyph unicode="&#xb3;" horiz-adv-x="286" d="M240 531q-10 0 -26 7.5t-17 14.5q0 6 7.5 15t18.5 15q14 10 36.5 14t45.5 4h1q15 0 27.5 -6t21.5 -14t14 -17.5t5 -15.5q1 -20 -16.5 -34t-38.5 -25q-11 -7 -4 -11q23 -14 36.5 -29.5t14.5 -34.5q1 -21 -13 -37t-34.5 -27.5t-44.5 -17t-43 -5.5q-20 0 -41 7t-33 15 q-15 12 -16 28q0 3 1.5 11.5t5 16t9.5 10t16 -5.5q14 -12 28.5 -20.5t43.5 -8.5q50 0 48 29q0 14 -15 27t-38 14q-6 -1 -10.5 3.5t-7 10.5t-2 12t3.5 8q7 5 21 11t28 13.5t24.5 15.5t10.5 16q-1 8 -6.5 14.5t-19.5 6.5q-7 0 -12.5 -4.5t-10 -10.5t-9 -10.5t-10.5 -4.5z" />
<glyph unicode="&#xb4;" horiz-adv-x="345" d="M279 577q2 -7 -1 -10q-22 -20 -44 -37.5t-45.5 -35.5t-48.5 -38.5t-52 -45.5q-3 -3 -8.5 0t-10 7.5t-7.5 9.5t-2 6q44 44 85.5 87t81.5 87q2 3 4.5 3h3.5q2 0 8.5 -4.5t14 -10t14 -11t7.5 -7.5z" />
<glyph unicode="&#xb5;" horiz-adv-x="601" d="M198 90q-35 -97 -55 -183.5t-18 -161.5q2 -28 8.5 -60.5t23.5 -53.5q4 -5 2.5 -7t-7.5 1q-4 5 -15.5 9.5t-24 8.5t-24.5 7t-18 6q-8 14 -11 30.5t-4 33.5q-1 32 8 77.5t23.5 97t33 106.5t36.5 106q23 67 43 120.5t29 81.5q3 8 8 8q11 0 30.5 1.5t28.5 8.5q8 0 5 -14 q-12 -22 -24.5 -47t-22.5 -52t-16 -56t-5 -60q1 -19 8.5 -33t29.5 -14q47 0 90 68.5t87 191.5q1 7 11 7q6 0 20.5 1.5t25.5 7.5q3 0 6 -1t2 -8q-10 -17 -22.5 -44t-23.5 -58t-18.5 -63t-6.5 -59q1 -15 6 -31t24 -16q11 0 21.5 9t21 23t20.5 32t19 36q2 3 6.5 -1t9.5 -10.5 t10 -13.5t6 -11q-7 -15 -20.5 -35t-32.5 -38t-41 -31t-46 -13q-15 0 -27 6t-20.5 14.5t-13 19t-4.5 19.5q-1 11 0 19t6 22l-2 2q-2 2 -4 -2q-9 -15 -22.5 -32.5t-31 -32t-37.5 -24.5t-41 -10q-31 0 -42.5 17t-12.5 35q0 5 1.5 17.5t3.5 25.5z" />
<glyph unicode="&#xb6;" horiz-adv-x="750" d="M595 370q-21 -2 -38 -10.5t-33 -28t-31 -52t-31 -82.5q-18 3 -33.5 19.5t-38.5 50.5q-10 -10 -16 -15.5t-12 -10.5t-14.5 -10.5t-23.5 -14.5q11 -10 24.5 -25t33.5 -47q17 14 38 29t40 16q-16 -36 -21.5 -59.5t-5.5 -40.5q1 -22 7.5 -35t32.5 -23l122 339v0zM639 404 q64 0 62 27q0 14 -13 30.5t-23 32.5q-5 -23 -11.5 -47.5t-14.5 -42.5zM421 -341q5 0 8 -5q0 -2 -4 -9t-21 -7q-6 0 -13.5 2.5t-15 7.5t-14 12t-8.5 16q-6 -6 -17 -12t-24 -11.5t-27 -8.5t-26 -3q-6 0 -8.5 7t-2.5 12q23 0 42 6.5t38.5 30t41.5 69t51 123.5l46 120 q-46 -3 -71.5 -5t-37.5 -3t-15 -1h-4q-35 0 -66.5 12.5t-55.5 35t-39 53.5t-16 68q-2 59 26.5 103t78 73.5t116 44t139.5 14.5h85q12 30 19 60.5t6 50.5q3 2 9.5 5t13.5 6.5t13 8t9 10.5q6 -3 7 -8q2 -10 12.5 -26t28.5 -46q11 -17 11 -31q1 -21 -28 -41t-80 -23l-230 -649 q-6 -18 -6 -34q1 -14 6 -21t23 -7z" />
<glyph unicode="&#xb7;" horiz-adv-x="330" d="M150 320q14 0 27 -10.5t14 -33.5q1 -21 -13 -37.5t-37 -16.5q-18 0 -30 12t-13 31q-1 25 14 40t38 15z" />
<glyph unicode="&#xb8;" horiz-adv-x="345" d="M204 -5q-11 -5 -24 -16.5t-13 -25.5q0 -9 9.5 -13.5t21 -9.5t21 -12t9.5 -19q0 -14 -14.5 -29.5t-34 -30t-39 -26t-28.5 -16.5q-6 -3 -10 -3q-1 0 -8 3.5t-14.5 8t-14 9.5t-7.5 7t-0.5 4t4.5 3q8 1 24 6t32.5 12.5t29 17t12.5 19.5t-8 16.5t-17.5 12t-17.5 12t-9 18.5 q0 11 8 23.5t19.5 24t23.5 20t19 11.5q2 0 7.5 -3.5t11 -8.5t8 -9.5t-0.5 -5.5z" />
</font>
</defs>
</svg>
