<?xml version="1.0" standalone="no"?>
<!DOCTYPE svg PUBLIC "-//W3C//DTD SVG 1.1//EN" "http://www.w3.org/Graphics/SVG/1.1/DTD/svg11.dtd" >
<svg xmlns="http://www.w3.org/2000/svg" xmlns:xlink="http://www.w3.org/1999/xlink" version="1.1">
<metadata></metadata>
<defs>
<font id="th_charmonmanregular" horiz-adv-x="0" >
<font-face units-per-em="1000" ascent="800" descent="-200" />
<missing-glyph horiz-adv-x="250" />
<glyph unicode="A&#x300;" horiz-adv-x="810" d="M569 647q0 -6 -8.5 -10t-10.5 0q-31 38 -63.5 75t-55.5 74q0 3 3 9t7 11.5t8 10t5 4.5h5.5t5.5 -3q9 -17 18.5 -34.5t21 -38t27 -44.5t37.5 -54zM294 289q5 -12 29.5 -15.5t88.5 -3.5q43 0 70 -3.5t39 -6.5q15 -4 17 0t3 13q1 18 0.5 43t-2 52t-4 54.5t-4 49.5t-3 37.5 t-1.5 18.5q0 2 -2 7t-11 -3q-3 -3 -17 -16.5t-34 -34t-43.5 -46t-47 -51.5t-44 -50.5t-34.5 -44.5zM-5 -41q-6 25 5.5 44.5t35.5 46.5q204 244 328 378.5t162 164.5q9 6 17.5 6.5t21.5 -1.5q12 -2 15 -4t-1 -7q-7 -10 -7.5 -24.5t0.5 -31.5q0 -11 1.5 -44.5t4 -79t5.5 -96.5 t6 -96t5.5 -79t4.5 -45q8 -33 21 -40.5t24 -7.5q7 0 17.5 4.5t18.5 6.5q4 2 8.5 -2t7.5 -9t2.5 -10t-5.5 -7q-4 -1 -16 -6t-27 -10t-31 -10t-29 -7q-21 0 -34 28q1 8 -1 31.5t-5 51t-5.5 52t-4.5 32.5q-4 14 -13 26.5t-36 20.5q-9 3 -40 3t-67 1t-69.5 4t-48.5 11 q-81 -94 -131.5 -166t-73.5 -123q-6 -18 -7 -30t4 -35q-2 -5 -6 -7.5t-6 -0.5z" />
<glyph unicode="A&#x301;" horiz-adv-x="810" d="M781 805q2 -7 -1 -10q-22 -20 -44 -37.5t-45.5 -35.5t-48.5 -38.5t-52 -45.5q-3 -3 -6.5 -2t-6.5 4t-4 6.5t0 4.5q44 44 85.5 87t81.5 87q2 3 4.5 3h3.5q2 0 6.5 -3t10 -6.5t10.5 -7.5t6 -6zM294 289q5 -12 29.5 -15.5t88.5 -3.5q43 0 70 -3.5t39 -6.5q15 -4 17 0t3 13 q1 18 0.5 43t-2 52t-4 54.5t-4 49.5t-3 37.5t-1.5 18.5q0 2 -2 7t-11 -3q-3 -3 -17 -16.5t-34 -34t-43.5 -46t-47 -51.5t-44 -50.5t-34.5 -44.5zM-5 -41q-6 25 5.5 44.5t35.5 46.5q204 244 328 378.5t162 164.5q9 6 17.5 6.5t21.5 -1.5q12 -2 15 -4t-1 -7q-7 -10 -7.5 -24.5 t0.5 -31.5q0 -11 1.5 -44.5t4 -79t5.5 -96.5t6 -96t5.5 -79t4.5 -45q8 -33 21 -40.5t24 -7.5q7 0 17.5 4.5t18.5 6.5q4 2 8.5 -2t7.5 -9t2.5 -10t-5.5 -7q-4 -1 -16 -6t-27 -10t-31 -10t-29 -7q-21 0 -34 28q1 8 -1 31.5t-5 51t-5.5 52t-4.5 32.5q-4 14 -13 26.5t-36 20.5 q-9 3 -40 3t-67 1t-69.5 4t-48.5 11q-81 -94 -131.5 -166t-73.5 -123q-6 -18 -7 -30t4 -35q-2 -5 -6 -7.5t-6 -0.5z" />
<glyph unicode="A&#x303;" horiz-adv-x="810" d="M724 748q2 -18 -2.5 -34.5t-13.5 -29.5t-22.5 -21t-30.5 -8q-21 0 -41.5 11.5t-40 25t-37.5 24.5t-33 11q-11 0 -18 -6t-11.5 -15t-7.5 -19.5t-7 -18.5q-3 -5 -9.5 -7t-13 -1t-11 5.5t-3.5 11.5q2 10 9.5 25t19 29.5t28 25t36.5 10.5q17 0 35.5 -12t37 -26.5t37 -26.5 t35.5 -12t27 17t3 41q-1 3 4 6.5t11 4.5t12 -1t7 -10zM294 289q5 -12 29.5 -15.5t88.5 -3.5q43 0 70 -3.5t39 -6.5q15 -4 17 0t3 13q1 18 0.5 43t-2 52t-4 54.5t-4 49.5t-3 37.5t-1.5 18.5q0 2 -2 7t-11 -3q-3 -3 -17 -16.5t-34 -34t-43.5 -46t-47 -51.5t-44 -50.5 t-34.5 -44.5zM-5 -41q-6 25 5.5 44.5t35.5 46.5q204 244 328 378.5t162 164.5q9 6 17.5 6.5t21.5 -1.5q12 -2 15 -4t-1 -7q-7 -10 -7.5 -24.5t0.5 -31.5q0 -11 1.5 -44.5t4 -79t5.5 -96.5t6 -96t5.5 -79t4.5 -45q8 -33 21 -40.5t24 -7.5q7 0 17.5 4.5t18.5 6.5q4 2 8.5 -2 t7.5 -9t2.5 -10t-5.5 -7q-4 -1 -16 -6t-27 -10t-31 -10t-29 -7q-21 0 -34 28q1 8 -1 31.5t-5 51t-5.5 52t-4.5 32.5q-4 14 -13 26.5t-36 20.5q-9 3 -40 3t-67 1t-69.5 4t-48.5 11q-81 -94 -131.5 -166t-73.5 -123q-6 -18 -7 -30t4 -35q-2 -5 -6 -7.5t-6 -0.5z" />
<glyph unicode="E&#x300;" horiz-adv-x="615" d="M625 113q4 4 7 -5q-4 -4 -7 -12t-5.5 -17t-4 -17t-2.5 -12q-8 -17 -34 -24q-32 -8 -69.5 -14.5t-76.5 -11.5t-78 -8t-73 -3q-54 0 -87.5 5t-52 13.5t-25 20.5t-6.5 25q-1 14 8 47.5t21 71t24 72t17 49.5q1 3 -3.5 4.5t-20.5 1.5q-8 0 -8 5t5.5 15.5t13.5 12.5 q10 2 16 2.5t10 3.5t7 9t7 18q3 9 12 37t18.5 59t16 57t4.5 32q-2 5 -9 5q-41 0 -81 -3t-66 -11l-3 1q-1 6 -0.5 14t2.5 16.5t4.5 15t4.5 8.5q42 -3 88.5 -4.5t88.5 -1.5q14 0 49.5 1.5t78.5 3t87.5 3t75.5 1.5q7 0 9 -8l-4 -12l-6.5 -19.5t-6.5 -21.5t-5 -18l-5 1 q-7 19 -16 23q-45 6 -96.5 9t-100.5 3q-11 0 -17 -3t-10 -11q-14 -24 -24 -47t-18.5 -47t-16.5 -50t-18 -55q-3 -12 11 -12q29 -2 66.5 -2.5t76 1.5t74 6t59.5 11l5 -4q-1 -3 -3.5 -9t-4.5 -13t-3.5 -13.5t-1.5 -9.5q-1 -5 -11 -5q-20 0 -60 0.5t-82.5 0.5h-79.5t-52 -1 q-10 0 -13 -8q-20 -51 -38.5 -105t-16.5 -108q1 -31 24.5 -38t65.5 -7q37 0 89 4.5t104.5 14.5t98.5 26.5t73 40.5zM482 656q0 -6 -8.5 -10t-10.5 0q-31 38 -63.5 75t-55.5 74q0 3 3 9t7 11.5t8 10t5 4.5h5.5t5.5 -3q9 -17 18.5 -34.5t21 -38t27 -44.5t37.5 -54z" />
<glyph unicode="E&#x301;" horiz-adv-x="615" d="M625 113q4 4 7 -5q-4 -4 -7 -12t-5.5 -17t-4 -17t-2.5 -12q-8 -17 -34 -24q-32 -8 -69.5 -14.5t-76.5 -11.5t-78 -8t-73 -3q-54 0 -87.5 5t-52 13.5t-25 20.5t-6.5 25q-1 14 8 47.5t21 71t24 72t17 49.5q1 3 -3.5 4.5t-20.5 1.5q-8 0 -8 5t5.5 15.5t13.5 12.5 q10 2 16 2.5t10 3.5t7 9t7 18q3 9 12 37t18.5 59t16 57t4.5 32q-2 5 -9 5q-41 0 -81 -3t-66 -11l-3 1q-1 6 -0.5 14t2.5 16.5t4.5 15t4.5 8.5q42 -3 88.5 -4.5t88.5 -1.5q14 0 49.5 1.5t78.5 3t87.5 3t75.5 1.5q7 0 9 -8l-4 -12l-6.5 -19.5t-6.5 -21.5t-5 -18l-5 1 q-7 19 -16 23q-45 6 -96.5 9t-100.5 3q-11 0 -17 -3t-10 -11q-14 -24 -24 -47t-18.5 -47t-16.5 -50t-18 -55q-3 -12 11 -12q29 -2 66.5 -2.5t76 1.5t74 6t59.5 11l5 -4q-1 -3 -3.5 -9t-4.5 -13t-3.5 -13.5t-1.5 -9.5q-1 -5 -11 -5q-20 0 -60 0.5t-82.5 0.5h-79.5t-52 -1 q-10 0 -13 -8q-20 -51 -38.5 -105t-16.5 -108q1 -31 24.5 -38t65.5 -7q37 0 89 4.5t104.5 14.5t98.5 26.5t73 40.5zM626 828q2 -7 -1 -10q-22 -20 -44 -37.5t-45.5 -35.5t-48.5 -38.5t-52 -45.5q-3 -3 -6.5 -2t-6.5 4t-4 6.5t0 4.5q44 44 85.5 87t81.5 87q2 3 4.5 3h3.5 q2 0 6.5 -3t10 -6.5t10.5 -7.5t6 -6z" />
<glyph unicode="I&#x300;" horiz-adv-x="331" d="M44 7q23 2 35 20q12 21 29.5 58t37.5 82.5t40 96t37 98t29 88.5t15 68q3 19 -5.5 24.5t-34.5 5.5q-17 0 -37 -1.5t-36 -4.5q-2 10 2 22.5t6 16.5q56 3 105 4t84 7q5 -2 6.5 -11.5t0.5 -14.5q0 -1 -4 -3t-9.5 -4.5t-10 -6t-6.5 -8.5q-20 -51 -41.5 -115.5t-45 -132.5 t-49 -136t-54.5 -126q-8 -17 -17 -25.5t-19.5 -11t-23 -2t-27.5 1.5q-1 1 -3 4zM353 644q0 -6 -8.5 -10t-10.5 0q-31 38 -63.5 75t-55.5 74q0 3 3 9t7 11.5t8 10t5 4.5h5.5t5.5 -3q9 -17 18.5 -34.5t21 -38t27 -44.5t37.5 -54z" />
<glyph unicode="I&#x301;" horiz-adv-x="331" d="M44 7q23 2 35 20q12 21 29.5 58t37.5 82.5t40 96t37 98t29 88.5t15 68q3 19 -5.5 24.5t-34.5 5.5q-17 0 -37 -1.5t-36 -4.5q-2 10 2 22.5t6 16.5q56 3 105 4t84 7q5 -2 6.5 -11.5t0.5 -14.5q0 -1 -4 -3t-9.5 -4.5t-10 -6t-6.5 -8.5q-20 -51 -41.5 -115.5t-45 -132.5 t-49 -136t-54.5 -126q-8 -17 -17 -25.5t-19.5 -11t-23 -2t-27.5 1.5q-1 1 -3 4zM486 813q2 -7 -1 -10q-22 -20 -44 -37.5t-45.5 -35.5t-48.5 -38.5t-52 -45.5q-3 -3 -6.5 -2t-6.5 4t-4 6.5t0 4.5q44 44 85.5 87t81.5 87q2 3 4.5 3h3.5q2 0 6.5 -3t10 -6.5t10.5 -7.5t6 -6z " />
<glyph unicode="O&#x300;" horiz-adv-x="736" d="M698 347q3 -75 -14.5 -140.5t-56 -114t-97.5 -77t-139 -28.5q-60 0 -109 17.5t-85 50.5t-57 82t-23 112q-3 85 18 151t62 111.5t101.5 69t136.5 23.5q56 0 103 -18.5t82 -52.5t55.5 -81.5t22.5 -104.5zM646 337q-1 45 -17 86t-43.5 73t-64.5 51t-81 19 q-72 0 -124.5 -23.5t-85.5 -66t-48 -101.5t-12 -130q2 -46 20 -85.5t47.5 -68.5t66 -46t75.5 -17q70 0 121 23t84.5 64.5t48.5 98t13 123.5zM527 664q0 -6 -8.5 -10t-10.5 0q-31 38 -63.5 75t-55.5 74q0 3 3 9t7 11.5t8 10t5 4.5h5.5t5.5 -3q9 -17 18.5 -34.5t21 -38 t27 -44.5t37.5 -54z" />
<glyph unicode="O&#x301;" horiz-adv-x="736" d="M698 347q3 -75 -14.5 -140.5t-56 -114t-97.5 -77t-139 -28.5q-60 0 -109 17.5t-85 50.5t-57 82t-23 112q-3 85 18 151t62 111.5t101.5 69t136.5 23.5q56 0 103 -18.5t82 -52.5t55.5 -81.5t22.5 -104.5zM646 337q-1 45 -17 86t-43.5 73t-64.5 51t-81 19 q-72 0 -124.5 -23.5t-85.5 -66t-48 -101.5t-12 -130q2 -46 20 -85.5t47.5 -68.5t66 -46t75.5 -17q70 0 121 23t84.5 64.5t48.5 98t13 123.5zM649 820q2 -7 -1 -10q-22 -20 -44 -37.5t-45.5 -35.5t-48.5 -38.5t-52 -45.5q-3 -3 -6.5 -2t-6.5 4t-4 6.5t0 4.5q44 44 85.5 87 t81.5 87q2 3 4.5 3h3.5q2 0 6.5 -3t10 -6.5t10.5 -7.5t6 -6z" />
<glyph unicode="O&#x303;" horiz-adv-x="736" d="M698 347q3 -75 -14.5 -140.5t-56 -114t-97.5 -77t-139 -28.5q-60 0 -109 17.5t-85 50.5t-57 82t-23 112q-3 85 18 151t62 111.5t101.5 69t136.5 23.5q56 0 103 -18.5t82 -52.5t55.5 -81.5t22.5 -104.5zM646 337q-1 45 -17 86t-43.5 73t-64.5 51t-81 19 q-72 0 -124.5 -23.5t-85.5 -66t-48 -101.5t-12 -130q2 -46 20 -85.5t47.5 -68.5t66 -46t75.5 -17q70 0 121 23t84.5 64.5t48.5 98t13 123.5zM643 757q2 -18 -2.5 -34.5t-13.5 -29.5t-22.5 -21t-30.5 -8q-21 0 -41.5 11.5t-40 25t-37.5 24.5t-33 11q-11 0 -18 -6t-11.5 -15 t-7.5 -19.5t-7 -18.5q-3 -5 -9.5 -7t-13 -1t-11 5.5t-3.5 11.5q2 10 9.5 25t19 29.5t28 25t36.5 10.5q17 0 35.5 -12t37 -26.5t37 -26.5t35.5 -12t27 17t3 41q-1 3 4 6.5t11 4.5t12 -1t7 -10z" />
<glyph unicode="U&#x300;" horiz-adv-x="803" d="M811 573q-5 -1 -16 -4.5t-16 -11.5q-30 -45 -59.5 -105.5t-52.5 -125t-37 -127t-13 -112.5q2 -38 20.5 -50.5t58.5 -12.5q17 0 35 6t32.5 12.5t24.5 12.5t11 6q4 0 8.5 -5.5t7.5 -12t4 -12.5t-3 -8q-35 -18 -68 -31t-76 -13q-32 0 -52.5 8t-32.5 20.5t-17 28.5t-6 31 q0 17 3 34.5t6.5 32t7 24t3.5 10.5q-3 3 -5 3q-36 -54 -69.5 -90t-68 -57.5t-73.5 -30t-86 -8.5q-29 0 -56 8t-48 25.5t-34 43.5t-15 62q-1 42 17 95t42 107t47 104t31 85q3 14 -1 21t-21 7h-76q-5 0 -8.5 6.5t-4.5 15t0.5 15t7.5 6.5q97 0 154.5 3.5t61.5 3.5q2 0 3 -4.5 t2 -10.5t1.5 -11t0.5 -6q-1 -6 -4 -6.5t-7 -1.5q-11 -3 -24.5 -5t-20.5 -16q-11 -23 -26 -55t-31 -69t-32 -76t-28 -75t-19.5 -66t-6.5 -49q2 -54 30 -81t96 -27q47 0 90 25.5t81.5 67.5t71 96t60 110.5t49.5 111t37 98.5q5 15 12.5 24.5t23.5 17.5q5 1 15 4.5l20 7t19 6 t13 2.5q3 0 6 -5t4 -11t0.5 -11t-4.5 -5zM593 662q0 -6 -8.5 -10t-10.5 0q-31 38 -63.5 75t-55.5 74q0 3 3 9t7 11.5t8 10t5 4.5h5.5t5.5 -3q9 -17 18.5 -34.5t21 -38t27 -44.5t37.5 -54z" />
<glyph unicode="U&#x301;" horiz-adv-x="803" d="M811 573q-5 -1 -16 -4.5t-16 -11.5q-30 -45 -59.5 -105.5t-52.5 -125t-37 -127t-13 -112.5q2 -38 20.5 -50.5t58.5 -12.5q17 0 35 6t32.5 12.5t24.5 12.5t11 6q4 0 8.5 -5.5t7.5 -12t4 -12.5t-3 -8q-35 -18 -68 -31t-76 -13q-32 0 -52.5 8t-32.5 20.5t-17 28.5t-6 31 q0 17 3 34.5t6.5 32t7 24t3.5 10.5q-3 3 -5 3q-36 -54 -69.5 -90t-68 -57.5t-73.5 -30t-86 -8.5q-29 0 -56 8t-48 25.5t-34 43.5t-15 62q-1 42 17 95t42 107t47 104t31 85q3 14 -1 21t-21 7h-76q-5 0 -8.5 6.5t-4.5 15t0.5 15t7.5 6.5q97 0 154.5 3.5t61.5 3.5q2 0 3 -4.5 t2 -10.5t1.5 -11t0.5 -6q-1 -6 -4 -6.5t-7 -1.5q-11 -3 -24.5 -5t-20.5 -16q-11 -23 -26 -55t-31 -69t-32 -76t-28 -75t-19.5 -66t-6.5 -49q2 -54 30 -81t96 -27q47 0 90 25.5t81.5 67.5t71 96t60 110.5t49.5 111t37 98.5q5 15 12.5 24.5t23.5 17.5q5 1 15 4.5l20 7t19 6 t13 2.5q3 0 6 -5t4 -11t0.5 -11t-4.5 -5zM709 806q2 -7 -1 -10q-22 -20 -44 -37.5t-45.5 -35.5t-48.5 -38.5t-52 -45.5q-3 -3 -6.5 -2t-6.5 4t-4 6.5t0 4.5q44 44 85.5 87t81.5 87q2 3 4.5 3h3.5q2 0 6.5 -3t10 -6.5t10.5 -7.5t6 -6z" />
<glyph unicode="Y&#x301;" horiz-adv-x="542" d="M837 592q0 -1 -1.5 -5t-4.5 -7.5t-5.5 -6.5t-3.5 -2q-3 1 -17.5 8t-30.5 3q-68 -15 -128.5 -49.5t-112.5 -82t-94 -104t-71.5 -115t-45.5 -115.5t-16 -105q0 -5 -2.5 -9t-13.5 -2q-15 2 -25 2.5t-17.5 -1t-14 -5t-16.5 -8.5q-4 -2 -10.5 5t-4.5 12q18 21 36.5 57.5 t33 79.5t23 87.5t7.5 81.5q-1 42 -13 84t-33.5 75t-54 53.5t-76.5 20.5q-39 0 -70.5 -21t-54.5 -54q-1 -3 -6.5 -2.5t-11 2.5t-10 6.5t-2.5 9.5q27 52 70 81.5t106 29.5q58 0 95.5 -27.5t59.5 -69.5t31.5 -92t11.5 -95q0 -6 5 -9t7 1q34 47 80 104t99 107.5t111.5 84.5 t117.5 34q8 0 19 -5t21.5 -11.5t19.5 -13.5t13 -12zM648 817q2 -7 -1 -10q-22 -20 -44 -37.5t-45.5 -35.5t-48.5 -38.5t-52 -45.5q-3 -3 -6.5 -2t-6.5 4t-4 6.5t0 4.5q44 44 85.5 87t81.5 87q2 3 4.5 3h3.5q2 0 6.5 -3t10 -6.5t10.5 -7.5t6 -6z" />
<glyph unicode="a&#x300;" horiz-adv-x="428" d="M545 204q-25 -43 -57 -82t-67 -68t-72 -46.5t-72 -17.5q-33 0 -48 16.5t-16 37.5q0 7 1 22.5t7 31.5q-28 -48 -62.5 -75.5t-72.5 -27.5q-10 0 -21 7.5t-20 19.5t-15.5 26t-6.5 26q-2 52 16.5 99t54 82.5t85 56.5t109.5 21q3 15 7.5 19.5t10.5 7.5l39 12l3 -1 q-7 -8 -9.5 -17.5t-8.5 -21.5q6 0 15.5 -1.5t18 -4t15.5 -5.5t8 -7q0 -1 -2 -6t-4.5 -10.5t-5 -10t-3.5 -4.5q-9 5 -26.5 11t-26.5 6q-19 -53 -30.5 -89.5t-18.5 -63.5t-9 -46.5t-2 -38.5q2 -26 9.5 -32.5t25.5 -6.5q20 0 49 15.5t61 42t63 62.5t53 76q2 3 4 3t10.5 -8 t10.5 -10zM277 304q-48 0 -86 -22t-63.5 -55t-38 -71.5t-11.5 -71.5q1 -21 7 -36t15 -15q11 0 26.5 9.5t33.5 27t36 43t33 56.5q14 36 24.5 69t24.5 64zM340 419q0 -6 -8.5 -10t-10.5 0q-31 38 -63.5 75t-55.5 74q0 3 3 9t7 11.5t8 10t5 4.5h5.5t5.5 -3q9 -17 18.5 -34.5 t21 -38t27 -44.5t37.5 -54z" />
<glyph unicode="a&#x301;" horiz-adv-x="428" d="M545 204q-25 -43 -57 -82t-67 -68t-72 -46.5t-72 -17.5q-33 0 -48 16.5t-16 37.5q0 7 1 22.5t7 31.5q-28 -48 -62.5 -75.5t-72.5 -27.5q-10 0 -21 7.5t-20 19.5t-15.5 26t-6.5 26q-2 52 16.5 99t54 82.5t85 56.5t109.5 21q3 15 7.5 19.5t10.5 7.5l39 12l3 -1 q-7 -8 -9.5 -17.5t-8.5 -21.5q6 0 15.5 -1.5t18 -4t15.5 -5.5t8 -7q0 -1 -2 -6t-4.5 -10.5t-5 -10t-3.5 -4.5q-9 5 -26.5 11t-26.5 6q-19 -53 -30.5 -89.5t-18.5 -63.5t-9 -46.5t-2 -38.5q2 -26 9.5 -32.5t25.5 -6.5q20 0 49 15.5t61 42t63 62.5t53 76q2 3 4 3t10.5 -8 t10.5 -10zM277 304q-48 0 -86 -22t-63.5 -55t-38 -71.5t-11.5 -71.5q1 -21 7 -36t15 -15q11 0 26.5 9.5t33.5 27t36 43t33 56.5q14 36 24.5 69t24.5 64zM418 577q2 -7 -1 -10q-22 -20 -44 -37.5t-45.5 -35.5t-48.5 -38.5t-52 -45.5q-3 -3 -6.5 -2t-6.5 4t-4 6.5t0 4.5 q44 44 85.5 87t81.5 87q2 3 4.5 3h3.5q2 0 6.5 -3t10 -6.5t10.5 -7.5t6 -6z" />
<glyph unicode="a&#x303;" horiz-adv-x="428" d="M545 204q-25 -43 -57 -82t-67 -68t-72 -46.5t-72 -17.5q-33 0 -48 16.5t-16 37.5q0 7 1 22.5t7 31.5q-28 -48 -62.5 -75.5t-72.5 -27.5q-10 0 -21 7.5t-20 19.5t-15.5 26t-6.5 26q-2 52 16.5 99t54 82.5t85 56.5t109.5 21q3 15 7.5 19.5t10.5 7.5l39 12l3 -1 q-7 -8 -9.5 -17.5t-8.5 -21.5q6 0 15.5 -1.5t18 -4t15.5 -5.5t8 -7q0 -1 -2 -6t-4.5 -10.5t-5 -10t-3.5 -4.5q-9 5 -26.5 11t-26.5 6q-19 -53 -30.5 -89.5t-18.5 -63.5t-9 -46.5t-2 -38.5q2 -26 9.5 -32.5t25.5 -6.5q20 0 49 15.5t61 42t63 62.5t53 76q2 3 4 3t10.5 -8 t10.5 -10zM277 304q-48 0 -86 -22t-63.5 -55t-38 -71.5t-11.5 -71.5q1 -21 7 -36t15 -15q11 0 26.5 9.5t33.5 27t36 43t33 56.5q14 36 24.5 69t24.5 64zM403 536q2 -18 -2.5 -34.5t-13.5 -29.5t-22.5 -21t-30.5 -8q-21 0 -41.5 11.5t-40 25t-37.5 24.5t-33 11q-11 0 -18 -6 t-11.5 -15t-7.5 -19.5t-7 -18.5q-3 -5 -9.5 -7t-13 -1t-11 5.5t-3.5 11.5q2 10 9.5 25t19 29.5t28 25t36.5 10.5q17 0 35.5 -12t37 -26.5t37 -26.5t35.5 -12t27 17t3 41q-1 3 4 6.5t11 4.5t12 -1t7 -10z" />
<glyph unicode="e&#x300;" horiz-adv-x="308" d="M112 176q-2 -11 -6.5 -33t-3.5 -47q2 -37 16.5 -51t49.5 -14q34 0 67 16t62 40t52 52.5t36 53.5q3 3 13 -3.5t11 -10.5q-18 -32 -45 -65.5t-61.5 -61.5t-74.5 -45.5t-83 -17.5q-35 0 -62.5 26t-29.5 71q-1 41 10.5 84t33 78.5t53.5 58.5t71 23q23 0 37 -12t16 -40 q2 -43 -38 -72.5t-124 -29.5zM117 204q4 -1 11.5 -2t12.5 -1q15 0 32 5t30.5 14.5t22 22.5t8.5 28q0 10 -5 17t-20 7q-30 0 -55.5 -25.5t-36.5 -65.5zM330 419q0 -6 -8.5 -10t-10.5 0q-31 38 -63.5 75t-55.5 74q0 3 3 9t7 11.5t8 10t5 4.5h5.5t5.5 -3q9 -17 18.5 -34.5 t21 -38t27 -44.5t37.5 -54z" />
<glyph unicode="e&#x301;" horiz-adv-x="308" d="M112 176q-2 -11 -6.5 -33t-3.5 -47q2 -37 16.5 -51t49.5 -14q34 0 67 16t62 40t52 52.5t36 53.5q3 3 13 -3.5t11 -10.5q-18 -32 -45 -65.5t-61.5 -61.5t-74.5 -45.5t-83 -17.5q-35 0 -62.5 26t-29.5 71q-1 41 10.5 84t33 78.5t53.5 58.5t71 23q23 0 37 -12t16 -40 q2 -43 -38 -72.5t-124 -29.5zM117 204q4 -1 11.5 -2t12.5 -1q15 0 32 5t30.5 14.5t22 22.5t8.5 28q0 10 -5 17t-20 7q-30 0 -55.5 -25.5t-36.5 -65.5zM418 577q2 -7 -1 -10q-22 -20 -44 -37.5t-45.5 -35.5t-48.5 -38.5t-52 -45.5q-3 -3 -6.5 -2t-6.5 4t-4 6.5t0 4.5 q44 44 85.5 87t81.5 87q2 3 4.5 3h3.5q2 0 6.5 -3t10 -6.5t10.5 -7.5t6 -6z" />
<glyph unicode="i&#x300;" horiz-adv-x="272" d="M375 197q-25 -48 -61.5 -89.5t-71.5 -66.5q-52 -41 -107 -41q-10 0 -22.5 2t-24 7t-20.5 15.5t-12 26.5q-4 19 2.5 53t18 70.5t25 69t21.5 49.5q7 12 23 20t22 8t12 -8.5t3 -13.5q-19 -34 -33 -67.5t-23 -63t-11.5 -53.5t1.5 -39q7 -35 42 -35q29 0 57.5 17t53.5 42 t45.5 53.5t32.5 50.5q2 4 7 5t9.5 -0.5t8 -5t2.5 -6.5zM221 419q0 -6 -8.5 -10t-10.5 0q-31 38 -63.5 75t-55.5 74q0 3 3 9t7 11.5t8 10t5 4.5h5.5t5.5 -3q9 -17 18.5 -34.5t21 -38t27 -44.5t37.5 -54z" />
<glyph unicode="i&#x301;" horiz-adv-x="272" d="M375 197q-25 -48 -61.5 -89.5t-71.5 -66.5q-52 -41 -107 -41q-10 0 -22.5 2t-24 7t-20.5 15.5t-12 26.5q-4 19 2.5 53t18 70.5t25 69t21.5 49.5q7 12 23 20t22 8t12 -8.5t3 -13.5q-19 -34 -33 -67.5t-23 -63t-11.5 -53.5t1.5 -39q7 -35 42 -35q29 0 57.5 17t53.5 42 t45.5 53.5t32.5 50.5q2 4 7 5t9.5 -0.5t8 -5t2.5 -6.5zM279 577q2 -7 -1 -10q-22 -20 -44 -37.5t-45.5 -35.5t-48.5 -38.5t-52 -45.5q-3 -3 -6.5 -2t-6.5 4t-4 6.5t0 4.5q44 44 85.5 87t81.5 87q2 3 4.5 3h3.5q2 0 6.5 -3t10 -6.5t10.5 -7.5t6 -6z" />
<glyph unicode="o&#x300;" horiz-adv-x="381" d="M523 256q-9 -17 -22.5 -33t-30.5 -29t-37.5 -20.5t-44.5 -7.5q-25 0 -51 10t-46 35q-4 -30 -14 -68t-28.5 -72t-47.5 -57.5t-71 -23.5q-39 0 -59.5 26t-21.5 60q-2 48 12.5 92.5t41.5 79t63 56.5t78 23q2 12 4 27.5t16 18.5q7 2 14.5 3.5t12.5 4.5q3 3 8.5 0.5t3.5 -8.5 q-3 -8 -5.5 -20.5t-1.5 -25.5q1 -25 7 -48t17.5 -41t29 -29t41.5 -11q15 0 30 6t29.5 16t26.5 23.5t20 28.5q1 3 6.5 2t10.5 -4t8.5 -7t0.5 -7zM259 262q-1 3 -2 5t-1.5 4.5t-2 6.5t-3.5 13q0 7 -6 7q-27 0 -52 -20.5t-44.5 -51t-30.5 -67t-10 -68.5q0 -7 2 -17.5t5.5 -19.5 t10 -15.5t16.5 -6.5q26 0 48.5 28t38.5 66t24.5 76.5t6.5 59.5zM355 419q0 -6 -8.5 -10t-10.5 0q-31 38 -63.5 75t-55.5 74q0 3 3 9t7 11.5t8 10t5 4.5h5.5t5.5 -3q9 -17 18.5 -34.5t21 -38t27 -44.5t37.5 -54z" />
<glyph unicode="o&#x301;" horiz-adv-x="381" d="M523 256q-9 -17 -22.5 -33t-30.5 -29t-37.5 -20.5t-44.5 -7.5q-25 0 -51 10t-46 35q-4 -30 -14 -68t-28.5 -72t-47.5 -57.5t-71 -23.5q-39 0 -59.5 26t-21.5 60q-2 48 12.5 92.5t41.5 79t63 56.5t78 23q2 12 4 27.5t16 18.5q7 2 14.5 3.5t12.5 4.5q3 3 8.5 0.5t3.5 -8.5 q-3 -8 -5.5 -20.5t-1.5 -25.5q1 -25 7 -48t17.5 -41t29 -29t41.5 -11q15 0 30 6t29.5 16t26.5 23.5t20 28.5q1 3 6.5 2t10.5 -4t8.5 -7t0.5 -7zM259 262q-1 3 -2 5t-1.5 4.5t-2 6.5t-3.5 13q0 7 -6 7q-27 0 -52 -20.5t-44.5 -51t-30.5 -67t-10 -68.5q0 -7 2 -17.5t5.5 -19.5 t10 -15.5t16.5 -6.5q26 0 48.5 28t38.5 66t24.5 76.5t6.5 59.5zM413 577q2 -7 -1 -10q-22 -20 -44 -37.5t-45.5 -35.5t-48.5 -38.5t-52 -45.5q-3 -3 -6.5 -2t-6.5 4t-4 6.5t0 4.5q44 44 85.5 87t81.5 87q2 3 4.5 3h3.5q2 0 6.5 -3t10 -6.5t10.5 -7.5t6 -6z" />
<glyph unicode="o&#x303;" horiz-adv-x="381" d="M523 256q-9 -17 -22.5 -33t-30.5 -29t-37.5 -20.5t-44.5 -7.5q-25 0 -51 10t-46 35q-4 -30 -14 -68t-28.5 -72t-47.5 -57.5t-71 -23.5q-39 0 -59.5 26t-21.5 60q-2 48 12.5 92.5t41.5 79t63 56.5t78 23q2 12 4 27.5t16 18.5q7 2 14.5 3.5t12.5 4.5q3 3 8.5 0.5t3.5 -8.5 q-3 -8 -5.5 -20.5t-1.5 -25.5q1 -25 7 -48t17.5 -41t29 -29t41.5 -11q15 0 30 6t29.5 16t26.5 23.5t20 28.5q1 3 6.5 2t10.5 -4t8.5 -7t0.5 -7zM259 262q-1 3 -2 5t-1.5 4.5t-2 6.5t-3.5 13q0 7 -6 7q-27 0 -52 -20.5t-44.5 -51t-30.5 -67t-10 -68.5q0 -7 2 -17.5t5.5 -19.5 t10 -15.5t16.5 -6.5q26 0 48.5 28t38.5 66t24.5 76.5t6.5 59.5zM418 536q2 -18 -2.5 -34.5t-13.5 -29.5t-22.5 -21t-30.5 -8q-21 0 -41.5 11.5t-40 25t-37.5 24.5t-33 11q-11 0 -18 -6t-11.5 -15t-7.5 -19.5t-7 -18.5q-3 -5 -9.5 -7t-13 -1t-11 5.5t-3.5 11.5q2 10 9.5 25 t19 29.5t28 25t36.5 10.5q17 0 35.5 -12t37 -26.5t37 -26.5t35.5 -12t27 17t3 41q-1 3 4 6.5t11 4.5t12 -1t7 -10z" />
<glyph unicode="u&#x300;" horiz-adv-x="386" d="M498 192q-18 -36 -42.5 -72t-54 -65t-62.5 -47t-68 -18q-36 0 -53 20.5t-19 49.5v12t1 12q-5 -10 -15 -24.5t-23.5 -28t-29.5 -22.5t-33 -9q-37 0 -50 41q-1 12 1 31.5t10.5 52t23 80t36.5 115.5q5 15 11 15q3 0 9.5 -3.5t13 -8t11.5 -9.5t5 -9t-6 -18q-15 -36 -27 -70.5 t-21 -63.5t-14 -52.5t-5 -37.5q4 -11 11 -15t15 -4t19.5 11.5t25 30.5t27 44t24.5 52q8 24 14.5 42.5t11.5 33t9.5 26.5t8.5 24q3 10 8 10t12 -7t12.5 -17.5t8 -21.5t-0.5 -20q-11 -22 -22.5 -42t-21.5 -40t-15.5 -43t-4.5 -53q1 -23 11 -34t25 -11q16 0 38.5 10t48.5 31.5 t53.5 55.5t52.5 82q2 1 6.5 -0.5t9.5 -4t9 -5.5t5 -6zM332 419q0 -6 -8.5 -10t-10.5 0q-31 38 -63.5 75t-55.5 74q0 3 3 9t7 11.5t8 10t5 4.5h5.5t5.5 -3q9 -17 18.5 -34.5t21 -38t27 -44.5t37.5 -54z" />
<glyph unicode="u&#x301;" horiz-adv-x="386" d="M498 192q-18 -36 -42.5 -72t-54 -65t-62.5 -47t-68 -18q-36 0 -53 20.5t-19 49.5v12t1 12q-5 -10 -15 -24.5t-23.5 -28t-29.5 -22.5t-33 -9q-37 0 -50 41q-1 12 1 31.5t10.5 52t23 80t36.5 115.5q5 15 11 15q3 0 9.5 -3.5t13 -8t11.5 -9.5t5 -9t-6 -18q-15 -36 -27 -70.5 t-21 -63.5t-14 -52.5t-5 -37.5q4 -11 11 -15t15 -4t19.5 11.5t25 30.5t27 44t24.5 52q8 24 14.5 42.5t11.5 33t9.5 26.5t8.5 24q3 10 8 10t12 -7t12.5 -17.5t8 -21.5t-0.5 -20q-11 -22 -22.5 -42t-21.5 -40t-15.5 -43t-4.5 -53q1 -23 11 -34t25 -11q16 0 38.5 10t48.5 31.5 t53.5 55.5t52.5 82q2 1 6.5 -0.5t9.5 -4t9 -5.5t5 -6zM437 577q2 -7 -1 -10q-22 -20 -44 -37.5t-45.5 -35.5t-48.5 -38.5t-52 -45.5q-3 -3 -6.5 -2t-6.5 4t-4 6.5t0 4.5q44 44 85.5 87t81.5 87q2 3 4.5 3h3.5q2 0 6.5 -3t10 -6.5t10.5 -7.5t6 -6z" />
<glyph unicode="y&#x301;" horiz-adv-x="348" d="M88 0q-26 0 -40 16t-15 37q-1 16 4.5 44.5t15.5 63.5t24 73.5t29 75.5q2 8 6 11.5t7 6.5q8 2 23 2.5t18 0.5q6 0 6 -6q-16 -38 -31.5 -79t-28.5 -76.5t-20.5 -63t-7.5 -38.5q1 -11 6 -19.5t22 -8.5q9 0 23.5 9t28.5 21t26.5 25t18.5 20q10 13 21 49.5t33 103.5 q11 33 20 55t19 22q10 -3 22.5 -15t14.5 -24q-21 -57 -47.5 -118.5t-46.5 -118.5q-15 -43 -35.5 -96.5t-48 -108t-63 -106.5t-81.5 -92t-103.5 -64.5t-128.5 -24.5q-51 0 -87.5 17.5t-58 44t-28.5 58t0 60.5q15 -55 52.5 -88t108.5 -33q73 0 133 22t110.5 71t93.5 126 t81 188q3 6 0 4.5t-4 -2.5q-14 -14 -38 -29.5t-54 -15.5zM390 577q2 -7 -1 -10q-22 -20 -44 -37.5t-45.5 -35.5t-48.5 -38.5t-52 -45.5q-3 -3 -6.5 -2t-6.5 4t-4 6.5t0 4.5q44 44 85.5 87t81.5 87q2 3 4.5 3h3.5q2 0 6.5 -3t10 -6.5t10.5 -7.5t6 -6z" />
<glyph unicode="I&#x303;" horiz-adv-x="331" d="M44 7q23 2 35 20q12 21 29.5 58t37.5 82.5t40 96t37 98t29 88.5t15 68q3 19 -5.5 24.5t-34.5 5.5q-17 0 -37 -1.5t-36 -4.5q-2 10 2 22.5t6 16.5q56 3 105 4t84 7q5 -2 6.5 -11.5t0.5 -14.5q0 -1 -4 -3t-9.5 -4.5t-10 -6t-6.5 -8.5q-20 -51 -41.5 -115.5t-45 -132.5 t-49 -136t-54.5 -126q-8 -17 -17 -25.5t-19.5 -11t-23 -2t-27.5 1.5q-1 1 -3 4zM466 750q2 -18 -2.5 -34.5t-13.5 -29.5t-22.5 -21t-30.5 -8q-21 0 -41.5 11.5t-40 25t-37.5 24.5t-33 11q-11 0 -18 -6t-11.5 -15t-7.5 -19.5t-7 -18.5q-3 -5 -9.5 -7t-13 -1t-11 5.5 t-3.5 11.5q2 10 9.5 25t19 29.5t28 25t36.5 10.5q17 0 35.5 -12t37 -26.5t37 -26.5t35.5 -12t27 17t3 41q-1 3 4 6.5t11 4.5t12 -1t7 -10z" />
<glyph unicode="i&#x303;" horiz-adv-x="272" d="M375 197q-25 -48 -61.5 -89.5t-71.5 -66.5q-52 -41 -107 -41q-10 0 -22.5 2t-24 7t-20.5 15.5t-12 26.5q-4 19 2.5 53t18 70.5t25 69t21.5 49.5q7 12 23 20t22 8t12 -8.5t3 -13.5q-19 -34 -33 -67.5t-23 -63t-11.5 -53.5t1.5 -39q7 -35 42 -35q29 0 57.5 17t53.5 42 t45.5 53.5t32.5 50.5q2 4 7 5t9.5 -0.5t8 -5t2.5 -6.5zM314 536q2 -18 -2.5 -34.5t-13.5 -29.5t-22.5 -21t-30.5 -8q-21 0 -41.5 11.5t-40 25t-37.5 24.5t-33 11q-11 0 -18 -6t-11.5 -15t-7.5 -19.5t-7 -18.5q-3 -5 -9.5 -7t-13 -1t-11 5.5t-3.5 11.5q2 10 9.5 25t19 29.5 t28 25t36.5 10.5q17 0 35.5 -12t37 -26.5t37 -26.5t35.5 -12t27 17t3 41q-1 3 4 6.5t11 4.5t12 -1t7 -10z" />
<glyph unicode="U&#x303;" horiz-adv-x="803" d="M811 573q-5 -1 -16 -4.5t-16 -11.5q-30 -45 -59.5 -105.5t-52.5 -125t-37 -127t-13 -112.5q2 -38 20.5 -50.5t58.5 -12.5q17 0 35 6t32.5 12.5t24.5 12.5t11 6q4 0 8.5 -5.5t7.5 -12t4 -12.5t-3 -8q-35 -18 -68 -31t-76 -13q-32 0 -52.5 8t-32.5 20.5t-17 28.5t-6 31 q0 17 3 34.5t6.5 32t7 24t3.5 10.5q-3 3 -5 3q-36 -54 -69.5 -90t-68 -57.5t-73.5 -30t-86 -8.5q-29 0 -56 8t-48 25.5t-34 43.5t-15 62q-1 42 17 95t42 107t47 104t31 85q3 14 -1 21t-21 7h-76q-5 0 -8.5 6.5t-4.5 15t0.5 15t7.5 6.5q97 0 154.5 3.5t61.5 3.5q2 0 3 -4.5 t2 -10.5t1.5 -11t0.5 -6q-1 -6 -4 -6.5t-7 -1.5q-11 -3 -24.5 -5t-20.5 -16q-11 -23 -26 -55t-31 -69t-32 -76t-28 -75t-19.5 -66t-6.5 -49q2 -54 30 -81t96 -27q47 0 90 25.5t81.5 67.5t71 96t60 110.5t49.5 111t37 98.5q5 15 12.5 24.5t23.5 17.5q5 1 15 4.5l20 7t19 6 t13 2.5q3 0 6 -5t4 -11t0.5 -11t-4.5 -5zM724 750q2 -18 -2.5 -34.5t-13.5 -29.5t-22.5 -21t-30.5 -8q-21 0 -41.5 11.5t-40 25t-37.5 24.5t-33 11q-11 0 -18 -6t-11.5 -15t-7.5 -19.5t-7 -18.5q-3 -5 -9.5 -7t-13 -1t-11 5.5t-3.5 11.5q2 10 9.5 25t19 29.5t28 25 t36.5 10.5q17 0 35.5 -12t37 -26.5t37 -26.5t35.5 -12t27 17t3 41q-1 3 4 6.5t11 4.5t12 -1t7 -10z" />
<glyph unicode="u&#x303;" horiz-adv-x="386" d="M498 192q-18 -36 -42.5 -72t-54 -65t-62.5 -47t-68 -18q-36 0 -53 20.5t-19 49.5v12t1 12q-5 -10 -15 -24.5t-23.5 -28t-29.5 -22.5t-33 -9q-37 0 -50 41q-1 12 1 31.5t10.5 52t23 80t36.5 115.5q5 15 11 15q3 0 9.5 -3.5t13 -8t11.5 -9.5t5 -9t-6 -18q-15 -36 -27 -70.5 t-21 -63.5t-14 -52.5t-5 -37.5q4 -11 11 -15t15 -4t19.5 11.5t25 30.5t27 44t24.5 52q8 24 14.5 42.5t11.5 33t9.5 26.5t8.5 24q3 10 8 10t12 -7t12.5 -17.5t8 -21.5t-0.5 -20q-11 -22 -22.5 -42t-21.5 -40t-15.5 -43t-4.5 -53q1 -23 11 -34t25 -11q16 0 38.5 10t48.5 31.5 t53.5 55.5t52.5 82q2 1 6.5 -0.5t9.5 -4t9 -5.5t5 -6zM449 536q2 -18 -2.5 -34.5t-13.5 -29.5t-22.5 -21t-30.5 -8q-21 0 -41.5 11.5t-40 25t-37.5 24.5t-33 11q-11 0 -18 -6t-11.5 -15t-7.5 -19.5t-7 -18.5q-3 -5 -9.5 -7t-13 -1t-11 5.5t-3.5 11.5q2 10 9.5 25t19 29.5 t28 25t36.5 10.5q17 0 35.5 -12t37 -26.5t37 -26.5t35.5 -12t27 17t3 41q-1 3 4 6.5t11 4.5t12 -1t7 -10z" />
<glyph unicode="&#xe2f;&#xe2f;" horiz-adv-x="378" d="M315 380q7 1 14 1q6 0 12 -0.5t11 -2.5q-1 -10 -4.5 -35t-9 -60t-13.5 -76.5t-18 -83.5q-24 -106 -79.5 -172t-128 -99.5t-157 -37t-167.5 14.5q129 4 215.5 29t142.5 65t86.5 91.5t47.5 109.5q6 21 12 45.5t11 50l10 51t8 47.5q-6 -14 -19.5 -21.5t-26.5 -9.5 q-6 -36 -17.5 -78t-28.5 -84q-39 -93 -106 -147.5t-149.5 -80t-175 -27.5t-183.5 11q137 7 233.5 26t163 50t108.5 73.5t69 95.5q29 55 40 100t15 80q-22 -51 -60 -77t-76 -26q-21 0 -36 6.5t-24 17t-13 24t-4 26.5q0 22 8.5 42.5t22.5 37t32.5 26.5t38.5 10q13 0 21.5 -7.5 t8.5 -24.5q0 -16 -9.5 -36t-26.5 -33q-8 -6 -23 -10.5t-25 0.5q33 20 42.5 42t9.5 35q0 3 -3 4.5t-5 1.5q-5 0 -14.5 -6t-19 -17t-16.5 -26.5t-7 -35.5t9 -33t29 -13q28 0 51 13t41 34t31.5 47t22.5 52q7 1 14 1q6 0 12 -0.5t11 -2.5q-1 -8 -2.5 -24t-4.5 -38q16 7 25.5 17 t14.5 19.5t6.5 17t1.5 10.5z" />
<glyph unicode="A&#x323;" horiz-adv-x="810" d="M314 -77q12 0 23 -8t11 -28q1 -14 -10 -25.5t-25 -11.5q-13 0 -23 9.5t-10 25.5q-1 14 7.5 26t26.5 12zM294 289q5 -12 29.5 -15.5t88.5 -3.5q43 0 70 -3.5t39 -6.5q15 -4 17 0t3 13q1 18 0.5 43t-2 52t-4 54.5t-4 49.5t-3 37.5t-1.5 18.5q0 2 -2 7t-11 -3 q-3 -3 -17 -16.5t-34 -34t-43.5 -46t-47 -51.5t-44 -50.5t-34.5 -44.5zM-5 -41q-6 25 5.5 44.5t35.5 46.5q204 244 328 378.5t162 164.5q9 6 17.5 6.5t21.5 -1.5q12 -2 15 -4t-1 -7q-7 -10 -7.5 -24.5t0.5 -31.5q0 -11 1.5 -44.5t4 -79t5.5 -96.5t6 -96t5.5 -79t4.5 -45 q8 -33 21 -40.5t24 -7.5q7 0 17.5 4.5t18.5 6.5q4 2 8.5 -2t7.5 -9t2.5 -10t-5.5 -7q-4 -1 -16 -6t-27 -10t-31 -10t-29 -7q-21 0 -34 28q1 8 -1 31.5t-5 51t-5.5 52t-4.5 32.5q-4 14 -13 26.5t-36 20.5q-9 3 -40 3t-67 1t-69.5 4t-48.5 11q-81 -94 -131.5 -166t-73.5 -123 q-6 -18 -7 -30t4 -35q-2 -5 -6 -7.5t-6 -0.5z" />
<glyph unicode="a&#x323;" horiz-adv-x="428" d="M545 204q-25 -43 -57 -82t-67 -68t-72 -46.5t-72 -17.5q-33 0 -48 16.5t-16 37.5q0 7 1 22.5t7 31.5q-28 -48 -62.5 -75.5t-72.5 -27.5q-10 0 -21 7.5t-20 19.5t-15.5 26t-6.5 26q-2 52 16.5 99t54 82.5t85 56.5t109.5 21q3 15 7.5 19.5t10.5 7.5l39 12l3 -1 q-7 -8 -9.5 -17.5t-8.5 -21.5q6 0 15.5 -1.5t18 -4t15.5 -5.5t8 -7q0 -1 -2 -6t-4.5 -10.5t-5 -10t-3.5 -4.5q-9 5 -26.5 11t-26.5 6q-19 -53 -30.5 -89.5t-18.5 -63.5t-9 -46.5t-2 -38.5q2 -26 9.5 -32.5t25.5 -6.5q20 0 49 15.5t61 42t63 62.5t53 76q2 3 4 3t10.5 -8 t10.5 -10zM277 304q-48 0 -86 -22t-63.5 -55t-38 -71.5t-11.5 -71.5q1 -21 7 -36t15 -15q11 0 26.5 9.5t33.5 27t36 43t33 56.5q14 36 24.5 69t24.5 64zM176 -77q12 0 23 -8t11 -28q1 -14 -10 -25.5t-25 -11.5q-13 0 -23 9.5t-10 25.5q-1 14 7.5 26t26.5 12z" />
<glyph unicode="A&#x309;" horiz-adv-x="728" d="M540 637q0 2 1 6.5t3 5.5q39 16 62 39t23 43q-2 23 -13.5 29.5t-34.5 6.5q-11 0 -19.5 -1.5t-13.5 -1.5q-3 0 -4 4.5t-1 9.5t1.5 10t4.5 6q12 3 22 5t26 2q32 0 53.5 -14.5t22.5 -37.5q1 -24 -14.5 -46.5t-36.5 -39.5t-43 -27t-35 -10q-2 0 -3 4.5t-1 6.5zM294 289 q5 -12 29.5 -15.5t88.5 -3.5q43 0 70 -3.5t39 -6.5q15 -4 17 0t3 13q1 18 0.5 43t-2 52t-4 54.5t-4 49.5t-3 37.5t-1.5 18.5q0 2 -2 7t-11 -3q-3 -3 -17 -16.5t-34 -34t-43.5 -46t-47 -51.5t-44 -50.5t-34.5 -44.5zM-5 -41q-6 25 5.5 44.5t35.5 46.5q204 244 328 378.5 t162 164.5q9 6 17.5 6.5t21.5 -1.5q12 -2 15 -4t-1 -7q-7 -10 -7.5 -24.5t0.5 -31.5q0 -11 1.5 -44.5t4 -79t5.5 -96.5t6 -96t5.5 -79t4.5 -45q8 -33 21 -40.5t24 -7.5q7 0 17.5 4.5t18.5 6.5q4 2 8.5 -2t7.5 -9t2.5 -10t-5.5 -7q-4 -1 -16 -6t-27 -10t-31 -10t-29 -7 q-21 0 -34 28q1 8 -1 31.5t-5 51t-5.5 52t-4.5 32.5q-4 14 -13 26.5t-36 20.5q-9 3 -40 3t-67 1t-69.5 4t-48.5 11q-81 -94 -131.5 -166t-73.5 -123q-6 -18 -7 -30t4 -35q-2 -5 -6 -7.5t-6 -0.5z" />
<glyph unicode="a&#x309;" horiz-adv-x="428" d="M545 204q-25 -43 -57 -82t-67 -68t-72 -46.5t-72 -17.5q-33 0 -48 16.5t-16 37.5q0 7 1 22.5t7 31.5q-28 -48 -62.5 -75.5t-72.5 -27.5q-10 0 -21 7.5t-20 19.5t-15.5 26t-6.5 26q-2 52 16.5 99t54 82.5t85 56.5t109.5 21q3 15 7.5 19.5t10.5 7.5l39 12l3 -1 q-7 -8 -9.5 -17.5t-8.5 -21.5q6 0 15.5 -1.5t18 -4t15.5 -5.5t8 -7q0 -1 -2 -6t-4.5 -10.5t-5 -10t-3.5 -4.5q-9 5 -26.5 11t-26.5 6q-19 -53 -30.5 -89.5t-18.5 -63.5t-9 -46.5t-2 -38.5q2 -26 9.5 -32.5t25.5 -6.5q20 0 49 15.5t61 42t63 62.5t53 76q2 3 4 3t10.5 -8 t10.5 -10zM277 304q-48 0 -86 -22t-63.5 -55t-38 -71.5t-11.5 -71.5q1 -21 7 -36t15 -15q11 0 26.5 9.5t33.5 27t36 43t33 56.5q14 36 24.5 69t24.5 64zM253 421q0 2 1 6.5t3 5.5q39 16 62 39t23 43q-2 23 -13.5 29.5t-34.5 6.5q-11 0 -19.5 -1.5t-13.5 -1.5q-3 0 -4 4.5 t-1 9.5t1.5 10t4.5 6q12 3 22 5t26 2q32 0 53.5 -14.5t22.5 -37.5q1 -24 -14.5 -46.5t-36.5 -39.5t-43 -27t-35 -10q-2 0 -3 4.5t-1 6.5z" />
<glyph unicode="&#xc2;&#x301;" horiz-adv-x="810" d="M656 648q3 -19 -1 -23q-2 -3 -11.5 -10.5t-14.5 -7.5q-3 0 -5 11q-7 30 -15 58t-19 57q-2 7 -5.5 8.5t-8.5 -4.5q-19 -25 -36.5 -49.5t-34.5 -47.5q-10 -16 -14 -16q-1 0 -5.5 0.5l-9 1t-8.5 2t-5 3.5q-2 8 7 20q13 17 28 35.5t30.5 38t31.5 37.5t31 33q4 4 10 3t8 -5 q14 -42 28 -81t19 -64zM877 899q2 -7 -1 -10q-22 -20 -44 -37.5t-45.5 -35.5t-48.5 -38.5t-52 -45.5q-3 -3 -6.5 -2t-6.5 4t-4 6.5t0 4.5q44 44 85.5 87t81.5 87q2 3 4.5 3h3.5q2 0 6.5 -3t10 -6.5t10.5 -7.5t6 -6zM294 289q5 -12 29.5 -15.5t88.5 -3.5q43 0 70 -3.5 t39 -6.5q15 -4 17 0t3 13q1 18 0.5 43t-2 52t-4 54.5t-4 49.5t-3 37.5t-1.5 18.5q0 2 -2 7t-11 -3q-3 -3 -17 -16.5t-34 -34t-43.5 -46t-47 -51.5t-44 -50.5t-34.5 -44.5zM-5 -41q-6 25 5.5 44.5t35.5 46.5q204 244 328 378.5t162 164.5q9 6 17.5 6.5t21.5 -1.5q12 -2 15 -4 t-1 -7q-7 -10 -7.5 -24.5t0.5 -31.5q0 -11 1.5 -44.5t4 -79t5.5 -96.5t6 -96t5.5 -79t4.5 -45q8 -33 21 -40.5t24 -7.5q7 0 17.5 4.5t18.5 6.5q4 2 8.5 -2t7.5 -9t2.5 -10t-5.5 -7q-4 -1 -16 -6t-27 -10t-31 -10t-29 -7q-21 0 -34 28q1 8 -1 31.5t-5 51t-5.5 52t-4.5 32.5 q-4 14 -13 26.5t-36 20.5q-9 3 -40 3t-67 1t-69.5 4t-48.5 11q-81 -94 -131.5 -166t-73.5 -123q-6 -18 -7 -30t4 -35q-2 -5 -6 -7.5t-6 -0.5z" />
<glyph unicode="&#xe2;&#x301;" horiz-adv-x="428" d="M545 204q-25 -43 -57 -82t-67 -68t-72 -46.5t-72 -17.5q-33 0 -48 16.5t-16 37.5q0 7 1 22.5t7 31.5q-28 -48 -62.5 -75.5t-72.5 -27.5q-10 0 -21 7.5t-20 19.5t-15.5 26t-6.5 26q-2 52 16.5 99t54 82.5t85 56.5t109.5 21q3 15 7.5 19.5t10.5 7.5l39 12l3 -1 q-7 -8 -9.5 -17.5t-8.5 -21.5q6 0 15.5 -1.5t18 -4t15.5 -5.5t8 -7q0 -1 -2 -6t-4.5 -10.5t-5 -10t-3.5 -4.5q-9 5 -26.5 11t-26.5 6q-19 -53 -30.5 -89.5t-18.5 -63.5t-9 -46.5t-2 -38.5q2 -26 9.5 -32.5t25.5 -6.5q20 0 49 15.5t61 42t63 62.5t53 76q2 3 4 3t10.5 -8 t10.5 -10zM277 304q-48 0 -86 -22t-63.5 -55t-38 -71.5t-11.5 -71.5q1 -21 7 -36t15 -15q11 0 26.5 9.5t33.5 27t36 43t33 56.5q14 36 24.5 69t24.5 64zM379 452q3 -19 -1 -23q-2 -3 -11.5 -10.5t-14.5 -7.5q-3 0 -5 11q-7 30 -15 58t-19 57q-2 7 -5.5 8.5t-8.5 -4.5 q-19 -25 -36.5 -49.5t-34.5 -47.5q-10 -16 -14 -16q-1 0 -5.5 0.5l-9 1t-8.5 2t-5 3.5q-2 8 7 20q13 17 28 35.5t30.5 38t31.5 37.5t31 33q4 4 10 3t8 -5q14 -42 28 -81t19 -64zM590 747q2 -7 -1 -10q-22 -20 -44 -37.5t-45.5 -35.5t-48.5 -38.5t-52 -45.5q-3 -3 -6.5 -2 t-6.5 4t-4 6.5t0 4.5q44 44 85.5 87t81.5 87q2 3 4.5 3h3.5q2 0 6.5 -3t10 -6.5t10.5 -7.5t6 -6z" />
<glyph unicode="&#xc2;&#x300;" horiz-adv-x="810" d="M643 655q3 -19 -1 -23q-2 -3 -11.5 -10.5t-14.5 -7.5q-3 0 -5 11q-7 30 -15 58t-19 57q-2 7 -5.5 8.5t-8.5 -4.5q-19 -25 -36.5 -49.5t-34.5 -47.5q-10 -16 -14 -16q-1 0 -5.5 0.5l-9 1t-8.5 2t-5 3.5q-2 8 7 20q13 17 28 35.5t30.5 38t31.5 37.5t31 33q4 4 10 3t8 -5 q14 -42 28 -81t19 -64zM736 757q0 -6 -8.5 -10t-10.5 0q-31 38 -63.5 75t-55.5 74q0 3 3 9t7 11.5t8 10t5 4.5h5.5t5.5 -3q9 -17 18.5 -34.5t21 -38t27 -44.5t37.5 -54zM294 289q5 -12 29.5 -15.5t88.5 -3.5q43 0 70 -3.5t39 -6.5q15 -4 17 0t3 13q1 18 0.5 43t-2 52 t-4 54.5t-4 49.5t-3 37.5t-1.5 18.5q0 2 -2 7t-11 -3q-3 -3 -17 -16.5t-34 -34t-43.5 -46t-47 -51.5t-44 -50.5t-34.5 -44.5zM-5 -41q-6 25 5.5 44.5t35.5 46.5q204 244 328 378.5t162 164.5q9 6 17.5 6.5t21.5 -1.5q12 -2 15 -4t-1 -7q-7 -10 -7.5 -24.5t0.5 -31.5 q0 -11 1.5 -44.5t4 -79t5.5 -96.5t6 -96t5.5 -79t4.5 -45q8 -33 21 -40.5t24 -7.5q7 0 17.5 4.5t18.5 6.5q4 2 8.5 -2t7.5 -9t2.5 -10t-5.5 -7q-4 -1 -16 -6t-27 -10t-31 -10t-29 -7q-21 0 -34 28q1 8 -1 31.5t-5 51t-5.5 52t-4.5 32.5q-4 14 -13 26.5t-36 20.5q-9 3 -40 3 t-67 1t-69.5 4t-48.5 11q-81 -94 -131.5 -166t-73.5 -123q-6 -18 -7 -30t4 -35q-2 -5 -6 -7.5t-6 -0.5z" />
<glyph unicode="&#xe2;&#x300;" horiz-adv-x="428" d="M545 204q-25 -43 -57 -82t-67 -68t-72 -46.5t-72 -17.5q-33 0 -48 16.5t-16 37.5q0 7 1 22.5t7 31.5q-28 -48 -62.5 -75.5t-72.5 -27.5q-10 0 -21 7.5t-20 19.5t-15.5 26t-6.5 26q-2 52 16.5 99t54 82.5t85 56.5t109.5 21q3 15 7.5 19.5t10.5 7.5l39 12l3 -1 q-7 -8 -9.5 -17.5t-8.5 -21.5q6 0 15.5 -1.5t18 -4t15.5 -5.5t8 -7q0 -1 -2 -6t-4.5 -10.5t-5 -10t-3.5 -4.5q-9 5 -26.5 11t-26.5 6q-19 -53 -30.5 -89.5t-18.5 -63.5t-9 -46.5t-2 -38.5q2 -26 9.5 -32.5t25.5 -6.5q20 0 49 15.5t61 42t63 62.5t53 76q2 3 4 3t10.5 -8 t10.5 -10zM277 304q-48 0 -86 -22t-63.5 -55t-38 -71.5t-11.5 -71.5q1 -21 7 -36t15 -15q11 0 26.5 9.5t33.5 27t36 43t33 56.5q14 36 24.5 69t24.5 64zM337 450q3 -19 -1 -23q-2 -3 -11.5 -10.5t-14.5 -7.5q-3 0 -5 11q-7 30 -15 58t-19 57q-2 7 -5.5 8.5t-8.5 -4.5 q-19 -25 -36.5 -49.5t-34.5 -47.5q-10 -16 -14 -16q-1 0 -5.5 0.5l-9 1t-8.5 2t-5 3.5q-2 8 7 20q13 17 28 35.5t30.5 38t31.5 37.5t31 33q4 4 10 3t8 -5q14 -42 28 -81t19 -64zM429 547q0 -6 -8.5 -10t-10.5 0q-31 38 -63.5 75t-55.5 74q0 3 3 9t7 11.5t8 10t5 4.5h5.5 t5.5 -3q9 -17 18.5 -34.5t21 -38t27 -44.5t37.5 -54z" />
<glyph unicode="&#xc2;&#x309;" horiz-adv-x="810" d="M654 645q3 -19 -1 -23q-2 -3 -11.5 -10.5t-14.5 -7.5q-3 0 -5 11q-7 30 -15 58t-19 57q-2 7 -5.5 8.5t-8.5 -4.5q-19 -25 -36.5 -49.5t-34.5 -47.5q-10 -16 -14 -16q-1 0 -5.5 0.5l-9 1t-8.5 2t-5 3.5q-2 8 7 20q13 17 28 35.5t30.5 38t31.5 37.5t31 33q4 4 10 3t8 -5 q14 -42 28 -81t19 -64zM656 751q0 2 1 6.5t3 5.5q39 16 62 39t23 43q-2 23 -13.5 29.5t-34.5 6.5q-11 0 -19.5 -1.5t-13.5 -1.5q-3 0 -4 4.5t-1 9.5t1.5 10t4.5 6q12 3 22 5t26 2q32 0 53.5 -14.5t22.5 -37.5q1 -24 -14.5 -46.5t-36.5 -39.5t-43 -27t-35 -10q-2 0 -3 4.5 t-1 6.5zM294 289q5 -12 29.5 -15.5t88.5 -3.5q43 0 70 -3.5t39 -6.5q15 -4 17 0t3 13q1 18 0.5 43t-2 52t-4 54.5t-4 49.5t-3 37.5t-1.5 18.5q0 2 -2 7t-11 -3q-3 -3 -17 -16.5t-34 -34t-43.5 -46t-47 -51.5t-44 -50.5t-34.5 -44.5zM-5 -41q-6 25 5.5 44.5t35.5 46.5 q204 244 328 378.5t162 164.5q9 6 17.5 6.5t21.5 -1.5q12 -2 15 -4t-1 -7q-7 -10 -7.5 -24.5t0.5 -31.5q0 -11 1.5 -44.5t4 -79t5.5 -96.5t6 -96t5.5 -79t4.5 -45q8 -33 21 -40.5t24 -7.5q7 0 17.5 4.5t18.5 6.5q4 2 8.5 -2t7.5 -9t2.5 -10t-5.5 -7q-4 -1 -16 -6t-27 -10 t-31 -10t-29 -7q-21 0 -34 28q1 8 -1 31.5t-5 51t-5.5 52t-4.5 32.5q-4 14 -13 26.5t-36 20.5q-9 3 -40 3t-67 1t-69.5 4t-48.5 11q-81 -94 -131.5 -166t-73.5 -123q-6 -18 -7 -30t4 -35q-2 -5 -6 -7.5t-6 -0.5z" />
<glyph unicode="&#xe2;&#x309;" horiz-adv-x="428" d="M545 204q-25 -43 -57 -82t-67 -68t-72 -46.5t-72 -17.5q-33 0 -48 16.5t-16 37.5q0 7 1 22.5t7 31.5q-28 -48 -62.5 -75.5t-72.5 -27.5q-10 0 -21 7.5t-20 19.5t-15.5 26t-6.5 26q-2 52 16.5 99t54 82.5t85 56.5t109.5 21q3 15 7.5 19.5t10.5 7.5l39 12l3 -1 q-7 -8 -9.5 -17.5t-8.5 -21.5q6 0 15.5 -1.5t18 -4t15.5 -5.5t8 -7q0 -1 -2 -6t-4.5 -10.5t-5 -10t-3.5 -4.5q-9 5 -26.5 11t-26.5 6q-19 -53 -30.5 -89.5t-18.5 -63.5t-9 -46.5t-2 -38.5q2 -26 9.5 -32.5t25.5 -6.5q20 0 49 15.5t61 42t63 62.5t53 76q2 3 4 3t10.5 -8 t10.5 -10zM277 304q-48 0 -86 -22t-63.5 -55t-38 -71.5t-11.5 -71.5q1 -21 7 -36t15 -15q11 0 26.5 9.5t33.5 27t36 43t33 56.5q14 36 24.5 69t24.5 64zM367 450q3 -19 -1 -23q-2 -3 -11.5 -10.5t-14.5 -7.5q-3 0 -5 11q-7 30 -15 58t-19 57q-2 7 -5.5 8.5t-8.5 -4.5 q-19 -25 -36.5 -49.5t-34.5 -47.5q-10 -16 -14 -16q-1 0 -5.5 0.5l-9 1t-8.5 2t-5 3.5q-2 8 7 20q13 17 28 35.5t30.5 38t31.5 37.5t31 33q4 4 10 3t8 -5q14 -42 28 -81t19 -64zM372 545q0 2 1 6.5t3 5.5q39 16 62 39t23 43q-2 23 -13.5 29.5t-34.5 6.5q-11 0 -19.5 -1.5 t-13.5 -1.5q-3 0 -4 4.5t-1 9.5t1.5 10t4.5 6q12 3 22 5t26 2q32 0 53.5 -14.5t22.5 -37.5q1 -24 -14.5 -46.5t-36.5 -39.5t-43 -27t-35 -10q-2 0 -3 4.5t-1 6.5z" />
<glyph unicode="&#xc2;&#x303;" horiz-adv-x="810" d="M644 674q3 -19 -1 -23q-2 -3 -11.5 -10.5t-14.5 -7.5q-3 0 -5 11q-7 30 -15 58t-19 57q-2 7 -5.5 8.5t-8.5 -4.5q-19 -25 -36.5 -49.5t-34.5 -47.5q-10 -16 -14 -16q-1 0 -5.5 0.5l-9 1t-8.5 2t-5 3.5q-2 8 7 20q13 17 28 35.5t30.5 38t31.5 37.5t31 33q4 4 10 3t8 -5 q14 -42 28 -81t19 -64zM745 947q2 -18 -2.5 -34.5t-13.5 -29.5t-22.5 -21t-30.5 -8q-21 0 -41.5 11.5t-40 25t-37.5 24.5t-33 11q-11 0 -18 -6t-11.5 -15t-7.5 -19.5t-7 -18.5q-3 -5 -9.5 -7t-13 -1t-11 5.5t-3.5 11.5q2 10 9.5 25t19 29.5t28 25t36.5 10.5q17 0 35.5 -12 t37 -26.5t37 -26.5t35.5 -12t27 17t3 41q-1 3 4 6.5t11 4.5t12 -1t7 -10zM294 289q5 -12 29.5 -15.5t88.5 -3.5q43 0 70 -3.5t39 -6.5q15 -4 17 0t3 13q1 18 0.5 43t-2 52t-4 54.5t-4 49.5t-3 37.5t-1.5 18.5q0 2 -2 7t-11 -3q-3 -3 -17 -16.5t-34 -34t-43.5 -46t-47 -51.5 t-44 -50.5t-34.5 -44.5zM-5 -41q-6 25 5.5 44.5t35.5 46.5q204 244 328 378.5t162 164.5q9 6 17.5 6.5t21.5 -1.5q12 -2 15 -4t-1 -7q-7 -10 -7.5 -24.5t0.5 -31.5q0 -11 1.5 -44.5t4 -79t5.5 -96.5t6 -96t5.5 -79t4.5 -45q8 -33 21 -40.5t24 -7.5q7 0 17.5 4.5t18.5 6.5 q4 2 8.5 -2t7.5 -9t2.5 -10t-5.5 -7q-4 -1 -16 -6t-27 -10t-31 -10t-29 -7q-21 0 -34 28q1 8 -1 31.5t-5 51t-5.5 52t-4.5 32.5q-4 14 -13 26.5t-36 20.5q-9 3 -40 3t-67 1t-69.5 4t-48.5 11q-81 -94 -131.5 -166t-73.5 -123q-6 -18 -7 -30t4 -35q-2 -5 -6 -7.5t-6 -0.5z " />
<glyph unicode="&#xe2;&#x303;" horiz-adv-x="428" d="M545 204q-25 -43 -57 -82t-67 -68t-72 -46.5t-72 -17.5q-33 0 -48 16.5t-16 37.5q0 7 1 22.5t7 31.5q-28 -48 -62.5 -75.5t-72.5 -27.5q-10 0 -21 7.5t-20 19.5t-15.5 26t-6.5 26q-2 52 16.5 99t54 82.5t85 56.5t109.5 21q3 15 7.5 19.5t10.5 7.5l39 12l3 -1 q-7 -8 -9.5 -17.5t-8.5 -21.5q6 0 15.5 -1.5t18 -4t15.5 -5.5t8 -7q0 -1 -2 -6t-4.5 -10.5t-5 -10t-3.5 -4.5q-9 5 -26.5 11t-26.5 6q-19 -53 -30.5 -89.5t-18.5 -63.5t-9 -46.5t-2 -38.5q2 -26 9.5 -32.5t25.5 -6.5q20 0 49 15.5t61 42t63 62.5t53 76q2 3 4 3t10.5 -8 t10.5 -10zM277 304q-48 0 -86 -22t-63.5 -55t-38 -71.5t-11.5 -71.5q1 -21 7 -36t15 -15q11 0 26.5 9.5t33.5 27t36 43t33 56.5q14 36 24.5 69t24.5 64zM345 450q3 -19 -1 -23q-2 -3 -11.5 -10.5t-14.5 -7.5q-3 0 -5 11q-7 30 -15 58t-19 57q-2 7 -5.5 8.5t-8.5 -4.5 q-19 -25 -36.5 -49.5t-34.5 -47.5q-10 -16 -14 -16q-1 0 -5.5 0.5l-9 1t-8.5 2t-5 3.5q-2 8 7 20q13 17 28 35.5t30.5 38t31.5 37.5t31 33q4 4 10 3t8 -5q14 -42 28 -81t19 -64zM454 736q2 -18 -2.5 -34.5t-13.5 -29.5t-22.5 -21t-30.5 -8q-21 0 -41.5 11.5t-40 25 t-37.5 24.5t-33 11q-11 0 -18 -6t-11.5 -15t-7.5 -19.5t-7 -18.5q-3 -5 -9.5 -7t-13 -1t-11 5.5t-3.5 11.5q2 10 9.5 25t19 29.5t28 25t36.5 10.5q17 0 35.5 -12t37 -26.5t37 -26.5t35.5 -12t27 17t3 41q-1 3 4 6.5t11 4.5t12 -1t7 -10z" />
<glyph unicode="&#xc2;&#x323;" horiz-adv-x="810" d="M214 -77q12 0 23 -8t11 -28q1 -14 -10 -25.5t-25 -11.5q-13 0 -23 9.5t-10 25.5q-1 14 7.5 26t26.5 12zM656 669q3 -19 -1 -23q-2 -3 -11.5 -10.5t-14.5 -7.5q-3 0 -5 11q-7 30 -15 58t-19 57q-2 7 -5.5 8.5t-8.5 -4.5q-19 -25 -36.5 -49.5t-34.5 -47.5q-10 -16 -14 -16 q-1 0 -5.5 0.5l-9 1t-8.5 2t-5 3.5q-2 8 7 20q13 17 28 35.5t30.5 38t31.5 37.5t31 33q4 4 10 3t8 -5q14 -42 28 -81t19 -64zM294 289q5 -12 29.5 -15.5t88.5 -3.5q43 0 70 -3.5t39 -6.5q15 -4 17 0t3 13q1 18 0.5 43t-2 52t-4 54.5t-4 49.5t-3 37.5t-1.5 18.5q0 2 -2 7 t-11 -3q-3 -3 -17 -16.5t-34 -34t-43.5 -46t-47 -51.5t-44 -50.5t-34.5 -44.5zM-5 -41q-6 25 5.5 44.5t35.5 46.5q204 244 328 378.5t162 164.5q9 6 17.5 6.5t21.5 -1.5q12 -2 15 -4t-1 -7q-7 -10 -7.5 -24.5t0.5 -31.5q0 -11 1.5 -44.5t4 -79t5.5 -96.5t6 -96t5.5 -79 t4.5 -45q8 -33 21 -40.5t24 -7.5q7 0 17.5 4.5t18.5 6.5q4 2 8.5 -2t7.5 -9t2.5 -10t-5.5 -7q-4 -1 -16 -6t-27 -10t-31 -10t-29 -7q-21 0 -34 28q1 8 -1 31.5t-5 51t-5.5 52t-4.5 32.5q-4 14 -13 26.5t-36 20.5q-9 3 -40 3t-67 1t-69.5 4t-48.5 11q-81 -94 -131.5 -166 t-73.5 -123q-6 -18 -7 -30t4 -35q-2 -5 -6 -7.5t-6 -0.5z" />
<glyph unicode="&#xe2;&#x323;" horiz-adv-x="428" d="M545 204q-25 -43 -57 -82t-67 -68t-72 -46.5t-72 -17.5q-33 0 -48 16.5t-16 37.5q0 7 1 22.5t7 31.5q-28 -48 -62.5 -75.5t-72.5 -27.5q-10 0 -21 7.5t-20 19.5t-15.5 26t-6.5 26q-2 52 16.5 99t54 82.5t85 56.5t109.5 21q3 15 7.5 19.5t10.5 7.5l39 12l3 -1 q-7 -8 -9.5 -17.5t-8.5 -21.5q6 0 15.5 -1.5t18 -4t15.5 -5.5t8 -7q0 -1 -2 -6t-4.5 -10.5t-5 -10t-3.5 -4.5q-9 5 -26.5 11t-26.5 6q-19 -53 -30.5 -89.5t-18.5 -63.5t-9 -46.5t-2 -38.5q2 -26 9.5 -32.5t25.5 -6.5q20 0 49 15.5t61 42t63 62.5t53 76q2 3 4 3t10.5 -8 t10.5 -10zM277 304q-48 0 -86 -22t-63.5 -55t-38 -71.5t-11.5 -71.5q1 -21 7 -36t15 -15q11 0 26.5 9.5t33.5 27t36 43t33 56.5q14 36 24.5 69t24.5 64zM176 -77q12 0 23 -8t11 -28q1 -14 -10 -25.5t-25 -11.5q-13 0 -23 9.5t-10 25.5q-1 14 7.5 26t26.5 12zM330 450 q3 -19 -1 -23q-2 -3 -11.5 -10.5t-14.5 -7.5q-3 0 -5 11q-7 30 -15 58t-19 57q-2 7 -5.5 8.5t-8.5 -4.5q-19 -25 -36.5 -49.5t-34.5 -47.5q-10 -16 -14 -16q-1 0 -5.5 0.5l-9 1t-8.5 2t-5 3.5q-2 8 7 20q13 17 28 35.5t30.5 38t31.5 37.5t31 33q4 4 10 3t8 -5q14 -42 28 -81 t19 -64z" />
<glyph unicode="&#x102;&#x301;" horiz-adv-x="810" d="M650 732q6 0 18 -2t12 -7q2 -8 -2 -18q-11 -35 -37 -54t-68 -19q-35 0 -60.5 24.5t-33.5 60.5q-2 6 1.5 10.5t9 7.5t12 4.5t10.5 1.5q6 0 7 -9q7 -28 19 -44.5t42 -16.5q29 0 45.5 12t20.5 33q1 7 1 11.5t3 4.5zM786 894q2 -7 -1 -10q-22 -20 -44 -37.5t-45.5 -35.5 t-48.5 -38.5t-52 -45.5q-3 -3 -6.5 -2t-6.5 4t-4 6.5t0 4.5q44 44 85.5 87t81.5 87q2 3 4.5 3h3.5q2 0 6.5 -3t10 -6.5t10.5 -7.5t6 -6zM294 289q5 -12 29.5 -15.5t88.5 -3.5q43 0 70 -3.5t39 -6.5q15 -4 17 0t3 13q1 18 0.5 43t-2 52t-4 54.5t-4 49.5t-3 37.5t-1.5 18.5 q0 2 -2 7t-11 -3q-3 -3 -17 -16.5t-34 -34t-43.5 -46t-47 -51.5t-44 -50.5t-34.5 -44.5zM-5 -41q-6 25 5.5 44.5t35.5 46.5q204 244 328 378.5t162 164.5q9 6 17.5 6.5t21.5 -1.5q12 -2 15 -4t-1 -7q-7 -10 -7.5 -24.5t0.5 -31.5q0 -11 1.5 -44.5t4 -79t5.5 -96.5t6 -96 t5.5 -79t4.5 -45q8 -33 21 -40.5t24 -7.5q7 0 17.5 4.5t18.5 6.5q4 2 8.5 -2t7.5 -9t2.5 -10t-5.5 -7q-4 -1 -16 -6t-27 -10t-31 -10t-29 -7q-21 0 -34 28q1 8 -1 31.5t-5 51t-5.5 52t-4.5 32.5q-4 14 -13 26.5t-36 20.5q-9 3 -40 3t-67 1t-69.5 4t-48.5 11 q-81 -94 -131.5 -166t-73.5 -123q-6 -18 -7 -30t4 -35q-2 -5 -6 -7.5t-6 -0.5z" />
<glyph unicode="&#x103;&#x301;" horiz-adv-x="428" d="M545 204q-25 -43 -57 -82t-67 -68t-72 -46.5t-72 -17.5q-33 0 -48 16.5t-16 37.5q0 7 1 22.5t7 31.5q-28 -48 -62.5 -75.5t-72.5 -27.5q-10 0 -21 7.5t-20 19.5t-15.5 26t-6.5 26q-2 52 16.5 99t54 82.5t85 56.5t109.5 21q3 15 7.5 19.5t10.5 7.5l39 12l3 -1 q-7 -8 -9.5 -17.5t-8.5 -21.5q6 0 15.5 -1.5t18 -4t15.5 -5.5t8 -7q0 -1 -2 -6t-4.5 -10.5t-5 -10t-3.5 -4.5q-9 5 -26.5 11t-26.5 6q-19 -53 -30.5 -89.5t-18.5 -63.5t-9 -46.5t-2 -38.5q2 -26 9.5 -32.5t25.5 -6.5q20 0 49 15.5t61 42t63 62.5t53 76q2 3 4 3t10.5 -8 t10.5 -10zM277 304q-48 0 -86 -22t-63.5 -55t-38 -71.5t-11.5 -71.5q1 -21 7 -36t15 -15q11 0 26.5 9.5t33.5 27t36 43t33 56.5q14 36 24.5 69t24.5 64zM333 536q6 0 18 -2t12 -7q2 -8 -2 -18q-11 -35 -37 -54t-68 -19q-35 0 -60.5 24.5t-33.5 60.5q-2 6 1.5 10.5t9 7.5 t12 4.5t10.5 1.5q6 0 7 -9q7 -28 19 -44.5t42 -16.5q29 0 45.5 12t20.5 33q1 7 1 11.5t3 4.5zM468 720q2 -7 -1 -10q-22 -20 -44 -37.5t-45.5 -35.5t-48.5 -38.5t-52 -45.5q-3 -3 -6.5 -2t-6.5 4t-4 6.5t0 4.5q44 44 85.5 87t81.5 87q2 3 4.5 3h3.5q2 0 6.5 -3t10 -6.5 t10.5 -7.5t6 -6z" />
<glyph unicode="&#x102;&#x300;" horiz-adv-x="810" d="M650 726q6 0 18 -2t12 -7q2 -8 -2 -18q-11 -35 -37 -54t-68 -19q-35 0 -60.5 24.5t-33.5 60.5q-2 6 1.5 10.5t9 7.5t12 4.5t10.5 1.5q6 0 7 -9q7 -28 19 -44.5t42 -16.5q29 0 45.5 12t20.5 33q1 7 1 11.5t3 4.5zM611 741q0 -6 -8.5 -10t-10.5 0q-31 38 -63.5 75t-55.5 74 q0 3 3 9t7 11.5t8 10t5 4.5h5.5t5.5 -3q9 -17 18.5 -34.5t21 -38t27 -44.5t37.5 -54zM294 289q5 -12 29.5 -15.5t88.5 -3.5q43 0 70 -3.5t39 -6.5q15 -4 17 0t3 13q1 18 0.5 43t-2 52t-4 54.5t-4 49.5t-3 37.5t-1.5 18.5q0 2 -2 7t-11 -3q-3 -3 -17 -16.5t-34 -34t-43.5 -46 t-47 -51.5t-44 -50.5t-34.5 -44.5zM-5 -41q-6 25 5.5 44.5t35.5 46.5q204 244 328 378.5t162 164.5q9 6 17.5 6.5t21.5 -1.5q12 -2 15 -4t-1 -7q-7 -10 -7.5 -24.5t0.5 -31.5q0 -11 1.5 -44.5t4 -79t5.5 -96.5t6 -96t5.5 -79t4.5 -45q8 -33 21 -40.5t24 -7.5q7 0 17.5 4.5 t18.5 6.5q4 2 8.5 -2t7.5 -9t2.5 -10t-5.5 -7q-4 -1 -16 -6t-27 -10t-31 -10t-29 -7q-21 0 -34 28q1 8 -1 31.5t-5 51t-5.5 52t-4.5 32.5q-4 14 -13 26.5t-36 20.5q-9 3 -40 3t-67 1t-69.5 4t-48.5 11q-81 -94 -131.5 -166t-73.5 -123q-6 -18 -7 -30t4 -35q-2 -5 -6 -7.5 t-6 -0.5z" />
<glyph unicode="&#x103;&#x300;" horiz-adv-x="428" d="M545 204q-25 -43 -57 -82t-67 -68t-72 -46.5t-72 -17.5q-33 0 -48 16.5t-16 37.5q0 7 1 22.5t7 31.5q-28 -48 -62.5 -75.5t-72.5 -27.5q-10 0 -21 7.5t-20 19.5t-15.5 26t-6.5 26q-2 52 16.5 99t54 82.5t85 56.5t109.5 21q3 15 7.5 19.5t10.5 7.5l39 12l3 -1 q-7 -8 -9.5 -17.5t-8.5 -21.5q6 0 15.5 -1.5t18 -4t15.5 -5.5t8 -7q0 -1 -2 -6t-4.5 -10.5t-5 -10t-3.5 -4.5q-9 5 -26.5 11t-26.5 6q-19 -53 -30.5 -89.5t-18.5 -63.5t-9 -46.5t-2 -38.5q2 -26 9.5 -32.5t25.5 -6.5q20 0 49 15.5t61 42t63 62.5t53 76q2 3 4 3t10.5 -8 t10.5 -10zM277 304q-48 0 -86 -22t-63.5 -55t-38 -71.5t-11.5 -71.5q1 -21 7 -36t15 -15q11 0 26.5 9.5t33.5 27t36 43t33 56.5q14 36 24.5 69t24.5 64zM324 525q6 0 18 -2t12 -7q2 -8 -2 -18q-11 -35 -37 -54t-68 -19q-35 0 -60.5 24.5t-33.5 60.5q-2 6 1.5 10.5t9 7.5 t12 4.5t10.5 1.5q6 0 7 -9q7 -28 19 -44.5t42 -16.5q29 0 45.5 12t20.5 33q1 7 1 11.5t3 4.5zM297 538q0 -6 -8.5 -10t-10.5 0q-31 38 -63.5 75t-55.5 74q0 3 3 9t7 11.5t8 10t5 4.5h5.5t5.5 -3q9 -17 18.5 -34.5t21 -38t27 -44.5t37.5 -54z" />
<glyph unicode="&#x102;&#x309;" horiz-adv-x="810" d="M636 732q6 0 18 -2t12 -7q2 -8 -2 -18q-11 -35 -37 -54t-68 -19q-35 0 -60.5 24.5t-33.5 60.5q-2 6 1.5 10.5t9 7.5t12 4.5t10.5 1.5q6 0 7 -9q7 -28 19 -44.5t42 -16.5q29 0 45.5 12t20.5 33q1 7 1 11.5t3 4.5zM553 743q0 2 1 6.5t3 5.5q39 16 62 39t23 43 q-2 23 -13.5 29.5t-34.5 6.5q-11 0 -19.5 -1.5t-13.5 -1.5q-3 0 -4 4.5t-1 9.5t1.5 10t4.5 6q12 3 22 5t26 2q32 0 53.5 -14.5t22.5 -37.5q1 -24 -14.5 -46.5t-36.5 -39.5t-43 -27t-35 -10q-2 0 -3 4.5t-1 6.5zM294 289q5 -12 29.5 -15.5t88.5 -3.5q43 0 70 -3.5t39 -6.5 q15 -4 17 0t3 13q1 18 0.5 43t-2 52t-4 54.5t-4 49.5t-3 37.5t-1.5 18.5q0 2 -2 7t-11 -3q-3 -3 -17 -16.5t-34 -34t-43.5 -46t-47 -51.5t-44 -50.5t-34.5 -44.5zM-5 -41q-6 25 5.5 44.5t35.5 46.5q204 244 328 378.5t162 164.5q9 6 17.5 6.5t21.5 -1.5q12 -2 15 -4t-1 -7 q-7 -10 -7.5 -24.5t0.5 -31.5q0 -11 1.5 -44.5t4 -79t5.5 -96.5t6 -96t5.5 -79t4.5 -45q8 -33 21 -40.5t24 -7.5q7 0 17.5 4.5t18.5 6.5q4 2 8.5 -2t7.5 -9t2.5 -10t-5.5 -7q-4 -1 -16 -6t-27 -10t-31 -10t-29 -7q-21 0 -34 28q1 8 -1 31.5t-5 51t-5.5 52t-4.5 32.5 q-4 14 -13 26.5t-36 20.5q-9 3 -40 3t-67 1t-69.5 4t-48.5 11q-81 -94 -131.5 -166t-73.5 -123q-6 -18 -7 -30t4 -35q-2 -5 -6 -7.5t-6 -0.5z" />
<glyph unicode="&#x103;&#x309;" horiz-adv-x="428" d="M545 204q-25 -43 -57 -82t-67 -68t-72 -46.5t-72 -17.5q-33 0 -48 16.5t-16 37.5q0 7 1 22.5t7 31.5q-28 -48 -62.5 -75.5t-72.5 -27.5q-10 0 -21 7.5t-20 19.5t-15.5 26t-6.5 26q-2 52 16.5 99t54 82.5t85 56.5t109.5 21q3 15 7.5 19.5t10.5 7.5l39 12l3 -1 q-7 -8 -9.5 -17.5t-8.5 -21.5q6 0 15.5 -1.5t18 -4t15.5 -5.5t8 -7q0 -1 -2 -6t-4.5 -10.5t-5 -10t-3.5 -4.5q-9 5 -26.5 11t-26.5 6q-19 -53 -30.5 -89.5t-18.5 -63.5t-9 -46.5t-2 -38.5q2 -26 9.5 -32.5t25.5 -6.5q20 0 49 15.5t61 42t63 62.5t53 76q2 3 4 3t10.5 -8 t10.5 -10zM277 304q-48 0 -86 -22t-63.5 -55t-38 -71.5t-11.5 -71.5q1 -21 7 -36t15 -15q11 0 26.5 9.5t33.5 27t36 43t33 56.5q14 36 24.5 69t24.5 64zM327 537q6 0 18 -2t12 -7q2 -8 -2 -18q-11 -35 -37 -54t-68 -19q-35 0 -60.5 24.5t-33.5 60.5q-2 6 1.5 10.5t9 7.5 t12 4.5t10.5 1.5q6 0 7 -9q7 -28 19 -44.5t42 -16.5q29 0 45.5 12t20.5 33q1 7 1 11.5t3 4.5zM245 572q0 2 1 6.5t3 5.5q39 16 62 39t23 43q-2 23 -13.5 29.5t-34.5 6.5q-11 0 -19.5 -1.5t-13.5 -1.5q-3 0 -4 4.5t-1 9.5t1.5 10t4.5 6q12 3 22 5t26 2q32 0 53.5 -14.5 t22.5 -37.5q1 -24 -14.5 -46.5t-36.5 -39.5t-43 -27t-35 -10q-2 0 -3 4.5t-1 6.5z" />
<glyph unicode="&#x102;&#x303;" horiz-adv-x="810" d="M651 730q6 0 18 -2t12 -7q2 -8 -2 -18q-11 -35 -37 -54t-68 -19q-35 0 -60.5 24.5t-33.5 60.5q-2 6 1.5 10.5t9 7.5t12 4.5t10.5 1.5q6 0 7 -9q7 -28 19 -44.5t42 -16.5q29 0 45.5 12t20.5 33q1 7 1 11.5t3 4.5zM751 870q2 -18 -2.5 -34.5t-13.5 -29.5t-22.5 -21 t-30.5 -8q-21 0 -41.5 11.5t-40 25t-37.5 24.5t-33 11q-11 0 -18 -6t-11.5 -15t-7.5 -19.5t-7 -18.5q-3 -5 -9.5 -7t-13 -1t-11 5.5t-3.5 11.5q2 10 9.5 25t19 29.5t28 25t36.5 10.5q17 0 35.5 -12t37 -26.5t37 -26.5t35.5 -12t27 17t3 41q-1 3 4 6.5t11 4.5t12 -1t7 -10z M294 289q5 -12 29.5 -15.5t88.5 -3.5q43 0 70 -3.5t39 -6.5q15 -4 17 0t3 13q1 18 0.5 43t-2 52t-4 54.5t-4 49.5t-3 37.5t-1.5 18.5q0 2 -2 7t-11 -3q-3 -3 -17 -16.5t-34 -34t-43.5 -46t-47 -51.5t-44 -50.5t-34.5 -44.5zM-5 -41q-6 25 5.5 44.5t35.5 46.5 q204 244 328 378.5t162 164.5q9 6 17.5 6.5t21.5 -1.5q12 -2 15 -4t-1 -7q-7 -10 -7.5 -24.5t0.5 -31.5q0 -11 1.5 -44.5t4 -79t5.5 -96.5t6 -96t5.5 -79t4.5 -45q8 -33 21 -40.5t24 -7.5q7 0 17.5 4.5t18.5 6.5q4 2 8.5 -2t7.5 -9t2.5 -10t-5.5 -7q-4 -1 -16 -6t-27 -10 t-31 -10t-29 -7q-21 0 -34 28q1 8 -1 31.5t-5 51t-5.5 52t-4.5 32.5q-4 14 -13 26.5t-36 20.5q-9 3 -40 3t-67 1t-69.5 4t-48.5 11q-81 -94 -131.5 -166t-73.5 -123q-6 -18 -7 -30t4 -35q-2 -5 -6 -7.5t-6 -0.5z" />
<glyph unicode="&#x103;&#x303;" horiz-adv-x="428" d="M545 204q-25 -43 -57 -82t-67 -68t-72 -46.5t-72 -17.5q-33 0 -48 16.5t-16 37.5q0 7 1 22.5t7 31.5q-28 -48 -62.5 -75.5t-72.5 -27.5q-10 0 -21 7.5t-20 19.5t-15.5 26t-6.5 26q-2 52 16.5 99t54 82.5t85 56.5t109.5 21q3 15 7.5 19.5t10.5 7.5l39 12l3 -1 q-7 -8 -9.5 -17.5t-8.5 -21.5q6 0 15.5 -1.5t18 -4t15.5 -5.5t8 -7q0 -1 -2 -6t-4.5 -10.5t-5 -10t-3.5 -4.5q-9 5 -26.5 11t-26.5 6q-19 -53 -30.5 -89.5t-18.5 -63.5t-9 -46.5t-2 -38.5q2 -26 9.5 -32.5t25.5 -6.5q20 0 49 15.5t61 42t63 62.5t53 76q2 3 4 3t10.5 -8 t10.5 -10zM277 304q-48 0 -86 -22t-63.5 -55t-38 -71.5t-11.5 -71.5q1 -21 7 -36t15 -15q11 0 26.5 9.5t33.5 27t36 43t33 56.5q14 36 24.5 69t24.5 64zM330 537q6 0 18 -2t12 -7q2 -8 -2 -18q-11 -35 -37 -54t-68 -19q-35 0 -60.5 24.5t-33.5 60.5q-2 6 1.5 10.5t9 7.5 t12 4.5t10.5 1.5q6 0 7 -9q7 -28 19 -44.5t42 -16.5q29 0 45.5 12t20.5 33q1 7 1 11.5t3 4.5zM412 654q2 -18 -2.5 -34.5t-13.5 -29.5t-22.5 -21t-30.5 -8q-21 0 -41.5 11.5t-40 25t-37.5 24.5t-33 11q-11 0 -18 -6t-11.5 -15t-7.5 -19.5t-7 -18.5q-3 -5 -9.5 -7t-13 -1 t-11 5.5t-3.5 11.5q2 10 9.5 25t19 29.5t28 25t36.5 10.5q17 0 35.5 -12t37 -26.5t37 -26.5t35.5 -12t27 17t3 41q-1 3 4 6.5t11 4.5t12 -1t7 -10z" />
<glyph unicode="&#x102;&#x323;" horiz-adv-x="810" d="M292 -77q12 0 23 -8t11 -28q1 -14 -10 -25.5t-25 -11.5q-13 0 -23 9.5t-10 25.5q-1 14 7.5 26t26.5 12zM643 731q6 0 18 -2t12 -7q2 -8 -2 -18q-11 -35 -37 -54t-68 -19q-35 0 -60.5 24.5t-33.5 60.5q-2 6 1.5 10.5t9 7.5t12 4.5t10.5 1.5q6 0 7 -9q7 -28 19 -44.5 t42 -16.5q29 0 45.5 12t20.5 33q1 7 1 11.5t3 4.5zM294 289q5 -12 29.5 -15.5t88.5 -3.5q43 0 70 -3.5t39 -6.5q15 -4 17 0t3 13q1 18 0.5 43t-2 52t-4 54.5t-4 49.5t-3 37.5t-1.5 18.5q0 2 -2 7t-11 -3q-3 -3 -17 -16.5t-34 -34t-43.5 -46t-47 -51.5t-44 -50.5t-34.5 -44.5 zM-5 -41q-6 25 5.5 44.5t35.5 46.5q204 244 328 378.5t162 164.5q9 6 17.5 6.5t21.5 -1.5q12 -2 15 -4t-1 -7q-7 -10 -7.5 -24.5t0.5 -31.5q0 -11 1.5 -44.5t4 -79t5.5 -96.5t6 -96t5.5 -79t4.5 -45q8 -33 21 -40.5t24 -7.5q7 0 17.5 4.5t18.5 6.5q4 2 8.5 -2t7.5 -9 t2.5 -10t-5.5 -7q-4 -1 -16 -6t-27 -10t-31 -10t-29 -7q-21 0 -34 28q1 8 -1 31.5t-5 51t-5.5 52t-4.5 32.5q-4 14 -13 26.5t-36 20.5q-9 3 -40 3t-67 1t-69.5 4t-48.5 11q-81 -94 -131.5 -166t-73.5 -123q-6 -18 -7 -30t4 -35q-2 -5 -6 -7.5t-6 -0.5z" />
<glyph unicode="&#x103;&#x323;" horiz-adv-x="428" d="M545 204q-25 -43 -57 -82t-67 -68t-72 -46.5t-72 -17.5q-33 0 -48 16.5t-16 37.5q0 7 1 22.5t7 31.5q-28 -48 -62.5 -75.5t-72.5 -27.5q-10 0 -21 7.5t-20 19.5t-15.5 26t-6.5 26q-2 52 16.5 99t54 82.5t85 56.5t109.5 21q3 15 7.5 19.5t10.5 7.5l39 12l3 -1 q-7 -8 -9.5 -17.5t-8.5 -21.5q6 0 15.5 -1.5t18 -4t15.5 -5.5t8 -7q0 -1 -2 -6t-4.5 -10.5t-5 -10t-3.5 -4.5q-9 5 -26.5 11t-26.5 6q-19 -53 -30.5 -89.5t-18.5 -63.5t-9 -46.5t-2 -38.5q2 -26 9.5 -32.5t25.5 -6.5q20 0 49 15.5t61 42t63 62.5t53 76q2 3 4 3t10.5 -8 t10.5 -10zM277 304q-48 0 -86 -22t-63.5 -55t-38 -71.5t-11.5 -71.5q1 -21 7 -36t15 -15q11 0 26.5 9.5t33.5 27t36 43t33 56.5q14 36 24.5 69t24.5 64zM176 -77q12 0 23 -8t11 -28q1 -14 -10 -25.5t-25 -11.5q-13 0 -23 9.5t-10 25.5q-1 14 7.5 26t26.5 12zM363 526 q6 0 18 -2t12 -7q2 -8 -2 -18q-11 -35 -37 -54t-68 -19q-35 0 -60.5 24.5t-33.5 60.5q-2 6 1.5 10.5t9 7.5t12 4.5t10.5 1.5q6 0 7 -9q7 -28 19 -44.5t42 -16.5q29 0 45.5 12t20.5 33q1 7 1 11.5t3 4.5z" />
<glyph unicode="E&#x323;" horiz-adv-x="615" d="M625 113q4 4 7 -5q-4 -4 -7 -12t-5.5 -17t-4 -17t-2.5 -12q-8 -17 -34 -24q-32 -8 -69.5 -14.5t-76.5 -11.5t-78 -8t-73 -3q-54 0 -87.5 5t-52 13.5t-25 20.5t-6.5 25q-1 14 8 47.5t21 71t24 72t17 49.5q1 3 -3.5 4.5t-20.5 1.5q-8 0 -8 5t5.5 15.5t13.5 12.5 q10 2 16 2.5t10 3.5t7 9t7 18q3 9 12 37t18.5 59t16 57t4.5 32q-2 5 -9 5q-41 0 -81 -3t-66 -11l-3 1q-1 6 -0.5 14t2.5 16.5t4.5 15t4.5 8.5q42 -3 88.5 -4.5t88.5 -1.5q14 0 49.5 1.5t78.5 3t87.5 3t75.5 1.5q7 0 9 -8l-4 -12l-6.5 -19.5t-6.5 -21.5t-5 -18l-5 1 q-7 19 -16 23q-45 6 -96.5 9t-100.5 3q-11 0 -17 -3t-10 -11q-14 -24 -24 -47t-18.5 -47t-16.5 -50t-18 -55q-3 -12 11 -12q29 -2 66.5 -2.5t76 1.5t74 6t59.5 11l5 -4q-1 -3 -3.5 -9t-4.5 -13t-3.5 -13.5t-1.5 -9.5q-1 -5 -11 -5q-20 0 -60 0.5t-82.5 0.5h-79.5t-52 -1 q-10 0 -13 -8q-20 -51 -38.5 -105t-16.5 -108q1 -31 24.5 -38t65.5 -7q37 0 89 4.5t104.5 14.5t98.5 26.5t73 40.5zM283 -77q12 0 23 -8t11 -28q1 -14 -10 -25.5t-25 -11.5q-13 0 -23 9.5t-10 25.5q-1 14 7.5 26t26.5 12z" />
<glyph unicode="e&#x323;" horiz-adv-x="308" d="M112 176q-2 -11 -6.5 -33t-3.5 -47q2 -37 16.5 -51t49.5 -14q34 0 67 16t62 40t52 52.5t36 53.5q3 3 13 -3.5t11 -10.5q-18 -32 -45 -65.5t-61.5 -61.5t-74.5 -45.5t-83 -17.5q-35 0 -62.5 26t-29.5 71q-1 41 10.5 84t33 78.5t53.5 58.5t71 23q23 0 37 -12t16 -40 q2 -43 -38 -72.5t-124 -29.5zM117 204q4 -1 11.5 -2t12.5 -1q15 0 32 5t30.5 14.5t22 22.5t8.5 28q0 10 -5 17t-20 7q-30 0 -55.5 -25.5t-36.5 -65.5zM165 -77q12 0 23 -8t11 -28q1 -14 -10 -25.5t-25 -11.5q-13 0 -23 9.5t-10 25.5q-1 14 7.5 26t26.5 12z" />
<glyph unicode="E&#x309;" horiz-adv-x="615" d="M625 113q4 4 7 -5q-4 -4 -7 -12t-5.5 -17t-4 -17t-2.5 -12q-8 -17 -34 -24q-32 -8 -69.5 -14.5t-76.5 -11.5t-78 -8t-73 -3q-54 0 -87.5 5t-52 13.5t-25 20.5t-6.5 25q-1 14 8 47.5t21 71t24 72t17 49.5q1 3 -3.5 4.5t-20.5 1.5q-8 0 -8 5t5.5 15.5t13.5 12.5 q10 2 16 2.5t10 3.5t7 9t7 18q3 9 12 37t18.5 59t16 57t4.5 32q-2 5 -9 5q-41 0 -81 -3t-66 -11l-3 1q-1 6 -0.5 14t2.5 16.5t4.5 15t4.5 8.5q42 -3 88.5 -4.5t88.5 -1.5q14 0 49.5 1.5t78.5 3t87.5 3t75.5 1.5q7 0 9 -8l-4 -12l-6.5 -19.5t-6.5 -21.5t-5 -18l-5 1 q-7 19 -16 23q-45 6 -96.5 9t-100.5 3q-11 0 -17 -3t-10 -11q-14 -24 -24 -47t-18.5 -47t-16.5 -50t-18 -55q-3 -12 11 -12q29 -2 66.5 -2.5t76 1.5t74 6t59.5 11l5 -4q-1 -3 -3.5 -9t-4.5 -13t-3.5 -13.5t-1.5 -9.5q-1 -5 -11 -5q-20 0 -60 0.5t-82.5 0.5h-79.5t-52 -1 q-10 0 -13 -8q-20 -51 -38.5 -105t-16.5 -108q1 -31 24.5 -38t65.5 -7q37 0 89 4.5t104.5 14.5t98.5 26.5t73 40.5zM393 655q0 2 1 6.5t3 5.5q39 16 62 39t23 43q-2 23 -13.5 29.5t-34.5 6.5q-11 0 -19.5 -1.5t-13.5 -1.5q-3 0 -4 4.5t-1 9.5t1.5 10t4.5 6q12 3 22 5t26 2 q32 0 53.5 -14.5t22.5 -37.5q1 -24 -14.5 -46.5t-36.5 -39.5t-43 -27t-35 -10q-2 0 -3 4.5t-1 6.5z" />
<glyph unicode="e&#x309;" horiz-adv-x="308" d="M112 176q-2 -11 -6.5 -33t-3.5 -47q2 -37 16.5 -51t49.5 -14q34 0 67 16t62 40t52 52.5t36 53.5q3 3 13 -3.5t11 -10.5q-18 -32 -45 -65.5t-61.5 -61.5t-74.5 -45.5t-83 -17.5q-35 0 -62.5 26t-29.5 71q-1 41 10.5 84t33 78.5t53.5 58.5t71 23q23 0 37 -12t16 -40 q2 -43 -38 -72.5t-124 -29.5zM117 204q4 -1 11.5 -2t12.5 -1q15 0 32 5t30.5 14.5t22 22.5t8.5 28q0 10 -5 17t-20 7q-30 0 -55.5 -25.5t-36.5 -65.5zM195 421q0 2 1 6.5t3 5.5q39 16 62 39t23 43q-2 23 -13.5 29.5t-34.5 6.5q-11 0 -19.5 -1.5t-13.5 -1.5q-3 0 -4 4.5 t-1 9.5t1.5 10t4.5 6q12 3 22 5t26 2q32 0 53.5 -14.5t22.5 -37.5q1 -24 -14.5 -46.5t-36.5 -39.5t-43 -27t-35 -10q-2 0 -3 4.5t-1 6.5z" />
<glyph unicode="E&#x303;" horiz-adv-x="615" d="M625 113q4 4 7 -5q-4 -4 -7 -12t-5.5 -17t-4 -17t-2.5 -12q-8 -17 -34 -24q-32 -8 -69.5 -14.5t-76.5 -11.5t-78 -8t-73 -3q-54 0 -87.5 5t-52 13.5t-25 20.5t-6.5 25q-1 14 8 47.5t21 71t24 72t17 49.5q1 3 -3.5 4.5t-20.5 1.5q-8 0 -8 5t5.5 15.5t13.5 12.5 q10 2 16 2.5t10 3.5t7 9t7 18q3 9 12 37t18.5 59t16 57t4.5 32q-2 5 -9 5q-41 0 -81 -3t-66 -11l-3 1q-1 6 -0.5 14t2.5 16.5t4.5 15t4.5 8.5q42 -3 88.5 -4.5t88.5 -1.5q14 0 49.5 1.5t78.5 3t87.5 3t75.5 1.5q7 0 9 -8l-4 -12l-6.5 -19.5t-6.5 -21.5t-5 -18l-5 1 q-7 19 -16 23q-45 6 -96.5 9t-100.5 3q-11 0 -17 -3t-10 -11q-14 -24 -24 -47t-18.5 -47t-16.5 -50t-18 -55q-3 -12 11 -12q29 -2 66.5 -2.5t76 1.5t74 6t59.5 11l5 -4q-1 -3 -3.5 -9t-4.5 -13t-3.5 -13.5t-1.5 -9.5q-1 -5 -11 -5q-20 0 -60 0.5t-82.5 0.5h-79.5t-52 -1 q-10 0 -13 -8q-20 -51 -38.5 -105t-16.5 -108q1 -31 24.5 -38t65.5 -7q37 0 89 4.5t104.5 14.5t98.5 26.5t73 40.5zM569 754q2 -18 -2.5 -34.5t-13.5 -29.5t-22.5 -21t-30.5 -8q-21 0 -41.5 11.5t-40 25t-37.5 24.5t-33 11q-11 0 -18 -6t-11.5 -15t-7.5 -19.5t-7 -18.5 q-3 -5 -9.5 -7t-13 -1t-11 5.5t-3.5 11.5q2 10 9.5 25t19 29.5t28 25t36.5 10.5q17 0 35.5 -12t37 -26.5t37 -26.5t35.5 -12t27 17t3 41q-1 3 4 6.5t11 4.5t12 -1t7 -10z" />
<glyph unicode="e&#x303;" horiz-adv-x="308" d="M112 176q-2 -11 -6.5 -33t-3.5 -47q2 -37 16.5 -51t49.5 -14q34 0 67 16t62 40t52 52.5t36 53.5q3 3 13 -3.5t11 -10.5q-18 -32 -45 -65.5t-61.5 -61.5t-74.5 -45.5t-83 -17.5q-35 0 -62.5 26t-29.5 71q-1 41 10.5 84t33 78.5t53.5 58.5t71 23q23 0 37 -12t16 -40 q2 -43 -38 -72.5t-124 -29.5zM117 204q4 -1 11.5 -2t12.5 -1q15 0 32 5t30.5 14.5t22 22.5t8.5 28q0 10 -5 17t-20 7q-30 0 -55.5 -25.5t-36.5 -65.5zM423 536q2 -18 -2.5 -34.5t-13.5 -29.5t-22.5 -21t-30.5 -8q-21 0 -41.5 11.5t-40 25t-37.5 24.5t-33 11q-11 0 -18 -6 t-11.5 -15t-7.5 -19.5t-7 -18.5q-3 -5 -9.5 -7t-13 -1t-11 5.5t-3.5 11.5q2 10 9.5 25t19 29.5t28 25t36.5 10.5q17 0 35.5 -12t37 -26.5t37 -26.5t35.5 -12t27 17t3 41q-1 3 4 6.5t11 4.5t12 -1t7 -10z" />
<glyph unicode="&#xca;&#x301;" horiz-adv-x="615" d="M625 113q4 4 7 -5q-4 -4 -7 -12t-5.5 -17t-4 -17t-2.5 -12q-8 -17 -34 -24q-32 -8 -69.5 -14.5t-76.5 -11.5t-78 -8t-73 -3q-54 0 -87.5 5t-52 13.5t-25 20.5t-6.5 25q-1 14 8 47.5t21 71t24 72t17 49.5q1 3 -3.5 4.5t-20.5 1.5q-8 0 -8 5t5.5 15.5t13.5 12.5 q10 2 16 2.5t10 3.5t7 9t7 18q3 9 12 37t18.5 59t16 57t4.5 32q-2 5 -9 5q-41 0 -81 -3t-66 -11l-3 1q-1 6 -0.5 14t2.5 16.5t4.5 15t4.5 8.5q42 -3 88.5 -4.5t88.5 -1.5q14 0 49.5 1.5t78.5 3t87.5 3t75.5 1.5q7 0 9 -8l-4 -12l-6.5 -19.5t-6.5 -21.5t-5 -18l-5 1 q-7 19 -16 23q-45 6 -96.5 9t-100.5 3q-11 0 -17 -3t-10 -11q-14 -24 -24 -47t-18.5 -47t-16.5 -50t-18 -55q-3 -12 11 -12q29 -2 66.5 -2.5t76 1.5t74 6t59.5 11l5 -4q-1 -3 -3.5 -9t-4.5 -13t-3.5 -13.5t-1.5 -9.5q-1 -5 -11 -5q-20 0 -60 0.5t-82.5 0.5h-79.5t-52 -1 q-10 0 -13 -8q-20 -51 -38.5 -105t-16.5 -108q1 -31 24.5 -38t65.5 -7q37 0 89 4.5t104.5 14.5t98.5 26.5t73 40.5zM532 672q3 -19 -1 -23q-2 -3 -11.5 -10.5t-14.5 -7.5q-3 0 -5 11q-7 30 -15 58t-19 57q-2 7 -5.5 8.5t-8.5 -4.5q-19 -25 -36.5 -49.5t-34.5 -47.5 q-10 -16 -14 -16q-1 0 -5.5 0.5l-9 1t-8.5 2t-5 3.5q-2 8 7 20q13 17 28 35.5t30.5 38t31.5 37.5t31 33q4 4 10 3t8 -5q14 -42 28 -81t19 -64zM749 936q2 -7 -1 -10q-22 -20 -44 -37.5t-45.5 -35.5t-48.5 -38.5t-52 -45.5q-3 -3 -6.5 -2t-6.5 4t-4 6.5t0 4.5q44 44 85.5 87 t81.5 87q2 3 4.5 3h3.5q2 0 6.5 -3t10 -6.5t10.5 -7.5t6 -6z" />
<glyph unicode="&#xea;&#x301;" horiz-adv-x="308" d="M112 176q-2 -11 -6.5 -33t-3.5 -47q2 -37 16.5 -51t49.5 -14q34 0 67 16t62 40t52 52.5t36 53.5q3 3 13 -3.5t11 -10.5q-18 -32 -45 -65.5t-61.5 -61.5t-74.5 -45.5t-83 -17.5q-35 0 -62.5 26t-29.5 71q-1 41 10.5 84t33 78.5t53.5 58.5t71 23q23 0 37 -12t16 -40 q2 -43 -38 -72.5t-124 -29.5zM117 204q4 -1 11.5 -2t12.5 -1q15 0 32 5t30.5 14.5t22 22.5t8.5 28q0 10 -5 17t-20 7q-30 0 -55.5 -25.5t-36.5 -65.5zM337 443q3 -19 -1 -23q-2 -3 -11.5 -10.5t-14.5 -7.5q-3 0 -5 11q-7 30 -15 58t-19 57q-2 7 -5.5 8.5t-8.5 -4.5 q-19 -25 -36.5 -49.5t-34.5 -47.5q-10 -16 -14 -16q-1 0 -5.5 0.5l-9 1t-8.5 2t-5 3.5q-2 8 7 20q13 17 28 35.5t30.5 38t31.5 37.5t31 33q4 4 10 3t8 -5q14 -42 28 -81t19 -64zM554 703q2 -7 -1 -10q-22 -20 -44 -37.5t-45.5 -35.5t-48.5 -38.5t-52 -45.5q-3 -3 -6.5 -2 t-6.5 4t-4 6.5t0 4.5q44 44 85.5 87t81.5 87q2 3 4.5 3h3.5q2 0 6.5 -3t10 -6.5t10.5 -7.5t6 -6z" />
<glyph unicode="&#xca;&#x300;" horiz-adv-x="615" d="M625 113q4 4 7 -5q-4 -4 -7 -12t-5.5 -17t-4 -17t-2.5 -12q-8 -17 -34 -24q-32 -8 -69.5 -14.5t-76.5 -11.5t-78 -8t-73 -3q-54 0 -87.5 5t-52 13.5t-25 20.5t-6.5 25q-1 14 8 47.5t21 71t24 72t17 49.5q1 3 -3.5 4.5t-20.5 1.5q-8 0 -8 5t5.5 15.5t13.5 12.5 q10 2 16 2.5t10 3.5t7 9t7 18q3 9 12 37t18.5 59t16 57t4.5 32q-2 5 -9 5q-41 0 -81 -3t-66 -11l-3 1q-1 6 -0.5 14t2.5 16.5t4.5 15t4.5 8.5q42 -3 88.5 -4.5t88.5 -1.5q14 0 49.5 1.5t78.5 3t87.5 3t75.5 1.5q7 0 9 -8l-4 -12l-6.5 -19.5t-6.5 -21.5t-5 -18l-5 1 q-7 19 -16 23q-45 6 -96.5 9t-100.5 3q-11 0 -17 -3t-10 -11q-14 -24 -24 -47t-18.5 -47t-16.5 -50t-18 -55q-3 -12 11 -12q29 -2 66.5 -2.5t76 1.5t74 6t59.5 11l5 -4q-1 -3 -3.5 -9t-4.5 -13t-3.5 -13.5t-1.5 -9.5q-1 -5 -11 -5q-20 0 -60 0.5t-82.5 0.5h-79.5t-52 -1 q-10 0 -13 -8q-20 -51 -38.5 -105t-16.5 -108q1 -31 24.5 -38t65.5 -7q37 0 89 4.5t104.5 14.5t98.5 26.5t73 40.5zM523 676q3 -19 -1 -23q-2 -3 -11.5 -10.5t-14.5 -7.5q-3 0 -5 11q-7 30 -15 58t-19 57q-2 7 -5.5 8.5t-8.5 -4.5q-19 -25 -36.5 -49.5t-34.5 -47.5 q-10 -16 -14 -16q-1 0 -5.5 0.5l-9 1t-8.5 2t-5 3.5q-2 8 7 20q13 17 28 35.5t30.5 38t31.5 37.5t31 33q4 4 10 3t8 -5q14 -42 28 -81t19 -64zM593 787q0 -6 -8.5 -10t-10.5 0q-31 38 -63.5 75t-55.5 74q0 3 3 9t7 11.5t8 10t5 4.5h5.5t5.5 -3q9 -17 18.5 -34.5t21 -38 t27 -44.5t37.5 -54z" />
<glyph unicode="&#xea;&#x300;" horiz-adv-x="308" d="M112 176q-2 -11 -6.5 -33t-3.5 -47q2 -37 16.5 -51t49.5 -14q34 0 67 16t62 40t52 52.5t36 53.5q3 3 13 -3.5t11 -10.5q-18 -32 -45 -65.5t-61.5 -61.5t-74.5 -45.5t-83 -17.5q-35 0 -62.5 26t-29.5 71q-1 41 10.5 84t33 78.5t53.5 58.5t71 23q23 0 37 -12t16 -40 q2 -43 -38 -72.5t-124 -29.5zM117 204q4 -1 11.5 -2t12.5 -1q15 0 32 5t30.5 14.5t22 22.5t8.5 28q0 10 -5 17t-20 7q-30 0 -55.5 -25.5t-36.5 -65.5zM317 443q3 -19 -1 -23q-2 -3 -11.5 -10.5t-14.5 -7.5q-3 0 -5 11q-7 30 -15 58t-19 57q-2 7 -5.5 8.5t-8.5 -4.5 q-19 -25 -36.5 -49.5t-34.5 -47.5q-10 -16 -14 -16q-1 0 -5.5 0.5l-9 1t-8.5 2t-5 3.5q-2 8 7 20q13 17 28 35.5t30.5 38t31.5 37.5t31 33q4 4 10 3t8 -5q14 -42 28 -81t19 -64zM378 570q0 -6 -8.5 -10t-10.5 0q-31 38 -63.5 75t-55.5 74q0 3 3 9t7 11.5t8 10t5 4.5h5.5 t5.5 -3q9 -17 18.5 -34.5t21 -38t27 -44.5t37.5 -54z" />
<glyph unicode="&#xca;&#x309;" horiz-adv-x="615" d="M625 113q4 4 7 -5q-4 -4 -7 -12t-5.5 -17t-4 -17t-2.5 -12q-8 -17 -34 -24q-32 -8 -69.5 -14.5t-76.5 -11.5t-78 -8t-73 -3q-54 0 -87.5 5t-52 13.5t-25 20.5t-6.5 25q-1 14 8 47.5t21 71t24 72t17 49.5q1 3 -3.5 4.5t-20.5 1.5q-8 0 -8 5t5.5 15.5t13.5 12.5 q10 2 16 2.5t10 3.5t7 9t7 18q3 9 12 37t18.5 59t16 57t4.5 32q-2 5 -9 5q-41 0 -81 -3t-66 -11l-3 1q-1 6 -0.5 14t2.5 16.5t4.5 15t4.5 8.5q42 -3 88.5 -4.5t88.5 -1.5q14 0 49.5 1.5t78.5 3t87.5 3t75.5 1.5q7 0 9 -8l-4 -12l-6.5 -19.5t-6.5 -21.5t-5 -18l-5 1 q-7 19 -16 23q-45 6 -96.5 9t-100.5 3q-11 0 -17 -3t-10 -11q-14 -24 -24 -47t-18.5 -47t-16.5 -50t-18 -55q-3 -12 11 -12q29 -2 66.5 -2.5t76 1.5t74 6t59.5 11l5 -4q-1 -3 -3.5 -9t-4.5 -13t-3.5 -13.5t-1.5 -9.5q-1 -5 -11 -5q-20 0 -60 0.5t-82.5 0.5h-79.5t-52 -1 q-10 0 -13 -8q-20 -51 -38.5 -105t-16.5 -108q1 -31 24.5 -38t65.5 -7q37 0 89 4.5t104.5 14.5t98.5 26.5t73 40.5zM533 695q3 -19 -1 -23q-2 -3 -11.5 -10.5t-14.5 -7.5q-3 0 -5 11q-7 30 -15 58t-19 57q-2 7 -5.5 8.5t-8.5 -4.5q-19 -25 -36.5 -49.5t-34.5 -47.5 q-10 -16 -14 -16q-1 0 -5.5 0.5l-9 1t-8.5 2t-5 3.5q-2 8 7 20q13 17 28 35.5t30.5 38t31.5 37.5t31 33q4 4 10 3t8 -5q14 -42 28 -81t19 -64zM546 811q0 2 1 6.5t3 5.5q39 16 62 39t23 43q-2 23 -13.5 29.5t-34.5 6.5q-11 0 -19.5 -1.5t-13.5 -1.5q-3 0 -4 4.5t-1 9.5 t1.5 10t4.5 6q12 3 22 5t26 2q32 0 53.5 -14.5t22.5 -37.5q1 -24 -14.5 -46.5t-36.5 -39.5t-43 -27t-35 -10q-2 0 -3 4.5t-1 6.5z" />
<glyph unicode="&#xea;&#x309;" horiz-adv-x="308" d="M112 176q-2 -11 -6.5 -33t-3.5 -47q2 -37 16.5 -51t49.5 -14q34 0 67 16t62 40t52 52.5t36 53.5q3 3 13 -3.5t11 -10.5q-18 -32 -45 -65.5t-61.5 -61.5t-74.5 -45.5t-83 -17.5q-35 0 -62.5 26t-29.5 71q-1 41 10.5 84t33 78.5t53.5 58.5t71 23q23 0 37 -12t16 -40 q2 -43 -38 -72.5t-124 -29.5zM117 204q4 -1 11.5 -2t12.5 -1q15 0 32 5t30.5 14.5t22 22.5t8.5 28q0 10 -5 17t-20 7q-30 0 -55.5 -25.5t-36.5 -65.5zM352 449q3 -19 -1 -23q-2 -3 -11.5 -10.5t-14.5 -7.5q-3 0 -5 11q-7 30 -15 58t-19 57q-2 7 -5.5 8.5t-8.5 -4.5 q-19 -25 -36.5 -49.5t-34.5 -47.5q-10 -16 -14 -16q-1 0 -5.5 0.5l-9 1t-8.5 2t-5 3.5q-2 8 7 20q13 17 28 35.5t30.5 38t31.5 37.5t31 33q4 4 10 3t8 -5q14 -42 28 -81t19 -64zM351 559q0 2 1 6.5t3 5.5q39 16 62 39t23 43q-2 23 -13.5 29.5t-34.5 6.5q-11 0 -19.5 -1.5 t-13.5 -1.5q-3 0 -4 4.5t-1 9.5t1.5 10t4.5 6q12 3 22 5t26 2q32 0 53.5 -14.5t22.5 -37.5q1 -24 -14.5 -46.5t-36.5 -39.5t-43 -27t-35 -10q-2 0 -3 4.5t-1 6.5z" />
<glyph unicode="&#xca;&#x303;" horiz-adv-x="615" d="M625 113q4 4 7 -5q-4 -4 -7 -12t-5.5 -17t-4 -17t-2.5 -12q-8 -17 -34 -24q-32 -8 -69.5 -14.5t-76.5 -11.5t-78 -8t-73 -3q-54 0 -87.5 5t-52 13.5t-25 20.5t-6.5 25q-1 14 8 47.5t21 71t24 72t17 49.5q1 3 -3.5 4.5t-20.5 1.5q-8 0 -8 5t5.5 15.5t13.5 12.5 q10 2 16 2.5t10 3.5t7 9t7 18q3 9 12 37t18.5 59t16 57t4.5 32q-2 5 -9 5q-41 0 -81 -3t-66 -11l-3 1q-1 6 -0.5 14t2.5 16.5t4.5 15t4.5 8.5q42 -3 88.5 -4.5t88.5 -1.5q14 0 49.5 1.5t78.5 3t87.5 3t75.5 1.5q7 0 9 -8l-4 -12l-6.5 -19.5t-6.5 -21.5t-5 -18l-5 1 q-7 19 -16 23q-45 6 -96.5 9t-100.5 3q-11 0 -17 -3t-10 -11q-14 -24 -24 -47t-18.5 -47t-16.5 -50t-18 -55q-3 -12 11 -12q29 -2 66.5 -2.5t76 1.5t74 6t59.5 11l5 -4q-1 -3 -3.5 -9t-4.5 -13t-3.5 -13.5t-1.5 -9.5q-1 -5 -11 -5q-20 0 -60 0.5t-82.5 0.5h-79.5t-52 -1 q-10 0 -13 -8q-20 -51 -38.5 -105t-16.5 -108q1 -31 24.5 -38t65.5 -7q37 0 89 4.5t104.5 14.5t98.5 26.5t73 40.5zM524 698q3 -19 -1 -23q-2 -3 -11.5 -10.5t-14.5 -7.5q-3 0 -5 11q-7 30 -15 58t-19 57q-2 7 -5.5 8.5t-8.5 -4.5q-19 -25 -36.5 -49.5t-34.5 -47.5 q-10 -16 -14 -16q-1 0 -5.5 0.5l-9 1t-8.5 2t-5 3.5q-2 8 7 20q13 17 28 35.5t30.5 38t31.5 37.5t31 33q4 4 10 3t8 -5q14 -42 28 -81t19 -64zM641 961q2 -18 -2.5 -34.5t-13.5 -29.5t-22.5 -21t-30.5 -8q-21 0 -41.5 11.5t-40 25t-37.5 24.5t-33 11q-11 0 -18 -6t-11.5 -15 t-7.5 -19.5t-7 -18.5q-3 -5 -9.5 -7t-13 -1t-11 5.5t-3.5 11.5q2 10 9.5 25t19 29.5t28 25t36.5 10.5q17 0 35.5 -12t37 -26.5t37 -26.5t35.5 -12t27 17t3 41q-1 3 4 6.5t11 4.5t12 -1t7 -10z" />
<glyph unicode="&#xea;&#x303;" horiz-adv-x="308" d="M112 176q-2 -11 -6.5 -33t-3.5 -47q2 -37 16.5 -51t49.5 -14q34 0 67 16t62 40t52 52.5t36 53.5q3 3 13 -3.5t11 -10.5q-18 -32 -45 -65.5t-61.5 -61.5t-74.5 -45.5t-83 -17.5q-35 0 -62.5 26t-29.5 71q-1 41 10.5 84t33 78.5t53.5 58.5t71 23q23 0 37 -12t16 -40 q2 -43 -38 -72.5t-124 -29.5zM117 204q4 -1 11.5 -2t12.5 -1q15 0 32 5t30.5 14.5t22 22.5t8.5 28q0 10 -5 17t-20 7q-30 0 -55.5 -25.5t-36.5 -65.5zM353 443q3 -19 -1 -23q-2 -3 -11.5 -10.5t-14.5 -7.5q-3 0 -5 11q-7 30 -15 58t-19 57q-2 7 -5.5 8.5t-8.5 -4.5 q-19 -25 -36.5 -49.5t-34.5 -47.5q-10 -16 -14 -16q-1 0 -5.5 0.5l-9 1t-8.5 2t-5 3.5q-2 8 7 20q13 17 28 35.5t30.5 38t31.5 37.5t31 33q4 4 10 3t8 -5q14 -42 28 -81t19 -64zM464 731q2 -18 -2.5 -34.5t-13.5 -29.5t-22.5 -21t-30.5 -8q-21 0 -41.5 11.5t-40 25 t-37.5 24.5t-33 11q-11 0 -18 -6t-11.5 -15t-7.5 -19.5t-7 -18.5q-3 -5 -9.5 -7t-13 -1t-11 5.5t-3.5 11.5q2 10 9.5 25t19 29.5t28 25t36.5 10.5q17 0 35.5 -12t37 -26.5t37 -26.5t35.5 -12t27 17t3 41q-1 3 4 6.5t11 4.5t12 -1t7 -10z" />
<glyph unicode="&#xca;&#x323;" horiz-adv-x="615" d="M625 113q4 4 7 -5q-4 -4 -7 -12t-5.5 -17t-4 -17t-2.5 -12q-8 -17 -34 -24q-32 -8 -69.5 -14.5t-76.5 -11.5t-78 -8t-73 -3q-54 0 -87.5 5t-52 13.5t-25 20.5t-6.5 25q-1 14 8 47.5t21 71t24 72t17 49.5q1 3 -3.5 4.5t-20.5 1.5q-8 0 -8 5t5.5 15.5t13.5 12.5 q10 2 16 2.5t10 3.5t7 9t7 18q3 9 12 37t18.5 59t16 57t4.5 32q-2 5 -9 5q-41 0 -81 -3t-66 -11l-3 1q-1 6 -0.5 14t2.5 16.5t4.5 15t4.5 8.5q42 -3 88.5 -4.5t88.5 -1.5q14 0 49.5 1.5t78.5 3t87.5 3t75.5 1.5q7 0 9 -8l-4 -12l-6.5 -19.5t-6.5 -21.5t-5 -18l-5 1 q-7 19 -16 23q-45 6 -96.5 9t-100.5 3q-11 0 -17 -3t-10 -11q-14 -24 -24 -47t-18.5 -47t-16.5 -50t-18 -55q-3 -12 11 -12q29 -2 66.5 -2.5t76 1.5t74 6t59.5 11l5 -4q-1 -3 -3.5 -9t-4.5 -13t-3.5 -13.5t-1.5 -9.5q-1 -5 -11 -5q-20 0 -60 0.5t-82.5 0.5h-79.5t-52 -1 q-10 0 -13 -8q-20 -51 -38.5 -105t-16.5 -108q1 -31 24.5 -38t65.5 -7q37 0 89 4.5t104.5 14.5t98.5 26.5t73 40.5zM277 -77q12 0 23 -8t11 -28q1 -14 -10 -25.5t-25 -11.5q-13 0 -23 9.5t-10 25.5q-1 14 7.5 26t26.5 12zM525 695q3 -19 -1 -23q-2 -3 -11.5 -10.5 t-14.5 -7.5q-3 0 -5 11q-7 30 -15 58t-19 57q-2 7 -5.5 8.5t-8.5 -4.5q-19 -25 -36.5 -49.5t-34.5 -47.5q-10 -16 -14 -16q-1 0 -5.5 0.5l-9 1t-8.5 2t-5 3.5q-2 8 7 20q13 17 28 35.5t30.5 38t31.5 37.5t31 33q4 4 10 3t8 -5q14 -42 28 -81t19 -64z" />
<glyph unicode="&#xea;&#x323;" horiz-adv-x="308" d="M112 176q-2 -11 -6.5 -33t-3.5 -47q2 -37 16.5 -51t49.5 -14q34 0 67 16t62 40t52 52.5t36 53.5q3 3 13 -3.5t11 -10.5q-18 -32 -45 -65.5t-61.5 -61.5t-74.5 -45.5t-83 -17.5q-35 0 -62.5 26t-29.5 71q-1 41 10.5 84t33 78.5t53.5 58.5t71 23q23 0 37 -12t16 -40 q2 -43 -38 -72.5t-124 -29.5zM117 204q4 -1 11.5 -2t12.5 -1q15 0 32 5t30.5 14.5t22 22.5t8.5 28q0 10 -5 17t-20 7q-30 0 -55.5 -25.5t-36.5 -65.5zM191 -77q12 0 23 -8t11 -28q1 -14 -10 -25.5t-25 -11.5q-13 0 -23 9.5t-10 25.5q-1 14 7.5 26t26.5 12zM323 443 q3 -19 -1 -23q-2 -3 -11.5 -10.5t-14.5 -7.5q-3 0 -5 11q-7 30 -15 58t-19 57q-2 7 -5.5 8.5t-8.5 -4.5q-19 -25 -36.5 -49.5t-34.5 -47.5q-10 -16 -14 -16q-1 0 -5.5 0.5l-9 1t-8.5 2t-5 3.5q-2 8 7 20q13 17 28 35.5t30.5 38t31.5 37.5t31 33q4 4 10 3t8 -5q14 -42 28 -81 t19 -64z" />
<glyph unicode="I&#x309;" horiz-adv-x="331" d="M44 7q23 2 35 20q12 21 29.5 58t37.5 82.5t40 96t37 98t29 88.5t15 68q3 19 -5.5 24.5t-34.5 5.5q-17 0 -37 -1.5t-36 -4.5q-2 10 2 22.5t6 16.5q56 3 105 4t84 7q5 -2 6.5 -11.5t0.5 -14.5q0 -1 -4 -3t-9.5 -4.5t-10 -6t-6.5 -8.5q-20 -51 -41.5 -115.5t-45 -132.5 t-49 -136t-54.5 -126q-8 -17 -17 -25.5t-19.5 -11t-23 -2t-27.5 1.5q-1 1 -3 4zM266 676q0 2 1 6.5t3 5.5q39 16 62 39t23 43q-2 23 -13.5 29.5t-34.5 6.5q-11 0 -19.5 -1.5t-13.5 -1.5q-3 0 -4 4.5t-1 9.5t1.5 10t4.5 6q12 3 22 5t26 2q32 0 53.5 -14.5t22.5 -37.5 q1 -24 -14.5 -46.5t-36.5 -39.5t-43 -27t-35 -10q-2 0 -3 4.5t-1 6.5z" />
<glyph unicode="i&#x309;" horiz-adv-x="272" d="M133 421q0 2 1 6.5t3 5.5q39 16 62 39t23 43q-2 23 -13.5 29.5t-34.5 6.5q-11 0 -19.5 -1.5t-13.5 -1.5q-3 0 -4 4.5t-1 9.5t1.5 10t4.5 6q12 3 22 5t26 2q32 0 53.5 -14.5t22.5 -37.5q1 -24 -14.5 -46.5t-36.5 -39.5t-43 -27t-35 -10q-2 0 -3 4.5t-1 6.5zM375 197 q-25 -48 -61.5 -89.5t-71.5 -66.5q-52 -41 -107 -41q-10 0 -22.5 2t-24 7t-20.5 15.5t-12 26.5q-4 19 2.5 53t18 70.5t25 69t21.5 49.5q7 12 23 20t22 8t12 -8.5t3 -13.5q-19 -34 -33 -67.5t-23 -63t-11.5 -53.5t1.5 -39q7 -35 42 -35q29 0 57.5 17t53.5 42t45.5 53.5 t32.5 50.5q2 4 7 5t9.5 -0.5t8 -5t2.5 -6.5z" />
<glyph unicode="I&#x323;" horiz-adv-x="331" d="M44 7q23 2 35 20q12 21 29.5 58t37.5 82.5t40 96t37 98t29 88.5t15 68q3 19 -5.5 24.5t-34.5 5.5q-17 0 -37 -1.5t-36 -4.5q-2 10 2 22.5t6 16.5q56 3 105 4t84 7q5 -2 6.5 -11.5t0.5 -14.5q0 -1 -4 -3t-9.5 -4.5t-10 -6t-6.5 -8.5q-20 -51 -41.5 -115.5t-45 -132.5 t-49 -136t-54.5 -126q-8 -17 -17 -25.5t-19.5 -11t-23 -2t-27.5 1.5q-1 1 -3 4zM117 -77q12 0 23 -8t11 -28q1 -14 -10 -25.5t-25 -11.5q-13 0 -23 9.5t-10 25.5q-1 14 7.5 26t26.5 12z" />
<glyph unicode="i&#x323;" horiz-adv-x="272" d="M232 531q5 -18 -6.5 -36t-31.5 -18q-17 0 -23 18q-5 20 5.5 38t31.5 18q19 0 24 -20zM375 197q-19 -35 -45 -71.5t-57 -66.5t-67 -49.5t-76 -19.5q-12 0 -26 3t-26 10t-20 19.5t-8 31.5q-1 22 8.5 58t22 73t26 69.5t21.5 48.5q6 12 22.5 20t22.5 8q8 0 9 -4q0 -3 -0.5 -9 t-3.5 -9q-13 -26 -26.5 -59.5t-24.5 -67.5t-18 -63.5t-6 -47.5q1 -23 15 -30t31 -7q29 0 59.5 19.5t58 47.5t50 58.5t34.5 52.5q2 4 6.5 3.5t8.5 -3.5t7 -7.5t2 -7.5zM89 -77q12 0 23 -8t11 -28q1 -14 -10 -25.5t-25 -11.5q-13 0 -23 9.5t-10 25.5q-1 14 7.5 26t26.5 12z " />
<glyph unicode="O&#x323;" horiz-adv-x="736" d="M698 347q3 -75 -14.5 -140.5t-56 -114t-97.5 -77t-139 -28.5q-60 0 -109 17.5t-85 50.5t-57 82t-23 112q-3 85 18 151t62 111.5t101.5 69t136.5 23.5q56 0 103 -18.5t82 -52.5t55.5 -81.5t22.5 -104.5zM646 337q-1 45 -17 86t-43.5 73t-64.5 51t-81 19 q-72 0 -124.5 -23.5t-85.5 -66t-48 -101.5t-12 -130q2 -46 20 -85.5t47.5 -68.5t66 -46t75.5 -17q70 0 121 23t84.5 64.5t48.5 98t13 123.5zM400 -77q12 0 23 -8t11 -28q1 -14 -10 -25.5t-25 -11.5q-13 0 -23 9.5t-10 25.5q-1 14 7.5 26t26.5 12z" />
<glyph unicode="o&#x323;" horiz-adv-x="381" d="M523 256q-9 -17 -22.5 -33t-30.5 -29t-37.5 -20.5t-44.5 -7.5q-25 0 -51 10t-46 35q-4 -30 -14 -68t-28.5 -72t-47.5 -57.5t-71 -23.5q-39 0 -59.5 26t-21.5 60q-2 48 12.5 92.5t41.5 79t63 56.5t78 23q2 12 4 27.5t16 18.5q7 2 14.5 3.5t12.5 4.5q3 3 8.5 0.5t3.5 -8.5 q-3 -8 -5.5 -20.5t-1.5 -25.5q1 -25 7 -48t17.5 -41t29 -29t41.5 -11q15 0 30 6t29.5 16t26.5 23.5t20 28.5q1 3 6.5 2t10.5 -4t8.5 -7t0.5 -7zM259 262q-1 3 -2 5t-1.5 4.5t-2 6.5t-3.5 13q0 7 -6 7q-27 0 -52 -20.5t-44.5 -51t-30.5 -67t-10 -68.5q0 -7 2 -17.5t5.5 -19.5 t10 -15.5t16.5 -6.5q26 0 48.5 28t38.5 66t24.5 76.5t6.5 59.5zM131 -77q12 0 23 -8t11 -28q1 -14 -10 -25.5t-25 -11.5q-13 0 -23 9.5t-10 25.5q-1 14 7.5 26t26.5 12z" />
<glyph unicode="O&#x309;" horiz-adv-x="736" d="M698 347q3 -75 -14.5 -140.5t-56 -114t-97.5 -77t-139 -28.5q-60 0 -109 17.5t-85 50.5t-57 82t-23 112q-3 85 18 151t62 111.5t101.5 69t136.5 23.5q56 0 103 -18.5t82 -52.5t55.5 -81.5t22.5 -104.5zM646 337q-1 45 -17 86t-43.5 73t-64.5 51t-81 19 q-72 0 -124.5 -23.5t-85.5 -66t-48 -101.5t-12 -130q2 -46 20 -85.5t47.5 -68.5t66 -46t75.5 -17q70 0 121 23t84.5 64.5t48.5 98t13 123.5zM485 662q0 2 1 6.5t3 5.5q39 16 62 39t23 43q-2 23 -13.5 29.5t-34.5 6.5q-11 0 -19.5 -1.5t-13.5 -1.5q-3 0 -4 4.5t-1 9.5t1.5 10 t4.5 6q12 3 22 5t26 2q32 0 53.5 -14.5t22.5 -37.5q1 -24 -14.5 -46.5t-36.5 -39.5t-43 -27t-35 -10q-2 0 -3 4.5t-1 6.5z" />
<glyph unicode="o&#x309;" horiz-adv-x="381" d="M523 256q-9 -17 -22.5 -33t-30.5 -29t-37.5 -20.5t-44.5 -7.5q-25 0 -51 10t-46 35q-4 -30 -14 -68t-28.5 -72t-47.5 -57.5t-71 -23.5q-39 0 -59.5 26t-21.5 60q-2 48 12.5 92.5t41.5 79t63 56.5t78 23q2 12 4 27.5t16 18.5q7 2 14.5 3.5t12.5 4.5q3 3 8.5 0.5t3.5 -8.5 q-3 -8 -5.5 -20.5t-1.5 -25.5q1 -25 7 -48t17.5 -41t29 -29t41.5 -11q15 0 30 6t29.5 16t26.5 23.5t20 28.5q1 3 6.5 2t10.5 -4t8.5 -7t0.5 -7zM259 262q-1 3 -2 5t-1.5 4.5t-2 6.5t-3.5 13q0 7 -6 7q-27 0 -52 -20.5t-44.5 -51t-30.5 -67t-10 -68.5q0 -7 2 -17.5t5.5 -19.5 t10 -15.5t16.5 -6.5q26 0 48.5 28t38.5 66t24.5 76.5t6.5 59.5zM200 421q0 2 1 6.5t3 5.5q39 16 62 39t23 43q-2 23 -13.5 29.5t-34.5 6.5q-11 0 -19.5 -1.5t-13.5 -1.5q-3 0 -4 4.5t-1 9.5t1.5 10t4.5 6q12 3 22 5t26 2q32 0 53.5 -14.5t22.5 -37.5q1 -24 -14.5 -46.5 t-36.5 -39.5t-43 -27t-35 -10q-2 0 -3 4.5t-1 6.5z" />
<glyph unicode="&#xd4;&#x301;" horiz-adv-x="736" d="M698 347q3 -75 -14.5 -140.5t-56 -114t-97.5 -77t-139 -28.5q-60 0 -109 17.5t-85 50.5t-57 82t-23 112q-3 85 18 151t62 111.5t101.5 69t136.5 23.5q56 0 103 -18.5t82 -52.5t55.5 -81.5t22.5 -104.5zM646 337q-1 45 -17 86t-43.5 73t-64.5 51t-81 19 q-72 0 -124.5 -23.5t-85.5 -66t-48 -101.5t-12 -130q2 -46 20 -85.5t47.5 -68.5t66 -46t75.5 -17q70 0 121 23t84.5 64.5t48.5 98t13 123.5zM585 689q3 -19 -1 -23q-2 -3 -11.5 -10.5t-14.5 -7.5q-3 0 -5 11q-7 30 -15 58t-19 57q-2 7 -5.5 8.5t-8.5 -4.5 q-19 -25 -36.5 -49.5t-34.5 -47.5q-10 -16 -14 -16q-1 0 -5.5 0.5l-9 1t-8.5 2t-5 3.5q-2 8 7 20q13 17 28 35.5t30.5 38t31.5 37.5t31 33q4 4 10 3t8 -5q14 -42 28 -81t19 -64zM809 934q2 -7 -1 -10q-22 -20 -44 -37.5t-45.5 -35.5t-48.5 -38.5t-52 -45.5q-3 -3 -6.5 -2 t-6.5 4t-4 6.5t0 4.5q44 44 85.5 87t81.5 87q2 3 4.5 3h3.5q2 0 6.5 -3t10 -6.5t10.5 -7.5t6 -6z" />
<glyph unicode="&#xf4;&#x301;" horiz-adv-x="381" d="M523 256q-9 -17 -22.5 -33t-30.5 -29t-37.5 -20.5t-44.5 -7.5q-25 0 -51 10t-46 35q-4 -30 -14 -68t-28.5 -72t-47.5 -57.5t-71 -23.5q-39 0 -59.5 26t-21.5 60q-2 48 12.5 92.5t41.5 79t63 56.5t78 23q2 12 4 27.5t16 18.5q7 2 14.5 3.5t12.5 4.5q3 3 8.5 0.5t3.5 -8.5 q-3 -8 -5.5 -20.5t-1.5 -25.5q1 -25 7 -48t17.5 -41t29 -29t41.5 -11q15 0 30 6t29.5 16t26.5 23.5t20 28.5q1 3 6.5 2t10.5 -4t8.5 -7t0.5 -7zM259 262q-1 3 -2 5t-1.5 4.5t-2 6.5t-3.5 13q0 7 -6 7q-27 0 -52 -20.5t-44.5 -51t-30.5 -67t-10 -68.5q0 -7 2 -17.5t5.5 -19.5 t10 -15.5t16.5 -6.5q26 0 48.5 28t38.5 66t24.5 76.5t6.5 59.5zM351 443q3 -19 -1 -23q-2 -3 -11.5 -10.5t-14.5 -7.5q-3 0 -5 11q-7 30 -15 58t-19 57q-2 7 -5.5 8.5t-8.5 -4.5q-19 -25 -36.5 -49.5t-34.5 -47.5q-10 -16 -14 -16q-1 0 -5.5 0.5l-9 1t-8.5 2t-5 3.5 q-2 8 7 20q13 17 28 35.5t30.5 38t31.5 37.5t31 33q4 4 10 3t8 -5q14 -42 28 -81t19 -64zM575 711q2 -7 -1 -10q-22 -20 -44 -37.5t-45.5 -35.5t-48.5 -38.5t-52 -45.5q-3 -3 -6.5 -2t-6.5 4t-4 6.5t0 4.5q44 44 85.5 87t81.5 87q2 3 4.5 3h3.5q2 0 6.5 -3t10 -6.5 t10.5 -7.5t6 -6z" />
<glyph unicode="&#xd4;&#x300;" horiz-adv-x="736" d="M698 347q3 -75 -14.5 -140.5t-56 -114t-97.5 -77t-139 -28.5q-60 0 -109 17.5t-85 50.5t-57 82t-23 112q-3 85 18 151t62 111.5t101.5 69t136.5 23.5q56 0 103 -18.5t82 -52.5t55.5 -81.5t22.5 -104.5zM646 337q-1 45 -17 86t-43.5 73t-64.5 51t-81 19 q-72 0 -124.5 -23.5t-85.5 -66t-48 -101.5t-12 -130q2 -46 20 -85.5t47.5 -68.5t66 -46t75.5 -17q70 0 121 23t84.5 64.5t48.5 98t13 123.5zM556 694q3 -19 -1 -23q-2 -3 -11.5 -10.5t-14.5 -7.5q-3 0 -5 11q-7 30 -15 58t-19 57q-2 7 -5.5 8.5t-8.5 -4.5 q-19 -25 -36.5 -49.5t-34.5 -47.5q-10 -16 -14 -16q-1 0 -5.5 0.5l-9 1t-8.5 2t-5 3.5q-2 8 7 20q13 17 28 35.5t30.5 38t31.5 37.5t31 33q4 4 10 3t8 -5q14 -42 28 -81t19 -64zM645 790q0 -6 -8.5 -10t-10.5 0q-31 38 -63.5 75t-55.5 74q0 3 3 9t7 11.5t8 10t5 4.5h5.5 t5.5 -3q9 -17 18.5 -34.5t21 -38t27 -44.5t37.5 -54z" />
<glyph unicode="&#xf4;&#x300;" horiz-adv-x="381" d="M523 256q-9 -17 -22.5 -33t-30.5 -29t-37.5 -20.5t-44.5 -7.5q-25 0 -51 10t-46 35q-4 -30 -14 -68t-28.5 -72t-47.5 -57.5t-71 -23.5q-39 0 -59.5 26t-21.5 60q-2 48 12.5 92.5t41.5 79t63 56.5t78 23q2 12 4 27.5t16 18.5q7 2 14.5 3.5t12.5 4.5q3 3 8.5 0.5t3.5 -8.5 q-3 -8 -5.5 -20.5t-1.5 -25.5q1 -25 7 -48t17.5 -41t29 -29t41.5 -11q15 0 30 6t29.5 16t26.5 23.5t20 28.5q1 3 6.5 2t10.5 -4t8.5 -7t0.5 -7zM259 262q-1 3 -2 5t-1.5 4.5t-2 6.5t-3.5 13q0 7 -6 7q-27 0 -52 -20.5t-44.5 -51t-30.5 -67t-10 -68.5q0 -7 2 -17.5t5.5 -19.5 t10 -15.5t16.5 -6.5q26 0 48.5 28t38.5 66t24.5 76.5t6.5 59.5zM343 443q3 -19 -1 -23q-2 -3 -11.5 -10.5t-14.5 -7.5q-3 0 -5 11q-7 30 -15 58t-19 57q-2 7 -5.5 8.5t-8.5 -4.5q-19 -25 -36.5 -49.5t-34.5 -47.5q-10 -16 -14 -16q-1 0 -5.5 0.5l-9 1t-8.5 2t-5 3.5 q-2 8 7 20q13 17 28 35.5t30.5 38t31.5 37.5t31 33q4 4 10 3t8 -5q14 -42 28 -81t19 -64zM425 563q0 -6 -8.5 -10t-10.5 0q-31 38 -63.5 75t-55.5 74q0 3 3 9t7 11.5t8 10t5 4.5h5.5t5.5 -3q9 -17 18.5 -34.5t21 -38t27 -44.5t37.5 -54z" />
<glyph unicode="&#xd4;&#x309;" horiz-adv-x="736" d="M698 347q3 -75 -14.5 -140.5t-56 -114t-97.5 -77t-139 -28.5q-60 0 -109 17.5t-85 50.5t-57 82t-23 112q-3 85 18 151t62 111.5t101.5 69t136.5 23.5q56 0 103 -18.5t82 -52.5t55.5 -81.5t22.5 -104.5zM646 337q-1 45 -17 86t-43.5 73t-64.5 51t-81 19 q-72 0 -124.5 -23.5t-85.5 -66t-48 -101.5t-12 -130q2 -46 20 -85.5t47.5 -68.5t66 -46t75.5 -17q70 0 121 23t84.5 64.5t48.5 98t13 123.5zM586 692q3 -19 -1 -23q-2 -3 -11.5 -10.5t-14.5 -7.5q-3 0 -5 11q-7 30 -15 58t-19 57q-2 7 -5.5 8.5t-8.5 -4.5 q-19 -25 -36.5 -49.5t-34.5 -47.5q-10 -16 -14 -16q-1 0 -5.5 0.5l-9 1t-8.5 2t-5 3.5q-2 8 7 20q13 17 28 35.5t30.5 38t31.5 37.5t31 33q4 4 10 3t8 -5q14 -42 28 -81t19 -64zM611 798q0 2 1 6.5t3 5.5q39 16 62 39t23 43q-2 23 -13.5 29.5t-34.5 6.5q-11 0 -19.5 -1.5 t-13.5 -1.5q-3 0 -4 4.5t-1 9.5t1.5 10t4.5 6q12 3 22 5t26 2q32 0 53.5 -14.5t22.5 -37.5q1 -24 -14.5 -46.5t-36.5 -39.5t-43 -27t-35 -10q-2 0 -3 4.5t-1 6.5z" />
<glyph unicode="&#xf4;&#x309;" horiz-adv-x="381" d="M523 256q-9 -17 -22.5 -33t-30.5 -29t-37.5 -20.5t-44.5 -7.5q-25 0 -51 10t-46 35q-4 -30 -14 -68t-28.5 -72t-47.5 -57.5t-71 -23.5q-39 0 -59.5 26t-21.5 60q-2 48 12.5 92.5t41.5 79t63 56.5t78 23q2 12 4 27.5t16 18.5q7 2 14.5 3.5t12.5 4.5q3 3 8.5 0.5t3.5 -8.5 q-3 -8 -5.5 -20.5t-1.5 -25.5q1 -25 7 -48t17.5 -41t29 -29t41.5 -11q15 0 30 6t29.5 16t26.5 23.5t20 28.5q1 3 6.5 2t10.5 -4t8.5 -7t0.5 -7zM259 262q-1 3 -2 5t-1.5 4.5t-2 6.5t-3.5 13q0 7 -6 7q-27 0 -52 -20.5t-44.5 -51t-30.5 -67t-10 -68.5q0 -7 2 -17.5t5.5 -19.5 t10 -15.5t16.5 -6.5q26 0 48.5 28t38.5 66t24.5 76.5t6.5 59.5zM342 443q3 -19 -1 -23q-2 -3 -11.5 -10.5t-14.5 -7.5q-3 0 -5 11q-7 30 -15 58t-19 57q-2 7 -5.5 8.5t-8.5 -4.5q-19 -25 -36.5 -49.5t-34.5 -47.5q-10 -16 -14 -16q-1 0 -5.5 0.5l-9 1t-8.5 2t-5 3.5 q-2 8 7 20q13 17 28 35.5t30.5 38t31.5 37.5t31 33q4 4 10 3t8 -5q14 -42 28 -81t19 -64zM345 567q0 2 1 6.5t3 5.5q39 16 62 39t23 43q-2 23 -13.5 29.5t-34.5 6.5q-11 0 -19.5 -1.5t-13.5 -1.5q-3 0 -4 4.5t-1 9.5t1.5 10t4.5 6q12 3 22 5t26 2q32 0 53.5 -14.5 t22.5 -37.5q1 -24 -14.5 -46.5t-36.5 -39.5t-43 -27t-35 -10q-2 0 -3 4.5t-1 6.5z" />
<glyph unicode="&#xd4;&#x303;" horiz-adv-x="736" d="M698 347q3 -75 -14.5 -140.5t-56 -114t-97.5 -77t-139 -28.5q-60 0 -109 17.5t-85 50.5t-57 82t-23 112q-3 85 18 151t62 111.5t101.5 69t136.5 23.5q56 0 103 -18.5t82 -52.5t55.5 -81.5t22.5 -104.5zM646 337q-1 45 -17 86t-43.5 73t-64.5 51t-81 19 q-72 0 -124.5 -23.5t-85.5 -66t-48 -101.5t-12 -130q2 -46 20 -85.5t47.5 -68.5t66 -46t75.5 -17q70 0 121 23t84.5 64.5t48.5 98t13 123.5zM590 686q3 -19 -1 -23q-2 -3 -11.5 -10.5t-14.5 -7.5q-3 0 -5 11q-7 30 -15 58t-19 57q-2 7 -5.5 8.5t-8.5 -4.5 q-19 -25 -36.5 -49.5t-34.5 -47.5q-10 -16 -14 -16q-1 0 -5.5 0.5l-9 1t-8.5 2t-5 3.5q-2 8 7 20q13 17 28 35.5t30.5 38t31.5 37.5t31 33q4 4 10 3t8 -5q14 -42 28 -81t19 -64zM715 955q2 -18 -2.5 -34.5t-13.5 -29.5t-22.5 -21t-30.5 -8q-21 0 -41.5 11.5t-40 25 t-37.5 24.5t-33 11q-11 0 -18 -6t-11.5 -15t-7.5 -19.5t-7 -18.5q-3 -5 -9.5 -7t-13 -1t-11 5.5t-3.5 11.5q2 10 9.5 25t19 29.5t28 25t36.5 10.5q17 0 35.5 -12t37 -26.5t37 -26.5t35.5 -12t27 17t3 41q-1 3 4 6.5t11 4.5t12 -1t7 -10z" />
<glyph unicode="&#xf4;&#x303;" horiz-adv-x="381" d="M523 256q-9 -17 -22.5 -33t-30.5 -29t-37.5 -20.5t-44.5 -7.5q-25 0 -51 10t-46 35q-4 -30 -14 -68t-28.5 -72t-47.5 -57.5t-71 -23.5q-39 0 -59.5 26t-21.5 60q-2 48 12.5 92.5t41.5 79t63 56.5t78 23q2 12 4 27.5t16 18.5q7 2 14.5 3.5t12.5 4.5q3 3 8.5 0.5t3.5 -8.5 q-3 -8 -5.5 -20.5t-1.5 -25.5q1 -25 7 -48t17.5 -41t29 -29t41.5 -11q15 0 30 6t29.5 16t26.5 23.5t20 28.5q1 3 6.5 2t10.5 -4t8.5 -7t0.5 -7zM259 262q-1 3 -2 5t-1.5 4.5t-2 6.5t-3.5 13q0 7 -6 7q-27 0 -52 -20.5t-44.5 -51t-30.5 -67t-10 -68.5q0 -7 2 -17.5t5.5 -19.5 t10 -15.5t16.5 -6.5q26 0 48.5 28t38.5 66t24.5 76.5t6.5 59.5zM343 443q3 -19 -1 -23q-2 -3 -11.5 -10.5t-14.5 -7.5q-3 0 -5 11q-7 30 -15 58t-19 57q-2 7 -5.5 8.5t-8.5 -4.5q-19 -25 -36.5 -49.5t-34.5 -47.5q-10 -16 -14 -16q-1 0 -5.5 0.5l-9 1t-8.5 2t-5 3.5 q-2 8 7 20q13 17 28 35.5t30.5 38t31.5 37.5t31 33q4 4 10 3t8 -5q14 -42 28 -81t19 -64zM467 716q2 -18 -2.5 -34.5t-13.5 -29.5t-22.5 -21t-30.5 -8q-21 0 -41.5 11.5t-40 25t-37.5 24.5t-33 11q-11 0 -18 -6t-11.5 -15t-7.5 -19.5t-7 -18.5q-3 -5 -9.5 -7t-13 -1t-11 5.5 t-3.5 11.5q2 10 9.5 25t19 29.5t28 25t36.5 10.5q17 0 35.5 -12t37 -26.5t37 -26.5t35.5 -12t27 17t3 41q-1 3 4 6.5t11 4.5t12 -1t7 -10z" />
<glyph unicode="&#xd4;&#x323;" horiz-adv-x="736" d="M698 347q3 -75 -14.5 -140.5t-56 -114t-97.5 -77t-139 -28.5q-60 0 -109 17.5t-85 50.5t-57 82t-23 112q-3 85 18 151t62 111.5t101.5 69t136.5 23.5q56 0 103 -18.5t82 -52.5t55.5 -81.5t22.5 -104.5zM646 337q-1 45 -17 86t-43.5 73t-64.5 51t-81 19 q-72 0 -124.5 -23.5t-85.5 -66t-48 -101.5t-12 -130q2 -46 20 -85.5t47.5 -68.5t66 -46t75.5 -17q70 0 121 23t84.5 64.5t48.5 98t13 123.5zM370 -77q12 0 23 -8t11 -28q1 -14 -10 -25.5t-25 -11.5q-13 0 -23 9.5t-10 25.5q-1 14 7.5 26t26.5 12zM602 684q3 -19 -1 -23 q-2 -3 -11.5 -10.5t-14.5 -7.5q-3 0 -5 11q-7 30 -15 58t-19 57q-2 7 -5.5 8.5t-8.5 -4.5q-19 -25 -36.5 -49.5t-34.5 -47.5q-10 -16 -14 -16q-1 0 -5.5 0.5l-9 1t-8.5 2t-5 3.5q-2 8 7 20q13 17 28 35.5t30.5 38t31.5 37.5t31 33q4 4 10 3t8 -5q14 -42 28 -81t19 -64z" />
<glyph unicode="&#xf4;&#x323;" horiz-adv-x="381" d="M523 256q-9 -17 -22.5 -33t-30.5 -29t-37.5 -20.5t-44.5 -7.5q-25 0 -51 10t-46 35q-4 -30 -14 -68t-28.5 -72t-47.5 -57.5t-71 -23.5q-39 0 -59.5 26t-21.5 60q-2 48 12.5 92.5t41.5 79t63 56.5t78 23q2 12 4 27.5t16 18.5q7 2 14.5 3.5t12.5 4.5q3 3 8.5 0.5t3.5 -8.5 q-3 -8 -5.5 -20.5t-1.5 -25.5q1 -25 7 -48t17.5 -41t29 -29t41.5 -11q15 0 30 6t29.5 16t26.5 23.5t20 28.5q1 3 6.5 2t10.5 -4t8.5 -7t0.5 -7zM259 262q-1 3 -2 5t-1.5 4.5t-2 6.5t-3.5 13q0 7 -6 7q-27 0 -52 -20.5t-44.5 -51t-30.5 -67t-10 -68.5q0 -7 2 -17.5t5.5 -19.5 t10 -15.5t16.5 -6.5q26 0 48.5 28t38.5 66t24.5 76.5t6.5 59.5zM127 -77q12 0 23 -8t11 -28q1 -14 -10 -25.5t-25 -11.5q-13 0 -23 9.5t-10 25.5q-1 14 7.5 26t26.5 12zM344 443q3 -19 -1 -23q-2 -3 -11.5 -10.5t-14.5 -7.5q-3 0 -5 11q-7 30 -15 58t-19 57q-2 7 -5.5 8.5 t-8.5 -4.5q-19 -25 -36.5 -49.5t-34.5 -47.5q-10 -16 -14 -16q-1 0 -5.5 0.5l-9 1t-8.5 2t-5 3.5q-2 8 7 20q13 17 28 35.5t30.5 38t31.5 37.5t31 33q4 4 10 3t8 -5q14 -42 28 -81t19 -64z" />
<glyph unicode="&#x1a0;&#x301;" horiz-adv-x="776" d="M738 347q3 -75 -18 -140.5t-63 -114t-104 -77t-142 -28.5q-60 0 -112.5 17.5t-92 50.5t-63.5 82t-26 112q-3 85 21 151t69 111.5t108.5 69t139.5 23.5q56 0 106 -18.5t89 -52.5t62.5 -81.5t25.5 -104.5zM681 337q-1 45 -19.5 85.5t-48.5 72t-69.5 50t-83.5 18.5 q-72 0 -126.5 -23t-90.5 -65t-53.5 -100.5t-14.5 -129.5q2 -46 22.5 -85t52 -67.5t70.5 -45t78 -16.5q70 0 123.5 22.5t90 63t54 97t15.5 123.5zM704 451q5 -8 12 -13.5t22 -5.5q14 0 26.5 9t11.5 26q0 13 -7.5 27t-18.5 25q0 2 3.5 4t8 3.5t9 2t5.5 -0.5q18 -11 29 -30 t13 -45q0 -15 -5 -25.5t-13.5 -17.5t-18.5 -10.5t-20 -3.5q-34 0 -51 12.5t-28 34.5zM655 838q2 -7 -1 -10q-22 -20 -44 -37.5t-45.5 -35.5t-48.5 -38.5t-52 -45.5q-3 -3 -6.5 -2t-6.5 4t-4 6.5t0 4.5q44 44 85.5 87t81.5 87q2 3 4.5 3h3.5q2 0 6.5 -3t10 -6.5t10.5 -7.5 t6 -6z" />
<glyph unicode="&#x1a1;&#x301;" horiz-adv-x="381" d="M523 256q-9 -17 -22.5 -33t-30.5 -29t-37.5 -20.5t-44.5 -7.5q-25 0 -51 10t-46 35q-4 -30 -14 -68t-28.5 -72t-47.5 -57.5t-71 -23.5q-39 0 -59.5 26t-21.5 60q-2 48 12.5 92.5t41.5 79t63 56.5t78 23q2 12 4 27.5t16 18.5q7 2 14.5 3.5t12.5 4.5q2 2 5 2q8 0 8 -7 l-1 -3q-3 -8 -5.5 -20.5t-1.5 -25.5q1 -25 7 -48t17.5 -41t29 -29t41.5 -11q15 0 30 6t29.5 16t26.5 23.5t20 28.5q2 3 5 3q6 0 13.5 -5.5t7.5 -10.5v-3zM259 262q-1 3 -2 5t-1.5 4.5t-2 6.5t-3.5 13q0 7 -6 7q-27 0 -52 -20.5t-44.5 -51t-30.5 -67t-10 -68.5q0 -7 2 -17.5 t5.5 -19.5t10 -15.5t16.5 -6.5q25 0 47 27t38 63.5t25 75t8 60.5v4zM287 324q5 -14 14.5 -18.5t25.5 -4.5q21 0 31.5 16t9.5 44q0 5 -1 11t-2 11q2 2 5 2q6 0 14.5 -2.5t10.5 -4.5q9 -15 11 -37q0 -13 -5.5 -25.5t-15 -22.5t-22.5 -16.5t-28 -6.5q-30 0 -42 9t-19 17z M376 577q2 -7 -1 -10q-22 -20 -44 -37.5t-45.5 -35.5t-48.5 -38.5t-52 -45.5q-3 -3 -6.5 -2t-6.5 4t-4 6.5t0 4.5q44 44 85.5 87t81.5 87q2 3 4.5 3h3.5q2 0 6.5 -3t10 -6.5t10.5 -7.5t6 -6z" />
<glyph unicode="&#x1a0;&#x300;" horiz-adv-x="776" d="M738 347q3 -75 -18 -140.5t-63 -114t-104 -77t-142 -28.5q-60 0 -112.5 17.5t-92 50.5t-63.5 82t-26 112q-3 85 21 151t69 111.5t108.5 69t139.5 23.5q56 0 106 -18.5t89 -52.5t62.5 -81.5t25.5 -104.5zM681 337q-1 45 -19.5 85.5t-48.5 72t-69.5 50t-83.5 18.5 q-72 0 -126.5 -23t-90.5 -65t-53.5 -100.5t-14.5 -129.5q2 -46 22.5 -85t52 -67.5t70.5 -45t78 -16.5q70 0 123.5 22.5t90 63t54 97t15.5 123.5zM704 451q5 -8 12 -13.5t22 -5.5q14 0 26.5 9t11.5 26q0 13 -7.5 27t-18.5 25q0 2 3.5 4t8 3.5t9 2t5.5 -0.5q18 -11 29 -30 t13 -45q0 -15 -5 -25.5t-13.5 -17.5t-18.5 -10.5t-20 -3.5q-34 0 -51 12.5t-28 34.5zM527 668q0 -6 -8.5 -10t-10.5 0q-31 38 -63.5 75t-55.5 74q0 3 3 9t7 11.5t8 10t5 4.5h5.5t5.5 -3q9 -17 18.5 -34.5t21 -38t27 -44.5t37.5 -54z" />
<glyph unicode="&#x1a1;&#x300;" horiz-adv-x="381" d="M523 256q-9 -17 -22.5 -33t-30.5 -29t-37.5 -20.5t-44.5 -7.5q-25 0 -51 10t-46 35q-4 -30 -14 -68t-28.5 -72t-47.5 -57.5t-71 -23.5q-39 0 -59.5 26t-21.5 60q-2 48 12.5 92.5t41.5 79t63 56.5t78 23q2 12 4 27.5t16 18.5q7 2 14.5 3.5t12.5 4.5q2 2 5 2q8 0 8 -7 l-1 -3q-3 -8 -5.5 -20.5t-1.5 -25.5q1 -25 7 -48t17.5 -41t29 -29t41.5 -11q15 0 30 6t29.5 16t26.5 23.5t20 28.5q2 3 5 3q6 0 13.5 -5.5t7.5 -10.5v-3zM259 262q-1 3 -2 5t-1.5 4.5t-2 6.5t-3.5 13q0 7 -6 7q-27 0 -52 -20.5t-44.5 -51t-30.5 -67t-10 -68.5q0 -7 2 -17.5 t5.5 -19.5t10 -15.5t16.5 -6.5q25 0 47 27t38 63.5t25 75t8 60.5v4zM287 324q5 -14 14.5 -18.5t25.5 -4.5q21 0 31.5 16t9.5 44q0 5 -1 11t-2 11q2 2 5 2q6 0 14.5 -2.5t10.5 -4.5q9 -15 11 -37q0 -13 -5.5 -25.5t-15 -22.5t-22.5 -16.5t-28 -6.5q-30 0 -42 9t-19 17z M326 419q0 -6 -8.5 -10t-10.5 0q-31 38 -63.5 75t-55.5 74q0 3 3 9t7 11.5t8 10t5 4.5h5.5t5.5 -3q9 -17 18.5 -34.5t21 -38t27 -44.5t37.5 -54z" />
<glyph unicode="&#x1a0;&#x309;" horiz-adv-x="776" d="M738 347q3 -75 -18 -140.5t-63 -114t-104 -77t-142 -28.5q-60 0 -112.5 17.5t-92 50.5t-63.5 82t-26 112q-3 85 21 151t69 111.5t108.5 69t139.5 23.5q56 0 106 -18.5t89 -52.5t62.5 -81.5t25.5 -104.5zM681 337q-1 45 -19.5 85.5t-48.5 72t-69.5 50t-83.5 18.5 q-72 0 -126.5 -23t-90.5 -65t-53.5 -100.5t-14.5 -129.5q2 -46 22.5 -85t52 -67.5t70.5 -45t78 -16.5q70 0 123.5 22.5t90 63t54 97t15.5 123.5zM704 451q5 -8 12 -13.5t22 -5.5q14 0 26.5 9t11.5 26q0 13 -7.5 27t-18.5 25q0 2 3.5 4t8 3.5t9 2t5.5 -0.5q18 -11 29 -30 t13 -45q0 -15 -5 -25.5t-13.5 -17.5t-18.5 -10.5t-20 -3.5q-34 0 -51 12.5t-28 34.5zM460 684q0 2 1 6.5t3 5.5q39 16 62 39t23 43q-2 23 -13.5 29.5t-34.5 6.5q-11 0 -19.5 -1.5t-13.5 -1.5q-3 0 -4 4.5t-1 9.5t1.5 10t4.5 6q12 3 22 5t26 2q32 0 53.5 -14.5t22.5 -37.5 q1 -24 -14.5 -46.5t-36.5 -39.5t-43 -27t-35 -10q-2 0 -3 4.5t-1 6.5z" />
<glyph unicode="&#x1a1;&#x309;" horiz-adv-x="381" d="M523 256q-9 -17 -22.5 -33t-30.5 -29t-37.5 -20.5t-44.5 -7.5q-25 0 -51 10t-46 35q-4 -30 -14 -68t-28.5 -72t-47.5 -57.5t-71 -23.5q-39 0 -59.5 26t-21.5 60q-2 48 12.5 92.5t41.5 79t63 56.5t78 23q2 12 4 27.5t16 18.5q7 2 14.5 3.5t12.5 4.5q2 2 5 2q8 0 8 -7 l-1 -3q-3 -8 -5.5 -20.5t-1.5 -25.5q1 -25 7 -48t17.5 -41t29 -29t41.5 -11q15 0 30 6t29.5 16t26.5 23.5t20 28.5q2 3 5 3q6 0 13.5 -5.5t7.5 -10.5v-3zM259 262q-1 3 -2 5t-1.5 4.5t-2 6.5t-3.5 13q0 7 -6 7q-27 0 -52 -20.5t-44.5 -51t-30.5 -67t-10 -68.5q0 -7 2 -17.5 t5.5 -19.5t10 -15.5t16.5 -6.5q25 0 47 27t38 63.5t25 75t8 60.5v4zM287 324q5 -14 14.5 -18.5t25.5 -4.5q21 0 31.5 16t9.5 44q0 5 -1 11t-2 11q2 2 5 2q6 0 14.5 -2.5t10.5 -4.5q9 -15 11 -37q0 -13 -5.5 -25.5t-15 -22.5t-22.5 -16.5t-28 -6.5q-30 0 -42 9t-19 17z M211 421q0 2 1 6.5t3 5.5q39 16 62 39t23 43q-2 23 -13.5 29.5t-34.5 6.5q-11 0 -19.5 -1.5t-13.5 -1.5q-3 0 -4 4.5t-1 9.5t1.5 10t4.5 6q12 3 22 5t26 2q32 0 53.5 -14.5t22.5 -37.5q1 -24 -14.5 -46.5t-36.5 -39.5t-43 -27t-35 -10q-2 0 -3 4.5t-1 6.5z" />
<glyph unicode="&#x1a0;&#x303;" horiz-adv-x="776" d="M738 347q3 -75 -18 -140.5t-63 -114t-104 -77t-142 -28.5q-60 0 -112.5 17.5t-92 50.5t-63.5 82t-26 112q-3 85 21 151t69 111.5t108.5 69t139.5 23.5q56 0 106 -18.5t89 -52.5t62.5 -81.5t25.5 -104.5zM681 337q-1 45 -19.5 85.5t-48.5 72t-69.5 50t-83.5 18.5 q-72 0 -126.5 -23t-90.5 -65t-53.5 -100.5t-14.5 -129.5q2 -46 22.5 -85t52 -67.5t70.5 -45t78 -16.5q70 0 123.5 22.5t90 63t54 97t15.5 123.5zM704 451q5 -8 12 -13.5t22 -5.5q14 0 26.5 9t11.5 26q0 13 -7.5 27t-18.5 25q0 2 3.5 4t8 3.5t9 2t5.5 -0.5q18 -11 29 -30 t13 -45q0 -15 -5 -25.5t-13.5 -17.5t-18.5 -10.5t-20 -3.5q-34 0 -51 12.5t-28 34.5zM635 785q2 -18 -2.5 -34.5t-13.5 -29.5t-22.5 -21t-30.5 -8q-21 0 -41.5 11.5t-40 25t-37.5 24.5t-33 11q-11 0 -18 -6t-11.5 -15t-7.5 -19.5t-7 -18.5q-3 -5 -9.5 -7t-13 -1t-11 5.5 t-3.5 11.5q2 10 9.5 25t19 29.5t28 25t36.5 10.5q17 0 35.5 -12t37 -26.5t37 -26.5t35.5 -12t27 17t3 41q-1 3 4 6.5t11 4.5t12 -1t7 -10z" />
<glyph unicode="&#x1a1;&#x303;" horiz-adv-x="381" d="M523 256q-9 -17 -22.5 -33t-30.5 -29t-37.5 -20.5t-44.5 -7.5q-25 0 -51 10t-46 35q-4 -30 -14 -68t-28.5 -72t-47.5 -57.5t-71 -23.5q-39 0 -59.5 26t-21.5 60q-2 48 12.5 92.5t41.5 79t63 56.5t78 23q2 12 4 27.5t16 18.5q7 2 14.5 3.5t12.5 4.5q2 2 5 2q8 0 8 -7 l-1 -3q-3 -8 -5.5 -20.5t-1.5 -25.5q1 -25 7 -48t17.5 -41t29 -29t41.5 -11q15 0 30 6t29.5 16t26.5 23.5t20 28.5q2 3 5 3q6 0 13.5 -5.5t7.5 -10.5v-3zM259 262q-1 3 -2 5t-1.5 4.5t-2 6.5t-3.5 13q0 7 -6 7q-27 0 -52 -20.5t-44.5 -51t-30.5 -67t-10 -68.5q0 -7 2 -17.5 t5.5 -19.5t10 -15.5t16.5 -6.5q25 0 47 27t38 63.5t25 75t8 60.5v4zM287 324q5 -14 14.5 -18.5t25.5 -4.5q21 0 31.5 16t9.5 44q0 5 -1 11t-2 11q2 2 5 2q6 0 14.5 -2.5t10.5 -4.5q9 -15 11 -37q0 -13 -5.5 -25.5t-15 -22.5t-22.5 -16.5t-28 -6.5q-30 0 -42 9t-19 17z M415 536q2 -18 -2.5 -34.5t-13.5 -29.5t-22.5 -21t-30.5 -8q-21 0 -41.5 11.5t-40 25t-37.5 24.5t-33 11q-11 0 -18 -6t-11.5 -15t-7.5 -19.5t-7 -18.5q-3 -5 -9.5 -7t-13 -1t-11 5.5t-3.5 11.5q2 10 9.5 25t19 29.5t28 25t36.5 10.5q17 0 35.5 -12t37 -26.5t37 -26.5 t35.5 -12t27 17t3 41q-1 3 4 6.5t11 4.5t12 -1t7 -10z" />
<glyph unicode="&#x1a0;&#x323;" horiz-adv-x="776" d="M738 347q3 -75 -18 -140.5t-63 -114t-104 -77t-142 -28.5q-60 0 -112.5 17.5t-92 50.5t-63.5 82t-26 112q-3 85 21 151t69 111.5t108.5 69t139.5 23.5q56 0 106 -18.5t89 -52.5t62.5 -81.5t25.5 -104.5zM681 337q-1 45 -19.5 85.5t-48.5 72t-69.5 50t-83.5 18.5 q-72 0 -126.5 -23t-90.5 -65t-53.5 -100.5t-14.5 -129.5q2 -46 22.5 -85t52 -67.5t70.5 -45t78 -16.5q70 0 123.5 22.5t90 63t54 97t15.5 123.5zM704 451q5 -8 12 -13.5t22 -5.5q14 0 26.5 9t11.5 26q0 13 -7.5 27t-18.5 25q0 2 3.5 4t8 3.5t9 2t5.5 -0.5q18 -11 29 -30 t13 -45q0 -15 -5 -25.5t-13.5 -17.5t-18.5 -10.5t-20 -3.5q-34 0 -51 12.5t-28 34.5zM385 -77q12 0 23 -8t11 -28q1 -14 -10 -25.5t-25 -11.5q-13 0 -23 9.5t-10 25.5q-1 14 7.5 26t26.5 12z" />
<glyph unicode="&#x1a1;&#x323;" horiz-adv-x="381" d="M523 256q-9 -17 -22.5 -33t-30.5 -29t-37.5 -20.5t-44.5 -7.5q-25 0 -51 10t-46 35q-4 -30 -14 -68t-28.5 -72t-47.5 -57.5t-71 -23.5q-39 0 -59.5 26t-21.5 60q-2 48 12.5 92.5t41.5 79t63 56.5t78 23q2 12 4 27.5t16 18.5q7 2 14.5 3.5t12.5 4.5q2 2 5 2q8 0 8 -7 l-1 -3q-3 -8 -5.5 -20.5t-1.5 -25.5q1 -25 7 -48t17.5 -41t29 -29t41.5 -11q15 0 30 6t29.5 16t26.5 23.5t20 28.5q2 3 5 3q6 0 13.5 -5.5t7.5 -10.5v-3zM259 262q-1 3 -2 5t-1.5 4.5t-2 6.5t-3.5 13q0 7 -6 7q-27 0 -52 -20.5t-44.5 -51t-30.5 -67t-10 -68.5q0 -7 2 -17.5 t5.5 -19.5t10 -15.5t16.5 -6.5q25 0 47 27t38 63.5t25 75t8 60.5v4zM287 324q5 -14 14.5 -18.5t25.5 -4.5q21 0 31.5 16t9.5 44q0 5 -1 11t-2 11q2 2 5 2q6 0 14.5 -2.5t10.5 -4.5q9 -15 11 -37q0 -13 -5.5 -25.5t-15 -22.5t-22.5 -16.5t-28 -6.5q-30 0 -42 9t-19 17z M135 -77q12 0 23 -8t11 -28q1 -14 -10 -25.5t-25 -11.5q-13 0 -23 9.5t-10 25.5q-1 14 7.5 26t26.5 12z" />
<glyph unicode="U&#x323;" horiz-adv-x="803" d="M811 573q-5 -1 -16 -4.5t-16 -11.5q-30 -45 -59.5 -105.5t-52.5 -125t-37 -127t-13 -112.5q2 -38 20.5 -50.5t58.5 -12.5q17 0 35 6t32.5 12.5t24.5 12.5t11 6q4 0 8.5 -5.5t7.5 -12t4 -12.5t-3 -8q-35 -18 -68 -31t-76 -13q-32 0 -52.5 8t-32.5 20.5t-17 28.5t-6 31 q0 17 3 34.5t6.5 32t7 24t3.5 10.5q-3 3 -5 3q-36 -54 -69.5 -90t-68 -57.5t-73.5 -30t-86 -8.5q-29 0 -56 8t-48 25.5t-34 43.5t-15 62q-1 42 17 95t42 107t47 104t31 85q3 14 -1 21t-21 7h-76q-5 0 -8.5 6.5t-4.5 15t0.5 15t7.5 6.5q97 0 154.5 3.5t61.5 3.5q2 0 3 -4.5 t2 -10.5t1.5 -11t0.5 -6q-1 -6 -4 -6.5t-7 -1.5q-11 -3 -24.5 -5t-20.5 -16q-11 -23 -26 -55t-31 -69t-32 -76t-28 -75t-19.5 -66t-6.5 -49q2 -54 30 -81t96 -27q47 0 90 25.5t81.5 67.5t71 96t60 110.5t49.5 111t37 98.5q5 15 12.5 24.5t23.5 17.5q5 1 15 4.5l20 7t19 6 t13 2.5q3 0 6 -5t4 -11t0.5 -11t-4.5 -5zM304 -77q12 0 23 -8t11 -28q1 -14 -10 -25.5t-25 -11.5q-13 0 -23 9.5t-10 25.5q-1 14 7.5 26t26.5 12z" />
<glyph unicode="u&#x323;" horiz-adv-x="386" d="M498 192q-18 -36 -42.5 -72t-54 -65t-62.5 -47t-68 -18q-36 0 -53 20.5t-19 49.5v12t1 12q-5 -10 -15 -24.5t-23.5 -28t-29.5 -22.5t-33 -9q-37 0 -50 41q-1 12 1 31.5t10.5 52t23 80t36.5 115.5q5 15 11 15q3 0 9.5 -3.5t13 -8t11.5 -9.5t5 -9t-6 -18q-15 -36 -27 -70.5 t-21 -63.5t-14 -52.5t-5 -37.5q4 -11 11 -15t15 -4t19.5 11.5t25 30.5t27 44t24.5 52q8 24 14.5 42.5t11.5 33t9.5 26.5t8.5 24q3 10 8 10t12 -7t12.5 -17.5t8 -21.5t-0.5 -20q-11 -22 -22.5 -42t-21.5 -40t-15.5 -43t-4.5 -53q1 -23 11 -34t25 -11q16 0 38.5 10t48.5 31.5 t53.5 55.5t52.5 82q2 1 6.5 -0.5t9.5 -4t9 -5.5t5 -6zM113 -77q12 0 23 -8t11 -28q1 -14 -10 -25.5t-25 -11.5q-13 0 -23 9.5t-10 25.5q-1 14 7.5 26t26.5 12z" />
<glyph unicode="U&#x309;" horiz-adv-x="803" d="M811 573q-5 -1 -16 -4.5t-16 -11.5q-30 -45 -59.5 -105.5t-52.5 -125t-37 -127t-13 -112.5q2 -38 20.5 -50.5t58.5 -12.5q17 0 35 6t32.5 12.5t24.5 12.5t11 6q4 0 8.5 -5.5t7.5 -12t4 -12.5t-3 -8q-35 -18 -68 -31t-76 -13q-32 0 -52.5 8t-32.5 20.5t-17 28.5t-6 31 q0 17 3 34.5t6.5 32t7 24t3.5 10.5q-3 3 -5 3q-36 -54 -69.5 -90t-68 -57.5t-73.5 -30t-86 -8.5q-29 0 -56 8t-48 25.5t-34 43.5t-15 62q-1 42 17 95t42 107t47 104t31 85q3 14 -1 21t-21 7h-76q-5 0 -8.5 6.5t-4.5 15t0.5 15t7.5 6.5q97 0 154.5 3.5t61.5 3.5q2 0 3 -4.5 t2 -10.5t1.5 -11t0.5 -6q-1 -6 -4 -6.5t-7 -1.5q-11 -3 -24.5 -5t-20.5 -16q-11 -23 -26 -55t-31 -69t-32 -76t-28 -75t-19.5 -66t-6.5 -49q2 -54 30 -81t96 -27q47 0 90 25.5t81.5 67.5t71 96t60 110.5t49.5 111t37 98.5q5 15 12.5 24.5t23.5 17.5q5 1 15 4.5l20 7t19 6 t13 2.5q3 0 6 -5t4 -11t0.5 -11t-4.5 -5zM526 650q0 2 1 6.5t3 5.5q39 16 62 39t23 43q-2 23 -13.5 29.5t-34.5 6.5q-11 0 -19.5 -1.5t-13.5 -1.5q-3 0 -4 4.5t-1 9.5t1.5 10t4.5 6q12 3 22 5t26 2q32 0 53.5 -14.5t22.5 -37.5q1 -24 -14.5 -46.5t-36.5 -39.5t-43 -27 t-35 -10q-2 0 -3 4.5t-1 6.5z" />
<glyph unicode="u&#x309;" horiz-adv-x="386" d="M498 192q-18 -36 -42.5 -72t-54 -65t-62.5 -47t-68 -18q-36 0 -53 20.5t-19 49.5v12t1 12q-5 -10 -15 -24.5t-23.5 -28t-29.5 -22.5t-33 -9q-37 0 -50 41q-1 12 1 31.5t10.5 52t23 80t36.5 115.5q5 15 11 15q3 0 9.5 -3.5t13 -8t11.5 -9.5t5 -9t-6 -18q-15 -36 -27 -70.5 t-21 -63.5t-14 -52.5t-5 -37.5q4 -11 11 -15t15 -4t19.5 11.5t25 30.5t27 44t24.5 52q8 24 14.5 42.5t11.5 33t9.5 26.5t8.5 24q3 10 8 10t12 -7t12.5 -17.5t8 -21.5t-0.5 -20q-11 -22 -22.5 -42t-21.5 -40t-15.5 -43t-4.5 -53q1 -23 11 -34t25 -11q16 0 38.5 10t48.5 31.5 t53.5 55.5t52.5 82q2 1 6.5 -0.5t9.5 -4t9 -5.5t5 -6zM198 421q0 2 1 6.5t3 5.5q39 16 62 39t23 43q-2 23 -13.5 29.5t-34.5 6.5q-11 0 -19.5 -1.5t-13.5 -1.5q-3 0 -4 4.5t-1 9.5t1.5 10t4.5 6q12 3 22 5t26 2q32 0 53.5 -14.5t22.5 -37.5q1 -24 -14.5 -46.5t-36.5 -39.5 t-43 -27t-35 -10q-2 0 -3 4.5t-1 6.5z" />
<glyph unicode="&#x1af;&#x301;" horiz-adv-x="803" d="M811 573q-5 -1 -16 -4.5t-16 -11.5q-30 -45 -59.5 -105.5t-52.5 -125t-37 -127t-13 -112.5q2 -38 20.5 -50.5t58.5 -12.5q17 0 35 6t32.5 12.5t24.5 12.5t11 6q6 0 12.5 -11.5t6.5 -19.5q2 -5 -2 -7q-35 -18 -68 -31t-76 -13q-32 0 -52.5 8t-32.5 20.5t-17 28.5t-6 31 q0 17 3 34.5t6.5 32t7 24t3.5 10.5q-3 3 -5 3q-36 -54 -69.5 -90t-68 -57.5t-73.5 -30t-86 -8.5q-29 0 -56 8t-48 25.5t-34 43.5t-15 62q-1 42 17 95t42 107t47 104t31 85q0 3 0.5 6.5t0.5 5.5q0 16 -23 16h-76q-6 0 -10 8t-4 17q-1 7 1.5 12.5t7.5 5.5q97 0 154.5 3.5 t61.5 3.5q2 0 3 -4.5t2 -10.5t1.5 -11t0.5 -6q-1 -6 -4 -6.5t-7 -1.5q-11 -3 -24.5 -5t-20.5 -16q-11 -23 -26 -55t-31 -69t-32 -76t-28 -75t-19.5 -66t-6.5 -49q2 -54 30 -81t96 -27q47 0 90 25.5t81.5 67.5t71 96t60 110.5t49.5 111t37 98.5q5 15 12.5 24.5t23.5 17.5 q5 1 15 4.5l20 7t19 6t13 2.5q5 0 8 -7.5t3 -14.5q0 -10 -5 -10zM692 462q-3 -13 9.5 -31.5t44.5 -26.5q16 -4 28 0.5t20.5 13.5t12.5 22.5t4 27.5q0 11 -6 23q8 5 18 2.5t12 -4.5q5 -8 6.5 -20t2.5 -22q0 -13 -6.5 -30.5t-20 -32.5t-34.5 -23.5t-50 -1.5q-27 6 -44.5 32 t-13.5 58zM726 834q2 -7 -1 -10q-22 -20 -44 -37.5t-45.5 -35.5t-48.5 -38.5t-52 -45.5q-3 -3 -6.5 -2t-6.5 4t-4 6.5t0 4.5q44 44 85.5 87t81.5 87q2 3 4.5 3h3.5q2 0 6.5 -3t10 -6.5t10.5 -7.5t6 -6z" />
<glyph unicode="&#x1b0;&#x301;" horiz-adv-x="386" d="M498 192q-18 -36 -42.5 -72t-54 -65t-62.5 -47t-68 -18q-36 0 -53 20.5t-19 49.5v12t1 12q-5 -10 -15 -24.5t-23.5 -28t-29.5 -22.5t-33 -9q-37 0 -50 41q-1 12 1 31.5t10.5 52t23 80t36.5 115.5q5 15 11 15q3 0 9.5 -3.5t13 -8t11.5 -9.5t5 -9t-6 -18q-15 -36 -27 -70.5 t-21 -63.5t-14 -52.5t-5 -37.5q4 -11 11 -15t15 -4t19.5 11.5t25 30.5t27 44t24.5 52q8 24 14.5 42.5t11.5 33t9.5 26.5t8.5 24q3 10 8 10t12 -7t12.5 -17.5t8 -21.5t-0.5 -20q-11 -22 -22.5 -42t-21.5 -40t-15.5 -43t-4.5 -53q1 -23 11 -34t25 -11q16 0 38.5 10t48.5 31.5 t53.5 55.5t52.5 82q2 1 6.5 -0.5t9.5 -4t9 -5.5t5 -6zM279 266q5 -14 13 -18.5t24 -4.5q20 0 32.5 16t11.5 44q0 5 -1 11t-2 11q2 2 5 2q6 0 14.5 -2.5t10.5 -4.5q9 -15 11 -37q0 -15 -6 -28t-16.5 -22.5t-23.5 -15t-25 -5.5q-25 0 -39.5 9t-21.5 17zM440 577q2 -7 -1 -10 q-22 -20 -44 -37.5t-45.5 -35.5t-48.5 -38.5t-52 -45.5q-3 -3 -6.5 -2t-6.5 4t-4 6.5t0 4.5q44 44 85.5 87t81.5 87q2 3 4.5 3h3.5q2 0 6.5 -3t10 -6.5t10.5 -7.5t6 -6z" />
<glyph unicode="&#x1af;&#x300;" horiz-adv-x="803" d="M811 573q-5 -1 -16 -4.5t-16 -11.5q-30 -45 -59.5 -105.5t-52.5 -125t-37 -127t-13 -112.5q2 -38 20.5 -50.5t58.5 -12.5q17 0 35 6t32.5 12.5t24.5 12.5t11 6q6 0 12.5 -11.5t6.5 -19.5q2 -5 -2 -7q-35 -18 -68 -31t-76 -13q-32 0 -52.5 8t-32.5 20.5t-17 28.5t-6 31 q0 17 3 34.5t6.5 32t7 24t3.5 10.5q-3 3 -5 3q-36 -54 -69.5 -90t-68 -57.5t-73.5 -30t-86 -8.5q-29 0 -56 8t-48 25.5t-34 43.5t-15 62q-1 42 17 95t42 107t47 104t31 85q0 3 0.5 6.5t0.5 5.5q0 16 -23 16h-76q-6 0 -10 8t-4 17q-1 7 1.5 12.5t7.5 5.5q97 0 154.5 3.5 t61.5 3.5q2 0 3 -4.5t2 -10.5t1.5 -11t0.5 -6q-1 -6 -4 -6.5t-7 -1.5q-11 -3 -24.5 -5t-20.5 -16q-11 -23 -26 -55t-31 -69t-32 -76t-28 -75t-19.5 -66t-6.5 -49q2 -54 30 -81t96 -27q47 0 90 25.5t81.5 67.5t71 96t60 110.5t49.5 111t37 98.5q5 15 12.5 24.5t23.5 17.5 q5 1 15 4.5l20 7t19 6t13 2.5q5 0 8 -7.5t3 -14.5q0 -10 -5 -10zM692 462q-3 -13 9.5 -31.5t44.5 -26.5q16 -4 28 0.5t20.5 13.5t12.5 22.5t4 27.5q0 11 -6 23q8 5 18 2.5t12 -4.5q5 -8 6.5 -20t2.5 -22q0 -13 -6.5 -30.5t-20 -32.5t-34.5 -23.5t-50 -1.5q-27 6 -44.5 32 t-13.5 58zM579 683q0 -6 -8.5 -10t-10.5 0q-31 38 -63.5 75t-55.5 74q0 3 3 9t7 11.5t8 10t5 4.5h5.5t5.5 -3q9 -17 18.5 -34.5t21 -38t27 -44.5t37.5 -54z" />
<glyph unicode="&#x1b0;&#x300;" horiz-adv-x="386" d="M498 192q-18 -36 -42.5 -72t-54 -65t-62.5 -47t-68 -18q-36 0 -53 20.5t-19 49.5v12t1 12q-5 -10 -15 -24.5t-23.5 -28t-29.5 -22.5t-33 -9q-37 0 -50 41q-1 12 1 31.5t10.5 52t23 80t36.5 115.5q5 15 11 15q3 0 9.5 -3.5t13 -8t11.5 -9.5t5 -9t-6 -18q-15 -36 -27 -70.5 t-21 -63.5t-14 -52.5t-5 -37.5q4 -11 11 -15t15 -4t19.5 11.5t25 30.5t27 44t24.5 52q8 24 14.5 42.5t11.5 33t9.5 26.5t8.5 24q3 10 8 10t12 -7t12.5 -17.5t8 -21.5t-0.5 -20q-11 -22 -22.5 -42t-21.5 -40t-15.5 -43t-4.5 -53q1 -23 11 -34t25 -11q16 0 38.5 10t48.5 31.5 t53.5 55.5t52.5 82q2 1 6.5 -0.5t9.5 -4t9 -5.5t5 -6zM279 266q5 -14 13 -18.5t24 -4.5q20 0 32.5 16t11.5 44q0 5 -1 11t-2 11q2 2 5 2q6 0 14.5 -2.5t10.5 -4.5q9 -15 11 -37q0 -15 -6 -28t-16.5 -22.5t-23.5 -15t-25 -5.5q-25 0 -39.5 9t-21.5 17zM269 419q0 -6 -8.5 -10 t-10.5 0q-31 38 -63.5 75t-55.5 74q0 3 3 9t7 11.5t8 10t5 4.5h5.5t5.5 -3q9 -17 18.5 -34.5t21 -38t27 -44.5t37.5 -54z" />
<glyph unicode="&#x1af;&#x309;" horiz-adv-x="803" d="M811 573q-5 -1 -16 -4.5t-16 -11.5q-30 -45 -59.5 -105.5t-52.5 -125t-37 -127t-13 -112.5q2 -38 20.5 -50.5t58.5 -12.5q17 0 35 6t32.5 12.5t24.5 12.5t11 6q6 0 12.5 -11.5t6.5 -19.5q2 -5 -2 -7q-35 -18 -68 -31t-76 -13q-32 0 -52.5 8t-32.5 20.5t-17 28.5t-6 31 q0 17 3 34.5t6.5 32t7 24t3.5 10.5q-3 3 -5 3q-36 -54 -69.5 -90t-68 -57.5t-73.5 -30t-86 -8.5q-29 0 -56 8t-48 25.5t-34 43.5t-15 62q-1 42 17 95t42 107t47 104t31 85q0 3 0.5 6.5t0.5 5.5q0 16 -23 16h-76q-6 0 -10 8t-4 17q-1 7 1.5 12.5t7.5 5.5q97 0 154.5 3.5 t61.5 3.5q2 0 3 -4.5t2 -10.5t1.5 -11t0.5 -6q-1 -6 -4 -6.5t-7 -1.5q-11 -3 -24.5 -5t-20.5 -16q-11 -23 -26 -55t-31 -69t-32 -76t-28 -75t-19.5 -66t-6.5 -49q2 -54 30 -81t96 -27q47 0 90 25.5t81.5 67.5t71 96t60 110.5t49.5 111t37 98.5q5 15 12.5 24.5t23.5 17.5 q5 1 15 4.5l20 7t19 6t13 2.5q5 0 8 -7.5t3 -14.5q0 -10 -5 -10zM692 462q-3 -13 9.5 -31.5t44.5 -26.5q16 -4 28 0.5t20.5 13.5t12.5 22.5t4 27.5q0 11 -6 23q8 5 18 2.5t12 -4.5q5 -8 6.5 -20t2.5 -22q0 -13 -6.5 -30.5t-20 -32.5t-34.5 -23.5t-50 -1.5q-27 6 -44.5 32 t-13.5 58zM553 685q0 2 1 6.5t3 5.5q39 16 62 39t23 43q-2 23 -13.5 29.5t-34.5 6.5q-11 0 -19.5 -1.5t-13.5 -1.5q-3 0 -4 4.5t-1 9.5t1.5 10t4.5 6q12 3 22 5t26 2q32 0 53.5 -14.5t22.5 -37.5q1 -24 -14.5 -46.5t-36.5 -39.5t-43 -27t-35 -10q-2 0 -3 4.5t-1 6.5z" />
<glyph unicode="&#x1b0;&#x309;" horiz-adv-x="386" d="M498 192q-18 -36 -42.5 -72t-54 -65t-62.5 -47t-68 -18q-36 0 -53 20.5t-19 49.5v12t1 12q-5 -10 -15 -24.5t-23.5 -28t-29.5 -22.5t-33 -9q-37 0 -50 41q-1 12 1 31.5t10.5 52t23 80t36.5 115.5q5 15 11 15q3 0 9.5 -3.5t13 -8t11.5 -9.5t5 -9t-6 -18q-15 -36 -27 -70.5 t-21 -63.5t-14 -52.5t-5 -37.5q4 -11 11 -15t15 -4t19.5 11.5t25 30.5t27 44t24.5 52q8 24 14.5 42.5t11.5 33t9.5 26.5t8.5 24q3 10 8 10t12 -7t12.5 -17.5t8 -21.5t-0.5 -20q-11 -22 -22.5 -42t-21.5 -40t-15.5 -43t-4.5 -53q1 -23 11 -34t25 -11q16 0 38.5 10t48.5 31.5 t53.5 55.5t52.5 82q2 1 6.5 -0.5t9.5 -4t9 -5.5t5 -6zM279 266q5 -14 13 -18.5t24 -4.5q20 0 32.5 16t11.5 44q0 5 -1 11t-2 11q2 2 5 2q6 0 14.5 -2.5t10.5 -4.5q9 -15 11 -37q0 -15 -6 -28t-16.5 -22.5t-23.5 -15t-25 -5.5q-25 0 -39.5 9t-21.5 17zM213 421q0 2 1 6.5 t3 5.5q39 16 62 39t23 43q-2 23 -13.5 29.5t-34.5 6.5q-11 0 -19.5 -1.5t-13.5 -1.5q-3 0 -4 4.5t-1 9.5t1.5 10t4.5 6q12 3 22 5t26 2q32 0 53.5 -14.5t22.5 -37.5q1 -24 -14.5 -46.5t-36.5 -39.5t-43 -27t-35 -10q-2 0 -3 4.5t-1 6.5z" />
<glyph unicode="&#x1af;&#x303;" horiz-adv-x="803" d="M811 573q-5 -1 -16 -4.5t-16 -11.5q-30 -45 -59.5 -105.5t-52.5 -125t-37 -127t-13 -112.5q2 -38 20.5 -50.5t58.5 -12.5q17 0 35 6t32.5 12.5t24.5 12.5t11 6q6 0 12.5 -11.5t6.5 -19.5q2 -5 -2 -7q-35 -18 -68 -31t-76 -13q-32 0 -52.5 8t-32.5 20.5t-17 28.5t-6 31 q0 17 3 34.5t6.5 32t7 24t3.5 10.5q-3 3 -5 3q-36 -54 -69.5 -90t-68 -57.5t-73.5 -30t-86 -8.5q-29 0 -56 8t-48 25.5t-34 43.5t-15 62q-1 42 17 95t42 107t47 104t31 85q0 3 0.5 6.5t0.5 5.5q0 16 -23 16h-76q-6 0 -10 8t-4 17q-1 7 1.5 12.5t7.5 5.5q97 0 154.5 3.5 t61.5 3.5q2 0 3 -4.5t2 -10.5t1.5 -11t0.5 -6q-1 -6 -4 -6.5t-7 -1.5q-11 -3 -24.5 -5t-20.5 -16q-11 -23 -26 -55t-31 -69t-32 -76t-28 -75t-19.5 -66t-6.5 -49q2 -54 30 -81t96 -27q47 0 90 25.5t81.5 67.5t71 96t60 110.5t49.5 111t37 98.5q5 15 12.5 24.5t23.5 17.5 q5 1 15 4.5l20 7t19 6t13 2.5q5 0 8 -7.5t3 -14.5q0 -10 -5 -10zM692 462q-3 -13 9.5 -31.5t44.5 -26.5q16 -4 28 0.5t20.5 13.5t12.5 22.5t4 27.5q0 11 -6 23q8 5 18 2.5t12 -4.5q5 -8 6.5 -20t2.5 -22q0 -13 -6.5 -30.5t-20 -32.5t-34.5 -23.5t-50 -1.5q-27 6 -44.5 32 t-13.5 58zM729 771q2 -18 -2.5 -34.5t-13.5 -29.5t-22.5 -21t-30.5 -8q-21 0 -41.5 11.5t-40 25t-37.5 24.5t-33 11q-11 0 -18 -6t-11.5 -15t-7.5 -19.5t-7 -18.5q-3 -5 -9.5 -7t-13 -1t-11 5.5t-3.5 11.5q2 10 9.5 25t19 29.5t28 25t36.5 10.5q17 0 35.5 -12t37 -26.5 t37 -26.5t35.5 -12t27 17t3 41q-1 3 4 6.5t11 4.5t12 -1t7 -10z" />
<glyph unicode="&#x1b0;&#x303;" horiz-adv-x="386" d="M498 192q-18 -36 -42.5 -72t-54 -65t-62.5 -47t-68 -18q-36 0 -53 20.5t-19 49.5v12t1 12q-5 -10 -15 -24.5t-23.5 -28t-29.5 -22.5t-33 -9q-37 0 -50 41q-1 12 1 31.5t10.5 52t23 80t36.5 115.5q5 15 11 15q3 0 9.5 -3.5t13 -8t11.5 -9.5t5 -9t-6 -18q-15 -36 -27 -70.5 t-21 -63.5t-14 -52.5t-5 -37.5q4 -11 11 -15t15 -4t19.5 11.5t25 30.5t27 44t24.5 52q8 24 14.5 42.5t11.5 33t9.5 26.5t8.5 24q3 10 8 10t12 -7t12.5 -17.5t8 -21.5t-0.5 -20q-11 -22 -22.5 -42t-21.5 -40t-15.5 -43t-4.5 -53q1 -23 11 -34t25 -11q16 0 38.5 10t48.5 31.5 t53.5 55.5t52.5 82q2 1 6.5 -0.5t9.5 -4t9 -5.5t5 -6zM279 266q5 -14 13 -18.5t24 -4.5q20 0 32.5 16t11.5 44q0 5 -1 11t-2 11q2 2 5 2q6 0 14.5 -2.5t10.5 -4.5q9 -15 11 -37q0 -15 -6 -28t-16.5 -22.5t-23.5 -15t-25 -5.5q-25 0 -39.5 9t-21.5 17zM405 536 q2 -18 -2.5 -34.5t-13.5 -29.5t-22.5 -21t-30.5 -8q-21 0 -41.5 11.5t-40 25t-37.5 24.5t-33 11q-11 0 -18 -6t-11.5 -15t-7.5 -19.5t-7 -18.5q-3 -5 -9.5 -7t-13 -1t-11 5.5t-3.5 11.5q2 10 9.5 25t19 29.5t28 25t36.5 10.5q17 0 35.5 -12t37 -26.5t37 -26.5t35.5 -12 t27 17t3 41q-1 3 4 6.5t11 4.5t12 -1t7 -10z" />
<glyph unicode="&#x1af;&#x323;" horiz-adv-x="803" d="M811 573q-5 -1 -16 -4.5t-16 -11.5q-30 -45 -59.5 -105.5t-52.5 -125t-37 -127t-13 -112.5q2 -38 20.5 -50.5t58.5 -12.5q17 0 35 6t32.5 12.5t24.5 12.5t11 6q6 0 12.5 -11.5t6.5 -19.5q2 -5 -2 -7q-35 -18 -68 -31t-76 -13q-32 0 -52.5 8t-32.5 20.5t-17 28.5t-6 31 q0 17 3 34.5t6.5 32t7 24t3.5 10.5q-3 3 -5 3q-36 -54 -69.5 -90t-68 -57.5t-73.5 -30t-86 -8.5q-29 0 -56 8t-48 25.5t-34 43.5t-15 62q-1 42 17 95t42 107t47 104t31 85q0 3 0.5 6.5t0.5 5.5q0 16 -23 16h-76q-6 0 -10 8t-4 17q-1 7 1.5 12.5t7.5 5.5q97 0 154.5 3.5 t61.5 3.5q2 0 3 -4.5t2 -10.5t1.5 -11t0.5 -6q-1 -6 -4 -6.5t-7 -1.5q-11 -3 -24.5 -5t-20.5 -16q-11 -23 -26 -55t-31 -69t-32 -76t-28 -75t-19.5 -66t-6.5 -49q2 -54 30 -81t96 -27q47 0 90 25.5t81.5 67.5t71 96t60 110.5t49.5 111t37 98.5q5 15 12.5 24.5t23.5 17.5 q5 1 15 4.5l20 7t19 6t13 2.5q5 0 8 -7.5t3 -14.5q0 -10 -5 -10zM692 462q-3 -13 9.5 -31.5t44.5 -26.5q16 -4 28 0.5t20.5 13.5t12.5 22.5t4 27.5q0 11 -6 23q8 5 18 2.5t12 -4.5q5 -8 6.5 -20t2.5 -22q0 -13 -6.5 -30.5t-20 -32.5t-34.5 -23.5t-50 -1.5q-27 6 -44.5 32 t-13.5 58zM255 -77q12 0 23 -8t11 -28q1 -14 -10 -25.5t-25 -11.5q-13 0 -23 9.5t-10 25.5q-1 14 7.5 26t26.5 12z" />
<glyph unicode="&#x1b0;&#x323;" horiz-adv-x="386" d="M498 192q-18 -36 -42.5 -72t-54 -65t-62.5 -47t-68 -18q-36 0 -53 20.5t-19 49.5v12t1 12q-5 -10 -15 -24.5t-23.5 -28t-29.5 -22.5t-33 -9q-37 0 -50 41q-1 12 1 31.5t10.5 52t23 80t36.5 115.5q5 15 11 15q3 0 9.5 -3.5t13 -8t11.5 -9.5t5 -9t-6 -18q-15 -36 -27 -70.5 t-21 -63.5t-14 -52.5t-5 -37.5q4 -11 11 -15t15 -4t19.5 11.5t25 30.5t27 44t24.5 52q8 24 14.5 42.5t11.5 33t9.5 26.5t8.5 24q3 10 8 10t12 -7t12.5 -17.5t8 -21.5t-0.5 -20q-11 -22 -22.5 -42t-21.5 -40t-15.5 -43t-4.5 -53q1 -23 11 -34t25 -11q16 0 38.5 10t48.5 31.5 t53.5 55.5t52.5 82q2 1 6.5 -0.5t9.5 -4t9 -5.5t5 -6zM279 266q5 -14 13 -18.5t24 -4.5q20 0 32.5 16t11.5 44q0 5 -1 11t-2 11q2 2 5 2q6 0 14.5 -2.5t10.5 -4.5q9 -15 11 -37q0 -15 -6 -28t-16.5 -22.5t-23.5 -15t-25 -5.5q-25 0 -39.5 9t-21.5 17zM153 -77q12 0 23 -8 t11 -28q1 -14 -10 -25.5t-25 -11.5q-13 0 -23 9.5t-10 25.5q-1 14 7.5 26t26.5 12z" />
<glyph unicode="Y&#x300;" horiz-adv-x="542" d="M837 592q0 -1 -1.5 -5t-4.5 -7.5t-5.5 -6.5t-3.5 -2q-3 1 -17.5 8t-30.5 3q-68 -15 -128.5 -49.5t-112.5 -82t-94 -104t-71.5 -115t-45.5 -115.5t-16 -105q0 -5 -2.5 -9t-13.5 -2q-15 2 -25 2.5t-17.5 -1t-14 -5t-16.5 -8.5q-4 -2 -10.5 5t-4.5 12q18 21 36.5 57.5 t33 79.5t23 87.5t7.5 81.5q-1 42 -13 84t-33.5 75t-54 53.5t-76.5 20.5q-39 0 -70.5 -21t-54.5 -54q-1 -3 -6.5 -2.5t-11 2.5t-10 6.5t-2.5 9.5q27 52 70 81.5t106 29.5q58 0 95.5 -27.5t59.5 -69.5t31.5 -92t11.5 -95q0 -6 5 -9t7 1q34 47 80 104t99 107.5t111.5 84.5 t117.5 34q8 0 19 -5t21.5 -11.5t19.5 -13.5t13 -12zM463 636q0 -6 -8.5 -10t-10.5 0q-31 38 -63.5 75t-55.5 74q0 3 3 9t7 11.5t8 10t5 4.5h5.5t5.5 -3q9 -17 18.5 -34.5t21 -38t27 -44.5t37.5 -54z" />
<glyph unicode="y&#x300;" horiz-adv-x="348" d="M88 0q-26 0 -40 16t-15 37q-1 16 4.5 44.5t15.5 63.5t24 73.5t29 75.5q2 8 6 11.5t7 6.5q8 2 23 2.5t18 0.5q6 0 6 -6q-16 -38 -31.5 -79t-28.5 -76.5t-20.5 -63t-7.5 -38.5q1 -11 6 -19.5t22 -8.5q9 0 23.5 9t28.5 21t26.5 25t18.5 20q10 13 21 49.5t33 103.5 q11 33 20 55t19 22q10 -3 22.5 -15t14.5 -24q-21 -57 -47.5 -118.5t-46.5 -118.5q-15 -43 -35.5 -96.5t-48 -108t-63 -106.5t-81.5 -92t-103.5 -64.5t-128.5 -24.5q-51 0 -87.5 17.5t-58 44t-28.5 58t0 60.5q15 -55 52.5 -88t108.5 -33q73 0 133 22t110.5 71t93.5 126 t81 188q3 6 0 4.5t-4 -2.5q-14 -14 -38 -29.5t-54 -15.5zM285 419q0 -6 -8.5 -10t-10.5 0q-31 38 -63.5 75t-55.5 74q0 3 3 9t7 11.5t8 10t5 4.5h5.5t5.5 -3q9 -17 18.5 -34.5t21 -38t27 -44.5t37.5 -54z" />
<glyph unicode="Y&#x323;" horiz-adv-x="542" d="M837 592q0 -1 -1.5 -5t-4.5 -7.5t-5.5 -6.5t-3.5 -2q-3 1 -17.5 8t-30.5 3q-68 -15 -128.5 -49.5t-112.5 -82t-94 -104t-71.5 -115t-45.5 -115.5t-16 -105q0 -5 -2.5 -9t-13.5 -2q-15 2 -25 2.5t-17.5 -1t-14 -5t-16.5 -8.5q-4 -2 -10.5 5t-4.5 12q18 21 36.5 57.5 t33 79.5t23 87.5t7.5 81.5q-1 42 -13 84t-33.5 75t-54 53.5t-76.5 20.5q-39 0 -70.5 -21t-54.5 -54q-1 -3 -6.5 -2.5t-11 2.5t-10 6.5t-2.5 9.5q27 52 70 81.5t106 29.5q58 0 95.5 -27.5t59.5 -69.5t31.5 -92t11.5 -95q0 -6 5 -9t7 1q34 47 80 104t99 107.5t111.5 84.5 t117.5 34q8 0 19 -5t21.5 -11.5t19.5 -13.5t13 -12zM242 -77q12 0 23 -8t11 -28q1 -14 -10 -25.5t-25 -11.5q-13 0 -23 9.5t-10 25.5q-1 14 7.5 26t26.5 12z" />
<glyph unicode="y&#x323;" horiz-adv-x="348" d="M88 0q-26 0 -40 16t-15 37q-1 16 4.5 44.5t15.5 63.5t24 73.5t29 75.5q2 8 6 11.5t7 6.5q8 2 23 2.5t18 0.5q6 0 6 -6q-16 -38 -31.5 -79t-28.5 -76.5t-20.5 -63t-7.5 -38.5q1 -11 6 -19.5t22 -8.5q9 0 23.5 9t28.5 21t26.5 25t18.5 20q10 13 21 49.5t33 103.5 q11 33 20 55t19 22q10 -3 22.5 -15t14.5 -24q-21 -57 -47.5 -118.5t-46.5 -118.5q-15 -43 -35.5 -96.5t-48 -108t-63 -106.5t-81.5 -92t-103.5 -64.5t-128.5 -24.5q-51 0 -87.5 17.5t-58 44t-28.5 58t0 60.5q15 -55 52.5 -88t108.5 -33q73 0 133 22t110.5 71t93.5 126 t81 188q3 6 0 4.5t-4 -2.5q-14 -14 -38 -29.5t-54 -15.5zM247 -77q12 0 23 -8t11 -28q1 -14 -10 -25.5t-25 -11.5q-13 0 -23 9.5t-10 25.5q-1 14 7.5 26t26.5 12z" />
<glyph unicode="Y&#x309;" horiz-adv-x="542" d="M837 592q0 -1 -1.5 -5t-4.5 -7.5t-5.5 -6.5t-3.5 -2q-3 1 -17.5 8t-30.5 3q-68 -15 -128.5 -49.5t-112.5 -82t-94 -104t-71.5 -115t-45.5 -115.5t-16 -105q0 -5 -2.5 -9t-13.5 -2q-15 2 -25 2.5t-17.5 -1t-14 -5t-16.5 -8.5q-4 -2 -10.5 5t-4.5 12q18 21 36.5 57.5 t33 79.5t23 87.5t7.5 81.5q-1 42 -13 84t-33.5 75t-54 53.5t-76.5 20.5q-39 0 -70.5 -21t-54.5 -54q-1 -3 -6.5 -2.5t-11 2.5t-10 6.5t-2.5 9.5q27 52 70 81.5t106 29.5q58 0 95.5 -27.5t59.5 -69.5t31.5 -92t11.5 -95q0 -6 5 -9t7 1q34 47 80 104t99 107.5t111.5 84.5 t117.5 34q8 0 19 -5t21.5 -11.5t19.5 -13.5t13 -12zM410 601q0 2 1 6.5t3 5.5q39 16 62 39t23 43q-2 23 -13.5 29.5t-34.5 6.5q-11 0 -19.5 -1.5t-13.5 -1.5q-3 0 -4 4.5t-1 9.5t1.5 10t4.5 6q12 3 22 5t26 2q32 0 53.5 -14.5t22.5 -37.5q1 -24 -14.5 -46.5t-36.5 -39.5 t-43 -27t-35 -10q-2 0 -3 4.5t-1 6.5z" />
<glyph unicode="y&#x309;" horiz-adv-x="348" d="M88 0q-26 0 -40 16t-15 37q-1 16 4.5 44.5t15.5 63.5t24 73.5t29 75.5q2 8 6 11.5t7 6.5q8 2 23 2.5t18 0.5q6 0 6 -6q-16 -38 -31.5 -79t-28.5 -76.5t-20.5 -63t-7.5 -38.5q1 -11 6 -19.5t22 -8.5q9 0 23.5 9t28.5 21t26.5 25t18.5 20q10 13 21 49.5t33 103.5 q11 33 20 55t19 22q10 -3 22.5 -15t14.5 -24q-21 -57 -47.5 -118.5t-46.5 -118.5q-15 -43 -35.5 -96.5t-48 -108t-63 -106.5t-81.5 -92t-103.5 -64.5t-128.5 -24.5q-51 0 -87.5 17.5t-58 44t-28.5 58t0 60.5q15 -55 52.5 -88t108.5 -33q73 0 133 22t110.5 71t93.5 126 t81 188q3 6 0 4.5t-4 -2.5q-14 -14 -38 -29.5t-54 -15.5zM196 423q0 2 1 6.5t3 5.5q39 16 62 39t23 43q-2 23 -13.5 29.5t-34.5 6.5q-11 0 -19.5 -1.5t-13.5 -1.5q-3 0 -4 4.5t-1 9.5t1.5 10t4.5 6q12 3 22 5t26 2q32 0 53.5 -14.5t22.5 -37.5q1 -24 -14.5 -46.5 t-36.5 -39.5t-43 -27t-35 -10q-2 0 -3 4.5t-1 6.5z" />
<glyph unicode="Y&#x303;" horiz-adv-x="542" d="M837 592q0 -1 -1.5 -5t-4.5 -7.5t-5.5 -6.5t-3.5 -2q-3 1 -17.5 8t-30.5 3q-68 -15 -128.5 -49.5t-112.5 -82t-94 -104t-71.5 -115t-45.5 -115.5t-16 -105q0 -5 -2.5 -9t-13.5 -2q-15 2 -25 2.5t-17.5 -1t-14 -5t-16.5 -8.5q-4 -2 -10.5 5t-4.5 12q18 21 36.5 57.5 t33 79.5t23 87.5t7.5 81.5q-1 42 -13 84t-33.5 75t-54 53.5t-76.5 20.5q-39 0 -70.5 -21t-54.5 -54q-1 -3 -6.5 -2.5t-11 2.5t-10 6.5t-2.5 9.5q27 52 70 81.5t106 29.5q58 0 95.5 -27.5t59.5 -69.5t31.5 -92t11.5 -95q0 -6 5 -9t7 1q34 47 80 104t99 107.5t111.5 84.5 t117.5 34q8 0 19 -5t21.5 -11.5t19.5 -13.5t13 -12zM605 747q2 -18 -2.5 -34.5t-13.5 -29.5t-22.5 -21t-30.5 -8q-21 0 -41.5 11.5t-40 25t-37.5 24.5t-33 11q-11 0 -18 -6t-11.5 -15t-7.5 -19.5t-7 -18.5q-3 -5 -9.5 -7t-13 -1t-11 5.5t-3.5 11.5q2 10 9.5 25t19 29.5 t28 25t36.5 10.5q17 0 35.5 -12t37 -26.5t37 -26.5t35.5 -12t27 17t3 41q-1 3 4 6.5t11 4.5t12 -1t7 -10z" />
<glyph unicode="y&#x303;" horiz-adv-x="348" d="M88 0q-26 0 -40 16t-15 37q-1 16 4.5 44.5t15.5 63.5t24 73.5t29 75.5q2 8 6 11.5t7 6.5q8 2 23 2.5t18 0.5q6 0 6 -6q-16 -38 -31.5 -79t-28.5 -76.5t-20.5 -63t-7.5 -38.5q1 -11 6 -19.5t22 -8.5q9 0 23.5 9t28.5 21t26.5 25t18.5 20q10 13 21 49.5t33 103.5 q11 33 20 55t19 22q10 -3 22.5 -15t14.5 -24q-21 -57 -47.5 -118.5t-46.5 -118.5q-15 -43 -35.5 -96.5t-48 -108t-63 -106.5t-81.5 -92t-103.5 -64.5t-128.5 -24.5q-51 0 -87.5 17.5t-58 44t-28.5 58t0 60.5q15 -55 52.5 -88t108.5 -33q73 0 133 22t110.5 71t93.5 126 t81 188q3 6 0 4.5t-4 -2.5q-14 -14 -38 -29.5t-54 -15.5zM400 536q2 -18 -2.5 -34.5t-13.5 -29.5t-22.5 -21t-30.5 -8q-21 0 -41.5 11.5t-40 25t-37.5 24.5t-33 11q-11 0 -18 -6t-11.5 -15t-7.5 -19.5t-7 -18.5q-3 -5 -9.5 -7t-13 -1t-11 5.5t-3.5 11.5q2 10 9.5 25t19 29.5 t28 25t36.5 10.5q17 0 35.5 -12t37 -26.5t37 -26.5t35.5 -12t27 17t3 41q-1 3 4 6.5t11 4.5t12 -1t7 -10z" />
<glyph unicode="&#xe4f;&#x22;" horiz-adv-x="481" d="M256 544h51l-16 -115h-31zM170 544h51l-4 -115h-31zM241 395q36 0 69.5 -13.5t59 -37.5t41 -58t15.5 -75q0 -40 -15.5 -73.5t-41 -57.5t-59 -37.5t-69.5 -13.5q-37 0 -70.5 13.5t-59 37.5t-41 57.5t-15.5 73.5q0 41 15.5 75t41 58t59 37.5t70.5 13.5zM241 68q29 0 55 11 t45.5 30.5t30.5 45.5t11 56t-11 56.5t-30.5 46t-45.5 31t-55 11.5q-30 0 -56 -11.5t-45.5 -31t-30.5 -46t-11 -56.5t11 -56t30.5 -45.5t45.5 -30.5t56 -11zM242 301q36 0 62 -25.5t26 -61.5q0 -38 -26 -63t-62 -25t-62 25t-26 63q0 36 26 61.5t62 25.5zM242 162q21 0 36 15 t15 37q0 20 -15 35t-36 15t-36 -15t-15 -35q0 -22 15 -37t36 -15z" />
<glyph unicode="&#xe24;&#xe32;" horiz-adv-x="376" d="M98 265q0 11 -11.5 23t-34.5 12l-11 19q45 36 94.5 54t109.5 18q9 0 24 -9.5t30 -24t26 -31.5t11 -32q0 -10 -4 -34.5t-9 -56t-11 -65.5t-9 -64q-8 -66 -36.5 -125t-70.5 -105t-94 -78.5t-108 -45.5t-112.5 -6t-106.5 40q118 -12 206 11t148 69t92.5 109t41.5 132 q4 30 10 64t12 65t10.5 55t4.5 34q0 7 -8 18.5t-18.5 22.5t-22 19t-17.5 8q-42 0 -78 -12t-67 -31q13 -5 19.5 -13.5t8.5 -19.5q2 2 9 7.5t13 5.5t9 -7q-20 -25 -34 -49t-23 -50.5t-13.5 -56.5t-4.5 -68q0 -9 3.5 -23.5t13.5 -14.5q8 0 13 6.5t8 16t4.5 20t1.5 19.5 q0 31 -19 56q10 -2 24 -10.5t21 -19.5q9 -18 9 -36q0 -16 -5 -31.5t-13.5 -27.5t-19.5 -19.5t-24 -7.5q-14 0 -24.5 8.5t-17 21t-9.5 27.5t-3 27q0 32 6 60t15.5 51.5t20.5 42.5t20 32z" />
<glyph unicode="&#xe26;&#xe32;" horiz-adv-x="376" d="M50 114q-21 -11 -35 -26.5t-14 -38.5q0 -11 4.5 -14.5t10.5 -3.5q11 0 20 13t17 33.5t14 45.5t10.5 48.5t6.5 43.5t2 30q0 8 -1 18t-4.5 18.5t-10 14t-18.5 5.5l-11 18q24 18 47 31.5t47.5 22.5t51 13.5t58.5 4.5q9 0 24 -9.5t30 -24t26 -31.5t11 -32q0 -10 -5.5 -34 t-12.5 -55.5t-13.5 -66t-9.5 -64.5q-6 -65 -33.5 -123t-69.5 -104.5t-95 -79t-109.5 -46t-113.5 -7t-107 39.5q118 -12 207 10.5t149 68.5t93.5 109t40.5 133q3 30 10.5 64t14.5 65t12.5 55t5.5 34q0 7 -8 18.5t-18.5 22.5t-22 19t-17.5 8q-46 0 -78 -12t-67 -31 q11 -3 17 -11.5t9 -20t3.5 -24t0.5 -22.5q0 -12 -2.5 -34.5t-7.5 -49.5t-13.5 -55t-20.5 -50.5t-27.5 -37t-35.5 -14.5q-12 0 -28 11t-16 40q0 15 9 35.5t32 29.5q14 5 23.5 4.5t17.5 -5.5z" />
<glyph unicode="fi" horiz-adv-x="624" d="M589 651q-3 17 -7.5 29.5t-14.5 21t-26.5 13t-43.5 4.5q-42 0 -75.5 -29.5t-63 -83t-55 -128.5t-51.5 -167q6 0 31.5 0.5t61 2.5t75 7.5t73.5 14.5q13 4 25.5 2.5t14.5 -4.5q2 -5 1 -13.5t-4 -11.5q-13 -26 -26.5 -59t-24.5 -65.5t-18 -61.5t-6 -47q1 -23 15 -30t31 -7 q29 0 59.5 18.5t58 45.5t50 57t34.5 52q2 4 6.5 3.5t8.5 -3.5t7 -7.5t2 -7.5q-19 -35 -45 -70t-57 -63.5t-67 -46t-76 -17.5q-12 0 -26 2t-26 8.5t-20 18t-9 30.5q0 20 7.5 50.5t18.5 63t23.5 63t21.5 51.5q3 5 0.5 10t-14.5 2q-28 -6 -59.5 -10t-60.5 -6.5t-53.5 -3.5 t-40.5 -1q-11 -40 -21 -74.5t-19.5 -66t-18 -60.5t-17.5 -59q-34 -120 -82.5 -211.5t-103 -153t-111 -93t-106.5 -31.5q-27 0 -54 18.5t-48.5 49.5t-34.5 71.5t-12 84.5q0 8 4 19t11 22t15.5 20t17.5 13q5 2 9 -0.5t8 -4.5q-4 -7 -7 -16q-2 -8 -4.5 -17.5t-1.5 -21.5 q1 -27 8.5 -61.5t23.5 -64.5t39.5 -50.5t56.5 -20.5q39 0 80.5 24t81 72t76 120t66.5 168q10 31 22.5 72t26 85l27 88t24.5 81q-32 0 -57 0.5t-45.5 2t-38 4.5t-33.5 8q-2 14 0.5 24.5t9.5 13.5q10 -2 23 -5.5t33 -6.5t47.5 -5.5t66.5 -2.5q16 56 35.5 116.5t46 117.5 t62 105t83.5 79q20 14 46 23t51 9q34 0 55 -13t26 -22q2 -3 2 -13v-22t-1 -24t-2 -18q-1 -5 -11 -3q-4 1 -10 3zM590 531q-5 20 -24 20q-21 0 -31.5 -18t-5.5 -38q6 -18 23 -18q20 0 31.5 18t6.5 36z" />
<glyph unicode="fl" horiz-adv-x="680" d="M530 311q-12 -31 -25 -65t-23.5 -65t-17.5 -56.5t-6 -39.5q1 -29 19 -40.5t44 -11.5q36 0 74.5 20.5t73 50t62.5 63t44 59.5q4 6 10.5 4.5t12 -5.5t9 -9.5t1.5 -8.5q-21 -34 -55 -71.5t-75 -69t-87.5 -52t-91.5 -20.5q-42 0 -66 23.5t-25 55.5q-1 19 5 45.5t16 57t22 62 t24 61.5q-28 -6 -61.5 -10.5t-66 -6.5t-59.5 -3t-44 -1q-11 -40 -21 -74.5t-19.5 -66t-18 -60.5t-17.5 -59q-37 -129 -88.5 -225t-115 -159.5t-138 -95t-156.5 -31.5q-51 0 -94.5 10.5t-76.5 32t-53 55t-23 79.5q11 -27 28 -49.5t47.5 -38.5t77 -25t115.5 -9 q80 0 143.5 26.5t113 76.5t87 123t65.5 166q10 31 22.5 72t26 85l27 88t24.5 81q-32 0 -57 0.5t-45.5 2t-38 4.5t-33.5 8q-2 14 0.5 24.5t9.5 13.5q10 -2 23 -5.5t33 -6.5t47.5 -5.5t66.5 -2.5q16 56 35.5 116.5t46 117.5t62 105t83.5 79q20 14 46 23t51 9q35 0 53.5 -7.5 t31.5 -30.5q1 -3 4 -11t6 -17.5l6 -19t4 -15.5q21 42 42 81t39 71q15 27 27 42t22.5 23t20.5 10t22 2q22 0 33.5 -26t12.5 -59q2 -54 -12.5 -109.5t-40 -107.5t-59.5 -98.5t-70.5 -83.5t-73 -62t-68.5 -34zM252 311q6 0 31 0.5t60 2.5t74.5 7t73.5 14q10 24 18 43.5t13 33.5 q6 17 17.5 43t26 58.5t32 69t36.5 73.5q-24 25 -65 44t-83 19q-38 0 -69.5 -29.5t-59.5 -83t-53.5 -128.5t-51.5 -167zM536 349q48 22 98.5 71t91.5 111.5t66 131.5t23 130q-1 19 -5 33.5t-17 14.5q-6 0 -13 -5t-17 -18.5t-25 -38.5t-37 -65q-12 -21 -24.5 -47t-25.5 -54 t-26 -57t-24 -56q-26 -63 -53 -130z" />
<glyph unicode="B&#x35;&#x31;&#x33;DS&#x21;GN" horiz-adv-x="4678" d="M87 15q8 6 15 15t13 17.5t10.5 16t5.5 10.5q24 69 44 128t39 115.5t39 114t43 124.5q1 3 0 7t-9 4q-18 0 -40 -2.5t-43.5 -6t-40 -6t-29.5 -2.5q-21 0 -24 13q-1 8 1 24t4 21q1 0 5 -4q2 -2 5 -3.5t8.5 -2t15.5 -1t27 -0.5q21 0 39 0.5t36.5 1.5t40 1.5t49.5 0.5 q62 0 110.5 -4t81.5 -17.5t50.5 -39t17.5 -67.5q0 -20 -4.5 -43.5t-17.5 -45.5t-36 -41t-60 -30q-3 -1 -3 -3q0 -3 3 -3q22 -2 43 -10t37.5 -23t27 -39t10.5 -57q0 -35 -16 -69.5t-47.5 -61.5t-79 -44t-109.5 -17q-43 0 -73 8t-51 17.5t-33.5 17.5t-21.5 8q-5 0 -9 -5 t-7.5 -11.5t-8 -14t-10.5 -11.5q-11 0 -19 3t-15 7q-8 4 -14 10zM200 118q-5 -16 -4 -24q2 -8 13.5 -20.5t30.5 -24t44.5 -19.5t53.5 -8q41 0 78 11t66 32.5t46 52.5t17 71q0 41 -33.5 68t-98.5 27q-19 0 -38.5 -2t-43.5 -2q-3 1 -6 10t-3 17q0 7 2 16t10 9q14 0 28 -2.5 t29 -2.5q12 0 27 2t27 6q40 11 70 47t30 89q0 29 -11 47.5t-30.5 29t-46 14.5t-56.5 4q-20 0 -33.5 -8t-23 -21.5t-16 -29.5t-12.5 -33q-29 -77 -56.5 -166t-59.5 -190zM1311 65q3 -3 23.5 -5.5t44.5 -4.5t46.5 -3t30.5 -1q103 0 171.5 16t109.5 39t58 47.5t17 41.5 q0 21 -16.5 37t-40 27t-48 17t-41.5 6q-16 0 -16 20q0 22 11 22q9 0 37.5 10.5t59 28.5t54 42t23.5 51q0 23 -23.5 41.5t-60.5 18.5q-15 0 -29 -9t-21 -23q-3 -11 -13 -19.5t-14 -8.5t-9.5 3.5t-10.5 8t-8.5 10.5t-3.5 10q0 11 11 23t28.5 21.5t40 16t45.5 6.5q26 0 47 -8 t36 -20.5t23 -28.5t8 -32q0 -30 -14 -52t-34 -39t-42.5 -28.5t-39.5 -20.5q-20 -11 -5 -17q19 -7 38.5 -15.5t35.5 -20.5t26 -28t10 -38q0 -37 -18.5 -73t-63 -64.5t-118.5 -45.5t-186 -17q-11 0 -41.5 1t-69.5 2.5t-81 4t-77 6t-58 8t-23 9.5q-1 0 -1.5 9t2 19t9.5 17t20 2 q8 -3 23.5 -7.5t30.5 -8t27 -5t12 2.5q5 41 22.5 95t38.5 110t42.5 108.5t34.5 90.5q10 27 -3 27q-10 0 -31.5 -3.5t-52 -8t-67.5 -8t-79 -3.5q-18 0 -43 1t-53 2.5t-56.5 2.5t-53.5 1q-16 0 -26 -5t-20 -22q-7 -12 -14.5 -28t-14 -31.5t-10.5 -28.5t-4 -19q0 -16 16 -26.5 t39.5 -19t51 -17t51 -20t39.5 -28.5t16 -42q-3 -34 -29 -69.5t-62.5 -65t-77 -48t-72.5 -18.5q-15 0 -38 8.5t-44 19.5t-36 23t-15 19q0 5 4.5 11t10.5 11.5t13 9.5t11 4q12 0 21.5 -9.5t21 -20.5t25.5 -20.5t35 -9.5q22 0 53.5 14t60 36t48.5 47.5t20 49.5q0 22 -22.5 37.5 t-53.5 26t-63 17.5t-51 12q-8 3 -13.5 9t-8.5 13.5t-3 15t1 12.5q6 20 17 44l22 48t20.5 47.5t12.5 42.5q2 10 10.5 18.5t17.5 13.5q13 6 23 -3q10 -8 24 -11t40 -3q19 0 46.5 -1t53.5 -1.5t47 -1.5t27 -1q81 0 154 7t130 31h1q11 0 16 -11t7 -22q2 -8 -2 -14.5t-9 -11.5 q-15 -13 -22.5 -27t-18.5 -37q-6 -14 -18.5 -42t-27.5 -64t-30 -78t-27 -84q-4 -15 -9 -32.5t-7 -33.5t0 -26.5t11 -11.5zM2209 547q-42 -109 -84 -225t-76 -218q-9 -21 9 -35q27 -23 64 -33.5t79 -10.5q66 0 125.5 23.5t105 66.5t72.5 102t27 130q0 51 -11.5 91t-42 67.5 t-85.5 42.5t-142 15q-16 0 -26 -2t-15 -14zM1930 4q7 9 15 19.5l16 21t14 20t9 16.5q5 13 18 47.5t29.5 80t35 97t35.5 99.5t30 87t18 60q-1 4 -4.5 4.5t-6.5 -0.5q-12 -2 -22 -4.5t-21.5 -4.5t-26.5 -4t-36 -2q-6 0 -11 9t-7.5 20t-2 20t3.5 9q1 0 7 -2.5t14.5 -5.5 t19 -5.5t19.5 -2.5q38 0 60.5 1.5t40.5 4t38 4t53 1.5q61 0 118.5 -9.5t102.5 -35.5t72 -72.5t27 -121.5q0 -88 -30.5 -156t-83 -114.5t-123 -71t-149.5 -24.5q-41 0 -71.5 6.5t-53 14t-38.5 14t-27 6.5t-20 -9l-25 -25zM3044 539q-1 -18 -3.5 -39t-7.5 -36q-2 -2 -14 -1 t-14 5q1 4 1 13.5t-2 15.5q-4 25 -23 39.5t-70 14.5q-17 0 -33.5 -6.5t-30 -18.5t-22 -28.5t-8.5 -37.5q0 -22 7 -40.5t18.5 -35.5t26.5 -33.5t30 -33.5q24 -26 40.5 -45.5t26 -36.5t14 -33.5t4.5 -37.5q0 -44 -23 -77t-58 -54.5t-77.5 -32t-81.5 -10.5q-32 0 -63 6t-58 18 q-20 9 -22 15q1 11 2 26t1.5 30.5t1 29.5t1.5 23q0 2 7.5 2h9.5t10 -1.5t8 -5.5q-1 -6 -0.5 -16.5t1.5 -16.5q7 -38 37.5 -55.5t71.5 -17.5q30 0 61.5 7.5t56.5 23t41 39t16 54.5q0 24 -15 59.5t-59 81.5q-20 20 -35 37t-24.5 34t-14.5 35.5t-5 41.5q0 33 9 61t28.5 48.5 t49.5 32.5t72 12q22 0 41 -5.5t33.5 -13.5t24 -17.5t12.5 -18.5zM3336 602q6 -3 6 -7.5t-4 -4.5q-10 0 -19.5 -7t-14.5 -15q-21 -27 -37 -66.5t-29.5 -89.5t-26.5 -108t-28 -123q-1 -3 -8 -4t-14.5 -0.5t-14 2.5t-6.5 5q10 65 20 117.5t20 98t21.5 85.5t24.5 79q12 47 62 47 q12 0 25.5 -3t22.5 -6zM3183 37q2 -21 -15 -33.5t-36 -12.5q-14 0 -26 7.5t-15 21.5q-4 21 11 38.5t39 17.5q17 0 28.5 -11.5t13.5 -27.5zM3393 -217q-1 11 -1 21q0 8 1 15.5t3 11.5q17 -8 37 -15t39 -7q69 0 129 28.5t107.5 72.5t81 96.5t49.5 101.5q-1 10 -8 3 q-10 -11 -33.5 -32.5t-58 -42.5t-78.5 -37t-97 -17q-112 0 -172.5 52t-60.5 142q0 71 31 146t89 136.5t139.5 101t181.5 39.5q23 0 50 -3t53.5 -9.5t50.5 -17t40 -24.5q-2 -24 -7.5 -56.5t-11.5 -57.5q-1 0 -4 -1q-2 -1 -4.5 -1.5t-7.5 -0.5q-4 0 -10 2q-3 1 -4 2 q0 8 0.5 16t-0.5 18q-2 25 -16 42t-38 27.5t-55.5 15.5t-67.5 5q-67 0 -130.5 -35.5t-112.5 -91.5t-78.5 -124.5t-29.5 -135.5q0 -69 45.5 -109t126.5 -40q40 0 79 12.5t73.5 32t63.5 44t50.5 47.5t34 43t14.5 31q3 15 0.5 21t-16.5 6q-22 0 -53.5 -3t-69.5 -5l1 34 q27 0 63.5 0.5t74.5 2.5t72.5 6t56.5 11q2 -2 2.5 -14t-1.5 -16q-10 -3 -22 -6t-22 -7t-17.5 -10t-10.5 -15q-32 -100 -64.5 -176.5t-79.5 -137.5q-25 -32 -56 -60t-69 -48t-85.5 -31.5t-105.5 -11.5q-19 0 -37.5 2.5t-43.5 10.5zM4082 -21q-4 2 -11 8t-14 12.5t-13 13.5 t-8 12q-1 24 10 62.5t28 83t37.5 92.5t38 92t29.5 81.5t12 60.5q0 16 -5 26.5t-25 10.5q-16 0 -32 -1t-30 -2q-3 0 -5 5t-4 12t-3.5 13.5t-3.5 10.5q0 5 5 5q14 -5 33 -6.5t39 -1.5q26 0 46 4t35 10q8 0 13 -13q22 -51 48 -108.5t54 -117.5t56 -119t53 -113q5 -11 8 -14 t9 -3q3 0 5.5 2.5t4.5 10.5q12 41 27.5 101t34 126t40 131.5t47 118t55 85t62.5 32.5q4 0 15.5 -5t23 -10.5t18.5 -10.5t2 -5q-39 0 -71.5 -31t-60.5 -83t-51.5 -120t-45 -143.5t-41 -153t-38.5 -147.5q-8 -4 -18 -4.5t-20 4.5q-19 44 -47.5 111t-59 138t-60 135.5 t-50.5 103.5q-8 14 -15 11.5t-12 -17.5q-28 -71 -51 -132t-40.5 -119t-30 -117.5t-19.5 -127.5h-4z" />
<glyph unicode="&#xd;" horiz-adv-x="216" />
<glyph unicode=" "  horiz-adv-x="250" />
<glyph unicode="&#x09;" horiz-adv-x="250" />
<glyph unicode="&#xa0;" horiz-adv-x="250" />
<glyph unicode="!" horiz-adv-x="330" d="M331 602q7 -3 7 -7.5t-4 -4.5q-10 0 -19 -7t-14 -15q-20 -27 -34.5 -66.5t-26.5 -89.5t-23 -108t-24 -123q-1 -3 -8 -4t-14.5 -0.5t-14 2.5t-6.5 5q8 65 16 117.5t16.5 98t18.5 85.5t22 79q11 47 60 47q12 0 25.5 -3t22.5 -6zM198 37q3 -21 -13.5 -33.5t-35.5 -12.5 q-14 0 -26.5 7.5t-15.5 21.5q-5 21 9.5 38.5t38.5 17.5q17 0 29 -11.5t14 -27.5z" />
<glyph unicode="&#x22;" horiz-adv-x="491" d="M345 672q9 0 21.5 -7.5t6.5 -19.5q-25 -46 -40 -73.5t-27.5 -51t-26.5 -51t-36 -74.5q-2 -3 -7 -3.5t-9.5 1.5t-7.5 6t-1 9q14 32 24.5 56.5t21 51.5t24 61t34.5 83q5 12 23 12zM233 684q6 0 12 -2.5t10.5 -7t6.5 -10t-2 -12.5q-24 -42 -40.5 -71.5t-30.5 -56t-28.5 -55 t-32.5 -69.5q-1 -3 -7 -3t-11 2t-8.5 6.5t-0.5 11.5q17 38 30 67.5t25.5 58t25.5 58.5t30 69q6 14 21 14z" />
<glyph unicode="#" horiz-adv-x="461" d="M374 518q0 -2 -5.5 -14t-13 -31t-16.5 -42t-17 -48q20 1 32.5 2t25.5 2q6 0 6 -7q-5 -8 -7.5 -16.5t-6.5 -14.5q-3 -5 -11.5 -3t-28.5 2h-10.5t-10.5 -1q-11 -35 -18 -59t-18 -59q27 0 49 -3t24 -16q2 -6 -1.5 -14.5t-8.5 -19.5q-8 8 -23.5 10.5t-53.5 2.5 q-10 -44 -19 -86.5t-15 -74.5q-4 -11 -9 -11q-2 0 -7.5 2t-11 5t-10 6t-4.5 4q-2 4 -1.5 7.5t1.5 7.5q11 33 21 67.5t20 72.5q-19 0 -41 -1.5t-44 -3.5q-14 -49 -24 -88t-15 -75q-3 -16 -11 -16q-5 0 -18 5.5t-16 11.5q-2 6 1 12q12 35 21 70t24 77q-20 -2 -32 -5.5 t-17 -3.5q-2 0 -1 13t3 19q3 8 7.5 9.5t9.5 2.5q8 1 20.5 2t22.5 3q11 35 21 60.5t21 60.5q-15 -2 -29.5 -3.5t-28.5 -3.5q-5 0 -5 4q-1 3 2 13t7 18q2 8 14 8q11 0 23 0.5t26 0.5q10 29 18 57t14 51q3 9 11.5 13t16.5 4.5t14 -2t4 -6.5q-13 -27 -23 -57.5t-20 -59.5 q21 2 42 2t42 2q9 23 17.5 45.5t15 41.5t11.5 33.5t7 20.5q2 7 14.5 9t17.5 0t6.5 -4.5t-1.5 -10.5zM273 347h-43t-36 -3q-12 -32 -21 -58t-19 -62q19 3 42 3t43 2q5 18 9 32t7.5 27t8 27t9.5 32z" />
<glyph unicode="$" horiz-adv-x="532" d="M449 539q0 -18 -2 -39t-7 -36q-2 -2 -14 -1t-14 5q1 4 0.5 13.5t-2.5 15.5q-4 17 -13.5 29t-31.5 19q-19 -56 -35 -109t-31 -106q3 -3 6 -6.5t6 -6.5q25 -26 42 -45.5t27.5 -36.5t15.5 -33.5t6 -37.5q1 -37 -14 -65.5t-40 -49.5t-57.5 -34.5t-66.5 -19.5 q-10 -54 -18 -109.5t-15 -115.5q-1 -6 -6.5 -7t-12 1t-12.5 6.5t-8 10.5q6 53 13.5 105t17.5 105q-5 -1 -15 -1q-32 0 -63 6t-59 18q-20 8 -23 15q1 11 1.5 26t0.5 30.5t0.5 29.5t0.5 23q0 2 7.5 2h9.5t10 -1.5t8 -5.5q-1 -6 0 -16.5t2 -16.5q8 -38 39.5 -55.5t72.5 -17.5 h15q13 69 29.5 137.5t35.5 137.5q-18 18 -31.5 33.5t-22.5 31.5t-13.5 34t-5.5 39q-1 33 7.5 61t27 48.5t48 32.5t71.5 12q7 0 11 -1q14 40 28 79.5t29 80.5q3 3 8 4t10.5 0t10 -3.5t5.5 -6.5q-16 -42 -30 -81.5t-28 -78.5q27 -8 45.5 -22t23.5 -26zM284 273 q-15 -60 -28.5 -119t-24.5 -121q23 6 44 16t37 24.5t25 34t8 43.5q-1 21 -13.5 52t-47.5 70zM272 359q14 48 28.5 95.5t31.5 95.5q-5 1 -8.5 1h-8.5q-17 0 -33.5 -6.5t-29.5 -18.5t-20.5 -28.5t-7.5 -37.5q2 -30 15 -54t33 -47z" />
<glyph unicode="%" horiz-adv-x="653" d="M574 501q11 0 22.5 -5t13.5 -13q2 -7 -2 -13.5t-11 -10.5q-20 -10 -48.5 -39.5t-61.5 -68.5t-67.5 -84t-66 -86.5t-56.5 -75t-40 -50.5q-8 -9 -15.5 -21.5t-13.5 -25.5t-10 -23.5t-6 -15.5q-2 -4 -12.5 -3.5t-21.5 4.5t-18 10.5t-3 13.5q7 11 34 47t65 84.5t82 103.5 t84.5 104.5t73 88t46.5 53.5q11 13 17 19.5t14 6.5h1zM115 355q-1 32 17.5 63.5t45 57t53.5 41t42 15.5q18 0 33 -9.5t26 -24.5t17.5 -34t7.5 -37q1 -31 -15 -57.5t-41 -45t-55.5 -29t-59.5 -10.5q-30 0 -49.5 18t-21.5 52zM163 357q1 -14 10.5 -23.5t26.5 -9.5q18 0 38 7.5 t36.5 21t27.5 31.5t10 39q-1 20 -9 39.5t-28 19.5h-1q-23 2 -43.5 -13t-35.5 -36t-23.5 -42.5t-8.5 -33.5zM406 71q0 16 12.5 43.5t32.5 53.5t45 45.5t49 19.5q20 0 39.5 -6.5t34.5 -18t25 -26t10 -31.5q1 -26 -17.5 -54.5t-45 -52.5t-56 -39.5t-50.5 -15.5q-8 0 -21 4 t-26 14t-22 25.5t-10 38.5zM450 76q1 -17 10 -29.5t26 -12.5q19 0 40.5 12.5t39.5 30.5t30 38.5t11 36.5q0 6 -5.5 14t-13 14.5t-16.5 11t-17 4.5q-18 0 -37 -13.5t-34.5 -32t-25 -39t-8.5 -35.5z" />
<glyph unicode="&#x26;" horiz-adv-x="798" d="M680 293q-2 0 -2.5 6t0.5 6q9 0 19.5 3t16.5 3q18 0 32 -10.5t24 -27t15 -37t6 -39.5q1 -27 -8.5 -52.5t-29 -46t-50 -33t-72.5 -12.5q-23 0 -48 7.5t-45 19.5q-31 -19 -65 -29.5t-76 -10.5q-33 0 -63 8t-53 25.5t-37 44.5t-16 65q-1 37 14.5 66t39.5 53t53 44.5t55 41.5 q1 26 3 53t7 53q-57 0 -110 -22t-93.5 -61.5t-64.5 -93t-22 -116.5q2 -62 24.5 -110t61.5 -81t91.5 -50t114.5 -17q52 0 110 17.5t106 60.5q3 2 7 -2t7.5 -11t5 -14t-0.5 -10q-10 -13 -32.5 -27t-54 -25.5t-70 -19t-80.5 -7.5q-71 0 -131 19.5t-104.5 56.5t-70.5 91.5 t-28 123.5q-3 67 20.5 126.5t68.5 104t109 70t143 25.5q2 6 8 14.5t14 16t17.5 13t19.5 5.5q12 0 20 -6t13 -15t6.5 -19.5t-0.5 -19.5q33 -9 61 -27.5t48.5 -45.5t32.5 -60t13 -70q2 -61 -23 -116.5t-69 -89.5q34 -20 76 -20q18 0 38.5 7t38 20.5t28.5 32.5t10 43 q-1 21 -7.5 40.5t-17 34.5t-24.5 24t-30 9zM480 518q2 13 -1 23.5t-15 10.5q-10 0 -19.5 -9t-14.5 -20q13 0 25 -1t25 -4zM472 489q-12 2 -23.5 4t-24.5 2q-7 -25 -6.5 -44.5t-1.5 -44.5q18 14 34.5 37.5t21.5 45.5zM541 119q48 40 67 84t17 92q-1 31 -9.5 60.5t-24 54.5 t-39 44t-53.5 28q-6 -24 -29.5 -56.5t-54.5 -58.5q3 -39 10.5 -75t22 -67.5t37 -58t56.5 -47.5zM508 99q-56 41 -84.5 107t-33.5 142q-20 -23 -41 -42t-38 -38.5t-28 -42t-10 -51.5q1 -25 12 -44.5t27.5 -32.5t38 -19.5t43.5 -6.5q26 0 57 5.5t57 22.5z" />
<glyph unicode="'" horiz-adv-x="327" d="M222 693q-11 -33 -28.5 -71t-36.5 -77.5t-37 -79.5t-32 -79q-1 -4 -5 -5.5t-7.5 0t-5.5 5t1 9.5q27 80 47.5 153.5t53.5 149.5q7 13 21 13q6 0 17 -5t12 -13z" />
<glyph unicode="(" horiz-adv-x="435" d="M407 735q-49 -26 -86.5 -66.5t-65.5 -88.5t-47 -101t-30.5 -105t-15.5 -99.5t-3 -85.5q1 -31 8 -67t21 -70t35 -61.5t49 -42.5q7 -3 1 -18q-4 -16 -9 -11q-41 18 -70.5 46.5t-49 63t-29 74.5t-11.5 82q-3 84 11.5 168t47.5 160.5t86 141.5t127 110q7 0 21 -14 q16 -13 10 -16z" />
<glyph unicode=")" horiz-adv-x="609" d="M457 472q-2 73 -30 141.5t-79 111.5q-5 4 4 20q10 16 15 13q34 -22 60.5 -56.5t44.5 -74.5t27.5 -83t10.5 -84q2 -50 -5.5 -105t-24 -109.5t-41.5 -106t-58 -95t-73.5 -76t-88.5 -48.5q-10 0 -19 14q-11 14 -3 17q70 31 120.5 89.5t82.5 130.5t46 150.5t11 150.5z" />
<glyph unicode="*" horiz-adv-x="381" d="M308 495q1 -6 -1.5 -12.5t-14.5 -5.5q-11 1 -22.5 1.5t-24.5 0.5h-45q-11 0 -1 -9q9 -8 20 -18.5t23 -21.5q13 -11 20.5 -20t11.5 -15q9 -17 -4 -21q-12 -3 -20 9q-2 3 -8.5 11.5t-17.5 22.5t-20 26t-17 22q-6 8 -11 -4q-2 -9 -5 -20t-5.5 -23t-4.5 -22.5t-3 -18.5 q-3 -18 -11 -18q-7 0 -15 2t-9 8q-1 5 4 20l7.5 15t11.5 24t11.5 23.5t6.5 13.5q7 10 -5 9q-3 0 -14.5 -3t-26.5 -7t-30 -7.5t-23 -4.5q-8 0 -13 5t-5 10q-1 3 3 9t7 7q9 0 32 1.5t43 1.5h24q9 0 4 8q-5 5 -14 13t-21 19l-38 38q-5 6 -1.5 13.5t11.5 7.5q10 0 17 -12 q14 -14 31 -38q9 -13 14.5 -20.5t7.5 -11.5q6 -8 6.5 -6.5t2.5 6.5q6 10 13 38q3 14 6 26.5t5 23.5q2 12 6 15t12 3q7 0 13 -8t1 -16q-6 -9 -12.5 -21t-12 -24t-10.5 -23t-8 -17q-4 -13 12 -9q7 1 18 3t23 4t22.5 4t15.5 4q25 4 28 -11z" />
<glyph unicode="+" horiz-adv-x="400" d="M331 142q-29 6 -67.5 8t-75.5 2q-6 -43 -8 -74.5t-5 -61.5h-42q2 11 5 28.5t5.5 36.5t5.5 38t5 34h-27t-36 -0.5t-36 -1t-26 -1.5l2 35q10 -2 45 -1.5t83 -1.5q5 32 8.5 63.5t7.5 59.5h37q-6 -23 -10.5 -56.5t-9.5 -66.5h39.5t40 -0.5t36 -1.5t26.5 -3l-3 -35v0z" />
<glyph unicode="," horiz-adv-x="315" d="M235 104q5 -15 -6 -27q-30 -41 -55 -73.5t-47.5 -63t-44.5 -61.5t-47 -68q-1 -3 -7.5 -5.5t-10.5 8.5q-1 7 3 12q48 75 90.5 154t85.5 160q3 10 14 10q5 0 11 -8t14 -38z" />
<glyph unicode="-" horiz-adv-x="474" d="M347 219q18 0 20 -19q0 -16 -18 -17l-230 -2q-16 0 -16 16q-2 20 14 20q21 0 54 0.5t66.5 0.5t63.5 0.5t46 0.5z" />
<glyph unicode="." horiz-adv-x="345" d="M177 83q14 0 24 -12t11 -28t-8.5 -33.5t-36.5 -17.5q-17 0 -26.5 12t-10.5 28q-1 24 12 37.5t35 13.5z" />
<glyph unicode="/" horiz-adv-x="552" d="M471 822q0 10 -10 -23.5t-26 -97t-36.5 -150t-42.5 -181t-43.5 -190.5t-39.5 -178.5t-30.5 -145t-16.5 -90.5q-3 -10 -26 -12t-24 10q4 24 14.5 74t26 116.5t34 145.5t38 162.5t39.5 166t37.5 156t32.5 134t25 99.5q0 9 22 14q23 5 26 -10z" />
<glyph unicode="0" horiz-adv-x="400" d="M364 330q-1 -30 -10 -67.5t-26 -75.5t-40 -74t-51 -64t-60 -45t-66 -17q-21 0 -37.5 11.5t-28 29t-18 37.5t-7.5 38q-1 30 8 67t25 73.5t37 70t44 57.5q15 16 31.5 30.5t32.5 26t29.5 18t22.5 6.5q5 0 9 -2.5t7 -5.5q5 -3 18 -3q17 0 31.5 -9.5t25 -25t16.5 -35t7 -40.5 v-1zM313 334q0 11 -2.5 25t-8 26t-14.5 20t-23 8q-11 0 -15 -9q-2 -8 -7 -14t-19 -7t-28 -9t-34 -31q-15 -17 -31.5 -44t-29 -58.5t-20.5 -65.5t-7 -66q1 -24 6.5 -40t13 -25.5t15.5 -13t13 -3.5q26 0 50 16.5t45 43t38.5 60t30 67.5t20 65.5t7.5 53.5v1z" />
<glyph unicode="1" horiz-adv-x="400" d="M286 458q10 0 15.5 -10t7.5 -21q2 -8 -2 -14t-9 -11q-14 -12 -20 -25t-16 -36q-6 -13 -15 -36.5t-20.5 -54.5t-23 -67.5t-21.5 -76.5q-4 -14 -3.5 -26t2.5 -22t4.5 -16.5t2.5 -9.5q0 -6 -7 -15t-17 -17t-20 -14t-16 -6q-3 0 -7 8t-2 30q3 39 12.5 78t22 77.5t26 76 t24.5 73.5q5 12 3.5 18.5t-6.5 6.5q-10 0 -21 -6.5t-21 -14.5t-19 -14.5t-14 -6.5t-15.5 3t-21 7.5t-18.5 9.5t-8 10q0 7 15 11q10 3 26 8.5t35.5 12.5t41 16t40.5 20q9 6 17 15t16 17t15.5 14.5t15.5 7.5h1z" />
<glyph unicode="2" horiz-adv-x="400" d="M111 338q-1 19 15.5 39t41.5 36t53.5 26t52.5 10q38 0 64 -22.5t28 -63.5q0 -17 -6 -34t-16 -33t-21 -30t-20 -25q-16 -19 -43 -46.5t-54.5 -54.5t-49 -49.5t-27.5 -31.5q-4 -9 30 -12q9 -1 21 -1.5t25 -0.5h24.5h18.5q35 0 56.5 6t32.5 6q6 0 10.5 -5.5t4.5 -7.5 q0 -5 -5 -13.5t-12 -17t-15.5 -14.5t-15.5 -6t-13.5 2t-17.5 4t-28.5 4t-47.5 2q-50 0 -73.5 0.5t-37.5 0.5q-17 -1 -26 -5.5t-12 -4.5t-8 4t-9.5 9.5t-7.5 10.5t-3 7q-1 5 5.5 11.5t13.5 10.5q29 16 62.5 45.5t66 62.5t61 65.5t46.5 53.5q23 27 31.5 46t7.5 36 q-1 24 -15.5 36.5t-33.5 12.5q-14 0 -31.5 -8t-33.5 -21t-28.5 -28t-15.5 -30q-1 -7 -8.5 -8t-16 2.5t-14.5 10t-6 13.5z" />
<glyph unicode="3" horiz-adv-x="400" d="M128 390q0 10 10 21.5t26.5 21t37.5 15.5t43 6q24 0 44.5 -7.5t35 -20t22.5 -27.5t9 -30q0 -19 -8.5 -36.5t-22.5 -32t-31 -26t-33 -19.5q-20 -10 -4 -16q18 -7 34.5 -15t29.5 -19t21 -26.5t9 -36.5q1 -36 -24 -66t-62.5 -52t-80.5 -34.5t-78 -12.5q-32 0 -54 14.5 t-22 29.5q0 3 4 8t11 10t17 8.5t20 3.5q5 0 11.5 -5t14 -11t16 -11t15.5 -5q25 0 54.5 11.5t54.5 28.5t41.5 36.5t16.5 35.5q-1 20 -15 35t-34.5 26t-42 16.5t-37.5 5.5q-7 0 -11.5 4t-5.5 15q0 9 2.5 15t8.5 6q9 0 32 10t47 25t42.5 33.5t17.5 36.5q-1 23 -22.5 40 t-56.5 17q-14 0 -27.5 -8t-19.5 -22q-3 -10 -12 -18.5t-13 -8.5q-7 0 -19 11t-12 20z" />
<glyph unicode="4" horiz-adv-x="400" d="M204 123q2 5 1.5 8.5t-8.5 3.5q-70 0 -106.5 6.5t-47.5 13.5q-21 11 -21 30q-1 14 13 35t36 44t49.5 47t54.5 44.5t51.5 37t40.5 24.5q12 6 17 10.5t10 9.5q8 8 15 14.5t15 6.5q4 0 7.5 -5t6.5 -11.5t4 -13t1 -9.5q0 -8 -4 -10.5t-8 -4.5q-12 -8 -21.5 -37t-17 -63.5 t-13 -67.5t-10.5 -48q-4 -11 4 -11q20 0 41 6t38 6q8 0 10.5 -6.5t1.5 -14t-4 -14.5t-5 -9q-4 -4 -15 -5t-24 -0.5t-25 1.5t-19 0q-19 -3 -24 -14q-8 -33 -13.5 -69.5t-4.5 -58.5q0 -10 -8.5 -16.5t-18.5 -9t-19 -1t-9 7.5q-1 23 8.5 58t20.5 85zM244 360q-7 -4 -23.5 -16 t-36.5 -29t-41 -36.5t-37 -37.5t-24 -32t-3 -21q5 -5 34.5 -10t92.5 -5q12 0 16 15q5 16 10.5 39t10.5 46t9.5 43.5t7.5 31.5q6 14 0.5 16t-16.5 -4z" />
<glyph unicode="5" horiz-adv-x="400" d="M221 404q-15 0 -24 -4.5t-19 -21.5q-12 -23 -20 -46t-8 -36q0 -15 11.5 -25t28 -18t35.5 -16t35.5 -19t27.5 -27t12 -40q-1 -33 -19.5 -63t-46 -53t-60 -37t-63.5 -14q-15 0 -35 8t-38.5 19t-31.5 22t-13 18q0 4 3.5 10t9.5 11t12 9t10 4q12 0 20 -9t17 -19.5t21 -19.5 t32 -9q21 0 44.5 9.5t43 25.5t32.5 37t12 43q-1 21 -13.5 35.5t-31.5 24.5t-40.5 17t-39.5 12q-16 5 -21.5 21.5t-2.5 25.5q5 20 13 39.5l16 39t14.5 38.5t8.5 37q2 9 10 17t16 13q12 5 22 -3q10 -7 23.5 -10t38.5 -3q18 0 37 4t35.5 9t29.5 9t19 4q5 0 5 -6.5t-3 -14.5 t-8.5 -15.5t-13.5 -9.5q-33 -10 -64 -16.5t-79 -6.5z" />
<glyph unicode="6" horiz-adv-x="400" d="M367 430q1 -8 -10.5 -17t-25.5 -14q-9 -3 -13.5 -1t-10.5 8q-14 16 -35 16q-14 0 -35.5 -11.5t-45 -30t-46.5 -43t-40.5 -50t-28 -50.5t-8.5 -45q0 -4 2 -7.5t7 0.5q24 20 55.5 36.5t60.5 16.5q21 0 40 -7.5t33.5 -20t23 -30t9.5 -37.5q1 -29 -14 -56.5t-38 -49 t-51 -34.5t-54 -13q-31 0 -55 13.5t-40.5 35.5t-25.5 49.5t-10 55.5q-1 26 8.5 60t27 70t44 70.5t59.5 62t73 44t85 16.5q9 0 19.5 -4t19 -9.5t14.5 -12t6 -11.5zM246 139q-1 18 -16.5 37.5t-44.5 19.5q-16 -2 -36.5 -10.5t-39.5 -20.5t-31.5 -26t-11.5 -28q0 -15 7.5 -29.5 t19 -25t25 -17t26.5 -6.5q14 0 31.5 9t33.5 23.5t27 33.5t10 40z" />
<glyph unicode="7" horiz-adv-x="400" d="M88 447q7 0 28 -2.5t51 -2.5q14 0 37 0.5t47 1t44.5 1t28.5 0.5t14.5 -6t10.5 -14t4.5 -16.5t-2.5 -14.5q-23 -42 -54 -89.5t-63 -94t-61.5 -90.5t-49.5 -79q-12 -21 -16.5 -37.5t-6 -28t-2.5 -18t-6 -6.5q-4 0 -14 2.5t-20.5 7.5t-18.5 12.5t-8 16.5t6 20.5t15.5 24 t20.5 25.5t20 25q30 39 60 82t55 81t42.5 66t23.5 37q12 17 14 25.5t2 16.5q0 9 -26 11q-6 0 -15 0.5t-19.5 0.5h-20.5h-17q-33 0 -51 -3t-28 -7t-14 -7t-10 -3q-4 0 -10 5t-12 12.5t-10.5 16.5t-4.5 16q0 8 10.5 10t25.5 2z" />
<glyph unicode="8" horiz-adv-x="400" d="M204 437q14 6 11 11t0.5 10t10 9.5t14 7t11.5 2.5q12 0 28 -12q14 -10 29 -22t27.5 -26.5t20.5 -31t9 -37.5q1 -19 -11.5 -36.5t-30.5 -33.5t-38 -29t-34 -22q-13 -9 -3 -17q27 -23 37.5 -45t11.5 -39q1 -31 -16 -56t-43.5 -41.5t-56.5 -25.5t-56 -9q-16 0 -34.5 8.5 t-34.5 22t-26.5 31.5t-11.5 36q-1 21 9.5 38t27.5 32t37.5 28t39.5 26q13 7 -1 17q-24 21 -33 40t-9 34q-1 23 11 43t30 36.5t38 29.5t36 21zM132 315q1 -9 14 -28.5t39 -39.5q6 -5 12 -4t11 3q12 5 31 16t37.5 25t31.5 29.5t12 29.5q0 9 -6 18t-14.5 18t-18.5 16.5 t-18 11.5q-10 6 -30 -3q-15 -6 -33 -16.5t-33 -23t-25 -26t-10 -25.5v-1zM142 38q14 0 33 6t36.5 16.5t29 25t10.5 30.5q0 15 -12 33.5t-23 29.5q-14 14 -23 18t-13 4t-17.5 -7t-29.5 -18q-26 -19 -47 -41t-20 -42q0 -12 7.5 -22t19 -17.5t24.5 -11.5t24 -4h1z" />
<glyph unicode="9" horiz-adv-x="400" d="M357 342q1 -32 -5 -68t-17 -64q-29 -75 -78.5 -131.5t-120.5 -83.5q-32 -11 -47 -18t-26 -7q-5 0 -11 5.5t-11 13.5t-8 17t-3 16q0 5 9 6.5t22 1.5h27.5t23.5 3q42 12 76 37t59 57t39.5 66t16.5 64q-1 13 -16 1q-10 -9 -25 -18.5t-31.5 -17.5t-34 -13.5t-33.5 -5.5 q-32 0 -54.5 18.5t-24.5 60.5q-1 32 13.5 62t38.5 54t55 38.5t62 14.5q28 0 46.5 -7.5t30.5 -22t18 -34.5t9 -44v-1zM133 292q1 -20 11 -32.5t24 -12.5q15 0 39.5 9.5t48 24.5t40.5 34.5t16 39.5q-1 29 -18 42t-43 13q-21 0 -42.5 -10t-38.5 -26.5t-27.5 -38t-9.5 -43.5z " />
<glyph unicode=":" horiz-adv-x="359" d="M241 314q1 -8 -1.5 -20.5t-10 -24.5t-17.5 -20.5t-22 -8.5q-10 0 -20.5 6t-12.5 18q-7 30 9 52.5t41 22.5q8 0 19 -5t15 -20zM165 66q0 -7 -2 -20t-9.5 -25t-17.5 -20.5t-22 -8.5q-10 0 -20.5 6.5t-11.5 18.5q-8 30 7.5 52.5t40.5 22.5q8 0 19.5 -5.5t15.5 -20.5z" />
<glyph unicode=";" horiz-adv-x="347" d="M237 315q2 -8 -1.5 -20.5t-10 -24t-17 -20t-22.5 -8.5q-10 0 -20 6t-12 18q-3 15 -0.5 28.5t9.5 24t18 16.5t23 6q8 0 19 -5.5t14 -20.5zM161 78q4 -14 -6 -27q-10 -14 -35 -47.5t-52 -71.5t-51 -72t-33 -49q-1 -3 -8.5 -5.5t-11.5 8.5q-1 7 4 12l153 288q3 10 15 10 q4 0 10.5 -8t14.5 -38z" />
<glyph unicode="&#x3c;" horiz-adv-x="600" d="M493 278q-19 -7 -56 -19t-78.5 -25t-82.5 -26t-68 -22q25 -7 58.5 -19t67.5 -25t63.5 -25.5t47.5 -21.5l-9 -40q-23 12 -60 29t-77 33.5t-78 31t-63 21.5l-2 37q8 1 29 7.5t50 16.5t63.5 22t67.5 24.5t63 24.5t51 20l13 -44v0z" />
<glyph unicode="=" horiz-adv-x="400" d="M309 231h-254l3 34h254zM310 122h-265l4 34h262z" />
<glyph unicode="&#x3e;" horiz-adv-x="600" d="M506 170q-7 0 -28.5 -6.5t-50.5 -16.5t-63.5 -22.5t-68.5 -25t-64.5 -25t-52.5 -21.5l-14 45q22 7 60 19.5t80 27t82.5 28.5t67.5 23q-23 4 -58 14t-70 22t-65 22.5t-44 14.5l16 38q22 -9 56.5 -21.5t73 -25t76.5 -24.5t65 -19z" />
<glyph unicode="?" horiz-adv-x="353" d="M150 419q0 6 11.5 13t27.5 13t32 9.5t24 3.5q14 0 30 -4.5t30 -12.5t23.5 -20t10.5 -27q1 -20 -16 -40t-38 -35q-17 -11 -40.5 -22.5t-45 -24t-36.5 -26t-14 -28.5q1 -20 14.5 -32.5t21.5 -12.5q12 0 18.5 7t11.5 7q10 0 22 -7t13 -15q0 -4 -8 -9.5t-19 -10t-23 -7.5 t-20 -3q-13 0 -26 7t-22.5 18.5t-16 26t-6.5 30.5q-1 21 12.5 37.5t33.5 30.5t43.5 26t44 24.5t34 25.5t12.5 29q-1 12 -15 20t-23 8q-10 0 -18.5 -5t-15 -11t-11 -11t-7.5 -5q-6 0 -14.5 2.5t-16 7t-13 10.5t-5.5 13zM138 -16q-11 0 -24.5 9t-14.5 34q0 17 11.5 28t25.5 11 q17 0 31.5 -12t15.5 -32q0 -9 -4 -16t-11 -12t-14.5 -7.5t-14.5 -2.5h-1z" />
<glyph unicode="@" horiz-adv-x="634" d="M456 471q44 0 79.5 -15.5t61 -41.5t40.5 -60t16 -71q1 -39 -13 -75.5t-38.5 -65t-57 -46t-68.5 -17.5q-17 0 -34 14t-22 32q-2 11 -2.5 21t-0.5 16q0 5 -2 7t-5 -2q-9 -9 -25 -24.5t-35 -30.5t-39 -26t-37 -11q-6 0 -16 8.5t-11 30.5q-1 28 18 68.5t49 78.5t66.5 65 t70.5 27q7 0 12.5 -5.5t7.5 -10.5q3 -6 12 -1q3 3 5.5 4t8.5 -3q7 -5 11 -10t-1 -14q-21 -37 -34.5 -72.5t-15.5 -66.5q-2 -23 7 -41t26 -18q21 0 42.5 13t39.5 35t29 52t10 64q-1 36 -15 64.5t-37.5 48t-55 30t-68.5 10.5q-51 0 -102 -24t-92 -64.5t-66 -92t-23 -107.5 q3 -84 53 -130.5t146 -46.5q19 0 42.5 5t45.5 12t40 14.5t26 12.5q3 2 6 -0.5t5 -6.5t2.5 -8t-1.5 -6q-48 -37 -99.5 -47t-103.5 -10q-41 0 -77 16.5t-63.5 43.5t-43.5 63t-18 75q-3 72 27 134t79.5 108t111.5 72t125 26h1zM425 308q-21 -6 -42.5 -27.5t-40 -47.5t-31.5 -49 t-16 -32q-4 -11 -2 -18.5t8 -7.5q17 0 37 16.5t39.5 39.5t36 46.5t25.5 38.5q3 5 6 12t1 12q-1 6 -6 11.5t-14 5.5h-1z" />
<glyph unicode="A" horiz-adv-x="810" d="M747 601q1 -5 -7.5 -16t-13.5 -22q-6 6 -19 11t-19 5q-20 0 -24.5 -19.5t-6.5 -49.5q-6 -64 -8.5 -125.5t-2 -115t5 -97t11.5 -73.5q6 -26 21.5 -40.5t28.5 -14.5q6 0 16 4.5t20.5 10.5t19.5 13t14 12q2 0 3.5 -3.5t3 -8t2 -9t-0.5 -5.5q-7 -9 -19.5 -20t-26.5 -20.5 t-29 -16t-28 -6.5q-19 0 -38 15t-25 38q-6 24 -9 53.5t-6 76.5q0 9 -9.5 19t-20.5 10q-7 0 -23 -0.5t-36.5 -0.5t-44 -0.5t-46.5 -0.5q-36 -52 -68 -92.5t-67.5 -68.5t-77.5 -42.5t-97 -14.5q-42 0 -73.5 14t-53.5 37t-33.5 53t-12.5 61q-2 42 15 79t41 62q2 1 12.5 -3 t13.5 -6q-8 -10 -14.5 -25t-11 -31t-7 -32.5t-1.5 -31.5q1 -27 8 -51t21 -42.5t37 -29.5t55 -11q41 0 74 10t64 31.5t63 54.5t69 79q-46 0 -48 9q0 3 1.5 9t4 12.5t5 12t3.5 5.5q10 -5 27 -7t34 -3q29 38 54 71.5t49.5 67t50 69.5t55.5 79q-10 -3 -33.5 -9t-48.5 -6 q-30 0 -61.5 9t-62.5 19.5t-60.5 19t-56.5 8.5q-30 0 -53.5 -8.5t-38.5 -27.5t-21 -50t-1 -75q0 -3 -4 -3.5t-9.5 -0.5t-10 1t-4.5 2q-10 41 -5.5 78t24 65t53 45t80.5 17q36 0 70.5 -10t68 -22t65.5 -22t64 -10q13 0 29.5 5t26.5 19q13 18 26.5 35t32.5 17q21 0 36.5 -7 t18.5 -18zM627 469q0 3 -1.5 5.5t-6.5 -2.5q-48 -66 -86 -123t-78 -109q20 -1 45 -1.5t47.5 -0.5t39.5 1t21 1q2 48 5 104.5t14 124.5z" />
<glyph unicode="B" horiz-adv-x="677" d="M85 3q7 9 14 20.5t13 21.5t10.5 18t5.5 11q21 69 39 128t35 115.5t35 114t39 124.5q1 3 0 7t-9 4q-18 0 -40 -2.5t-43.5 -6t-40 -6t-29.5 -2.5q-21 0 -24 13q-2 8 -0.5 24t3.5 21q1 0 5 -4q3 -2 5.5 -3.5t8.5 -2t16 -1t27 -0.5q21 0 39 0.5t36.5 1.5t40 1.5t49.5 0.5 q62 0 110.5 -4t82 -17.5t52 -39t19.5 -67.5q1 -20 -3 -43.5t-16 -45.5t-34.5 -41t-58.5 -30q-3 -1 -3 -3q0 -3 3 -3q22 -2 43 -10t38.5 -23t28.5 -39t12 -57q2 -35 -13 -69.5t-45.5 -61.5t-77.5 -44t-109 -17q-43 0 -73.5 8t-51.5 17.5t-34 17.5t-22 8q-11 0 -21.5 -13 t-22.5 -29l-39 8v0zM195 118q-2 -7 -3 -13t0 -11q2 -8 14.5 -20.5t32 -24t45 -19.5t53.5 -8q41 0 78 11t64.5 32.5t44 52.5t14.5 71q-2 41 -36 68t-99 27q-19 0 -38.5 -2t-43.5 -2q-3 1 -6.5 10t-3.5 17q-1 7 1 16t10 9q14 0 28 -2.5t29 -2.5q12 0 27 2t27 6q20 5 37.5 17 t30.5 30t20.5 40.5t6.5 48.5q-1 29 -13 47.5t-31.5 29t-46 14.5t-56.5 4q-20 0 -33.5 -8t-22.5 -21.5t-15 -29.5t-11 -33q-26 -77 -50.5 -166t-53.5 -190z" />
<glyph unicode="C" horiz-adv-x="697" d="M635 424q0 8 -0.5 21.5t-4.5 24.5q-4 21 -14.5 39t-31 31t-52 20.5t-79.5 7.5q-54 0 -107 -31t-94.5 -81.5t-66.5 -115t-23 -130.5q2 -43 18 -76.5t42.5 -57t59.5 -36t67 -12.5q107 0 185 49.5t136 163.5q1 3 3 3.5t4 0.5q5 0 11 -12t6 -21q0 -14 -3 -26 q-43 -93 -132 -146.5t-211 -53.5q-48 0 -91 13.5t-76 41t-53.5 69t-22.5 97.5q-3 77 23.5 148.5t74.5 126.5t114 87.5t142 32.5q48 0 101.5 -10t101.5 -36q11 -4 16 -16q-3 -8 -6 -20.5t-8 -29.5q-3 -17 -5 -32.5t-3 -29.5z" />
<glyph unicode="D" horiz-adv-x="774" d="M337 547q-38 -109 -76 -225t-68 -218q-8 -21 10 -35q28 -23 65.5 -33.5t79.5 -10.5q66 0 124.5 23.5t102.5 66.5t69 102t22 130q-1 51 -14 91t-44.5 67.5t-87 42.5t-142.5 15q-16 0 -26 -2t-15 -14zM77 4q6 9 14 19.5t15.5 21t13.5 20t9 16.5q4 13 16 47.5t27 80t31.5 97 t31.5 99.5t27 87t16 60q-1 4 -5 5.5t-7 1.5q-43 0 -82.5 -8.5t-82.5 -9.5q-6 0 -11 9t-8 20t-3 20t3 9q1 0 7 -2.5t14.5 -5.5t19 -5.5t19.5 -2.5q38 0 70 1.5t61.5 4t59 4t62.5 1.5q61 0 118.5 -9.5t103.5 -35.5t74.5 -72.5t31.5 -121.5q3 -88 -25 -156t-79 -114.5 t-120.5 -71t-148.5 -24.5q-41 0 -72 6.5t-54 14t-39 14t-27 6.5t-19.5 -9t-23.5 -25z" />
<glyph unicode="E" horiz-adv-x="615" d="M625 113q4 4 7 -5q-4 -4 -7 -12t-5.5 -17t-4 -17t-2.5 -12q-8 -17 -34 -24q-32 -8 -69.5 -14.5t-76.5 -11.5t-78 -8t-73 -3q-54 0 -87.5 5t-52 13.5t-25 20.5t-6.5 25q-1 14 8 47.5t21 71t24 72t17 49.5q1 3 -3.5 4.5t-20.5 1.5q-8 0 -8 5t5.5 15.5t13.5 12.5 q10 2 16 2.5t10 3.5t7 9t7 18q3 9 12 37t18.5 59t16 57t4.5 32q-2 5 -9 5q-41 0 -81 -3t-66 -11l-3 1q-1 6 -0.5 14t2.5 16.5t4.5 15t4.5 8.5q42 -3 88.5 -4.5t88.5 -1.5q14 0 49.5 1.5t78.5 3t87.5 3t75.5 1.5q7 0 9 -8l-4 -12l-6.5 -19.5t-6.5 -21.5t-5 -18l-5 1 q-7 19 -16 23q-45 6 -96.5 9t-100.5 3q-11 0 -17 -3t-10 -11q-14 -24 -24 -47t-18.5 -47t-16.5 -50t-18 -55q-3 -12 11 -12q29 -2 66.5 -2.5t76 1.5t74 6t59.5 11l5 -4q-1 -3 -3.5 -9t-4.5 -13t-3.5 -13.5t-1.5 -9.5q-1 -5 -11 -5q-20 0 -60 0.5t-82.5 0.5h-79.5t-52 -1 q-10 0 -13 -8q-20 -51 -38.5 -105t-16.5 -108q1 -31 24.5 -38t65.5 -7q37 0 89 4.5t104.5 14.5t98.5 26.5t73 40.5z" />
<glyph unicode="F" horiz-adv-x="473" d="M508 321q0 -1 -1 -9t-3.5 -17.5t-5 -17.5t-5.5 -10q-10 0 -43 -0.5t-73 -1t-80.5 -0.5t-65.5 3q-13 0 -16 -11q-22 -63 -42 -115.5t-29 -81.5q-3 -11 -3 -18t6 -11.5t19.5 -6t37.5 -1.5q5 0 8 -4t3.5 -9t-0.5 -9.5t-6 -5.5q-29 -6 -53.5 -5.5t-44.5 2.5q-18 2 -26.5 16.5 t-3.5 28.5q24 62 48 131.5t47 136.5t43.5 127.5t36.5 105.5q2 7 -3 13t-11 7q-9 1 -26 1.5t-28 0.5q-10 0 -10 4q0 2 1.5 7t4 10t5 9t3.5 4q50 -3 105.5 -2.5t107.5 4.5t94.5 11.5t65.5 18.5q4 2 5 2q7 0 7 -5q-5 -7 -9 -22.5t-6 -23.5q-3 -14 -13 -14q-23 -1 -52 -2 t-58.5 -1.5t-57.5 -1t-48 -2.5q-11 -1 -15.5 -5t-7.5 -12q-7 -18 -17 -46t-20.5 -58.5t-20 -59.5t-16.5 -50q-1 -4 2 -8t13 -7t29 -5t50 -2q48 0 93 5t82 16z" />
<glyph unicode="G" horiz-adv-x="769" d="M223 -331q-2 10 3 18q17 -8 38.5 -12t40.5 -4q46 0 85 23.5t71 61t58 85t46 96t34.5 94t24.5 77.5q-3 10 -8 3q-10 -11 -32.5 -32.5t-56 -42.5t-77.5 -37t-97 -17q-112 0 -174 52t-66 142q-2 71 26.5 146t84 136.5t136 101t180.5 39.5q23 0 50 -3t53.5 -9.5t50.5 -17 t41 -24.5q-1 -24 -5.5 -56.5t-9.5 -57.5q-1 0 -3 -1q-4 -2 -12 -2q-4 0 -10 2q-3 1 -5 2q0 8 0.5 16t-1.5 18q-3 25 -17.5 42t-38.5 27.5t-56 15.5t-68 5q-67 0 -129.5 -35.5t-109.5 -91.5t-74 -124.5t-24 -135.5q2 -69 49 -109t128 -40q40 0 78.5 12.5t72 32t62 44t49 47.5 t32.5 43t13 31q3 15 0.5 21t-16.5 6q-22 0 -53.5 -3t-69.5 -5v34q27 0 59.5 1t65 3t62.5 6t52 11q2 -2 3 -14t-1 -16q-21 -6 -30 -13t-14 -26q-14 -50 -34 -113t-42.5 -125t-44.5 -116.5t-41 -87.5q-10 -18 -28 -44t-47 -49t-70.5 -39.5t-99.5 -16.5q-19 0 -37.5 2.5 t-44.5 10.5z" />
<glyph unicode="H" horiz-adv-x="772" d="M81 -4q5 13 13 29t21.5 45t34.5 76t51 122q-11 12 -20 22.5t-13 16.5q0 3 3 8t9 5h27q9 0 15 11t14.5 39.5t16 60.5t13 60t3.5 39q-4 17 -8 20.5t-23 3.5q-14 0 -34 -0.5t-34 -2.5q-4 0 -6 6.5t-3 10.5q-2 4 0.5 10.5t7.5 6.5q16 0 37 0.5t44 2t47 3.5t45 5q15 0 7 -18 q-11 -19 -20 -40t-17 -50q-11 -36 -22 -75.5t-21 -76.5q-3 -14 5 -15q31 -2 56 -2h47q12 0 40.5 0.5t61.5 1.5t64 3t47 6q13 3 16 16q29 76 49.5 138.5t38.5 119.5q3 8 14 14q13 8 34.5 19t44 20.5t43.5 16t33 6.5q3 0 8.5 -4t5.5 -12q1 -6 -1.5 -10t-5.5 -4q-6 0 -17 -1.5 t-24.5 -6t-27 -12t-24.5 -18.5q-27 -29 -46 -63t-33 -71t-25 -75t-23 -76q-14 -50 -22 -89t-11.5 -69t-3 -51t2.5 -36q5 -26 17 -34.5t39 -8.5q9 0 22.5 2.5t27 6.5t25.5 9.5t19 10.5q3 0 4.5 -3.5t2.5 -8.5t0 -10t-3 -8q-12 -6 -25.5 -13t-31 -13t-40.5 -11t-54 -6 q-29 0 -43 21t-15 46q0 19 2.5 41.5t7 45.5t9 44.5t8.5 36.5q4 13 1 23q-2 10 -9 16.5t-17 10t-21 5t-20 1.5h-67.5t-70 -1t-66 -3t-54.5 -6q-8 -2 -11.5 -7t-7.5 -14q-25 -52 -49.5 -112.5t-35.5 -122.5q0 -8 -2 -11t-13 -3q-13 0 -19.5 0.5t-12 0t-11 -3.5t-17.5 -9z" />
<glyph unicode="I" horiz-adv-x="331" d="M44 7q23 2 35 20q12 21 29.5 58t37.5 82.5t40 96t37 98t29 88.5t15 68q3 19 -5.5 24.5t-34.5 5.5q-17 0 -37 -1.5t-36 -4.5q-2 10 2 22.5t6 16.5q56 3 105 4t84 7q5 -2 6.5 -11.5t0.5 -14.5q0 -1 -4 -3t-9.5 -4.5t-10 -6t-6.5 -8.5q-20 -51 -41.5 -115.5t-45 -132.5 t-49 -136t-54.5 -126q-8 -17 -17 -25.5t-19.5 -11t-23 -2t-27.5 1.5q-1 1 -3 4z" />
<glyph unicode="J" horiz-adv-x="466" d="M537 601q3 0 5 -5t2.5 -10.5t0 -10t-3.5 -4.5q-5 0 -10.5 0.5t-23.5 0.5q-11 0 -19 -4t-13 -14q-7 -15 -12.5 -30.5t-13.5 -41.5q-18 -60 -37 -129.5t-44.5 -138.5t-59 -133t-79.5 -113.5t-107 -79t-141 -29.5q-31 0 -57 6t-49 14q-6 3 -11.5 9.5t-6.5 15.5 q-2 11 -5.5 31t-6.5 39l18 3q7 -18 17 -33.5t26 -27t39 -18t55 -6.5q65 0 117.5 34t95 89.5t75.5 126t58 143.5t43 141.5t30 120.5q4 14 -10 14q-28 0 -61 -2.5t-65 -8t-60.5 -14t-48.5 -20.5q-15 -10 -21.5 -26.5t-5.5 -37.5q0 -9 3.5 -24t8.5 -23q1 -2 -8 -7.5t-11 -5.5 q-5 2 -11 9.5t-11.5 18t-9 23t-3.5 24.5q-2 38 18.5 64t68.5 38q19 5 43.5 10.5t63 10.5t96 8t142.5 3z" />
<glyph unicode="K" horiz-adv-x="678" d="M100 -10q-8 0 -8 6q33 62 60.5 130t51.5 139t45 142.5t40 139.5q2 4 -0.5 7.5t-7.5 3.5q-38 0 -76 -4t-68 -4q-17 0 -17 9q0 6 2 15t5.5 17.5t8 14.5t9.5 6q1 -12 15 -15q34 -6 66.5 -8t65 -0.5t66 4t67.5 5.5q2 -2 1.5 -7t-2 -11t-3.5 -10.5t-3 -6.5h-24t-27 -2 q-9 0 -15 -11q-12 -27 -21 -51t-18 -50t-20.5 -56.5t-27.5 -72.5q-2 -5 2 -8t8 -1q56 36 104.5 73t96 73.5t97.5 73.5t109 74h5q8 -4 22.5 -11t24.5 -10q1 -3 -1 -7q-3 2 -30.5 -13.5t-68 -41.5t-89 -59t-94 -65t-82.5 -60t-56 -44q-6 -5 -4 -8q45 -85 120 -159.5 t166 -129.5t192 -86.5t198 -31.5q55 0 102.5 13.5t75.5 35.5q5 4 10.5 2t5.5 -4v-19t-2 -15q-34 -25 -90 -40t-121 -15q-86 0 -185 29t-195.5 83t-181.5 132t-143 176q-3 4 -6.5 5t-6.5 -8q-13 -33 -23 -61.5t-18.5 -55t-16.5 -52.5t-17 -53q-3 -13 -3.5 -20t-2.5 -9.5 t-7 -2.5h-18q-19 0 -26 -2t-16 -8z" />
<glyph unicode="L" horiz-adv-x="594" d="M460 571q-9 2 -19 3.5t-26 1.5q-25 0 -47 -15.5t-27 -35.5q-6 -21 -17.5 -61.5t-26.5 -89.5t-33 -101.5t-37 -97.5t-38 -77.5t-36 -42.5q-2 -2 -2 -5.5t5 -3.5q34 0 84.5 5t104.5 9.5t106 6.5t88 -5q22 -3 26 -19q0 -3 0.5 -13t0.5 -22t-1 -23.5t-3 -16.5q-2 0 -5 1t-6 3 q0 6 -2.5 14.5t-10.5 10.5q-28 10 -69.5 15t-89 7t-98.5 0t-98 -6t-86.5 -10.5t-65.5 -13.5q-3 0 -6 4.5t-5 10l-4 11t-3 8.5q-2 8 8 8q49 0 85.5 30t63.5 78t46 107.5t34 119t27.5 113t25.5 88.5q2 8 8.5 12.5t12.5 6.5q26 11 60 16.5t69 5.5q4 -1 6 -7t3 -12t0.5 -11.5 t-2.5 -6.5z" />
<glyph unicode="M" horiz-adv-x="959" d="M514 106q15 23 38 55.5t50 70t56 77t57 76.5t52 68t41 52q30 36 49.5 62.5t33.5 44.5t24.5 26.5t22.5 8.5q8 0 14 -6.5t10.5 -16t7 -19.5t3.5 -16q0 -3 -3 -3t-7 1t-7.5 2t-4.5 1q-25 0 -48.5 -22t-43 -58t-35.5 -82.5t-27 -96t-16 -98t-4 -89.5q1 -22 6 -45t14.5 -42 t25.5 -30.5t39 -11.5q18 0 36 9t34 23.5t29 33.5t21 40q1 1 4.5 -2.5t7.5 -8t7 -9t3 -6.5q-4 -14 -16.5 -35t-32.5 -40t-46.5 -32.5t-58.5 -13.5q-30 0 -52.5 14.5t-37 38.5t-22 55t-8.5 63q-1 39 9.5 98t39.5 137q3 6 -0.5 9.5t-7.5 -1.5q-26 -30 -56.5 -69t-61 -80.5 t-58.5 -82.5t-49 -76q-6 -9 -13 -21t-9 -21q-1 -8 2 -13.5t-4 -7.5l-22 -4t-19 -13q-1 -2 -7.5 1.5t-7.5 5.5q0 2 1.5 3.5t3.5 5.5t4 12.5t2 23.5q0 36 -4.5 78.5t-13.5 100.5q-30 -46 -68 -89t-82 -76t-93 -52.5t-101 -19.5q-28 0 -54 11t-46.5 31.5t-33.5 50t-14 66.5 q-2 38 12 74.5t42 61.5q1 2 5 1t8.5 -3.5t8 -5.5t2.5 -6q-20 -25 -29.5 -51.5t-8.5 -51.5q2 -61 34 -97t99 -36q45 0 92.5 26.5t90 64.5t77.5 80t54 73q-6 47 -10 86t-3.5 72t6.5 61.5t19 53.5q10 20 21.5 32.5t22 20.5t18.5 11t11 3q24 0 38.5 -20.5t15.5 -41.5 q2 -39 -5.5 -76t-21 -72.5t-32.5 -69.5t-40 -69q1 -14 4 -37.5t6.5 -48.5t6 -47.5t3.5 -34.5zM485 330q41 74 56.5 125.5t14.5 77.5q-1 11 -4.5 21t-17.5 10q-13 0 -25.5 -15t-20.5 -44t-10 -73t7 -102z" />
<glyph unicode="N" horiz-adv-x="748" d="M152 -21q-4 2 -11 8t-14.5 12.5t-13.5 13.5t-8 12q-2 24 7.5 62.5t25 83t34 92.5t35 92t27 81.5t9.5 60.5q-1 16 -6 26.5t-25 10.5q-16 0 -32 -1t-30 -2q-3 0 -5 5t-4.5 12t-4 13.5t-3.5 10.5q-2 5 4 5q14 -5 33.5 -6.5t39.5 -1.5q26 0 45.5 4t34.5 10q8 0 14 -13 q24 -51 52 -108.5t58 -117.5t60 -119t57 -113q5 -11 8 -14t9 -3q3 0 5.5 2.5t4.5 10.5q11 41 24 101t29 126t35.5 131.5t43.5 118t52 85t61 32.5q4 0 16 -5t23 -10.5t18.5 -10.5t2.5 -5q-39 0 -70.5 -31t-57.5 -83t-47.5 -120t-40 -143.5t-35 -153t-33.5 -147.5 q-8 -4 -18 -4.5t-20 4.5q-14 29 -32.5 69.5t-39.5 86t-43.5 93.5t-44 92.5t-40.5 82.5t-34 64q-8 14 -15 11.5t-12 -17.5q-25 -71 -46 -132t-36.5 -119t-26 -117.5t-15.5 -127.5h-4z" />
<glyph unicode="O" horiz-adv-x="736" d="M698 347q3 -75 -14.5 -140.5t-56 -114t-97.5 -77t-139 -28.5q-60 0 -109 17.5t-85 50.5t-57 82t-23 112q-3 85 18 151t62 111.5t101.5 69t136.5 23.5q56 0 103 -18.5t82 -52.5t55.5 -81.5t22.5 -104.5zM646 337q-1 45 -17 86t-43.5 73t-64.5 51t-81 19 q-72 0 -124.5 -23.5t-85.5 -66t-48 -101.5t-12 -130q2 -46 20 -85.5t47.5 -68.5t66 -46t75.5 -17q70 0 121 23t84.5 64.5t48.5 98t13 123.5z" />
<glyph unicode="P" horiz-adv-x="569" d="M71 602q2 0 7 -7t17 -9q37 -4 86 -2.5t96 6t85.5 8.5t54.5 4q38 0 71.5 -6.5t59 -23t41 -43.5t16.5 -69q2 -33 -11.5 -68t-43 -63.5t-76 -47t-111.5 -18.5q-34 0 -60 9q-1 0 -2.5 6t-2 13t-0.5 12.5t2 4.5q8 -3 27 -6t35 -3q47 0 83 13t61 35.5t37.5 52.5t10.5 65 q-1 32 -12.5 51t-30 29.5t-44 14t-55.5 3.5q-10 0 -26 -0.5t-31.5 -3t-28 -8.5t-15.5 -18q-11 -27 -26 -69t-32 -90.5t-33 -98.5t-29 -93.5t-21 -75.5t-8 -45q1 -13 5 -19t13.5 -8.5t24.5 -2.5h38q3 0 6 -4t4.5 -9.5t1.5 -10t-2 -4.5q-21 -4 -40 -7t-48 -3q-7 0 -17.5 1.5 t-21 5.5t-18 11.5t-8.5 19.5q0 7 3 19q36 109 74 225t75 222l4 12t4.5 18t0 16.5t-8.5 7.5q-22 0 -41 -2t-38 -4.5t-38 -4t-41 -1.5q-26 0 -29 15v8.5t1 16.5t2 16t3 7z" />
<glyph unicode="Q" horiz-adv-x="739" d="M885 -55q-7 -29 -20 -54t-32.5 -43.5t-45.5 -29.5t-58 -11q-42 0 -80 22t-70 54t-58 69t-44 66q-29 -14 -59.5 -19.5t-62.5 -5.5q-45 0 -86 13.5t-81 44.5q-21 -17 -42 -45.5t-36 -54.5q-2 0 -6 3.5t-8.5 8t-8.5 9t-4 6.5q17 27 40.5 52t43.5 44q-11 11 -22 27t-20.5 36 t-15.5 42.5t-7 46.5q-3 77 21.5 145.5t69.5 119.5t107 80.5t133 29.5q6 0 9 -5.5t4 -12t0.5 -12t-1.5 -5.5q-55 3 -108 -22.5t-93.5 -71t-64 -107t-21.5 -130.5q2 -53 14.5 -85t24.5 -49q40 32 83.5 44t70.5 12q12 0 29 -3t35.5 -12t38 -25.5t36.5 -43.5q37 21 67.5 52.5 t52 69.5t33 80.5t9.5 84.5q-1 35 -13.5 69t-33.5 62t-49 47t-61 25q-5 4 -6.5 16.5t4.5 14.5q8 2 23.5 2h29.5q18 0 43 -16t48.5 -44.5t40.5 -67t18 -82.5q2 -42 -6 -89.5t-28.5 -95t-56 -90t-90.5 -73.5q16 -24 40 -54t53.5 -56t62 -43.5t66.5 -17.5q14 0 29.5 2.5 t31.5 12.5t30.5 30.5t25.5 56.5q1 2 5.5 -0.5t9.5 -7l10 -9t6 -7.5zM454 54q-20 30 -45.5 46t-70.5 16q-67 0 -120 -39q34 -26 65 -35.5t72 -9.5q55 0 99 22z" />
<glyph unicode="R" horiz-adv-x="691" d="M117 425q-2 -1 -9.5 -0.5t-7.5 3.5v15v20.5v20.5v16q0 15 12 23q65 41 146.5 58.5t158.5 17.5q109 0 169.5 -32t62.5 -98q1 -27 -12.5 -58t-41 -58.5t-69 -47t-96.5 -24.5q-12 -1 -4 -11q31 -41 69 -89t81.5 -96.5t92.5 -93t102.5 -79t111.5 -55.5t119 -21q41 0 78.5 11 t72.5 31q7 6 9 -2q1 -3 5 -14t2 -11q-39 -23 -82.5 -37.5t-97.5 -14.5q-69 0 -132 20t-120 55.5t-109 83t-101.5 103t-96 116.5t-92.5 122q0 5 4 5q54 0 101 10t82 29.5t54.5 48t18.5 64.5q-1 26 -9 45.5t-27 32t-50 18.5t-78 6q-14 0 -25.5 -3.5t-19.5 -14.5 q-11 -17 -28.5 -56.5t-39 -90t-44.5 -108.5t-42.5 -111.5t-35 -99t-21.5 -71.5q-21 2 -31.5 0t-19.5 -14q-2 0 -10 1.5t-6 3.5q40 92 71.5 165.5t57 137.5t45.5 121.5t38 116.5q2 11 -1.5 13.5t-9.5 2.5q-40 -3 -72 -12t-64 -28q-22 -14 -36.5 -36.5t-22.5 -49.5z" />
<glyph unicode="S" horiz-adv-x="445" d="M450 539q0 -18 -2 -39t-7 -36q-2 -2 -14 -1t-14 5q1 4 0.5 13.5t-2.5 15.5q-5 25 -24.5 39.5t-70.5 14.5q-17 0 -33.5 -6.5t-29.5 -18.5t-20.5 -28.5t-7.5 -37.5q1 -22 8.5 -40.5t20 -35.5t27.5 -33.5t31 -33.5q25 -26 42 -45.5t27.5 -36.5t15.5 -33.5t6 -37.5 q2 -44 -20 -77t-56.5 -54.5t-76.5 -32t-81 -10.5q-32 0 -63 6t-59 18q-20 8 -23 15q1 11 1.5 26t0.5 30.5t0.5 29.5t0.5 23q0 2 7.5 2h9.5t10 -1.5t8 -5.5q-1 -6 0 -16.5t2 -16.5q8 -38 39.5 -55.5t72.5 -17.5q30 0 61 7.5t55.5 23t39.5 39t14 54.5q-1 24 -17.5 59.5 t-61.5 81.5q-21 20 -36 37t-25.5 34t-16 35.5t-6.5 41.5q-1 33 7.5 61t27 48.5t48 32.5t71.5 12q22 0 41 -5.5t34 -13.5t25 -17.5t13 -18.5z" />
<glyph unicode="T" horiz-adv-x="510" d="M301 559q-82 10 -128.5 9.5t-71.5 -18.5t-36.5 -57.5t-24.5 -108.5q-2 -5 -15.5 -3t-18.5 10q4 37 11 75t20 70.5t32.5 55t48.5 27.5q35 6 77.5 0.5t90 -14.5t99.5 -17.5t106 -8.5q10 0 28.5 -0.5t40.5 0t44 3t40 9.5t29.5 19.5t10.5 31.5q0 11 -10 21.5t-21 18.5 q0 1 6 4.5t13 7t13 6t7 2.5q19 -10 35.5 -27.5t17.5 -40.5q2 -47 -41.5 -74t-114.5 -27q-14 0 -31.5 1.5t-35 3.5t-33.5 3t-28 1q-22 0 -28 -15q-22 -62 -41 -112t-35.5 -95t-32.5 -88t-33 -92q-7 -17 -12 -37.5t-4 -34.5q1 -20 22 -25.5t46 -5.5q19 0 39 4.5t24 5.5 q1 -1 1.5 -8t0.5 -15v-15t-1 -9q-24 -3 -47.5 -5.5t-48.5 -2.5q-39 0 -62 4.5t-33.5 15.5t-9.5 30.5t11 49.5q40 122 83.5 230.5t77.5 215.5q2 8 0.5 10.5t-9.5 2.5z" />
<glyph unicode="U" horiz-adv-x="803" d="M811 573q-5 -1 -16 -4.5t-16 -11.5q-30 -45 -59.5 -105.5t-52.5 -125t-37 -127t-13 -112.5q2 -38 20.5 -50.5t58.5 -12.5q17 0 35 6t32.5 12.5t24.5 12.5t11 6q4 0 8.5 -5.5t7.5 -12t4 -12.5t-3 -8q-35 -18 -68 -31t-76 -13q-32 0 -52.5 8t-32.5 20.5t-17 28.5t-6 31 q0 17 3 34.5t6.5 32t7 24t3.5 10.5q-3 3 -5 3q-36 -54 -69.5 -90t-68 -57.5t-73.5 -30t-86 -8.5q-29 0 -56 8t-48 25.5t-34 43.5t-15 62q-1 42 17 95t42 107t47 104t31 85q3 14 -1 21t-21 7h-76q-5 0 -8.5 6.5t-4.5 15t0.5 15t7.5 6.5q97 0 154.5 3.5t61.5 3.5q2 0 3 -4.5 t2 -10.5t1.5 -11t0.5 -6q-1 -6 -4 -6.5t-7 -1.5q-11 -3 -24.5 -5t-20.5 -16q-11 -23 -26 -55t-31 -69t-32 -76t-28 -75t-19.5 -66t-6.5 -49q2 -54 30 -81t96 -27q47 0 90 25.5t81.5 67.5t71 96t60 110.5t49.5 111t37 98.5q5 15 12.5 24.5t23.5 17.5q5 1 15 4.5l20 7t19 6 t13 2.5q3 0 6 -5t4 -11t0.5 -11t-4.5 -5z" />
<glyph unicode="V" horiz-adv-x="596" d="M292 91q57 71 113 148.5t104 150.5t85 137t55 107q8 16 9 26.5t-3 21.5q-2 5 -4 13t9 5q5 -1 14 -6t18.5 -11t16.5 -11.5t7 -9.5q4 -27 -22 -76.5t-68.5 -111t-94 -129t-99 -130.5t-83 -116t-45.5 -86q-6 -18 -23 -18q-12 -1 -19.5 -3t-12 -4t-7.5 -3.5t-7 -1.5 q-5 0 -8 6q7 34 10 77t3 89t-2 92t-5 85t-6.5 68t-6.5 42q-4 24 -9.5 44.5t-17 35.5t-32 23.5t-53.5 8.5q-13 0 -28.5 -3.5t-29.5 -9.5t-26 -14.5t-19 -17.5q-3 -2 -8.5 1t-10.5 8t-8.5 10t-2.5 8q34 27 83 45t97 18q50 0 73 -28t33 -71q8 -37 11.5 -93.5t5 -115t2 -112 t3.5 -85.5q0 -6 4 -6t5 3z" />
<glyph unicode="W" horiz-adv-x="978" d="M1110 632q10 -8 3 -9.5t-16 -2.5q-23 -2 -58.5 -33t-77 -80.5t-85 -112.5t-83 -130t-72 -132t-50.5 -119q-2 -6 -5 -11t-11 -7q-17 -2 -22.5 -5t-19.5 -9q-5 -2 -8.5 3t-2.5 13q1 9 -0.5 34.5t-5 62t-8 81t-10.5 89.5t-12.5 88t-13.5 78q-2 13 -10 12t-18 -11 q-6 -7 -22 -27l-38 -47.5t-48 -61.5t-52 -69.5t-51 -70.5t-44.5 -64.5t-31.5 -52t-13 -33.5q0 -6 -3.5 -9.5t-8.5 -3.5q-20 0 -36.5 -5t-29.5 -11q-9 0 -6 11q7 11 15 45.5t16.5 82.5t16 105t12.5 112t7 102.5t-1 77.5q-3 19 -24 19q-19 0 -37.5 -5.5t-30.5 -5.5 q-4 0 -6.5 6t-3 13t1 13.5t5.5 6.5q61 12 93 20t46.5 12.5t17 6t5.5 1.5q6 0 7.5 -5t-2.5 -9q-3 -3 -6.5 -12.5t-6.5 -22t-6 -27t-5 -29.5q-11 -94 -21.5 -193t-15.5 -199q-1 -14 2.5 -15.5t5.5 3.5q44 56 85 110.5t80.5 108.5t80 107.5t83.5 105.5q2 0 10.5 -1t18 -2.5 t16.5 -3t6 -2.5q-7 -10 -7.5 -57t4 -111t13.5 -133.5t20 -123.5q3 -9 7 -9q5 0 8 6q17 29 43.5 82t59.5 115.5t71 127.5t77.5 117.5t79.5 86t76 33.5q3 0 11 -1.5t16.5 -4t16 -5t9.5 -4.5z" />
<glyph unicode="X" horiz-adv-x="724" d="M766 587q3 -10 -5 -16q-32 -24 -72 -53.5t-83 -61.5t-86.5 -65.5t-83.5 -64.5q20 -54 38.5 -101.5t40.5 -95.5q23 -53 46.5 -73t55.5 -20q24 0 51 13.5t50 37.5q3 3 7.5 0.5t8.5 -7t6 -9.5t-1 -6q-15 -12 -32.5 -25t-38 -24.5t-42 -19t-44.5 -7.5q-43 0 -69 34t-52 99 q-16 40 -31.5 81.5t-35.5 89.5q-71 -57 -136.5 -114t-129.5 -119q-10 -10 -24 -26.5t-25.5 -36t-18.5 -40.5t-3 -40q3 -8 -1 -9q-5 3 -12.5 10.5t-14.5 16t-12 16.5t-6 13q-3 15 5 33t24 38t38.5 41.5t46.5 42.5q62 54 127.5 106t132.5 104q-18 42 -33 80.5t-34 83.5 q-17 39 -44 49t-60 10q-27 0 -53 -8.5t-49 -27.5q-4 -3 -8 0.5t-7 8.5t-3.5 10.5t2.5 7.5q38 23 76.5 36t89.5 13q23 0 39.5 -6t29 -18t21.5 -29.5t17 -40.5q5 -15 13 -33.5t16.5 -37.5t16 -36.5t11.5 -29.5q78 61 148.5 122.5t142.5 127.5q13 10 3 24q-1 2 1.5 5t7.5 3 q2 0 8 -7.5t12 -17.5t11.5 -19t5.5 -12z" />
<glyph unicode="Y" horiz-adv-x="542" d="M837 592q0 -1 -1.5 -5t-4.5 -7.5t-5.5 -6.5t-3.5 -2q-3 1 -17.5 8t-30.5 3q-68 -15 -128.5 -49.5t-112.5 -82t-94 -104t-71.5 -115t-45.5 -115.5t-16 -105q0 -5 -2.5 -9t-13.5 -2q-15 2 -25 2.5t-17.5 -1t-14 -5t-16.5 -8.5q-4 -2 -10.5 5t-4.5 12q18 21 36.5 57.5 t33 79.5t23 87.5t7.5 81.5q-1 42 -13 84t-33.5 75t-54 53.5t-76.5 20.5q-39 0 -70.5 -21t-54.5 -54q-1 -3 -6.5 -2.5t-11 2.5t-10 6.5t-2.5 9.5q27 52 70 81.5t106 29.5q58 0 95.5 -27.5t59.5 -69.5t31.5 -92t11.5 -95q0 -6 5 -9t7 1q34 47 80 104t99 107.5t111.5 84.5 t117.5 34q8 0 19 -5t21.5 -11.5t19.5 -13.5t13 -12z" />
<glyph unicode="Z" horiz-adv-x="590" d="M896 85q0 -39 -9 -74t-29 -65q-21 -32 -51.5 -40.5t-71.5 -8.5q-68 1 -149 16t-170 34t-184.5 35.5t-192.5 19.5q-3 0 -5.5 6.5t-3.5 14t0.5 13.5t6.5 6q18 0 34 6t26 17q17 18 48.5 51t70 74.5t81.5 87.5t83.5 91t76 84.5t59.5 67.5q11 15 3.5 22.5t-27.5 7.5 q-37 0 -88 1.5t-102 -1t-94.5 -12.5t-63.5 -34q-5 -7 -12.5 -6.5t-9.5 8.5q3 12 5 24.5t5 22.5t8.5 17.5t14.5 8.5q28 2 68.5 3.5t86.5 3t94 3t92 2.5t81 1.5t59 0.5q7 0 10.5 -5t4.5 -11t-1 -11t-7 -5q-6 -2 -17.5 -7.5t-16.5 -13.5q-41 -47 -97.5 -107t-116.5 -124.5 t-116.5 -130t-97.5 -122.5q-6 -9 -4 -16t13 -9q32 -9 90 -22t128 -24.5t144 -20t138 -8.5q53 0 85.5 5t51 19.5t25 40t5.5 65.5q0 5 5.5 6.5t7.5 1.5t13 -2.5t13 -7.5z" />
<glyph unicode="[" horiz-adv-x="507" d="M463 687q0 -4 -5 -10t-8 -6h-52q-29 0 -46 -0.5t-25.5 -2t-11 -4.5t-3.5 -9q-24 -68 -43 -126.5t-35 -112.5t-30 -106.5t-28.5 -107.5t-30 -115t-35.5 -131q-3 -9 1 -15q2 -15 22 -15h60q24 0 39.5 1t24.5 1h17q6 0 10 -6t4.5 -12.5t-2 -12.5t-8.5 -6q-27 0 -58 1t-61 1 q-33 0 -57.5 -1t-57.5 -1q-11 0 -11 8q0 2 1.5 10t4 17.5t5.5 19.5t6 16q39 112 69 206t54.5 179t45.5 164t43 161q2 5 1 10.5t-1.5 10t1 7.5t7.5 3q21 0 35.5 -1.5t35.5 -1.5q12 0 28 0.5t31.5 1t30.5 1t25 0.5q5 0 5.5 -6.5t1.5 -9.5z" />
<glyph unicode="\" horiz-adv-x="552" d="M673 -235q1 -5 -6.5 -7.5t-15.5 -2.5q-11 0 -22.5 3.5t-13.5 7.5l-532 996q-32 59 -32 60q0 3 5 5t12 3.5t14 1.5h10q14 -2 17 -8q2 -3 8.5 -15.5t19.5 -35.5q21 -39 55.5 -102t76 -140t87.5 -162.5t90.5 -169.5t85 -160.5l72 -136t50 -96.5t19.5 -41z" />
<glyph unicode="]" horiz-adv-x="528" d="M575 696q3 -5 -3 -11.5t-14 -32.5q-36 -107 -63 -200t-49.5 -178.5t-43 -166.5t-43.5 -164q-1 -6 0.5 -14.5t2 -17t-1 -14.5t-7.5 -6q-20 0 -36.5 1.5t-41.5 1.5q-35 0 -69.5 -1.5t-58.5 -1.5q-9 0 -9 8q-1 2 -1 7t0.5 10t2 8.5t3.5 3.5h87q22 0 34.5 0.5t19 2t9 4.5 t3.5 9q36 103 61 185t46.5 160t43 161.5t49.5 189.5q5 9 3 15q-4 15 -25 15q-48 0 -74 -2.5t-46 -2.5q-4 0 -6.5 5t-2.5 9q-1 8 3.5 14.5t10.5 6.5q38 0 67 0.5t52.5 1t43.5 1t41 0.5q3 0 7.5 -1.5t4.5 -5.5z" />
<glyph unicode="^" horiz-adv-x="600" d="M371 595q2 -22 7.5 -59t12.5 -76t14.5 -74t13.5 -55l-42 -7q-5 24 -11 52t-11 57t-9.5 57t-6.5 52q-29 -39 -74 -97t-100 -119l-47 12q27 29 56.5 61.5t57.5 66t54 66.5t47 63h38v0z" />
<glyph unicode="_" horiz-adv-x="750" d="M1 -55l9 55h750l-9 -55h-750z" />
<glyph unicode="`" horiz-adv-x="345" d="M221 419q0 -6 -8.5 -10t-10.5 0q-31 38 -63.5 75t-55.5 74q0 3 3 9t7 11.5t8 10t5 4.5h5.5t5.5 -3q9 -17 18.5 -34.5t21 -38t27 -44.5t37.5 -54z" />
<glyph unicode="a" horiz-adv-x="428" d="M545 204q-25 -43 -57 -82t-67 -68t-72 -46.5t-72 -17.5q-33 0 -48 16.5t-16 37.5q0 7 1 22.5t7 31.5q-28 -48 -62.5 -75.5t-72.5 -27.5q-10 0 -21 7.5t-20 19.5t-15.5 26t-6.5 26q-2 52 16.5 99t54 82.5t85 56.5t109.5 21q3 15 7.5 19.5t10.5 7.5l39 12l3 -1 q-7 -8 -9.5 -17.5t-8.5 -21.5q6 0 15.5 -1.5t18 -4t15.5 -5.5t8 -7q0 -1 -2 -6t-4.5 -10.5t-5 -10t-3.5 -4.5q-9 5 -26.5 11t-26.5 6q-19 -53 -30.5 -89.5t-18.5 -63.5t-9 -46.5t-2 -38.5q2 -26 9.5 -32.5t25.5 -6.5q20 0 49 15.5t61 42t63 62.5t53 76q2 3 4 3t10.5 -8 t10.5 -10zM277 304q-48 0 -86 -22t-63.5 -55t-38 -71.5t-11.5 -71.5q1 -21 7 -36t15 -15q11 0 26.5 9.5t33.5 27t36 43t33 56.5q14 36 24.5 69t24.5 64z" />
<glyph unicode="b" horiz-adv-x="419" d="M524 268q2 1 5 1q2 0 7 -7t5 -9q0 -4 -3 -6q-21 -16 -38 -26t-33.5 -16t-35.5 -8.5t-45 -2.5q-25 0 -53.5 13t-43.5 33q13 -29 13 -58q4 -95 -29 -143.5t-101 -48.5q-11 0 -25.5 5t-27.5 20.5t-22.5 43t-11.5 72.5q-3 94 18.5 184t60 170t90 148t106.5 119t110 82 t101.5 37.5t80 -14.5t45.5 -74q-78 20 -150.5 4.5t-136.5 -58t-116 -107.5t-89 -144t-55.5 -167t-15.5 -177q1 -34 6.5 -53.5t13 -30t17 -13.5t18.5 -3q13 0 27.5 9t26.5 26.5t20 44t6 61.5q0 14 -2.5 30.5t-6 32.5t-8 29t-10.5 20q0 9 9 23.5t23 21.5q5 0 6 -3 q7 -30 22 -49t34 -30t39.5 -15.5t38.5 -4.5q25 0 54 9t56 29z" />
<glyph unicode="c" horiz-adv-x="321" d="M417 201q-23 -40 -51 -78t-61 -67t-70 -47t-77 -18q-48 0 -72.5 27.5t-26.5 73.5q-1 42 13 84.5t38.5 76.5t56.5 55.5t65 21.5q65 0 67 -59q1 -12 -6.5 -23.5t-20.5 -20.5l-4 1v6q0 8 -2 18.5t-7.5 20t-15 16.5t-24.5 7q-20 0 -40.5 -18t-37 -45.5t-26.5 -60t-9 -62.5 q1 -28 5.5 -45t13 -26t20.5 -12t27 -3q42 0 101.5 48t119.5 148q3 4 7 4q2 0 11.5 -6.5t9.5 -8.5q0 -4 -4 -8z" />
<glyph unicode="d" horiz-adv-x="332" d="M292 253q2 -47 -7 -94t-29 -84t-51.5 -60t-75.5 -23q-34 0 -59 25t-27 73q-1 33 13 68.5t40.5 68.5t62.5 60t79 43q7 4 7 12q-1 16 -10.5 52.5t-30.5 83t-53.5 98t-79 97t-108 80t-139.5 47.5q44 26 95 23t101.5 -31t98 -78.5t85 -120t61.5 -155.5t27 -185zM246 301 q-29 -10 -57.5 -33.5t-50 -53t-35 -62.5t-12.5 -63q2 -38 17 -50t30 -12q28 0 50.5 19t38 49.5t23.5 70t6 81.5q-1 21 -4 37.5t-6 16.5z" />
<glyph unicode="e" horiz-adv-x="301" d="M105 176q-2 -11 -6.5 -33t-3.5 -47q2 -37 16.5 -51t49.5 -14q34 0 67 16t62 40t52 52.5t36 53.5q3 3 13 -3.5t11 -10.5q-18 -32 -45 -65.5t-61.5 -61.5t-74.5 -45.5t-83 -17.5q-35 0 -62.5 26t-29.5 71q-1 41 10.5 84t33 78.5t53.5 58.5t71 23q23 0 37 -12t16 -40 q2 -43 -38 -72.5t-124 -29.5zM110 204q4 -1 11.5 -2t12.5 -1q15 0 32 5t30.5 14.5t22 22.5t8.5 28q0 10 -5 17t-20 7q-30 0 -55.5 -25.5t-36.5 -65.5z" />
<glyph unicode="f" horiz-adv-x="326" d="M253 314h19.5t38 0.5t61.5 0.5h90q2 -1 3.5 -5t2 -9t0 -10t-2.5 -7q-58 0 -117.5 -1.5t-102.5 -1.5q-23 -81 -41.5 -142t-35.5 -121q-28 -98 -75.5 -168.5t-104.5 -115.5t-118 -66.5t-116 -21.5q-102 0 -142.5 42.5t-15.5 121.5q23 -54 69.5 -88t103.5 -34q31 0 78 13 t95.5 43.5t91 81.5t66.5 128q10 31 22.5 72t26 85l27 88t24.5 81q-57 -2 -93.5 -6t-58.5 -13t-33 -25.5t-18 -43.5l-11 3q9 49 27.5 73.5t35.5 30.5q10 3 30 5.5t43 4.5t45.5 3t38.5 1q16 56 34 122.5t42.5 130t58.5 117.5t82 85q20 14 46 23t51 9q35 0 50 -7.5t16 -27.5 q0 -4 -1.5 -10.5t-5 -12.5t-9.5 -10t-15 -4q-11 0 -19.5 4.5t-17.5 9.5t-18.5 9.5t-23.5 4.5q-38 0 -68 -34.5t-56 -94.5t-49.5 -140.5t-49.5 -172.5z" />
<glyph unicode="g" horiz-adv-x="356" d="M330 372q5 -13 0 -27q-29 -93 -47.5 -152t-31.5 -98t-22 -65.5t-20 -55.5t-25.5 -68.5t-38.5 -103.5q-16 -43 -46 -98t-80.5 -104.5t-125 -83.5t-179.5 -34q-60 0 -103 19.5t-70.5 51t-40.5 71t-13 80.5q13 -33 36 -63t55 -53t73 -37t90 -14q80 0 141.5 25.5t108 69 t78.5 101t53 121.5q23 70 35.5 108.5t20 62t13.5 41t16 44.5q-22 -41 -38 -66t-29.5 -38.5t-26 -18t-26.5 -4.5q-21 0 -38 21.5t-19 57.5q-1 26 6.5 60.5t23 69t40 65t57.5 49.5q8 5 20.5 10t26.5 9t27.5 7t22.5 3t17 -2q4 11 6.5 16.5t4 11t3.5 12t5 18.5q3 20 15 20 q6 0 14.5 -13.5t10.5 -25.5zM260 292q-6 2 -12 2q-29 0 -51.5 -10t-33.5 -21q-49 -57 -64.5 -108t-13.5 -85q1 -11 5.5 -25t15.5 -14q8 0 27.5 20.5t43 56t46.5 83t37 101.5z" />
<glyph unicode="h" horiz-adv-x="399" d="M507 201q-21 -40 -48.5 -78t-58.5 -67.5t-65 -47.5t-68 -18q-31 0 -49.5 20t-20.5 49q-1 29 6.5 57t17 53.5t17.5 46t8 34.5q-3 7 -7 7q-6 0 -21 -11t-33.5 -29t-37.5 -42t-33 -50q-6 -19 -10.5 -32t-8.5 -24.5t-7 -23t-7 -26.5q-7 -25 -18 -25q-7 0 -19 4t-16 15 q-1 5 -1 16q38 115 74 215t77 197q42 104 87.5 188t94.5 143.5t102 91t111 31.5q29 0 55 -9t45 -28t29 -49.5t7 -74.5q-21 59 -60.5 82t-92.5 23q-44 0 -86.5 -27t-82.5 -72.5t-76 -106.5t-67 -129t-56 -139t-43 -138q7 9 23.5 26t37.5 34.5t43 30t39 12.5q3 0 7.5 -3.5 t8.5 -8t7 -9t3 -7.5q0 -10 -10.5 -38t-23.5 -61.5t-23.5 -66.5t-9.5 -53t7.5 -31.5t31.5 -11.5q17 0 38 7t46 25.5t53 52.5t59 88q2 3 5 3q2 0 10.5 -6t9.5 -9z" />
<glyph unicode="i" horiz-adv-x="270" d="M230 531q5 -18 -6.5 -36t-31.5 -18q-17 0 -23 18q-5 20 5.5 38t31.5 18q19 0 24 -20zM373 197q-19 -35 -45 -71.5t-57 -66.5t-67 -49.5t-76 -19.5q-12 0 -26 3t-26 10t-20 19.5t-8 31.5q-1 22 8.5 58t22 73t26 69.5t21.5 48.5q6 12 22.5 20t22.5 8q8 0 9 -4q0 -3 -0.5 -9 t-3.5 -9q-13 -26 -26.5 -59.5t-24.5 -67.5t-18 -63.5t-6 -47.5q1 -23 15 -30t31 -7q29 0 59.5 19.5t58 47.5t50 58.5t34.5 52.5q2 4 6.5 3.5t8.5 -3.5t7 -7.5t2 -7.5z" />
<glyph unicode="j" horiz-adv-x="294" d="M178 471q-13 0 -19 8.5t-7 19.5q-1 18 9 32t28 14q11 0 18.5 -7.5t7.5 -18.5q1 -17 -9.5 -32.5t-27.5 -15.5zM42 302q32 6 52 11.5t33 10t20.5 7t14.5 2.5q15 0 19 -16q2 -7 -1 -21q-24 -78 -44.5 -141.5t-41 -125.5t-42.5 -127t-49 -146q18 29 46.5 59.5t60 62.5t63 66 t56 70.5t40 76t13.5 81.5q-1 35 -10 52t-14 28q16 -3 29 -11.5t23 -20.5t15.5 -26.5t6.5 -28.5q2 -51 -15.5 -92t-47 -78t-68 -73t-80.5 -76t-83.5 -87t-75.5 -107q-11 -20 -30 -51.5t-50 -68.5q-3 -3 -9 -3q-8 0 -14 14t-9 22q-3 15 1 22q12 24 23.5 38.5t22.5 25t21 19.5 t20.5 21.5t20.5 30.5t20 47q18 58 34 112t32 110t32.5 117.5t35.5 133.5q1 8 1 13v8q-3 13 -15 13q-1 0 -7.5 -1.5t-15.5 -3t-18.5 -3.5t-17.5 -2q-3 0 -4 5.5t-1 12t2 12.5t5 6z" />
<glyph unicode="k" horiz-adv-x="450" d="M709 734q-21 59 -60.5 82t-92.5 23q-52 0 -100.5 -35.5t-92 -94.5t-82.5 -135t-72 -156t-60.5 -158.5t-49.5 -142.5q-1 -12 0 -12q3 0 12 9q8 13 16 23.5t16 20.5t18 21t22 25q-3 6 -6 20q-3 12 14 23q8 5 13 6.5t10 3.5q4 0 5 -6q0 -4 3 -7q5 6 21.5 24t34.5 37.5 t34.5 35t21.5 15.5q4 0 12.5 -12t13.5 -24q2 -5 -1 -7t-10 -7q-35 -23 -63 -51t-51 -55q8 -31 18 -62t23 -55t28.5 -39t34.5 -15q38 0 69 17.5t55 45.5t41 63.5t26 71.5q2 3 7.5 1.5t12 -5t11.5 -8t4 -6.5q-16 -43 -38.5 -83t-49.5 -70t-58.5 -48t-65.5 -18q-19 0 -39 4 t-39.5 21.5t-38 52t-35.5 95.5q-38 -46 -73.5 -87.5t-53.5 -78.5q-5 -8 -12 -8q-11 0 -19.5 13t-11.5 24l-1 6q-1 2 1 6q9 21 20.5 55.5t28 83.5t40.5 114.5t58 149.5q42 104 87.5 188t94.5 143.5t102 91t111 31.5q29 0 55 -9t45 -28t29 -49.5t7 -74.5z" />
<glyph unicode="l" horiz-adv-x="301" d="M143 226q-12 -31 -20 -51.5t-12 -36t-5 -27.5t0 -26q1 -29 19 -40.5t44 -11.5q36 0 68.5 20.5t59.5 50t48.5 63t37.5 59.5q4 6 10.5 4.5t12 -5.5t9 -9.5t1.5 -8.5q-21 -34 -48.5 -71.5t-61.5 -69t-74 -52t-85 -20.5q-42 0 -66 23.5t-25 55.5q-1 31 9.5 69.5t25.5 76.5 t30 72.5t24 58.5q10 26 33 75t52 107t60 117t57 104q15 27 31 42t29 22.5t22 9.5t12 2q11 0 18 -7t11 -19t5.5 -27t2.5 -32q2 -54 -16 -109t-47.5 -107.5t-67.5 -100t-75.5 -87t-71.5 -69t-57 -45.5zM161 289q32 21 65 54t64.5 72.5t58.5 82.5t47.5 85t31.5 80.5t10 67.5 q-1 19 -5 33.5t-17 14.5q-6 0 -12 -4.5t-14.5 -18t-22 -38.5t-35.5 -65q-12 -21 -25.5 -48t-27.5 -56.5t-28.5 -60t-27.5 -59.5q-31 -68 -62 -140z" />
<glyph unicode="m" horiz-adv-x="528" d="M610 129q-16 -24 -37 -48.5t-46.5 -45t-55 -33t-62.5 -12.5q-29 0 -46.5 16.5t-18.5 45.5q-1 33 7 64t17.5 58t18 50t7.5 39q0 5 -3.5 7t-7.5 2q-8 0 -26.5 -16.5t-38.5 -39t-38.5 -46t-26.5 -38.5q-6 -15 -11.5 -36t-11.5 -40.5t-12.5 -33.5t-13.5 -14t-14.5 8t-9.5 15 q-4 9 10 44q12 30 21.5 59.5t16.5 52.5t10.5 39t3.5 19q-1 12 -7 12q-9 0 -29 -18t-41.5 -43.5t-41.5 -54.5t-29 -53q-14 -31 -23.5 -55.5t-17.5 -24.5q-12 0 -16 11t-8 21q-1 11 2 20q26 64 49.5 131.5t46.5 133.5q5 14 16 14q7 0 15 -9t11 -16q-2 -9 -5.5 -17.5t-8 -22 t-11.5 -32.5t-16 -49q22 35 41.5 57.5t37 36t31.5 19t24 5.5q11 0 17.5 -10.5t7.5 -22.5q0 -5 -1.5 -14.5t-3.5 -20t-4.5 -19.5t-4.5 -14q-2 -6 0 -6t4 4q26 42 61 72.5t67 43.5q8 3 16.5 1t15 -7.5t10 -12.5t1.5 -15q-4 -15 -14.5 -42t-21 -58.5t-18.5 -63t-7 -55.5 q1 -19 7 -30t25 -11q27 0 50 11t42.5 28t36 38t30.5 42q3 5 9 5t12 -3t10 -9t1 -13z" />
<glyph unicode="n" horiz-adv-x="407" d="M516 200q-18 -37 -45 -74.5t-59.5 -67.5t-69.5 -49t-75 -19q-25 0 -41 13t-17 41q-1 24 8.5 58t21.5 67t21.5 59t9.5 35q0 5 -3.5 7.5t-9.5 -0.5q-13 -11 -31.5 -29t-38 -38.5t-37 -42t-27.5 -38.5q-8 -18 -13 -30t-9 -23.5t-8.5 -24.5t-11.5 -33q-4 -10 -6 -10 q-3 0 -7.5 5t-9 11.5t-7 13t-2.5 8.5q-4 14 10 37t29 52q14 48 26.5 101t22.5 95q2 8 11 8t18 -7.5t13 -16.5q1 -4 -13 -42q-7 -17 -9.5 -26.5t-8.5 -32.5q24 25 49 48.5t47.5 41.5t40 28.5t27.5 10.5q6 0 12 -7t8 -13q2 -4 -3 -18q-10 -22 -23 -53t-24.5 -64.5t-19 -65.5 t-6.5 -56q1 -15 7 -23.5t22 -8.5q23 0 51 18t55.5 46t50.5 62.5t36 67.5q1 2 8.5 0.5t15 -4.5t12.5 -7.5t2 -9.5z" />
<glyph unicode="o" horiz-adv-x="379" d="M521 256q-9 -17 -22.5 -33t-30.5 -29t-37.5 -20.5t-44.5 -7.5q-25 0 -51 10t-46 35q-4 -30 -14 -68t-28.5 -72t-47.5 -57.5t-71 -23.5q-39 0 -59.5 26t-21.5 60q-2 48 12.5 92.5t41.5 79t63 56.5t78 23q2 12 4 27.5t16 18.5q7 2 14.5 3.5t12.5 4.5q3 3 8.5 0.5t3.5 -8.5 q-3 -8 -5.5 -20.5t-1.5 -25.5q1 -25 7 -48t17.5 -41t29 -29t41.5 -11q15 0 30 6t29.5 16t26.5 23.5t20 28.5q1 3 6.5 2t10.5 -4t8.5 -7t0.5 -7zM257 262q-1 3 -2 5t-1.5 4.5t-2 6.5t-3.5 13q0 7 -6 7q-27 0 -52 -20.5t-44.5 -51t-30.5 -67t-10 -68.5q0 -7 2 -17.5t5.5 -19.5 t10 -15.5t16.5 -6.5q26 0 48.5 28t38.5 66t24.5 76.5t6.5 59.5z" />
<glyph unicode="p" horiz-adv-x="356" d="M483 224q-36 -63 -82.5 -104.5t-101.5 -67t-115.5 -38.5t-123.5 -18q-21 -56 -35 -97t-23.5 -74t-17.5 -61.5t-17 -60t-21.5 -70t-31.5 -91.5q-6 -18 -21.5 -27.5t-38 -16.5t-52 -15t-63.5 -22q-9 -4 -12 2.5t6 9.5q35 15 58.5 29.5t41 34t31.5 46.5t30 67 q10 28 17.5 48.5t15 40t15 40.5t18 50t24.5 69t34 98q-10 3 -13 17q-3 9 6.5 13.5t15.5 5.5l42 105q30 78 62 159.5t69 147.5q3 3 8 7.5t9 6.5q3 1 12 2.5t18.5 3t17 2.5t8.5 1q7 0 7 -7q2 -3 0 -7q-20 -25 -36 -46t-29 -41.5t-24.5 -42t-23.5 -48.5q8 12 21.5 22t28 17 t27.5 11t20 4q9 0 18.5 -5.5t17 -14t13 -20t5.5 -23.5q1 -23 -7.5 -52t-29.5 -60t-55.5 -62.5t-87.5 -58.5q31 6 73.5 20.5t87.5 40t86.5 63t69.5 89.5q1 2 5.5 0t9 -6t8.5 -8.5t5 -7.5zM69 32q44 13 80.5 40t62 59.5t39.5 66t13 60.5q0 10 -8 16.5t-19 6.5q-6 0 -19.5 -5 t-29 -16.5t-31.5 -29.5t-28 -44q-16 -36 -30 -72.5t-30 -81.5z" />
<glyph unicode="q" horiz-adv-x="386" d="M493 186q-62 -42 -104 -69.5t-74.5 -47.5t-60.5 -37.5t-62 -39.5q0 -3 -2 -5q23 -37 31 -84t3 -96t-20.5 -96t-39 -84t-54 -59.5t-64.5 -22.5q-12 0 -27.5 10t-16.5 36q0 15 7.5 41.5t20.5 60.5t30 73l34 78t33 76.5t27 68.5q-2 2 -3 5t-3 5q2 2 5.5 4t7.5 4q5 11 8 21.5 t6 19.5q-22 -23 -44 -38t-48 -15q-39 0 -48 41q-5 20 0 47t17.5 56t31 58t41 54t48 43t50.5 25q16 5 31.5 6t31.5 1q6 14 9.5 24.5t6 18.5t6 12t10.5 4t20 -2.5t15 -9.5q2 -2 -1 -7q-4 -9 -7.5 -14.5t-5.5 -10.5t-4 -10.5t-5 -14.5q21 -2 38.5 -12t29.5 -24 q-1 -11 -11.5 -22.5t-18.5 -13.5q-11 18 -25 27.5t-26 10.5q-4 -10 -14.5 -33.5t-24.5 -56t-31 -71.5t-34 -80q51 33 113 74.5t145 98.5q2 4 6.5 1t9 -8.5t7 -12t-0.5 -8.5zM67 -408q13 0 31 16t35.5 42.5t33 62.5t23 75.5t5 81t-19.5 80.5q-21 -53 -44 -107.5t-41.5 -101 t-30.5 -80.5t-12 -46q0 -8 4 -15.5t16 -7.5zM273 287q-17 5 -33.5 0.5t-28.5 -10.5q-24 -12 -47.5 -41t-41.5 -63t-27.5 -66t-4.5 -50q2 -7 7 -10t10 -3q6 0 16 6.5t21.5 17t23 24.5t20.5 29q11 18 20 32t18.5 31t20.5 41t26 62z" />
<glyph unicode="r" horiz-adv-x="308" d="M335 306q-3 -5 -7.5 -13t-9 -17t-7.5 -17t-4 -12q-3 -4 -6 -4q-2 0 -2.5 3.5t-4 7t-11 7t-22.5 3.5q-10 0 -24.5 -7.5t-29.5 -18t-28 -21.5t-20 -19q-23 -26 -36 -48t-22.5 -44.5t-17.5 -48t-20 -59.5q-3 -4 -9 -4q-1 0 -5.5 2.5t-9.5 6.5t-8.5 7.5t-3.5 6.5q-4 11 3 27 q15 42 30 85t28 80t23 65t13 41q3 14 8 14q3 0 16.5 -7.5t17.5 -21.5q0 -2 -5.5 -16t-12 -30.5t-11.5 -29.5t-4 -13q5 0 7 2q12 15 31 34.5t40.5 37.5t44 30t41.5 12q13 0 24.5 -6.5t13.5 -14.5z" />
<glyph unicode="s" horiz-adv-x="278" d="M235 259q0 -10 -6 -2l-10 12.5t-13.5 14t-15.5 11.5t-15 5q-19 0 -34.5 -14.5t-14.5 -34.5t15.5 -39.5t31.5 -39.5t31.5 -40.5t15.5 -41.5t-7.5 -40t-24.5 -33t-38.5 -22.5t-51.5 -8.5q-40 0 -73.5 18.5t-52.5 44.5q-1 10 9.5 24t19.5 19q21 -38 50.5 -54.5t57.5 -16.5 q16 0 29 5.5t21.5 14t13 18t4.5 18.5q-1 17 -15.5 37t-31.5 41.5t-31.5 42.5t-15.5 39q-1 20 8 37.5t24.5 31t35.5 21.5t41 8q6 0 15 -3t18 -7t15.5 -8.5t7.5 -8.5q-1 -7 -5.5 -24.5t-7.5 -24.5z" />
<glyph unicode="t" horiz-adv-x="297" d="M300 537q-12 -3 -30 -12.5t-23 -21.5q-11 -24 -20.5 -46t-17.5 -43.5t-16.5 -44.5t-17.5 -49h186q5 -3 7 -8q0 -2 -3 -8.5t-5 -7.5q-12 0 -36 -0.5t-52.5 -1.5t-57.5 -3t-52 -4q-20 -62 -36 -112.5t-15 -86.5q2 -29 14.5 -42t39.5 -13q12 0 33 8t44.5 20t46 25.5 t37.5 23.5q2 2 6 -1.5t7.5 -9t5.5 -10.5t0 -7q-23 -16 -49 -32.5t-52.5 -29t-52 -20.5t-48.5 -8q-30 0 -53.5 22.5t-25.5 62.5q-2 33 10.5 84t40.5 123q-9 -1 -19.5 -1.5t-23.5 -2.5q-13 -1 -20 -1.5t-9 -0.5q-8 0 -11 6q2 5 8.5 17t11.5 17l76 2q20 46 39.5 100.5 t37.5 98.5q15 8 42 20t47 19q3 0 7 -9t-1 -12z" />
<glyph unicode="u" horiz-adv-x="386" d="M498 192q-18 -36 -42.5 -72t-54 -65t-62.5 -47t-68 -18q-36 0 -53 20.5t-19 49.5v12t1 12q-5 -10 -15 -24.5t-23.5 -28t-29.5 -22.5t-33 -9q-37 0 -50 41q-1 12 1 31.5t10.5 52t23 80t36.5 115.5q5 15 11 15q3 0 9.5 -3.5t13 -8t11.5 -9.5t5 -9t-6 -18q-15 -36 -27 -70.5 t-21 -63.5t-14 -52.5t-5 -37.5q4 -11 11 -15t15 -4t19.5 11.5t25 30.5t27 44t24.5 52q8 24 14.5 42.5t11.5 33t9.5 26.5t8.5 24q3 10 8 10t12 -7t12.5 -17.5t8 -21.5t-0.5 -20q-11 -22 -22.5 -42t-21.5 -40t-15.5 -43t-4.5 -53q1 -23 11 -34t25 -11q16 0 38.5 10t48.5 31.5 t53.5 55.5t52.5 82q2 1 6.5 -0.5t9.5 -4t9 -5.5t5 -6z" />
<glyph unicode="v" horiz-adv-x="354" d="M266 380q-3 1 -2.5 2.5t9.5 0.5q37 -4 55 -34.5t20 -70.5q2 -59 -26 -110t-68.5 -88.5t-85 -60t-76.5 -23.5l-29 24q-1 3 -0.5 6.5t3.5 3.5q14 -1 26.5 4t22 17.5t14 34t2.5 52.5q-3 42 -2 82.5t0 61.5q-1 17 -19 12l-41 -13q-2 2 -3.5 14t3.5 18q14 3 31 6.5t33.5 7 t32 7.5t27.5 7q3 -2 4 -13t-1 -13q-5 -4 -12 -11.5t-9 -18.5q-4 -16 -3.5 -39t2.5 -45.5t4 -41t1 -25.5q-4 -26 -9 -44.5t-22 -34.5q-3 -3 -1.5 -5.5t4.5 -0.5q28 11 56 35.5t49.5 56.5t35 70t11.5 77q0 14 -3 28.5t-8 27.5t-11.5 22.5t-14.5 13.5z" />
<glyph unicode="w" horiz-adv-x="575" d="M694 296q-69 -17 -121.5 -20.5t-88.5 0.5q-7 1 -5 -4t3 -12q3 -15 5 -30t3 -30q3 -97 -29.5 -153.5t-101.5 -56.5q-34 0 -67 20t-50 60q-25 -26 -59 -48t-76 -22q-26 0 -42.5 19t-17.5 45q-1 27 7 60t20 64.5t26 57.5t24 39l10 12.5t13 10.5q11 3 25.5 7t23.5 6 q3 0 5.5 -5.5t2.5 -7.5q0 -3 -12.5 -7.5t-23.5 -17.5q-14 -24 -28.5 -52.5t-26 -56.5t-18.5 -54.5t-6 -47.5q1 -13 9 -22.5t22 -9.5q9 0 21 6t26.5 16.5t30.5 23.5t32 28q-6 26 -7 51.5t2 48.5t9.5 42t14.5 32q3 4 11 9.5t19 11t23.5 9t24.5 3.5q10 0 17.5 -6.5t12 -16 t6.5 -19.5t2 -18q1 -13 -0.5 -31t-10.5 -39t-27 -45t-50 -49q17 -41 36.5 -54t44.5 -13q20 0 37.5 12.5t30.5 34t20 50t6 61.5q-1 16 -4.5 36.5t-10 38.5t-16 30t-23.5 12q-9 6 -1 9q9 0 24.5 6.5t21.5 6.5q4 0 6.5 -3.5t11.5 -7.5t28 -7.5t56 -3.5q16 0 36 1t40.5 4t39 7 t31.5 10q2 1 4.5 -3t3.5 -10t0 -11.5t-6 -6.5zM265 136q21 20 33.5 35t19 27.5t8 23.5t1.5 23q-1 37 -21 37q-8 0 -17.5 -10t-16.5 -29t-9.5 -46t2.5 -61z" />
<glyph unicode="x" horiz-adv-x="395" d="M358 116q2 2 7 0t10.5 -5.5t9.5 -7.5t4 -7q-10 -13 -26 -31t-37 -34.5t-46.5 -28t-55.5 -11.5q-27 0 -44.5 8t-28.5 23t-18.5 36.5t-14.5 49.5q-59 -58 -95 -131t-51 -144.5t-11 -131.5t24 -92q-26 17 -44 36.5t-25 37.5q-13 32 -9 86.5t27.5 120t66.5 135.5t107 133 q-7 40 -8 70t4 57q1 22 13 27q10 5 25 17q1 3 4.5 -1t1.5 -7q-11 -36 -11.5 -63.5t4.5 -66.5q30 30 61 55.5t56 44t41.5 29t19.5 10.5q5 0 6 -4q2 -6 1.5 -22.5t-3.5 -22.5q-45 -26 -89 -58.5t-82 -71.5q10 -54 28.5 -88t54.5 -34q16 0 33 7t33 19t30.5 27.5t26.5 33.5z" />
<glyph unicode="y" horiz-adv-x="348" d="M88 0q-26 0 -40 16t-15 37q-1 16 4.5 44.5t15.5 63.5t24 73.5t29 75.5q2 8 6 11.5t7 6.5q8 2 23 2.5t18 0.5q6 0 6 -6q-16 -38 -31.5 -79t-28.5 -76.5t-20.5 -63t-7.5 -38.5q1 -11 6 -19.5t22 -8.5q9 0 23.5 9t28.5 21t26.5 25t18.5 20q10 13 21 49.5t33 103.5 q11 33 20 55t19 22q10 -3 22.5 -15t14.5 -24q-21 -57 -47.5 -118.5t-46.5 -118.5q-15 -43 -35.5 -96.5t-48 -108t-63 -106.5t-81.5 -92t-103.5 -64.5t-128.5 -24.5q-51 0 -87.5 17.5t-58 44t-28.5 58t0 60.5q15 -55 52.5 -88t108.5 -33q73 0 133 22t110.5 71t93.5 126 t81 188q3 6 0 4.5t-4 -2.5q-14 -14 -38 -29.5t-54 -15.5z" />
<glyph unicode="z" horiz-adv-x="365" d="M858 -63q0 -30 -15.5 -58t-44 -49.5t-68 -35t-89.5 -13.5q-67 0 -128.5 17.5t-126 49t-136 75t-158.5 94.5q-7 3 -10 4t-9 -4q-10 -7 -19 -13t-17 -16q-6 -3 -14.5 0t-16 9t-10.5 13t3 10q47 27 91 60.5t78.5 62.5t55.5 50.5t21 24.5q-1 6 -7 6q-12 -6 -30.5 -8t-34.5 -2 q-10 0 -21.5 3.5t-22 12t-18.5 23.5t-12 39q2 12 12 30t30 33q3 0 10 -7.5t9 -10.5q-5 -5 -10 -15t-4 -18q1 -32 18.5 -42.5t49.5 -10.5q17 0 28.5 3t22 10t21 18.5t25.5 27.5q2 3 9 1.5t14 -5.5t11.5 -9.5t1.5 -10.5q-20 -26 -46.5 -56t-56.5 -60.5t-61 -59.5t-60 -52 q-10 -6 10 -19q172 -100 296.5 -159.5t205.5 -59.5q67 0 116 33t73 102q1 1 5.5 -1t10.5 -5t11.5 -6.5t6.5 -5.5z" />
<glyph unicode="{" horiz-adv-x="398" d="M437 714q-5 0 -10 2t-15 2h-25t-22.5 -4t-20 -13.5t-19.5 -28.5q-28 -51 -43 -101t-29.5 -92t-35 -73t-61.5 -44q-5 -1 -5 -6q2 -4 4 -5q19 -11 32.5 -24t19.5 -33q7 -20 3 -48t-12.5 -60.5t-19 -68t-18.5 -70t-11 -66t5 -56.5q9 -27 26.5 -36t47.5 -9q5 0 8 -5t4 -11 t-1 -11t-8 -5q-21 0 -42.5 7t-41 19.5t-34 30.5t-22.5 39q-7 24 -2.5 54.5t15 63t24 66.5t24 65t15.5 58t-1 45q-7 21 -28.5 30.5t-39.5 9.5q-12 0 -19 -2t-22 -2q-7 0 -12.5 8.5t-6.5 15.5q-1 8 2.5 14.5t11.5 6.5q7 0 13 -1.5t17 -1.5q18 0 33 3t26 14q29 29 43 62.5 t24.5 71t22 78.5t34.5 84q17 30 42.5 41t58.5 16q14 2 27 3.5t34 1.5q5 0 10.5 -5t6.5 -13q1 -17 -7 -17z" />
<glyph unicode="|" horiz-adv-x="333" d="M144 -375v1375h42v-1375h-42z" />
<glyph unicode="}" horiz-adv-x="398" d="M310 644q9 -34 0 -74t-23 -78t-24.5 -71.5t-4.5 -53.5q3 -15 18 -15q13 0 29.5 2t32.5 2q7 0 11 -6t5 -13.5t-2 -14t-11 -6.5q-21 0 -33 -2t-26 -13q-25 -21 -37.5 -56t-23.5 -83q-9 -46 -18 -95t-33 -94q-11 -21 -30 -43t-42 -40.5t-49 -30.5t-51 -12q-4 0 -7 4t-4 9 q-1 9 -0.5 12.5t5.5 4.5q39 8 68 25t48 60q16 33 24 64.5t13.5 63t11.5 61.5t17 59t30.5 56.5t51.5 53.5q3 5 2 7q0 3 -4 6t-9.5 9t-12 16.5t-11.5 28.5q-7 22 -4.5 45t9.5 46.5t17 48t17 48t9.5 47t-5.5 45.5q-12 39 -52 45q-6 2 -10 7.5t-5 11.5t0.5 11t4.5 5 q17 0 34 -10.5t32 -26t26.5 -33.5t15.5 -33z" />
<glyph unicode="~" horiz-adv-x="600" d="M522 231q-7 -14 -14.5 -28t-17 -25.5t-23 -19t-32.5 -7.5q-25 0 -48 10.5t-45.5 23t-46.5 23t-51 10.5q-13 0 -22.5 -5.5t-16 -14t-10.5 -19.5t-6 -23l-36 30q3 13 9 27.5t16 26.5t25 19.5t36 7.5q24 0 50.5 -10.5t51.5 -22.5t48 -22.5t39 -10.5q25 0 36.5 19t22.5 41 l35 -30v0z" />
<glyph unicode="&#xa1;" horiz-adv-x="330" d="M55 -248q-3 1 -4.5 6.5t-1.5 11t1 10t4 4.5q20 0 32 12q28 27 47.5 70t33.5 97t24.5 116t20.5 128q0 3 6 4t13 0.5t12.5 -2.5t5.5 -5q1 -16 -1.5 -47t-7.5 -70t-12 -82t-15.5 -83.5t-17.5 -75.5t-19 -56q-10 -23 -24.5 -35t-38.5 -12q-12 0 -29.5 3t-28.5 6zM238 363 q20 0 31.5 -12.5t12.5 -31.5q1 -17 -9.5 -30.5t-30.5 -13.5q-19 0 -30.5 14t-12.5 31q-1 18 10.5 30.5t28.5 12.5z" />
<glyph unicode="&#xa2;" horiz-adv-x="481" d="M83 -219q9 77 21 152.5t29 150.5q-40 7 -64.5 40t-26.5 82q-2 53 12 103t41 91t66.5 70.5t88.5 39.5q20 61 41 121.5t44 121.5q3 3 8 4t10.5 0t10 -3.5t5.5 -6.5q-23 -61 -43.5 -118t-38.5 -114q3 1 13 1q23 0 46.5 -16t32.5 -40q0 -7 -4 -14.5t-9 -14.5t-10 -11.5 t-8 -4.5q-2 0 -5 10q-6 20 -21.5 34.5t-47.5 16.5q-29 -91 -52 -177.5t-43 -176.5q12 0 32 4.5t44 20t50.5 46t51.5 82.5q1 2 8 3.5t15 1.5t15 -2t7 -8q-19 -37 -43 -69.5t-53 -57.5t-62.5 -40.5t-71.5 -18.5q-15 -75 -27 -152t-23 -162q-1 -6 -6.5 -7t-12 1t-12.5 6.5 t-8 10.5zM94 218q1 -30 11.5 -56t36.5 -36q20 88 44 174t52 174q-36 -8 -63.5 -37t-46 -67.5t-27 -79.5t-7.5 -72z" />
<glyph unicode="&#xa3;" horiz-adv-x="662" d="M442 602q9 0 20.5 -1t22.5 -3.5t19.5 -7.5t9.5 -13q1 -3 0.5 -14t-2.5 -21t-5 -16t-6 1q-5 11 -30.5 22t-66.5 11q-36 0 -59 -25t-39 -62t-27 -80.5t-25 -79.5q-16 -41 -38 -84t-50 -74q-2 -2 -1 -3.5t3 -1.5t7.5 3.5t15 7.5t22 7.5t28.5 3.5q25 0 49.5 -10t47 -25 t43 -33t38 -33t31 -25t22.5 -10q6 0 13.5 1t15 6t15 15.5t13.5 29.5q0 2 7.5 3t16.5 1t17 -1.5t9 -5.5q-1 -10 -8.5 -25.5t-21 -29.5t-34.5 -24t-50 -10q-30 0 -56 19.5t-57.5 43.5t-72 43.5t-97.5 19.5q-35 0 -56 -17.5t-35 -37.5q-23 -34 -36 -46.5t-18 -12.5 q-3 0 -7.5 4.5t-9.5 10.5t-8.5 11.5t-3.5 7.5q0 7 5 14q33 29 58.5 48t48 44.5t42.5 65t42 108.5q16 50 33 99.5t42.5 90t64 65.5t98.5 25zM222 317q-15 0 -34 -1t-36.5 -2.5t-30.5 -2.5t-15 -1q-7 0 -9 3q0 3 0.5 8t2.5 10.5t4.5 9.5t5.5 4h48.5t29.5 -0.5t17.5 -0.5h10.5 q50 0 84 2t58 4.5t40 4.5t31 2q9 0 11 -5q0 -1 -1 -6.5t-3 -11.5t-4.5 -10.5t-6.5 -4.5q-40 0 -64 -0.5t-43.5 -0.5t-40 -0.5t-55.5 -0.5z" />
<glyph unicode="&#xa4;" horiz-adv-x="556" d="M506 571l-53 -54q30 -33 44 -73.5t16 -82.5t-9.5 -82.5t-39.5 -73.5l56 -54l-36 -38l-58 55q-32 -28 -71 -41.5t-81 -13.5t-82 13.5t-74 41.5l-54 -55l-40 38l52 54q-29 33 -43 73.5t-16 82.5t9.5 82.5t38.5 73.5l-55 54l36 38l58 -55q32 28 71 41.5t81 13.5t82 -13.5 t74 -41.5l54 55zM272 161q40 0 75 16t60.5 43.5t39.5 64t12 76.5q-1 41 -18 77t-44 63.5t-63 43.5t-76 16t-75 -16t-60.5 -43.5t-39 -63.5t-12.5 -77q2 -40 18.5 -76.5t43.5 -64t63 -43.5t76 -16z" />
<glyph unicode="&#xa5;" horiz-adv-x="701" d="M7 491q8 17 22.5 36t36 36t50.5 28t65 11q44 0 75 -16t51 -42t30 -59t11 -67q1 -26 -1 -50.5t-4 -50.5q47 48 87 91t77 82.5t73 77t76 75.5q6 6 11 6q3 0 10.5 -4t16 -9t15.5 -10t7 -8q0 -5 -9 -11q-88 -72 -178.5 -156t-182.5 -177q-6 -19 -13 -46t-14 -56t-13 -57.5 t-9 -49.5q-3 -19 0.5 -27t31.5 -8q14 0 28 1.5t22 1.5q3 0 8 -10t5 -15q0 -4 -0.5 -6t-5.5 -2q-17 3 -43 4t-55 1q-42 0 -81.5 -1.5t-58.5 -3.5q-11 0 -16 11q-1 4 1.5 13.5t10.5 9.5q38 0 52 1t19 2q8 2 14 9.5t12 19.5q35 72 46 153.5t8 159.5q-1 35 -7 69.5t-20.5 61.5 t-40.5 44t-67 17q-40 0 -71.5 -26t-44.5 -65q-2 -2 -7.5 -2t-11.5 1.5t-11.5 4.5t-6.5 7zM238 181q-15 0 -34.5 -1t-37 -2.5t-30.5 -2.5t-15 -1q-7 0 -9 3q0 3 1 8t3 10.5t4.5 9.5t5.5 4h48.5t29.5 -0.5t17.5 -0.5h10.5q101 0 167.5 6.5t95.5 6.5q9 0 11 -5q0 -1 -1 -6.5 t-3 -11.5t-4.5 -10.5t-6.5 -4.5q-40 0 -72 -0.5t-60.5 -0.5t-57 -0.5t-63.5 -0.5zM254 277q-15 0 -34.5 -1t-37 -2.5t-30.5 -2.5t-15 -1q-7 0 -9 3q0 3 1 8t3 10.5t4.5 9.5t5.5 4h48.5t29.5 -0.5t17.5 -0.5h10.5q101 0 167 6.5t95 6.5q9 0 12 -5q0 -1 -1 -6.5t-3 -11.5 t-4.5 -10.5t-6.5 -4.5q-40 0 -72 -0.5t-60.5 -0.5t-57 -0.5t-63.5 -0.5z" />
<glyph unicode="&#xa6;" horiz-adv-x="169" d="M63 205h41v-313h-41v313zM63 657h41v-313h-41v313z" />
<glyph unicode="&#xa7;" horiz-adv-x="452" d="M295 590q10 0 21.5 -2.5t22 -6.5t18 -9.5t7.5 -11.5t-2.5 -21t-8.5 -34q-1 -5 -6 -5q-2 0 -8 1t-6 3q6 20 -10.5 27.5t-46.5 7.5q-35 0 -54.5 -22.5t-18.5 -49.5q2 -36 27 -62.5t55.5 -54t56 -62.5t27.5 -88q1 -26 -17.5 -52t-43.5 -49q2 -7 1.5 -10t0.5 -10 q1 -30 -6.5 -57.5t-27.5 -48.5t-53.5 -33.5t-84.5 -12.5q-28 0 -54.5 8t-48 25.5t-35.5 44t-15 62.5q-1 17 2 30t5 18q0 2 5 3.5t10.5 2.5t11 -0.5t7.5 -7.5q0 -5 -0.5 -6t-0.5 -7q1 -36 8.5 -61.5t23 -41t41 -23t63.5 -7.5q51 0 79.5 27t26.5 65q0 21 -13 41.5t-32 41.5 t-41 43t-41.5 45t-32.5 47t-14 50q-1 24 14.5 54t55.5 51q-5 22 1 49.5t22.5 51.5t44 40.5t64.5 16.5zM293 132q11 10 18.5 23t6.5 30q-1 36 -20 64t-43.5 52.5t-47.5 48t-32 50.5q-13 -6 -27 -18t-13 -30q1 -27 21.5 -52.5t46.5 -52t52 -55t38 -60.5z" />
<glyph unicode="&#xa8;" horiz-adv-x="345" d="M240 542q10 0 17 -6t8 -21q0 -17 -9.5 -32t-27.5 -15q-12 0 -19 8.5t-8 19.5q-1 18 9.5 32t29.5 14zM110 546q12 0 18.5 -8t6.5 -20q1 -17 -8.5 -31.5t-27.5 -14.5q-11 0 -18 8.5t-8 19.5q-1 18 9 32t28 14z" />
<glyph unicode="&#xa9;" horiz-adv-x="790" d="M377 610q72 0 127.5 -23t93.5 -64.5t58.5 -98t22.5 -123.5q2 -56 -13.5 -110.5t-51 -98t-91.5 -70.5t-136 -27q-63 0 -116.5 22t-93 61t-63 93.5t-25.5 119.5t15.5 122.5t54 101.5t91.5 69.5t127 25.5zM379 578q-64 0 -113 -23t-81 -61t-47.5 -88t-13.5 -104 q2 -64 23.5 -114.5t57.5 -85.5t84.5 -53.5t105.5 -18.5q62 0 109 22.5t79 59t48 84t14 97.5q-2 60 -20.5 112.5t-52 90.5t-82.5 60t-111 22zM480 397q-8 29 -32 51t-60 22q-57 0 -93 -42t-34 -110q1 -30 8.5 -61t24.5 -56t44 -40.5t67 -15.5q22 0 38.5 5.5t29.5 15.5 t24.5 23.5t22.5 29.5q4 -7 8 -16q3 -8 4.5 -18t-1.5 -23q-20 -34 -58 -50t-83 -16q-41 0 -73.5 17t-55 45.5t-34.5 66t-14 77.5q-1 42 11.5 80t36 67t56.5 46t72 17q19 0 39 -4.5t38.5 -15t33.5 -27t24 -40.5q-1 -4 -6.5 -9t-12 -9.5t-13 -7t-10.5 -2.5h-2z" />
<glyph unicode="&#xaa;" horiz-adv-x="404" d="M435 357q-12 -14 -29.5 -31t-38.5 -31.5t-44.5 -24t-46.5 -9.5q-20 0 -37 14.5t-19 43.5q0 9 0.5 21.5t2 27t4 29t5.5 27.5q-15 -32 -33 -59.5t-38 -47t-41 -30.5t-42 -11q-17 0 -25 12t-9 29q0 21 9.5 47t26 53.5t39 54t47 47t49.5 33t48 12.5q4 17 7.5 27t9.5 27 q3 7 9.5 6.5t9.5 -11.5q4 -13 11 -18t7 -9q2 -2 0 -8q-14 -32 -23.5 -58.5t-15 -49.5t-7.5 -44.5t-1 -43.5q2 -36 12 -58t36 -22q13 0 27.5 7.5t28 19t25 25t18.5 25.5q1 2 5.5 0.5t9 -5t6.5 -8t-3 -9.5zM250 529q-14 0 -30.5 -7t-32 -19t-30 -27.5t-24.5 -33.5 q-32 -52 -30 -89q1 -10 4 -15.5t14 -5.5q7 0 22.5 13.5t34 38.5t38 62t34.5 83z" />
<glyph unicode="&#xab;" horiz-adv-x="540" d="M482 319q2 -7 0 -9q-39 -36 -69 -67t-66 -65q-7 -7 -7 -15q3 -4 10 -18.5t19 -36t29 -50t39 -60.5q1 -2 1 -6q1 -6 -6 -7q-5 -2 -15.5 -6.5t-16.5 -8.5q-6 0 -7 7q-16 28 -34.5 57.5t-33.5 54.5t-25 42.5t-10 20.5q-1 8 6 15q18 18 41.5 42.5t47 48.5t43.5 45t30 32 q3 3 6 3q4 0 10.5 -7t7.5 -12zM391 332q0 -4 -9 -10q-3 -3 -22.5 -21l-45.5 -42t-53 -49.5t-45 -43.5q-5 -7 -5 -15q1 -4 5.5 -15.5t14.5 -31.5t27 -49t42 -70l6 -9q0 -5 -4 -5q-7 -1 -21 -3.5t-21 -5.5q-4 0 -10 12l-15.5 31t-23.5 46.5t-26 51.5t-24 46q-1 6 9 15 q19 17 44 40.5t51.5 49t52 51t44.5 45.5q4 4 8 4q1 0 9.5 -8t11.5 -14z" />
<glyph unicode="&#xac;" horiz-adv-x="400" d="M437 241q-4 -14 -9 -32t-9 -36.5t-7 -35t-4 -27.5l-36 1q2 18 8.5 45t14.5 51q-9 2 -28.5 2.5t-44 1.5t-51.5 1h-52q-17 0 -30 -0.5t-24 -1.5l12 40q14 0 50 -1.5t76.5 -2.5t76.5 -1.5t51 1.5l6 -5v0z" />
<glyph unicode="&#xae;" horiz-adv-x="600" d="M505 431q2 -39 -10.5 -76t-38.5 -66.5t-67 -47t-97 -17.5q-43 0 -81 16.5t-67 44.5t-46.5 66.5t-19.5 81.5q-1 35 10 72.5t36 68.5t65.5 50.5t98.5 19.5q103 0 157.5 -58t59.5 -155zM477 422q-1 44 -13 80t-34.5 62t-57 40t-81.5 14q-42 0 -76.5 -13.5t-58.5 -37.5 t-36.5 -56.5t-11.5 -69.5q2 -47 17 -83t41 -60t60.5 -36t74.5 -12q39 0 72 14t56.5 38t36 55t11.5 65zM247 460q52 0 76 11.5t23 39.5q-3 54 -84 38zM354 311l-109 132l-22 -132h-38l46 257q42 11 70.5 9.5t46 -10.5t25 -24.5t8.5 -33.5q1 -20 -8 -33.5t-23 -22t-29.5 -12.5 t-28.5 -4l108 -126h-46z" />
<glyph unicode="&#xaf;" horiz-adv-x="600" d="M-20 600l8 55h599l-8 -55h-599z" />
<glyph unicode="&#xb0;" horiz-adv-x="342" d="M148 457q-35 0 -54 19.5t-20 45.5q0 12 3 25t11 24t22.5 18t36.5 7q35 0 54.5 -18.5t20.5 -50.5q1 -27 -16.5 -48.5t-57.5 -21.5zM152 484q17 0 28 11.5t10 28.5q-1 21 -12.5 33t-30.5 12t-31 -11.5t-11 -29.5q1 -20 14 -32t33 -12z" />
<glyph unicode="&#xb1;" horiz-adv-x="400" d="M432 -4q-15 1 -37 2t-48 1.5t-54.5 0.5h-56.5h-25.5t-33 -0.5t-31 -1t-19.5 -0.5l3 41q11 -1 42 -2t70 -2t79 -1h68h26t17 1v-39zM459 210q-29 7 -67 9.5t-75 2.5q-6 -43 -8.5 -74.5t-5.5 -61.5h-51q4 11 7.5 28t6.5 36t6 38.5t6 34.5h-27t-36 -0.5t-36 -1t-26 -1.5 l-4 42q6 -2 44.5 -2.5t89.5 -2.5q4 32 8 63.5t7 59.5h49q-9 -21 -15.5 -55.5t-10.5 -67.5h39.5t40 -0.5t36 -2t26.5 -3.5l-4 -41v0z" />
<glyph unicode="&#xb2;" horiz-adv-x="286" d="M335 379q21 0 30 -5.5t8 -13.5q0 -4 -5 -9.5t-11 -10t-12.5 -8t-10.5 -5.5q-6 -2 -12 -1.5t-10 4.5q-3 3 -7.5 4t-15.5 3q-23 2 -55.5 3.5t-87.5 -3.5q-8 -1 -12 1.5t-7 6.5q-2 4 0.5 9.5t12.5 14.5q6 6 13 10.5t16 10.5q5 2 16 10.5t24 20t26 24t23 23.5q20 21 27.5 36 t7.5 23q0 11 -7.5 18.5t-18.5 7.5t-23 -8t-31 -31q-8 -10 -12.5 -12.5t-10.5 -2.5q-12 0 -16 13q-2 5 -1 13t6 15q8 11 13.5 15.5t11.5 8.5q11 7 25.5 15.5t22.5 13.5q13 8 32 8q11 0 22.5 -6.5t20.5 -16t15.5 -22t6.5 -24.5q0 -16 -11 -34t-27 -35t-33.5 -32.5t-29.5 -26.5 q-7 -8 -9 -13.5t3 -7.5q6 -2 19.5 -3t32.5 -1h41z" />
<glyph unicode="&#xb3;" horiz-adv-x="286" d="M306 596q15 0 26 -5t18 -12.5t10.5 -16t3.5 -14.5q1 -20 -16.5 -34t-38.5 -25q-11 -7 -4 -11q23 -14 36.5 -29.5t14.5 -34.5q1 -21 -11.5 -37t-31 -27.5t-41 -17t-41.5 -5.5q-20 0 -41 7t-33 15q-15 12 -16 28q1 5 3.5 10t7.5 10q11 11 25 -4q9 -8 29 -15.5t40 -7.5 q26 0 42 12.5t15 26.5q0 14 -16.5 27t-39.5 14q-7 1 -14 2.5t-15 7.5t-5.5 12t11.5 12q8 5 17 9t22 11q21 9 33 17.5t12 18.5q-1 8 -8.5 14.5t-21.5 6.5q-6 0 -13.5 -3t-11.5 -6q-8 -6 -14 -9t-16 -3t-18 8t-8 15q0 6 7.5 15t18.5 15q12 9 25 1q8 -6 25 -2q8 2 14.5 3 t17.5 1h1z" />
<glyph unicode="&#xb4;" horiz-adv-x="345" d="M279 577q2 -7 -1 -10q-22 -20 -44 -37.5t-45.5 -35.5t-48.5 -38.5t-52 -45.5q-3 -3 -6.5 -2t-6.5 4t-4 6.5t0 4.5q44 44 85.5 87t81.5 87q2 3 4.5 3h3.5q2 0 6.5 -3t10 -6.5t10.5 -7.5t6 -6z" />
<glyph unicode="&#xb5;" horiz-adv-x="600" d="M178 90q-35 -97 -55 -183.5t-18 -161.5q2 -28 8.5 -60.5t23.5 -53.5q4 -5 2.5 -7t-7.5 1q-9 11 -29.5 18.5t-32.5 12.5q-8 14 -11 30.5t-4 33.5q-1 32 8 77.5t23.5 97t33 106.5t36.5 106q23 67 43 120.5t29 81.5q3 8 8 8q11 0 20.5 1t18.5 9q8 0 5 -14q-12 -22 -24 -48.5 t-22 -55.5t-16.5 -59.5t-5.5 -61.5q1 -19 8.5 -33t29.5 -14q23 0 45.5 19.5t44.5 54.5t43.5 85t43.5 111q1 7 11 7q6 0 10.5 1.5t15.5 7.5q3 0 6 -1t2 -8q-10 -17 -22.5 -45.5t-23.5 -61.5t-18 -66.5t-6 -60.5q0 -15 5 -31t24 -16q11 0 21.5 9t21 23t20.5 32l20 36 q1 3 4 0.5t6 -7t6.5 -10t4.5 -9.5q-7 -15 -19 -35t-29 -38t-37.5 -31t-44.5 -13q-15 0 -23.5 6t-13.5 14.5t-6.5 19t-1.5 19.5q-1 11 0 24t6 27l-2 2q-2 2 -4 -2q-9 -15 -23 -34t-31 -35.5t-37 -28t-41 -11.5q-31 0 -42.5 17t-12.5 35q0 5 1.5 17.5t3.5 25.5z" />
<glyph unicode="&#xb6;" horiz-adv-x="750" d="M595 370q-21 -2 -38 -10.5t-33 -28t-31 -52t-31 -82.5q-18 3 -33.5 19.5t-38.5 50.5q-10 -10 -16 -15.5t-12 -10.5t-14.5 -10.5t-23.5 -14.5q11 -10 24.5 -25t33.5 -47q17 14 38 29t40 16q-16 -36 -21.5 -59.5t-5.5 -40.5q1 -22 7.5 -35t32.5 -23l122 339v0zM639 404 q64 0 62 27q0 14 -13 30.5t-23 32.5q-5 -23 -11.5 -47.5t-14.5 -42.5zM421 -341q5 0 8 -5q0 -2 -4 -9t-21 -7q-6 0 -13.5 2.5t-15 7.5t-14 12t-8.5 16q-6 -6 -17 -12t-24 -11.5t-27 -8.5t-26 -3q-6 0 -8.5 7t-2.5 12q23 0 42 6.5t38.5 30t41.5 69t51 123.5l46 120 q-46 -3 -71.5 -5t-37.5 -3t-15 -1h-4q-35 0 -66.5 12.5t-55.5 35t-39 53.5t-16 68q-2 59 26.5 103t78 73.5t116 44t139.5 14.5h85q12 30 19 60.5t6 50.5q3 2 9.5 5t13.5 6.5t13 8t9 10.5q6 -3 7 -8q2 -10 12.5 -26t28.5 -46q11 -17 11 -31q1 -21 -28 -41t-80 -23l-230 -649 q-6 -18 -6 -34q1 -14 6 -21t23 -7z" />
<glyph unicode="&#xb7;" horiz-adv-x="330" d="M230 308q2 -8 -1.5 -20.5t-11 -24.5t-17.5 -20.5t-22 -8.5q-10 0 -19 6t-13 18q-7 30 8.5 52.5t40.5 22.5q8 0 20 -5t15 -20z" />
<glyph unicode="&#xb8;" horiz-adv-x="345" d="M204 -5q-5 -2 -13 -6.5t-15.5 -10t-13 -12t-5.5 -13.5q0 -9 9.5 -13.5t21 -9.5t21 -12t9.5 -19q0 -14 -13 -29.5t-30.5 -30t-35.5 -26t-27 -16.5q-6 -3 -10 -3q-3 0 -12.5 6.5t-11.5 11.5q-1 2 -0.5 4t5.5 3q8 1 22.5 8t28.5 16t25 20t11 21q-3 10 -11.5 14.5t-17 8.5 t-15.5 9t-7 17q0 11 8 23.5t19 24t23 20t19 11.5q2 0 6 -2t7.5 -5t4.5 -6t-2 -4z" />
<glyph unicode="&#xb9;" horiz-adv-x="286" d="M342 602q13 0 21 -11q11 -12 1 -33q-7 -14 -14 -26.5t-13 -26.5t-12 -31t-13 -39q-6 -23 -7 -33.5t3 -22.5q6 -19 -11 -31q-10 -8 -20 -11.5t-17 -3.5t-11.5 7.5t-2.5 24.5q2 11 8 33.5t14.5 47.5t16.5 48t13 34q6 12 -9 6q-21 -9 -32 -13.5t-26 -9.5q-11 -2 -23 -2.5 t-20 1.5q-9 2 -10 7t9 10t26.5 12t35.5 15.5t37 17.5t31 18q8 5 13 8.5t11 3.5h1z" />
<glyph unicode="&#xba;" horiz-adv-x="356" d="M240 583q14 0 23.5 -8.5t16.5 -20.5t10.5 -25.5t3.5 -24.5q2 -42 -6.5 -79.5t-26.5 -65.5t-44 -44t-61 -16q-31 0 -47 23t-18 55q-1 40 10.5 77.5t32 66t48 45.5t58.5 17zM221 525q-15 0 -30 -8.5t-27 -24t-19 -38t-6 -50.5q1 -19 10 -37.5t32 -18.5q12 0 24.5 7.5 t22.5 22.5t16 36.5t5 49.5q0 5 -1 15.5t-4 20.5t-8.5 17.5t-14.5 7.5z" />
<glyph unicode="&#xbb;" horiz-adv-x="540" d="M460 174q4 -7 -1 -9q-19 -16 -42 -38t-46 -45.5t-44.5 -47.5t-38.5 -45q-4 -6 -11 -6q-4 0 -10.5 7t-8.5 11q0 5 4 12q37 39 71.5 76t72.5 71q1 2 1 6q0 3 -5 8q-7 9 -25 32t-37 48t-33.5 45.5t-15.5 23.5q-1 6 6 10q5 3 14 7t14 4q10 0 17 -12q23 -36 52 -73.5t57 -67.5 q9 -9 9 -17zM335 171q0 -8 -5 -13q-21 -19 -44.5 -42.5t-46 -48.5t-43.5 -50.5t-38 -49.5q-2 -3 -7.5 -7.5t-13.5 -4.5q-3 0 -12.5 7t-12.5 10q-1 4 8 12q35 34 77 77.5t76 83.5q11 9 8 18q0 6 -8 14q-19 20 -40.5 44t-40 46.5t-31 39t-14.5 19.5q-1 6 6 9q8 1 19 4t16 3 q7 0 13 -10q29 -35 61 -76t66 -76q3 -6 7 -9z" />
<glyph unicode="&#xbc;" horiz-adv-x="717" d="M310 472q12 0 20 -11q12 -12 2 -33q-7 -14 -14 -26.5t-13 -26.5t-12 -31t-13 -39q-7 -23 -8 -33.5t4 -22.5q5 -19 -11 -31q-11 -8 -21 -11.5t-17 -3.5t-11.5 7.5t-2.5 24.5q2 11 8.5 33.5t14.5 47.5t16.5 48t13.5 34q4 12 -10 6q-20 -9 -31 -13.5t-27 -9.5 q-11 -2 -23 -2.5t-20 1.5q-9 2 -9.5 7t9.5 10q9 5 25.5 12t35.5 15.5t37 17.5t31 18q8 5 13.5 8.5t11.5 3.5h1zM600 464q8 0 16.5 -11.5t8.5 -22.5q1 -12 -9 -16q-5 -2 -13.5 -7.5t-22.5 -17.5q-7 -6 -33 -33.5t-64 -67t-83 -86.5t-89 -94q-16 -16 -20 -25.5t-6 -20.5 q-1 -5 -6 -13.5t-12 -18t-14.5 -18.5t-13.5 -15q-10 -10 -17 -13.5t-14 -3.5q-6 0 -10 3t-10 14t-4.5 18.5t9.5 16.5q3 3 18.5 20t39 42t52 56.5t57.5 63t56 61t47 51.5q31 36 50.5 58.5t32 36.5t19.5 21t13 12q11 10 21 10h1zM557 -50q-8 0 -11 12t-1 29q4 18 6.5 31 t5.5 24q5 13 -6 13q-9 0 -21.5 1t-24.5 2.5t-22 2.5t-15 2q-18 3 -26.5 13t-12.5 22q-4 16 25 30q16 9 34.5 20t35.5 22t30 19t17 11q14 9 20.5 14t8.5 16q2 9 7 12t12 -1q13 -13 29 -1q11 6 17 -6q9 -17 -5 -28q-7 -6 -11 -10.5t-6.5 -9t-4.5 -11t-6 -17.5q-2 -9 -5 -21.5 t-7 -31.5q-2 -8 -0.5 -10.5t9.5 -2.5q20 0 32.5 2t17.5 8q7 11 23 -5q17 -14 9 -26q-6 -9 -27.5 -12.5t-67.5 -3.5q-6 0 -8 -2.5t-4 -7.5q-2 -3 -3.5 -8t-2.5 -10q-2 -9 1.5 -14t8.5 -11q5 -5 2.5 -11t-11.5 -17q-22 -28 -41 -28h-1zM555 96q9 0 12.5 2.5t6.5 11.5 q7 21 10.5 33t5.5 22q2 11 -2 9.5t-15 -7.5q-15 -7 -28 -15t-42 -28q-13 -9 -13.5 -14t9.5 -8q8 -2 24.5 -4t30.5 -2h1z" />
<glyph unicode="&#xbd;" horiz-adv-x="717" d="M598 474q5 0 18.5 -7t14.5 -16q0 -5 -3 -9.5t-9 -11.5q-3 -2 -17 -16.5t-35.5 -35t-47.5 -46.5t-52.5 -51.5t-51.5 -48.5t-43 -40q-56 -50 -84.5 -77t-37.5 -38q-10 -11 -13.5 -18t-5.5 -15q-1 -16 -4 -26q-3 -6 -9 -9.5t-12 -3.5q-5 0 -13.5 -9t-14.5 -14q-10 -6 -23 2 q-5 5 -9 10t-6 12q0 10 5.5 20t13.5 18q8 11 30.5 32.5t43.5 41.5q7 6 23 21t39 36t50.5 47t56.5 55q29 28 57.5 58t52.5 56t40.5 44.5t20.5 22.5q8 9 12.5 12.5t11.5 3.5h1zM302 472q12 0 20 -11q12 -12 2 -33q-7 -14 -14 -26.5t-13 -26.5t-12 -31t-13 -39q-7 -23 -8 -33 t4 -23q2 -8 -0.5 -16.5t-10.5 -13.5q-11 -8 -21 -12t-17 -4t-11.5 7.5t-2.5 24.5q2 11 8.5 33.5t14.5 47.5t16.5 48t13.5 34q4 12 -10 6q-20 -9 -31 -13.5t-27 -9.5q-11 -2 -23 -2.5t-20 1.5q-9 2 -9.5 7t9.5 10q9 5 25.5 12.5t35.5 16t37 17.5t31 17q8 5 13.5 8.5t11.5 3.5 h1zM626 37q21 0 30 -5.5t8 -13.5q0 -4 -5 -9.5t-11 -10t-12.5 -8.5t-10.5 -5q-6 -2 -12 -1.5t-10 4.5q-3 3 -7.5 4.5t-15.5 2.5q-23 2 -56 3.5t-87 -3.5q-13 0 -19 8q-2 4 0.5 9.5t12.5 14.5q6 6 13 11t16 10q5 2 16 10.5t24 20t26 24t23 23.5q20 22 27.5 36.5t7.5 22.5 q0 11 -7.5 19t-18.5 8t-24 -8t-31 -31q-8 -9 -12 -12.5t-10 -3.5q-12 0 -16 14q-2 5 -1 13t6 15q8 11 13.5 16t11.5 8q14 8 27 16t21 13q6 4 13 6t18 2t22.5 -6.5t21 -16t16 -22t6.5 -24.5q0 -16 -11 -34t-26.5 -35.5t-33 -33t-29.5 -26.5q-8 -8 -10 -13t3 -7q13 -5 52 -5 h41z" />
<glyph unicode="&#xbe;" horiz-adv-x="717" d="M622 470q7 0 11.5 -8t9.5 -14q5 -7 7 -16t-3 -17t-13 -11.5t-16 -1.5q-7 4 -14 0t-18 -12q-7 -5 -16.5 -14t-24.5 -24t-37 -37.5t-54 -55.5q-61 -66 -94 -101.5t-48 -53.5q-12 -13 -12.5 -23t3.5 -15q7 -7 4.5 -13t-7.5 -11q-8 -7 -19 -17t-25 -22q-19 -17 -31 -23.5 t-18 -6.5q-11 0 -11 18q-1 9 8 26.5t23 33.5q7 9 13 17.5t13.5 18t16.5 22t22 29.5q26 33 92 103.5t180 190.5q18 20 33 29t24 9h1zM265 465q15 0 26 -5t18 -12.5t11 -16t4 -14.5q1 -20 -17 -33.5t-39 -24.5q-12 -7 -5 -11q24 -14 37.5 -30t14.5 -34q1 -21 -11.5 -37 t-31 -27.5t-41 -17t-41.5 -5.5q-20 0 -41.5 7t-32.5 15q-8 8 -12 13.5t-4 14.5q1 5 3 10t7 10q12 10 25 -4q10 -8 29.5 -15.5t39.5 -7.5q26 0 42 12.5t16 26.5q-1 14 -17.5 27t-39.5 14q-7 1 -13.5 2.5t-14.5 7.5q-15 11 5 23q9 6 18 10t22 10q22 9 34 17.5t11 19.5 q0 7 -8 13.5t-22 6.5q-6 0 -13 -3t-11 -6q-8 -6 -14.5 -9t-16.5 -3t-17.5 8t-8.5 15q0 6 8 15t18 15q12 9 25 1q3 -2 10 -3t15 1t14.5 3t17.5 1h1zM554 -50q-8 0 -11.5 11.5t-0.5 29.5t6 31t6 24q4 13 -7 13q-9 0 -21.5 1t-24.5 2.5t-22 2.5t-14 2q-18 3 -27 13t-13 22 q-4 16 25 30q16 9 34.5 20t35.5 22t30 19t17 11q14 9 21 14t8 16q2 9 7.5 12t11.5 -1q13 -13 29 -1q11 6 17 -6q10 -16 -5 -28q-7 -6 -11.5 -10.5t-6.5 -9t-4 -11t-5 -17.5q-2 -9 -5 -21.5t-8 -31.5q-2 -8 0 -10.5t10 -2.5q17 0 31 2t18 8q3 5 8 4.5t16 -9.5q17 -13 6 -27 q-6 -9 -26 -12t-67 -3q-10 0 -13 -10q-1 -3 -2.5 -8.5t-2.5 -10.5q-2 -8 1.5 -13t8.5 -11q5 -5 2.5 -11t-11.5 -17q-22 -28 -40 -28h-1zM552 96q8 0 12 2.5t6 11.5q7 21 10.5 33t6.5 22q2 11 -2.5 10t-12.5 -6q-8 -4 -15 -8t-14.5 -9t-17.5 -11.5t-25 -16.5q-14 -9 -14 -14 t10 -8q8 -2 24 -4t31 -2h1z" />
<glyph unicode="&#xbf;" horiz-adv-x="304" d="M239 -40q0 -6 -11.5 -13t-27.5 -13t-32 -9.5t-24 -3.5q-13 0 -29.5 4.5t-30.5 12.5t-24 20t-10 27q-1 20 16 40t37 35q17 11 40.5 22.5t45 24t36.5 26t15 28.5q0 10 -4.5 18.5t-10.5 14.5t-12 9t-10 3q-12 0 -18 -7t-11 -7q-10 0 -22.5 7t-12.5 15q0 5 8 10t19 9.5 t23 7.5t20 3q14 0 26.5 -7t22 -18.5t15.5 -26t7 -30.5q1 -21 -12.5 -37.5t-33.5 -30.5t-43.5 -26t-44 -24.5t-33.5 -25.5t-13 -29q0 -12 14.5 -20t23.5 -8q11 0 19 5t14.5 11t11 11t7.5 5q6 0 14.5 -2.5t16 -7t13 -10.5t5.5 -13zM251 395q11 0 24.5 -9t14.5 -34 q0 -17 -11.5 -28t-25.5 -11q-17 0 -31.5 12t-15.5 32q0 9 4 16t11 12t14.5 7.5t14.5 2.5h1z" />
<glyph unicode="&#xc2;" horiz-adv-x="810" d="M662 668q3 -19 -1 -23q-2 -3 -11.5 -10.5t-14.5 -7.5q-3 0 -5 11q-7 30 -15 58t-19 57q-2 7 -5.5 8.5t-8.5 -4.5q-19 -25 -36.5 -49.5t-34.5 -47.5q-10 -16 -14 -16q-1 0 -5.5 0.5l-9 1t-8.5 2t-5 3.5q-2 8 7 20q13 17 28 35.5t30.5 38t31.5 37.5t31 33q4 4 10 3t8 -5 q14 -42 28 -81t19 -64zM294 289q5 -12 29.5 -15.5t88.5 -3.5q43 0 70 -3.5t39 -6.5q15 -4 17 0t3 13q1 18 0.5 43t-2 52t-4 54.5t-4 49.5t-3 37.5t-1.5 18.5q0 2 -2 7t-11 -3q-3 -3 -17 -16.5t-34 -34t-43.5 -46t-47 -51.5t-44 -50.5t-34.5 -44.5zM-5 -41q-6 25 5.5 44.5 t35.5 46.5q204 244 328 378.5t162 164.5q9 6 17.5 6.5t21.5 -1.5q12 -2 15 -4t-1 -7q-7 -10 -7.5 -24.5t0.5 -31.5q0 -11 1.5 -44.5t4 -79t5.5 -96.5t6 -96t5.5 -79t4.5 -45q8 -33 21 -40.5t24 -7.5q7 0 17.5 4.5t18.5 6.5q4 2 8.5 -2t7.5 -9t2.5 -10t-5.5 -7q-4 -1 -16 -6 t-27 -10t-31 -10t-29 -7q-21 0 -34 28q1 8 -1 31.5t-5 51t-5.5 52t-4.5 32.5q-4 14 -13 26.5t-36 20.5q-9 3 -40 3t-67 1t-69.5 4t-48.5 11q-81 -94 -131.5 -166t-73.5 -123q-6 -18 -7 -30t4 -35q-2 -5 -6 -7.5t-6 -0.5z" />
<glyph unicode="&#xc4;" horiz-adv-x="810" d="M664 749q10 0 17 -6t8 -21q0 -17 -9.5 -32t-27.5 -15q-12 0 -19 8.5t-8 19.5q-1 18 9.5 32t29.5 14zM534 753q12 0 18.5 -8t6.5 -20q1 -17 -8.5 -31.5t-27.5 -14.5q-11 0 -18 8.5t-8 19.5q-1 18 9 32t28 14zM294 289q5 -12 29.5 -15.5t88.5 -3.5q43 0 70 -3.5t39 -6.5 q15 -4 17 0t3 13q1 18 0.5 43t-2 52t-4 54.5t-4 49.5t-3 37.5t-1.5 18.5q0 2 -2 7t-11 -3q-3 -3 -17 -16.5t-34 -34t-43.5 -46t-47 -51.5t-44 -50.5t-34.5 -44.5zM-5 -41q-6 25 5.5 44.5t35.5 46.5q204 244 328 378.5t162 164.5q9 6 17.5 6.5t21.5 -1.5q12 -2 15 -4t-1 -7 q-7 -10 -7.5 -24.5t0.5 -31.5q0 -11 1.5 -44.5t4 -79t5.5 -96.5t6 -96t5.5 -79t4.5 -45q8 -33 21 -40.5t24 -7.5q7 0 17.5 4.5t18.5 6.5q4 2 8.5 -2t7.5 -9t2.5 -10t-5.5 -7q-4 -1 -16 -6t-27 -10t-31 -10t-29 -7q-21 0 -34 28q1 8 -1 31.5t-5 51t-5.5 52t-4.5 32.5 q-4 14 -13 26.5t-36 20.5q-9 3 -40 3t-67 1t-69.5 4t-48.5 11q-81 -94 -131.5 -166t-73.5 -123q-6 -18 -7 -30t4 -35q-2 -5 -6 -7.5t-6 -0.5z" />
<glyph unicode="&#xc5;" horiz-adv-x="810" d="M591 797q42 0 65 -22t25 -61q2 -38 -22 -61t-66 -23q-35 0 -60.5 22t-27.5 60q0 14 4 29t14 27.5t26.5 20.5t41.5 8zM591 772q-32 0 -46 -16t-13 -41q3 -60 65 -60q30 0 44 17.5t13 40.5q-1 28 -16 43.5t-47 15.5zM294 289q5 -12 29.5 -15.5t88.5 -3.5q43 0 70 -3.5 t39 -6.5q15 -4 17 0t3 13q1 18 0.5 43t-2 52t-4 54.5t-4 49.5t-3 37.5t-1.5 18.5q0 2 -2 7t-11 -3q-3 -3 -17 -16.5t-34 -34t-43.5 -46t-47 -51.5t-44 -50.5t-34.5 -44.5zM-5 -41q-6 25 5.5 44.5t35.5 46.5q204 244 328 378.5t162 164.5q9 6 17.5 6.5t21.5 -1.5q12 -2 15 -4 t-1 -7q-7 -10 -7.5 -24.5t0.5 -31.5q0 -11 1.5 -44.5t4 -79t5.5 -96.5t6 -96t5.5 -79t4.5 -45q8 -33 21 -40.5t24 -7.5q7 0 17.5 4.5t18.5 6.5q4 2 8.5 -2t7.5 -9t2.5 -10t-5.5 -7q-4 -1 -16 -6t-27 -10t-31 -10t-29 -7q-21 0 -34 28q1 8 -1 31.5t-5 51t-5.5 52t-4.5 32.5 q-4 14 -13 26.5t-36 20.5q-9 3 -40 3t-67 1t-69.5 4t-48.5 11q-81 -94 -131.5 -166t-73.5 -123q-6 -18 -7 -30t4 -35q-2 -5 -6 -7.5t-6 -0.5z" />
</font>
</defs>
</svg>
